<?xml version="1.0" encoding="utf-8"?>
<svg version="1.1" id="Layer_1" x="0px" y="0px" viewBox="0 0 1080 1080" style="enable-background:new 0 0 1080 1080;" xmlns="http://www.w3.org/2000/svg">
  <style type="text/css">
	.st0{fill:#FFFFFF;}
	.st1{fill:#005452;}
	.st2{fill:#1E1E1E;}
	.st3{fill:#D69F50;}
	.st4{opacity:0.67;fill:url(#SVGID_1_);enable-background:new    ;}
	.st5{opacity:0.67;fill:url(#SVGID_2_);enable-background:new    ;}
</style>
  <path class="st3" d="M 933.108 292.913 L 887.822 220.812 L 814.528 266.694 L 814.528 266.694 L 476.067 478.828 L 256.187 616.476 C 239.503 562.848 237.714 505.047 250.228 449.033 C 269.892 364.418 321.139 291.721 395.027 245.838 C 440.91 217.236 492.156 200.552 545.19 196.976 C 559.49 195.784 591.669 266.099 588.69 266.099 L 599.415 26.554 C 495.135 20 393.24 45.622 304.453 101.635 C 191.832 171.949 113.771 282.187 83.978 411.494 C 54.183 540.799 76.827 674.277 147.141 786.303 L 192.428 858.405 L 265.722 812.521 L 265.722 812.521 L 584.518 612.901 L 824.062 462.739 C 865.774 599.792 812.74 754.125 685.222 833.377 C 640.531 861.384 591.072 878.068 539.827 882.24 C 523.738 883.432 489.773 820.269 491.561 820.269 L 480.834 1053.257 C 491.561 1053.854 502.286 1054.449 513.013 1054.449 C 605.969 1054.449 696.544 1028.23 776.391 978.177 C 1008.19 832.186 1078.504 524.71 933.108 292.913 Z" style=""/>
  <linearGradient id="SVGID_1_" gradientUnits="userSpaceOnUse" x1="279.4086" y1="780.3384" x2="381.4314" y2="767.8116" gradientTransform="matrix(5.958815, 0, 0, -5.958815, -1428.964691, 5151.732674)">
    <stop offset="0.4" style="stop-color:#D69F50;stop-opacity:0"/>
    <stop offset="0.4579" style="stop-color:#CD994D;stop-opacity:9.660000e-02"/>
    <stop offset="0.5505" style="stop-color:#B68744;stop-opacity:0.2508"/>
    <stop offset="0.6659" style="stop-color:#906B36;stop-opacity:0.4432"/>
    <stop offset="0.7999" style="stop-color:#5C4422;stop-opacity:0.6665"/>
    <stop offset="0.9477" style="stop-color:#191309;stop-opacity:0.9129"/>
    <stop offset="1" style="stop-color:#000000"/>
  </linearGradient>
  <polygon class="st4" points="887.822 220.215 824.062 462.143 192.428 857.808 255.592 616.476" style=""/>
  <linearGradient id="SVGID_2_" gradientUnits="userSpaceOnUse" x1="279.4086" y1="780.3384" x2="381.4314" y2="767.8116" gradientTransform="matrix(5.958815, 0, 0, -5.958815, -1428.964691, 5151.732674)">
    <stop offset="0" style="stop-color:#000000"/>
    <stop offset="0.0523" style="stop-color:#191309;stop-opacity:0.9129"/>
    <stop offset="0.2001" style="stop-color:#5C4422;stop-opacity:0.6665"/>
    <stop offset="0.3341" style="stop-color:#906B36;stop-opacity:0.4432"/>
    <stop offset="0.4495" style="stop-color:#B68744;stop-opacity:0.2508"/>
    <stop offset="0.5421" style="stop-color:#CD994D;stop-opacity:9.660000e-02"/>
    <stop offset="0.6" style="stop-color:#D69F50;stop-opacity:0"/>
  </linearGradient>
  <polygon class="st5" points="887.822 220.215 824.062 462.143 192.428 857.808 255.592 616.476" style=""/>
</svg>