<svg xmlns="http://www.w3.org/2000/svg" xmlns:xlink="http://www.w3.org/1999/xlink" width="500" zoomAndPan="magnify" viewBox="0 0 375 374.999991" height="500" preserveAspectRatio="xMidYMid meet" version="1.0"><defs><clipPath id="id1"><path d="M 220 77.371094 L 262 77.371094 L 262 100 L 220 100 Z M 220 77.371094 " clip-rule="nonzero"/></clipPath><clipPath id="id2"><path d="M 53.808594 252 L 250 252 L 250 297.871094 L 53.808594 297.871094 Z M 53.808594 252 " clip-rule="nonzero"/></clipPath><clipPath id="id3"><path d="M 268 149 L 321.558594 149 L 321.558594 187 L 268 187 Z M 268 149 " clip-rule="nonzero"/></clipPath></defs><rect x="-37.5" width="450" fill="#ffffff" y="-37.499999" height="449.999989" fill-opacity="1"/><rect x="-37.5" width="450" fill="#ffffff" y="-37.499999" height="449.999989" fill-opacity="1"/><rect x="-37.5" width="450" fill="#ffffff" y="-37.499999" height="449.999989" fill-opacity="1"/><path fill="#c3d9e8" d="M 265.136719 0 L 375 109.863281 L 375 265.136719 L 265.136719 375 L 109.863281 375 L 0 265.136719 L 0 109.863281 L 109.863281 0 L 265.136719 0 " fill-opacity="1" fill-rule="nonzero"/><path fill="#2b5a7b" d="M 113.757812 125.464844 L 113.757812 130.332031 C 112.515625 130.542969 111.308594 130.863281 110.15625 131.289062 L 107.726562 127.082031 L 101.78125 130.511719 L 104.214844 134.722656 C 103.257812 135.519531 102.375 136.402344 101.578125 137.359375 L 97.363281 134.925781 L 93.933594 140.867188 L 98.144531 143.296875 C 97.714844 144.449219 97.398438 145.65625 97.183594 146.898438 L 92.316406 146.898438 L 92.316406 150.832031 L 79.992188 150.832031 L 79.992188 181.132812 L 72.699219 181.132812 L 72.699219 186.457031 L 192.949219 186.457031 L 192.949219 181.132812 L 187.683594 181.132812 L 187.683594 150.832031 L 174.960938 150.832031 L 174.960938 148.230469 L 171.96875 148.230469 C 171.839844 147.472656 171.640625 146.738281 171.382812 146.03125 L 173.972656 144.539062 L 171.871094 140.902344 L 169.289062 142.390625 C 168.800781 141.808594 168.261719 141.265625 167.679688 140.78125 L 169.167969 138.199219 L 165.53125 136.097656 L 164.035156 138.6875 C 163.332031 138.429688 162.597656 138.230469 161.839844 138.097656 L 161.839844 135.109375 L 157.640625 135.109375 L 157.640625 138.097656 C 156.878906 138.226562 156.148438 138.425781 155.441406 138.6875 L 153.945312 136.097656 L 150.308594 138.199219 L 151.800781 140.777344 C 151.214844 141.265625 150.671875 141.804688 150.1875 142.390625 L 147.605469 140.902344 L 145.503906 144.535156 L 148.09375 146.03125 C 147.832031 146.738281 147.636719 147.46875 147.507812 148.230469 L 144.515625 148.230469 L 144.515625 150.832031 L 142.054688 150.832031 L 142.054688 146.898438 L 137.1875 146.898438 C 136.976562 145.65625 136.65625 144.453125 136.230469 143.296875 L 140.441406 140.867188 L 137.011719 134.925781 L 132.792969 137.359375 C 132 136.402344 131.117188 135.519531 130.160156 134.722656 L 132.59375 130.511719 L 126.652344 127.082031 L 124.21875 131.289062 C 123.066406 130.863281 121.859375 130.542969 120.617188 130.332031 L 120.617188 125.464844 Z M 124.476562 150.328125 C 124.476562 150.5 124.464844 150.667969 124.453125 150.832031 L 109.921875 150.832031 C 109.910156 150.667969 109.898438 150.5 109.898438 150.328125 C 109.898438 146.304688 113.164062 143.042969 117.1875 143.042969 C 121.210938 143.039062 124.476562 146.304688 124.476562 150.328125 Z M 155.277344 150.328125 C 155.277344 147.867188 157.273438 145.867188 159.738281 145.867188 C 162.203125 145.867188 164.199219 147.867188 164.199219 150.328125 C 164.199219 150.5 164.1875 150.667969 164.167969 150.832031 L 155.308594 150.832031 C 155.289062 150.667969 155.277344 150.5 155.277344 150.328125 Z M 155.277344 150.328125 " fill-opacity="1" fill-rule="nonzero"/><path fill="#2b5a7b" d="M 140.832031 130.042969 L 144.640625 130.042969 L 144.640625 122.363281 L 155.382812 122.363281 L 155.382812 110.839844 L 144.640625 110.839844 L 144.640625 105.378906 L 178.488281 105.378906 L 178.488281 142.847656 L 182.296875 142.847656 L 182.292969 101.574219 L 140.832031 101.574219 L 140.832031 110.839844 L 130.089844 110.839844 L 130.089844 122.363281 L 140.832031 122.363281 Z M 140.832031 130.042969 " fill-opacity="1" fill-rule="nonzero"/><path fill="#2b5a7b" d="M 232.097656 222.171875 C 232.777344 222.863281 233.199219 223.804688 233.199219 224.847656 C 233.199219 225.878906 232.785156 226.808594 232.121094 227.496094 L 232.121094 227.722656 C 232.300781 228.828125 232.398438 229.960938 232.398438 231.121094 C 232.398438 238.535156 228.519531 245.054688 222.683594 248.769531 L 226.171875 248.769531 C 226.34375 248.769531 226.507812 248.78125 226.675781 248.789062 L 226.578125 248.789062 C 228.378906 248.820312 231.199219 249.199219 234.410156 250.8125 C 236.0625 251.640625 237.644531 252.738281 239.132812 254.046875 L 239.132812 189.0625 L 242.660156 189.0625 L 242.660156 257.644531 C 242.660156 257.710938 242.671875 257.777344 242.671875 257.847656 C 243.132812 258.441406 243.578125 259.050781 244.003906 259.695312 C 245.183594 261.5 246.25 263.496094 247.203125 265.683594 C 248.625 266.546875 250.289062 267.050781 252.070312 267.050781 C 257.269531 267.050781 261.480469 262.839844 261.480469 257.644531 L 261.480469 137.5 C 266.484375 137.3125 273.851562 136.707031 282.105469 134.90625 C 292.867188 132.539062 305.207031 128.164062 315.558594 119.625 C 318.148438 117.484375 318.515625 113.644531 316.371094 111.058594 C 314.226562 108.464844 310.390625 108.101562 307.800781 110.25 C 299.632812 117.027344 289.078125 120.929688 279.5 123.011719 C 269.941406 125.105469 261.4375 125.40625 257.589844 125.402344 C 257.3125 125.402344 257.066406 125.402344 256.835938 125.398438 C 256.4375 125.3125 256.023438 125.265625 255.601562 125.265625 L 226.195312 125.265625 C 225.554688 125.265625 224.941406 125.371094 224.367188 125.558594 C 223.261719 125.75 221.90625 126.101562 220.382812 126.769531 C 216.125 128.589844 210.984375 132.917969 207.316406 141.0625 C 203.609375 149.222656 201.074219 161.144531 201.066406 179.222656 C 201.066406 183.011719 201.179688 187.074219 201.421875 191.429688 C 201.601562 194.671875 204.289062 197.179688 207.496094 197.179688 C 207.609375 197.179688 207.722656 197.175781 207.839844 197.167969 C 211.199219 196.980469 213.769531 194.109375 213.582031 190.753906 C 213.347656 186.605469 213.242188 182.765625 213.242188 179.21875 C 213.222656 158.246094 217.007812 147.597656 220.3125 142.585938 L 220.3125 204.359375 C 227.050781 207.566406 231.78125 214.308594 232.097656 222.171875 Z M 240.898438 181.390625 L 233.667969 172.257812 L 237.832031 141.578125 C 238.820312 141.949219 239.859375 142.144531 240.894531 142.140625 L 240.898438 142.140625 C 240.898438 142.140625 240.898438 142.140625 240.902344 142.140625 C 241.9375 142.140625 242.976562 141.949219 243.960938 141.578125 L 248.128906 172.257812 Z M 238.003906 132.3125 L 243.789062 132.3125 L 245.234375 138.019531 L 245.015625 138.367188 C 243.824219 139.359375 242.363281 139.859375 240.894531 139.859375 C 239.429688 139.859375 237.972656 139.363281 236.78125 138.371094 L 236.558594 138.019531 Z M 238.003906 132.3125 " fill-opacity="1" fill-rule="nonzero"/><path fill="#2b5a7b" d="M 223.773438 103.0625 C 223.773438 112.515625 231.441406 120.179688 240.898438 120.179688 C 250.355469 120.179688 258.019531 112.515625 258.019531 103.0625 C 258.019531 102.226562 257.957031 101.410156 257.84375 100.605469 L 223.949219 100.605469 C 223.835938 101.410156 223.773438 102.226562 223.773438 103.0625 Z M 223.773438 103.0625 " fill-opacity="1" fill-rule="nonzero"/><g clip-path="url(#id1)"><path fill="#2b5a7b" d="M 222.988281 94.492188 C 221.71875 94.492188 220.691406 95.523438 220.691406 96.789062 C 220.691406 98.058594 221.71875 99.085938 222.988281 99.085938 L 258.808594 99.085938 C 260.074219 99.085938 261.105469 98.058594 261.105469 96.789062 C 261.105469 95.523438 260.074219 94.492188 258.808594 94.492188 L 258.488281 94.492188 C 258.476562 93.980469 258.441406 93.472656 258.386719 92.972656 C 257.800781 87.757812 254.941406 83.234375 250.820312 80.417969 L 250.820312 81.820312 C 250.820312 82.824219 250.007812 83.636719 249 83.636719 C 247.996094 83.636719 247.183594 82.824219 247.183594 81.820312 L 247.183594 78.515625 C 245.773438 77.976562 244.273438 77.609375 242.714844 77.449219 L 242.714844 81.820312 C 242.714844 82.824219 241.898438 83.636719 240.894531 83.636719 C 239.894531 83.636719 239.078125 82.824219 239.078125 81.820312 L 239.078125 77.449219 C 237.519531 77.609375 236.019531 77.972656 234.609375 78.515625 L 234.609375 81.820312 C 234.609375 82.824219 233.796875 83.636719 232.789062 83.636719 C 231.789062 83.636719 230.972656 82.824219 230.972656 81.820312 L 230.972656 80.417969 C 226.851562 83.234375 223.992188 87.757812 223.40625 92.972656 C 223.351562 93.472656 223.316406 93.980469 223.304688 94.492188 Z M 222.988281 94.492188 " fill-opacity="1" fill-rule="nonzero"/></g><g clip-path="url(#id2)"><path fill="#2b5a7b" d="M 65.984375 297.796875 C 66.570312 283.867188 68.871094 275.570312 71.140625 270.929688 L 71.140625 297.796875 L 112.308594 297.796875 L 112.308594 270.960938 C 112.761719 271.886719 113.214844 272.945312 113.664062 274.183594 C 114.527344 276.582031 115.335938 279.613281 115.992188 283.359375 C 115.351562 287.5625 114.910156 292.351562 114.695312 297.796875 L 129.636719 297.796875 C 129.421875 292.355469 128.980469 287.558594 128.339844 283.355469 C 129.34375 277.671875 130.691406 273.664062 132.027344 270.929688 L 132.027344 297.796875 L 173.195312 297.796875 L 173.195312 270.960938 C 173.648438 271.886719 174.101562 272.945312 174.550781 274.183594 C 174.980469 275.375 175.398438 276.730469 175.789062 278.246094 C 174.648438 283.582031 173.855469 290 173.550781 297.796875 L 190.527344 297.796875 C 190.21875 290.003906 189.4375 283.570312 188.296875 278.234375 C 189.09375 275.148438 189.992188 272.753906 190.886719 270.925781 L 190.886719 297.796875 L 232.054688 297.796875 L 232.054688 270.960938 C 232.503906 271.886719 232.960938 272.945312 233.40625 274.183594 C 235.1875 279.113281 236.726562 286.679688 237.199219 297.796875 L 249.382812 297.796875 C 248.660156 279.371094 245.269531 268.578125 240.828125 261.789062 C 238.328125 257.996094 235.402344 255.5625 232.699219 254.214844 C 230.140625 252.925781 227.890625 252.617188 226.511719 252.59375 C 226.398438 252.585938 226.289062 252.574219 226.171875 252.574219 L 196.769531 252.574219 C 196.652344 252.574219 196.542969 252.585938 196.429688 252.59375 C 195.050781 252.617188 192.796875 252.921875 190.238281 254.214844 C 187.484375 255.578125 184.582031 258.042969 182.039062 261.902344 C 182.015625 261.863281 181.992188 261.824219 181.96875 261.789062 C 179.46875 257.996094 176.542969 255.558594 173.839844 254.214844 C 171.289062 252.925781 169.035156 252.617188 167.660156 252.59375 C 167.542969 252.585938 167.429688 252.574219 167.316406 252.574219 L 137.910156 252.574219 C 137.792969 252.574219 137.679688 252.585938 137.566406 252.59375 C 136.1875 252.617188 133.9375 252.925781 131.378906 254.214844 C 128.25 255.765625 124.933594 258.734375 122.164062 263.5625 C 121.808594 262.945312 121.449219 262.351562 121.082031 261.789062 C 118.582031 257.992188 115.65625 255.558594 112.953125 254.214844 C 110.398438 252.925781 108.148438 252.617188 106.769531 252.59375 C 106.65625 252.585938 106.542969 252.574219 106.429688 252.574219 L 77.023438 252.574219 C 76.910156 252.574219 76.796875 252.585938 76.683594 252.59375 C 75.304688 252.617188 73.054688 252.921875 70.492188 254.214844 C 66.398438 256.242188 61.984375 260.683594 58.898438 268.546875 C 56.238281 275.269531 54.328125 284.558594 53.808594 297.796875 Z M 65.984375 297.796875 " fill-opacity="1" fill-rule="nonzero"/></g><g clip-path="url(#id3)"><path fill="#2b5a7b" d="M 278.191406 149.175781 L 278.191406 181.132812 L 268.296875 181.132812 L 268.296875 186.457031 L 321.574219 186.457031 L 321.574219 181.132812 L 316.246094 181.132812 L 316.246094 149.175781 Z M 278.191406 149.175781 " fill-opacity="1" fill-rule="nonzero"/></g><path fill="#2b5a7b" d="M 108.851562 231.117188 C 108.851562 230.285156 108.789062 229.46875 108.671875 228.664062 L 74.78125 228.664062 C 74.664062 229.46875 74.601562 230.285156 74.601562 231.117188 C 74.601562 240.574219 82.269531 248.238281 91.726562 248.238281 C 101.183594 248.238281 108.851562 240.574219 108.851562 231.117188 Z M 108.851562 231.117188 " fill-opacity="1" fill-rule="nonzero"/><path fill="#2b5a7b" d="M 74.132812 222.550781 L 73.816406 222.550781 C 72.546875 222.550781 71.519531 223.582031 71.519531 224.847656 C 71.519531 226.117188 72.546875 227.144531 73.816406 227.144531 L 109.636719 227.144531 C 110.90625 227.144531 111.933594 226.117188 111.933594 224.847656 C 111.933594 223.582031 110.90625 222.550781 109.636719 222.550781 L 109.320312 222.550781 C 109.074219 213.046875 101.296875 205.414062 91.726562 205.414062 C 82.160156 205.414062 74.378906 213.046875 74.132812 222.550781 Z M 74.132812 222.550781 " fill-opacity="1" fill-rule="nonzero"/><path fill="#2b5a7b" d="M 152.613281 248.238281 C 162.070312 248.238281 169.738281 240.574219 169.738281 231.117188 C 169.738281 230.285156 169.675781 229.46875 169.558594 228.664062 L 135.667969 228.664062 C 135.550781 229.46875 135.488281 230.285156 135.488281 231.117188 C 135.488281 240.574219 143.15625 248.238281 152.613281 248.238281 Z M 152.613281 248.238281 " fill-opacity="1" fill-rule="nonzero"/><path fill="#2b5a7b" d="M 135.019531 222.550781 L 134.703125 222.550781 C 133.433594 222.550781 132.40625 223.582031 132.40625 224.847656 C 132.40625 226.117188 133.433594 227.144531 134.703125 227.144531 L 170.523438 227.144531 C 171.792969 227.144531 172.820312 226.117188 172.820312 224.847656 C 172.820312 223.582031 171.792969 222.550781 170.523438 222.550781 L 170.207031 222.550781 C 169.960938 213.046875 162.183594 205.414062 152.613281 205.414062 C 143.046875 205.414062 135.265625 213.046875 135.019531 222.550781 Z M 135.019531 222.550781 " fill-opacity="1" fill-rule="nonzero"/><path fill="#2b5a7b" d="M 211.46875 248.238281 C 220.929688 248.238281 228.59375 240.574219 228.59375 231.117188 C 228.59375 230.285156 228.53125 229.46875 228.417969 228.664062 L 194.523438 228.664062 C 194.410156 229.46875 194.347656 230.285156 194.347656 231.117188 C 194.347656 240.574219 202.015625 248.238281 211.46875 248.238281 Z M 211.46875 248.238281 " fill-opacity="1" fill-rule="nonzero"/><path fill="#2b5a7b" d="M 193.878906 222.550781 L 193.5625 222.550781 C 192.292969 222.550781 191.265625 223.582031 191.265625 224.847656 C 191.265625 226.117188 192.292969 227.144531 193.5625 227.144531 L 229.382812 227.144531 C 230.648438 227.144531 231.675781 226.117188 231.675781 224.847656 C 231.675781 223.582031 230.648438 222.550781 229.382812 222.550781 L 229.0625 222.550781 C 228.820312 213.046875 221.039062 205.414062 211.46875 205.414062 C 201.902344 205.414062 194.121094 213.046875 193.878906 222.550781 Z M 193.878906 222.550781 " fill-opacity="1" fill-rule="nonzero"/></svg>