<svg xmlns="http://www.w3.org/2000/svg" xmlns:xlink="http://www.w3.org/1999/xlink" width="500" zoomAndPan="magnify" viewBox="0 0 375 374.999991" height="500" preserveAspectRatio="xMidYMid meet" version="1.0"><defs><clipPath id="id1"><path d="M 71.226562 71.226562 L 303.726562 71.226562 L 303.726562 303.726562 L 71.226562 303.726562 Z M 71.226562 71.226562 " clip-rule="nonzero"/></clipPath></defs><rect x="-37.5" width="450" fill="#ffffff" y="-37.499999" height="449.999989" fill-opacity="1"/><rect x="-37.5" width="450" fill="#ffffff" y="-37.499999" height="449.999989" fill-opacity="1"/><rect x="-37.5" width="450" fill="#ffffff" y="-37.499999" height="449.999989" fill-opacity="1"/><path fill="#c3d9e8" d="M 265.136719 0 L 375 109.863281 L 375 265.136719 L 265.136719 375 L 109.863281 375 L 0 265.136719 L 0 109.863281 L 109.863281 0 L 265.136719 0 " fill-opacity="1" fill-rule="nonzero"/><g clip-path="url(#id1)"><path fill="#2b5a7b" d="M 183.945312 129.660156 L 183.945312 124.066406 C 183.945312 94.878906 207.601562 71.226562 236.808594 71.226562 C 238.746094 71.226562 240.316406 72.792969 240.316406 74.753906 C 240.316406 76.695312 238.746094 78.265625 236.808594 78.265625 C 211.5 78.265625 190.984375 98.78125 190.984375 124.066406 L 190.984375 129.660156 L 199.074219 121.570312 C 200.457031 120.207031 202.6875 120.207031 204.070312 121.570312 C 205.433594 122.953125 205.433594 125.179688 204.070312 126.5625 L 189.972656 140.640625 C 188.589844 142.023438 186.359375 142.023438 184.976562 140.640625 L 170.902344 126.5625 C 169.515625 125.179688 169.515625 122.953125 170.902344 121.570312 C 172.261719 120.207031 174.492188 120.207031 175.875 121.570312 Z M 129.660156 190.984375 L 124.066406 190.984375 C 94.878906 190.984375 71.226562 167.351562 71.226562 138.164062 C 71.226562 136.203125 72.792969 134.632812 74.753906 134.632812 C 76.695312 134.632812 78.265625 136.203125 78.265625 138.164062 C 78.265625 163.449219 98.78125 183.945312 124.066406 183.945312 L 129.660156 183.945312 L 121.570312 175.875 C 120.207031 174.492188 120.207031 172.261719 121.570312 170.902344 C 122.953125 169.515625 125.179688 169.515625 126.5625 170.902344 L 140.640625 184.976562 C 142.023438 186.359375 142.023438 188.589844 140.640625 189.972656 L 126.5625 204.070312 C 125.179688 205.433594 122.953125 205.433594 121.570312 204.070312 C 120.207031 202.6875 120.207031 200.457031 121.570312 199.074219 Z M 245.3125 190.984375 L 253.359375 199.074219 C 254.742188 200.457031 254.742188 202.6875 253.359375 204.070312 C 252 205.433594 249.769531 205.433594 248.40625 204.070312 L 234.289062 189.972656 C 232.925781 188.589844 232.925781 186.359375 234.289062 184.976562 L 248.40625 170.902344 C 249.769531 169.515625 252 169.515625 253.359375 170.902344 C 254.742188 172.261719 254.742188 174.492188 253.359375 175.875 L 245.3125 183.945312 L 250.882812 183.945312 C 280.070312 183.945312 303.726562 207.601562 303.726562 236.808594 C 303.726562 238.746094 302.15625 240.316406 300.214844 240.316406 C 298.253906 240.316406 296.664062 238.746094 296.664062 236.808594 C 296.664062 211.5 276.167969 190.984375 250.882812 190.984375 Z M 183.945312 245.3125 L 175.875 253.382812 C 174.492188 254.742188 172.261719 254.742188 170.902344 253.382812 C 169.515625 252 169.515625 249.769531 170.902344 248.386719 L 184.976562 234.289062 C 186.359375 232.925781 188.589844 232.925781 189.972656 234.289062 L 204.070312 248.386719 C 205.433594 249.769531 205.433594 252 204.070312 253.382812 C 202.6875 254.742188 200.457031 254.742188 199.074219 253.382812 L 190.984375 245.3125 L 190.984375 250.882812 C 190.984375 280.070312 167.351562 303.726562 138.164062 303.726562 C 136.203125 303.726562 134.632812 302.15625 134.632812 300.195312 C 134.632812 298.253906 136.203125 296.6875 138.164062 296.6875 C 163.449219 296.6875 183.945312 276.191406 183.945312 250.882812 Z M 166.339844 166.339844 L 166.339844 208.613281 L 208.613281 208.613281 L 208.613281 166.339844 Z M 162.808594 159.300781 L 212.121094 159.300781 C 214.082031 159.300781 215.671875 160.867188 215.671875 162.808594 L 215.671875 212.121094 C 215.671875 214.082031 214.082031 215.671875 212.121094 215.671875 L 162.808594 215.671875 C 160.867188 215.671875 159.300781 214.082031 159.300781 212.121094 L 159.300781 162.808594 C 159.300781 160.867188 160.867188 159.300781 162.808594 159.300781 " fill-opacity="1" fill-rule="nonzero"/></g></svg>