<svg xmlns="http://www.w3.org/2000/svg" xmlns:xlink="http://www.w3.org/1999/xlink" width="500" zoomAndPan="magnify" viewBox="0 0 375 374.999991" height="500" preserveAspectRatio="xMidYMid meet" version="1.0"><defs><clipPath id="id1"><path d="M 80.042969 313 L 119 313 L 119 327.761719 L 80.042969 327.761719 Z M 80.042969 313 " clip-rule="nonzero"/></clipPath><clipPath id="id2"><path d="M 120 313 L 139 313 L 139 327.761719 L 120 327.761719 Z M 120 313 " clip-rule="nonzero"/></clipPath><clipPath id="id3"><path d="M 80.042969 184 L 124 184 L 124 309 L 80.042969 309 Z M 80.042969 184 " clip-rule="nonzero"/></clipPath><clipPath id="id4"><path d="M 222.691406 151.214844 L 295.183594 151.214844 L 295.183594 291.597656 L 222.691406 291.597656 Z M 222.691406 151.214844 " clip-rule="nonzero"/></clipPath><clipPath id="id5"><path d="M 191 156 L 240 156 L 240 327.761719 L 191 327.761719 Z M 191 156 " clip-rule="nonzero"/></clipPath></defs><rect x="-37.5" width="450" fill="#ffffff" y="-37.499999" height="449.999989" fill-opacity="1"/><rect x="-37.5" width="450" fill="#ffffff" y="-37.499999" height="449.999989" fill-opacity="1"/><rect x="-37.5" width="450" fill="#ffffff" y="-37.499999" height="449.999989" fill-opacity="1"/><path fill="#c3d9e8" d="M 265.136719 0 L 375 109.863281 L 375 265.136719 L 265.136719 375 L 109.863281 375 L 0 265.136719 L 0 109.863281 L 109.863281 0 L 265.136719 0 " fill-opacity="1" fill-rule="nonzero"/><path fill="#2b5a7b" d="M 266.191406 102.1875 L 266.191406 97.363281 C 266.191406 96.695312 265.648438 96.15625 264.984375 96.15625 L 260.152344 96.15625 C 259.484375 96.15625 258.941406 96.695312 258.941406 97.363281 L 258.941406 102.1875 C 258.941406 102.851562 259.484375 103.394531 260.152344 103.394531 L 264.984375 103.394531 C 265.648438 103.394531 266.191406 102.851562 266.191406 102.1875 " fill-opacity="1" fill-rule="nonzero"/><path fill="#2b5a7b" d="M 203.386719 140.964844 C 203.488281 146.871094 208.308594 151.644531 214.242188 151.644531 C 220.238281 151.644531 225.117188 146.773438 225.117188 140.789062 L 225.117188 125.105469 L 203.371094 125.105469 L 203.386719 140.964844 " fill-opacity="1" fill-rule="nonzero"/><path fill="#2b5a7b" d="M 193.707031 95.019531 C 193.707031 92.980469 195.359375 91.332031 197.398438 91.332031 L 231.089844 91.332031 C 233.128906 91.332031 234.78125 92.980469 234.78125 95.019531 L 234.78125 102.121094 C 234.78125 104.15625 233.128906 105.808594 231.089844 105.808594 L 197.398438 105.808594 C 195.359375 105.808594 193.707031 104.15625 193.707031 102.121094 Z M 186.460938 117.5625 C 186.460938 117.566406 186.457031 117.570312 186.457031 117.570312 L 186.457031 119.433594 C 186.457031 119.902344 186.839844 120.28125 187.308594 120.28125 L 239.902344 120.28125 C 241.078125 120.28125 242.027344 119.332031 242.027344 118.160156 L 242.027344 81.390625 C 242.027344 80.21875 241.078125 79.269531 239.902344 79.269531 L 188.582031 79.269531 C 187.410156 79.269531 186.457031 80.21875 186.457031 81.390625 L 186.457031 116.59375 C 186.523438 116.902344 186.527344 117.230469 186.460938 117.5625 " fill-opacity="1" fill-rule="nonzero"/><path fill="#2b5a7b" d="M 229.949219 96.15625 L 198.539062 96.15625 L 198.539062 100.980469 L 229.949219 100.980469 L 229.949219 96.15625 " fill-opacity="1" fill-rule="nonzero"/><path fill="#2b5a7b" d="M 254.109375 106.695312 L 254.109375 92.855469 C 254.109375 92.015625 253.425781 91.332031 252.582031 91.332031 L 248.390625 91.332031 C 247.546875 91.332031 246.863281 92.015625 246.863281 92.855469 L 246.863281 106.695312 C 246.863281 107.535156 247.546875 108.21875 248.390625 108.21875 L 252.582031 108.21875 C 253.425781 108.21875 254.109375 107.535156 254.109375 106.695312 " fill-opacity="1" fill-rule="nonzero"/><path fill="#2b5a7b" d="M 154.171875 61.789062 C 155.066406 61.503906 155.492188 60.441406 154.976562 59.660156 C 149.238281 51.015625 137.015625 47.261719 125.128906 51.078125 C 113.292969 54.882812 105.574219 64.984375 105.890625 75.296875 C 105.921875 76.285156 106.855469 76.996094 107.796875 76.691406 L 154.171875 61.789062 " fill-opacity="1" fill-rule="nonzero"/><path fill="#2b5a7b" d="M 117.949219 96.027344 C 118.269531 93.722656 118.449219 91.339844 118.621094 89.035156 C 118.671875 88.367188 118.722656 87.734375 118.773438 87.09375 L 112.8125 89.007812 C 112.105469 89.234375 111.761719 90.058594 112.121094 90.703125 C 113.378906 92.953125 114.675781 94.550781 115.660156 95.410156 C 116.785156 96.394531 117.445312 96.679688 117.726562 96.765625 C 117.816406 96.585938 117.917969 96.289062 117.949219 96.027344 " fill-opacity="1" fill-rule="nonzero"/><path fill="#2b5a7b" d="M 103.640625 83.757812 L 104.488281 86.121094 C 104.601562 86.429688 104.9375 86.597656 105.25 86.496094 L 161.929688 68.15625 C 162.257812 68.050781 162.433594 67.695312 162.316406 67.371094 L 161.507812 65.117188 C 161.398438 64.8125 161.0625 64.644531 160.746094 64.746094 L 104.027344 82.972656 C 103.699219 83.078125 103.523438 83.433594 103.640625 83.757812 " fill-opacity="1" fill-rule="nonzero"/><path fill="#2b5a7b" d="M 123.441406 89.390625 C 123.261719 91.773438 123.078125 94.230469 122.742188 96.664062 C 122.703125 96.957031 122.601562 97.5 122.386719 98.113281 C 125.816406 100.128906 129.648438 101.210938 133.867188 101.210938 C 146.53125 101.210938 156.835938 90.921875 156.835938 78.277344 C 156.835938 77.15625 156.734375 76.046875 156.574219 74.945312 L 124.863281 85.136719 C 124.203125 85.347656 123.730469 85.917969 123.667969 86.609375 C 123.585938 87.5 123.511719 88.425781 123.441406 89.390625 " fill-opacity="1" fill-rule="nonzero"/><path fill="#2b5a7b" d="M 113.285156 147.222656 C 114.230469 146.28125 115.757812 146.285156 116.703125 147.230469 L 121.1875 151.722656 C 122.421875 147.46875 125.574219 141.441406 133.550781 137.292969 L 125.644531 129.207031 C 124.710938 128.25 124.730469 126.722656 125.6875 125.792969 C 126.640625 124.863281 128.171875 124.882812 129.105469 125.835938 L 139.269531 136.242188 L 141 130.332031 C 141.039062 130.199219 141.128906 130.097656 141.1875 129.976562 C 141.257812 129.832031 141.3125 129.683594 141.40625 129.558594 C 141.503906 129.433594 141.621094 129.34375 141.738281 129.242188 C 141.855469 129.136719 141.960938 129.027344 142.09375 128.949219 C 142.226562 128.871094 142.371094 128.832031 142.515625 128.78125 C 142.664062 128.726562 142.800781 128.664062 142.960938 128.640625 C 143.117188 128.613281 143.273438 128.636719 143.4375 128.644531 C 143.570312 128.652344 143.699219 128.621094 143.832031 128.652344 L 148.480469 129.660156 C 147.609375 121.640625 150 116.195312 152.140625 113.070312 L 124.882812 107.546875 C 114.046875 105.824219 103.550781 112.527344 100.554688 123.164062 L 85.242188 177.457031 C 88.601562 180.4375 101.042969 189.511719 124.207031 186.105469 L 130.4375 167.820312 L 113.28125 150.636719 C 112.339844 149.691406 112.339844 148.164062 113.285156 147.222656 " fill-opacity="1" fill-rule="nonzero"/><path fill="#2b5a7b" d="M 181.695312 158.882812 L 155.664062 158.882812 C 155.011719 158.882812 154.390625 158.621094 153.933594 158.15625 L 138.902344 142.773438 C 138.894531 142.765625 138.890625 142.757812 138.882812 142.753906 L 137.113281 140.941406 C 127.167969 145.472656 125.53125 153.238281 125.273438 155.8125 L 134.761719 165.320312 C 134.816406 165.363281 134.855469 165.410156 134.902344 165.460938 L 142.28125 172.847656 C 145.664062 176.238281 150.355469 178.183594 155.148438 178.183594 L 181.695312 178.183594 C 186.984375 178.183594 191.289062 173.886719 191.289062 168.601562 C 191.289062 163.179688 186.984375 158.882812 181.695312 158.882812 " fill-opacity="1" fill-rule="nonzero"/><path fill="#2b5a7b" d="M 157.441406 114.144531 C 155.890625 115.753906 151.90625 120.988281 153.507812 130.746094 L 193.507812 139.410156 C 195.199219 139.734375 196.949219 139.515625 198.539062 138.820312 L 198.539062 125.105469 L 187.308594 125.105469 C 184.175781 125.105469 181.625 122.5625 181.625 119.433594 L 181.625 119.042969 L 157.441406 114.144531 " fill-opacity="1" fill-rule="nonzero"/><g clip-path="url(#id1)"><path fill="#2b5a7b" d="M 109.078125 313.285156 L 81.519531 313.285156 C 80.761719 313.285156 80.144531 313.902344 80.144531 314.660156 L 80.144531 326.390625 C 80.144531 327.148438 80.761719 327.761719 81.519531 327.761719 L 117.296875 327.761719 C 118.128906 327.761719 118.804688 327.089844 118.804688 326.257812 L 118.804688 323 C 118.804688 317.636719 114.449219 313.285156 109.078125 313.285156 " fill-opacity="1" fill-rule="nonzero"/></g><g clip-path="url(#id2)"><path fill="#2b5a7b" d="M 121.796875 313.285156 C 121.042969 313.285156 120.605469 314.125 121.035156 314.742188 C 122.671875 317.085938 123.636719 319.929688 123.636719 323 L 123.636719 326.828125 C 123.636719 327.34375 124.054688 327.761719 124.574219 327.761719 L 137.199219 327.761719 C 137.714844 327.761719 138.132812 327.34375 138.132812 326.828125 L 138.132812 323.378906 C 138.132812 317.804688 133.609375 313.285156 128.027344 313.285156 L 121.796875 313.285156 " fill-opacity="1" fill-rule="nonzero"/></g><g clip-path="url(#id3)"><path fill="#2b5a7b" d="M 82.886719 185.816406 L 82.332031 187.78125 C 80.882812 192.921875 80.144531 198.238281 80.144531 203.578125 L 80.144531 305.996094 C 80.144531 307.355469 81.25 308.460938 82.617188 308.460938 L 109.078125 308.460938 C 109.097656 308.460938 109.117188 308.464844 109.140625 308.464844 L 109.140625 211.957031 C 109.140625 210.625 110.222656 209.546875 111.554688 209.546875 C 112.890625 209.546875 113.972656 210.625 113.972656 211.957031 L 113.972656 305.996094 C 113.972656 307.355469 115.078125 308.460938 116.441406 308.460938 L 121.167969 308.460938 C 122.53125 308.460938 123.636719 307.355469 123.636719 305.996094 L 123.636719 193.839844 C 123.636719 192.398438 122.398438 191.25 120.957031 191.386719 C 118.628906 191.613281 116.398438 191.71875 114.28125 191.71875 C 101.023438 191.71875 91.894531 187.742188 86.542969 184.382812 C 85.152344 183.511719 83.332031 184.238281 82.886719 185.816406 " fill-opacity="1" fill-rule="nonzero"/></g><g clip-path="url(#id4)"><path fill="#2b5a7b" d="M 292.769531 286.746094 L 264.910156 286.746094 C 264.082031 286.746094 263.355469 286.195312 263.136719 285.398438 L 225.957031 151.457031 C 225.925781 151.339844 225.75 151.152344 225.6875 151.257812 C 225.253906 151.992188 224.070312 153.847656 222.707031 154.972656 L 222.71875 161.488281 C 222.71875 161.695312 222.746094 161.902344 222.800781 162.101562 L 256.53125 284.421875 C 256.851562 285.59375 255.96875 286.746094 254.753906 286.746094 L 244.445312 286.746094 C 243.113281 286.746094 242.03125 287.828125 242.03125 289.160156 C 242.03125 290.492188 243.113281 291.574219 244.445312 291.574219 L 292.769531 291.574219 C 294.101562 291.574219 295.183594 290.492188 295.183594 289.160156 C 295.183594 287.828125 294.101562 286.746094 292.769531 286.746094 " fill-opacity="1" fill-rule="nonzero"/></g><g clip-path="url(#id5)"><path fill="#2b5a7b" d="M 237.195312 322.9375 L 219.953125 322.9375 C 218.984375 322.9375 218.203125 322.15625 218.203125 321.191406 L 217.886719 162.019531 C 217.882812 161.871094 217.859375 161.71875 217.882812 161.574219 L 217.875 156.871094 C 217.875 156.4375 217.480469 156.125 217.050781 156.207031 C 216.140625 156.375 215.203125 156.46875 214.242188 156.46875 C 213.289062 156.46875 212.359375 156.375 211.453125 156.207031 C 211.023438 156.128906 210.625 156.441406 210.625 156.878906 L 210.953125 321.1875 C 210.957031 322.152344 210.171875 322.9375 209.203125 322.9375 L 193.707031 322.9375 C 192.371094 322.9375 191.289062 324.015625 191.289062 325.347656 C 191.289062 326.683594 192.371094 327.761719 193.707031 327.761719 L 237.195312 327.761719 C 238.53125 327.761719 239.613281 326.683594 239.613281 325.347656 C 239.613281 324.015625 238.53125 322.9375 237.195312 322.9375 " fill-opacity="1" fill-rule="nonzero"/></g><path fill="#2b5a7b" d="M 181.625 286.746094 L 177.46875 286.746094 C 175.148438 286.746094 173.464844 284.542969 174.078125 282.308594 L 205.46875 168.226562 C 205.699219 167.386719 205.8125 166.523438 205.8125 165.652344 L 205.789062 154.515625 C 205.789062 154.214844 205.644531 153.9375 205.390625 153.78125 C 204.949219 153.515625 204.441406 153.300781 203.933594 152.644531 C 203.894531 152.59375 203.828125 152.539062 203.769531 152.644531 L 167.234375 284.175781 C 166.808594 285.695312 165.425781 286.746094 163.84375 286.746094 L 155.046875 286.746094 C 153.710938 286.746094 152.632812 287.828125 152.632812 289.160156 C 152.632812 290.492188 153.710938 291.574219 155.046875 291.574219 L 181.625 291.574219 C 182.960938 291.574219 184.039062 290.492188 184.039062 289.160156 C 184.039062 287.828125 182.960938 286.746094 181.625 286.746094 " fill-opacity="1" fill-rule="nonzero"/><path fill="#2b5a7b" d="M 145.382812 286.746094 L 138.132812 286.746094 C 136.800781 286.746094 135.71875 287.828125 135.71875 289.160156 C 135.71875 290.492188 136.800781 291.574219 138.132812 291.574219 L 145.382812 291.574219 C 146.714844 291.574219 147.796875 290.492188 147.796875 289.160156 C 147.796875 287.828125 146.714844 286.746094 145.382812 286.746094 " fill-opacity="1" fill-rule="nonzero"/></svg>