<svg xmlns="http://www.w3.org/2000/svg" xmlns:xlink="http://www.w3.org/1999/xlink" width="500" zoomAndPan="magnify" viewBox="0 0 375 374.999991" height="500" preserveAspectRatio="xMidYMid meet" version="1.0"><defs><clipPath id="id1"><path d="M 100.777344 55.347656 L 274.027344 55.347656 L 274.027344 319.347656 L 100.777344 319.347656 Z M 100.777344 55.347656 " clip-rule="nonzero"/></clipPath></defs><rect x="-37.5" width="450" fill="#ffffff" y="-37.499999" height="449.999989" fill-opacity="1"/><rect x="-37.5" width="450" fill="#ffffff" y="-37.499999" height="449.999989" fill-opacity="1"/><rect x="-37.5" width="450" fill="#ffffff" y="-37.499999" height="449.999989" fill-opacity="1"/><path fill="#c3d9e8" d="M 265.136719 0 L 375 109.863281 L 375 265.136719 L 265.136719 375 L 109.863281 375 L 0 265.136719 L 0 109.863281 L 109.863281 0 L 265.136719 0 " fill-opacity="1" fill-rule="nonzero"/><path fill="#2b5a7b" d="M 245.152344 88.351562 L 129.652344 88.351562 C 127.382812 88.351562 125.527344 90.207031 125.527344 92.476562 C 125.527344 94.746094 127.382812 96.601562 129.652344 96.601562 L 245.152344 96.601562 C 247.417969 96.601562 249.277344 94.746094 249.277344 92.476562 C 249.277344 90.207031 247.417969 88.351562 245.152344 88.351562 Z M 245.152344 88.351562 " fill-opacity="1" fill-rule="nonzero"/><path fill="#2b5a7b" d="M 245.152344 108.976562 L 129.652344 108.976562 C 127.382812 108.976562 125.527344 110.832031 125.527344 113.101562 C 125.527344 115.371094 127.382812 117.226562 129.652344 117.226562 L 245.152344 117.226562 C 247.417969 117.226562 249.277344 115.371094 249.277344 113.101562 C 249.277344 110.832031 247.417969 108.976562 245.152344 108.976562 Z M 245.152344 108.976562 " fill-opacity="1" fill-rule="nonzero"/><path fill="#2b5a7b" d="M 245.152344 129.601562 L 129.652344 129.601562 C 127.382812 129.601562 125.527344 131.457031 125.527344 133.726562 C 125.527344 135.996094 127.382812 137.851562 129.652344 137.851562 L 245.152344 137.851562 C 247.417969 137.851562 249.277344 135.996094 249.277344 133.726562 C 249.277344 131.457031 247.417969 129.601562 245.152344 129.601562 Z M 245.152344 129.601562 " fill-opacity="1" fill-rule="nonzero"/><path fill="#2b5a7b" d="M 245.152344 150.226562 L 129.652344 150.226562 C 127.382812 150.226562 125.527344 152.082031 125.527344 154.351562 C 125.527344 156.617188 127.382812 158.476562 129.652344 158.476562 L 245.152344 158.476562 C 247.417969 158.476562 249.277344 156.617188 249.277344 154.351562 C 249.277344 152.082031 247.417969 150.226562 245.152344 150.226562 Z M 245.152344 150.226562 " fill-opacity="1" fill-rule="nonzero"/><path fill="#2b5a7b" d="M 245.152344 170.847656 L 129.652344 170.847656 C 127.382812 170.847656 125.527344 172.707031 125.527344 174.972656 C 125.527344 177.242188 127.382812 179.097656 129.652344 179.097656 L 245.152344 179.097656 C 247.417969 179.097656 249.277344 177.242188 249.277344 174.972656 C 249.277344 172.707031 247.417969 170.847656 245.152344 170.847656 Z M 245.152344 170.847656 " fill-opacity="1" fill-rule="nonzero"/><path fill="#2b5a7b" d="M 245.152344 191.472656 L 129.652344 191.472656 C 127.382812 191.472656 125.527344 193.332031 125.527344 195.597656 C 125.527344 197.867188 127.382812 199.722656 129.652344 199.722656 L 245.152344 199.722656 C 247.417969 199.722656 249.277344 197.867188 249.277344 195.597656 C 249.277344 193.332031 247.417969 191.472656 245.152344 191.472656 Z M 245.152344 191.472656 " fill-opacity="1" fill-rule="nonzero"/><g clip-path="url(#id1)"><path fill="#2b5a7b" d="M 261.652344 55.351562 L 113.152344 55.351562 C 106.34375 55.351562 100.777344 60.921875 100.777344 67.726562 L 100.777344 265.722656 C 100.777344 272.527344 106.34375 278.097656 113.152344 278.097656 L 141.613281 278.097656 C 142.027344 278.921875 142.4375 279.539062 142.644531 280.160156 C 143.261719 281.394531 143.882812 282.425781 144.089844 283.457031 C 144.292969 284.488281 144.5 285.726562 144.5 287.171875 C 144.5 289.851562 144.707031 292.738281 146.355469 295.628906 C 148.007812 298.308594 150.480469 299.957031 152.75 301.402344 C 153.988281 302.226562 155.019531 302.847656 155.84375 303.464844 C 156.464844 304.082031 157.289062 305.320312 157.90625 306.558594 C 159.351562 308.828125 160.792969 311.300781 163.683594 312.953125 C 166.363281 314.601562 169.457031 314.601562 172.136719 314.808594 C 173.582031 314.808594 174.820312 314.808594 175.851562 315.21875 C 176.882812 315.425781 177.914062 316.046875 179.152344 316.664062 C 181.417969 317.902344 184.101562 319.34375 187.402344 319.34375 C 190.699219 319.34375 193.382812 317.902344 195.652344 316.664062 C 196.886719 316.046875 197.917969 315.425781 198.949219 315.21875 C 199.980469 315.015625 201.21875 314.808594 202.664062 314.808594 C 205.34375 314.808594 208.230469 314.601562 211.121094 312.953125 C 213.800781 311.300781 215.449219 308.828125 216.894531 306.558594 C 217.71875 305.320312 218.339844 304.289062 218.957031 303.464844 C 219.574219 302.847656 220.8125 302.019531 222.050781 301.402344 C 224.320312 299.957031 226.792969 298.515625 228.445312 295.628906 C 230.09375 292.945312 230.09375 289.851562 230.300781 287.171875 C 230.300781 285.726562 230.300781 284.488281 230.714844 283.457031 C 230.917969 282.425781 231.539062 281.394531 232.15625 280.160156 C 232.570312 279.539062 232.980469 278.714844 233.1875 278.097656 L 261.652344 278.097656 C 268.457031 278.097656 274.027344 272.527344 274.027344 265.722656 L 274.027344 67.726562 C 274.027344 60.921875 268.457031 55.351562 261.652344 55.351562 Z M 224.9375 276.242188 C 224.113281 277.683594 223.289062 279.335938 222.667969 281.394531 C 222.050781 283.253906 222.050781 285.316406 222.050781 286.964844 C 222.050781 288.820312 221.84375 290.472656 221.433594 291.503906 C 220.8125 292.535156 219.371094 293.359375 217.71875 294.390625 C 216.277344 295.214844 214.625 296.246094 213.183594 297.691406 C 211.738281 299.132812 210.707031 300.785156 209.882812 302.226562 C 208.851562 303.878906 208.027344 305.320312 206.996094 305.941406 C 205.964844 306.558594 204.3125 306.558594 202.457031 306.558594 C 200.808594 306.558594 198.746094 306.765625 196.886719 307.175781 C 195.03125 307.589844 193.382812 308.621094 191.730469 309.445312 C 190.082031 310.269531 188.636719 311.09375 187.402344 311.09375 C 186.164062 311.09375 184.71875 310.269531 183.070312 309.445312 C 181.625 308.621094 179.976562 307.796875 177.914062 307.175781 C 176.058594 306.558594 173.996094 306.558594 172.34375 306.558594 C 170.488281 306.558594 168.839844 306.351562 167.808594 305.941406 C 166.777344 305.320312 165.949219 303.878906 164.917969 302.226562 C 164.09375 300.785156 163.0625 299.132812 161.621094 297.691406 C 160.175781 296.246094 158.527344 295.214844 157.082031 294.390625 C 155.433594 293.359375 153.988281 292.535156 153.371094 291.503906 C 152.75 290.472656 152.75 288.820312 152.75 286.964844 C 152.75 285.316406 152.542969 283.253906 152.132812 281.394531 C 151.71875 279.539062 150.6875 277.890625 149.863281 276.242188 C 149.039062 274.589844 148.214844 273.148438 148.214844 271.910156 C 148.214844 270.671875 149.039062 269.226562 149.863281 267.578125 C 150.6875 266.132812 151.511719 264.484375 152.132812 262.421875 C 152.75 260.566406 152.75 258.503906 152.75 256.851562 C 152.75 254.996094 152.957031 253.347656 153.371094 252.316406 C 153.988281 251.285156 155.433594 250.460938 157.082031 249.429688 C 158.527344 248.605469 160.175781 247.574219 161.621094 246.128906 C 163.0625 244.683594 164.09375 243.035156 164.917969 241.589844 C 165.949219 239.941406 166.777344 238.496094 167.808594 237.878906 C 168.839844 237.261719 170.488281 237.261719 172.34375 237.261719 C 173.996094 237.261719 176.058594 237.054688 177.914062 236.640625 C 179.769531 236.230469 181.417969 235.199219 183.070312 234.371094 C 184.71875 233.546875 186.164062 232.722656 187.402344 232.722656 C 188.636719 232.722656 190.082031 233.546875 191.730469 234.371094 C 193.175781 235.199219 194.824219 236.023438 196.886719 236.640625 C 198.746094 237.261719 200.808594 237.261719 202.457031 237.261719 C 204.3125 237.261719 205.964844 237.464844 206.996094 237.878906 C 208.027344 238.496094 208.851562 239.941406 209.882812 241.589844 C 210.707031 243.035156 211.738281 244.683594 213.183594 246.128906 C 214.625 247.574219 216.277344 248.605469 217.71875 249.429688 C 219.371094 250.460938 220.8125 251.285156 221.433594 252.316406 C 222.050781 253.347656 222.050781 254.996094 222.050781 256.851562 C 222.050781 258.503906 222.257812 260.566406 222.667969 262.421875 C 223.082031 264.277344 224.113281 265.929688 224.9375 267.578125 C 225.761719 269.226562 226.589844 270.671875 226.589844 271.910156 C 226.589844 273.148438 225.761719 274.589844 224.9375 276.242188 Z M 265.777344 265.722656 C 265.777344 267.992188 263.917969 269.847656 261.652344 269.847656 L 234.632812 269.847656 C 234.21875 267.578125 233.1875 265.515625 232.15625 263.660156 C 231.539062 262.421875 230.917969 261.390625 230.714844 260.359375 C 230.507812 259.328125 230.300781 258.089844 230.300781 256.648438 C 230.300781 253.964844 230.09375 251.078125 228.445312 248.191406 C 226.792969 245.511719 224.320312 243.859375 222.050781 242.417969 C 220.8125 241.589844 219.78125 240.972656 218.957031 240.355469 C 218.339844 239.734375 217.511719 238.496094 216.894531 237.261719 C 215.449219 234.992188 214.007812 232.515625 211.121094 230.867188 C 208.4375 229.214844 205.34375 229.214844 202.664062 229.011719 C 201.21875 229.011719 199.980469 229.011719 198.949219 228.597656 C 197.917969 228.390625 196.886719 227.773438 195.652344 227.152344 C 193.382812 225.917969 190.699219 224.472656 187.402344 224.472656 C 184.101562 224.472656 181.417969 225.917969 179.152344 227.152344 C 177.914062 227.773438 176.882812 228.390625 175.851562 228.597656 C 174.820312 228.804688 173.582031 229.011719 172.136719 229.011719 C 169.457031 229.011719 166.570312 229.214844 163.683594 230.867188 C 161 232.515625 159.351562 234.992188 157.90625 237.261719 C 157.082031 238.496094 156.464844 239.527344 155.84375 240.355469 C 155.226562 240.972656 153.988281 241.796875 152.75 242.417969 C 150.480469 243.859375 148.007812 245.304688 146.355469 248.191406 C 144.707031 250.871094 144.707031 253.964844 144.5 256.648438 C 144.5 258.089844 144.5 259.328125 144.089844 260.359375 C 143.882812 261.390625 143.261719 262.421875 142.644531 263.660156 C 141.613281 265.515625 140.582031 267.578125 140.167969 269.847656 L 113.152344 269.847656 C 110.882812 269.847656 109.027344 267.992188 109.027344 265.722656 L 109.027344 67.726562 C 109.027344 65.457031 110.882812 63.601562 113.152344 63.601562 L 261.652344 63.601562 C 263.917969 63.601562 265.777344 65.457031 265.777344 67.726562 Z M 265.777344 265.722656 " fill-opacity="1" fill-rule="nonzero"/></g><path fill="#2b5a7b" d="M 203.074219 256.648438 L 181.214844 278.507812 L 171.726562 269.023438 C 170.074219 267.371094 167.601562 267.371094 165.949219 269.023438 C 164.300781 270.671875 164.300781 273.148438 165.949219 274.796875 L 178.324219 287.171875 C 179.152344 287.996094 180.183594 288.410156 181.214844 288.410156 C 182.246094 288.410156 183.277344 287.996094 184.101562 287.171875 L 208.851562 262.421875 C 210.5 260.773438 210.5 258.296875 208.851562 256.648438 C 207.199219 254.996094 204.726562 254.996094 203.074219 256.648438 Z M 203.074219 256.648438 " fill-opacity="1" fill-rule="nonzero"/></svg>