<svg xmlns="http://www.w3.org/2000/svg" xmlns:xlink="http://www.w3.org/1999/xlink" width="500" zoomAndPan="magnify" viewBox="0 0 375 374.999991" height="500" preserveAspectRatio="xMidYMid meet" version="1.0"><defs><clipPath id="id1"><path d="M 71.699219 71.699219 L 234 71.699219 L 234 234 L 71.699219 234 Z M 71.699219 71.699219 " clip-rule="nonzero"/></clipPath><clipPath id="id2"><path d="M 141 141 L 303.449219 141 L 303.449219 303.449219 L 141 303.449219 Z M 141 141 " clip-rule="nonzero"/></clipPath></defs><rect x="-37.5" width="450" fill="#ffffff" y="-37.499999" height="449.999989" fill-opacity="1"/><rect x="-37.5" width="450" fill="#ffffff" y="-37.499999" height="449.999989" fill-opacity="1"/><rect x="-37.5" width="450" fill="#ffffff" y="-37.499999" height="449.999989" fill-opacity="1"/><path fill="#c3d9e8" d="M 265.136719 0 L 375 109.863281 L 375 265.136719 L 265.136719 375 L 109.863281 375 L 0 265.136719 L 0 109.863281 L 109.863281 0 L 265.136719 0 " fill-opacity="1" fill-rule="nonzero"/><path fill="#2b5a7b" d="M 164.40625 222.324219 L 187.574219 222.324219 L 187.574219 233.929688 L 164.40625 233.929688 L 164.40625 222.324219 " fill-opacity="1" fill-rule="nonzero"/><path fill="#2b5a7b" d="M 210.761719 233.929688 L 216.542969 233.929688 C 226.109375 233.929688 233.929688 226.109375 233.929688 216.542969 L 233.929688 210.761719 L 222.324219 210.761719 L 222.324219 216.542969 C 222.324219 219.671875 219.671875 222.324219 216.542969 222.324219 L 210.761719 222.324219 L 210.761719 233.929688 " fill-opacity="1" fill-rule="nonzero"/><g clip-path="url(#id1)"><path fill="#2b5a7b" d="M 89.085938 222.324219 C 85.9375 222.324219 83.28125 219.671875 83.28125 216.542969 L 83.28125 89.085938 C 83.28125 85.9375 85.9375 83.28125 89.085938 83.28125 L 216.542969 83.28125 C 219.671875 83.28125 222.324219 85.9375 222.324219 89.085938 L 222.324219 141.21875 L 233.929688 141.21875 L 233.929688 89.085938 C 233.929688 79.519531 226.109375 71.699219 216.542969 71.699219 L 89.085938 71.699219 C 79.519531 71.699219 71.699219 79.519531 71.699219 89.085938 L 71.699219 216.542969 C 71.699219 226.109375 79.519531 233.929688 89.085938 233.929688 L 141.21875 233.929688 L 141.21875 222.324219 L 89.085938 222.324219 " fill-opacity="1" fill-rule="nonzero"/></g><path fill="#2b5a7b" d="M 222.324219 164.40625 L 233.929688 164.40625 L 233.929688 187.574219 L 222.324219 187.574219 L 222.324219 164.40625 " fill-opacity="1" fill-rule="nonzero"/><path fill="#2b5a7b" d="M 141.21875 187.574219 L 152.804688 187.574219 L 152.804688 210.761719 L 141.21875 210.761719 L 141.21875 187.574219 " fill-opacity="1" fill-rule="nonzero"/><path fill="#2b5a7b" d="M 152.804688 158.605469 C 152.804688 155.457031 155.457031 152.804688 158.605469 152.804688 L 164.40625 152.804688 L 164.40625 141.21875 L 158.605469 141.21875 C 149.039062 141.21875 141.21875 149.039062 141.21875 158.605469 L 141.21875 164.40625 L 152.804688 164.40625 L 152.804688 158.605469 " fill-opacity="1" fill-rule="nonzero"/><g clip-path="url(#id2)"><path fill="#2b5a7b" d="M 286.0625 141.21875 L 233.929688 141.21875 L 233.929688 152.804688 L 286.0625 152.804688 C 289.210938 152.804688 291.867188 155.457031 291.867188 158.605469 L 291.867188 286.0625 C 291.867188 289.210938 289.210938 291.867188 286.0625 291.867188 L 158.605469 291.867188 C 155.457031 291.867188 152.804688 289.210938 152.804688 286.0625 L 152.804688 233.929688 L 141.21875 233.929688 L 141.21875 286.0625 C 141.21875 295.632812 149.039062 303.449219 158.605469 303.449219 L 286.0625 303.449219 C 295.632812 303.449219 303.449219 295.632812 303.449219 286.0625 L 303.449219 158.605469 C 303.449219 149.039062 295.632812 141.21875 286.0625 141.21875 " fill-opacity="1" fill-rule="nonzero"/></g><path fill="#2b5a7b" d="M 187.574219 141.21875 L 210.761719 141.21875 L 210.761719 152.804688 L 187.574219 152.804688 L 187.574219 141.21875 " fill-opacity="1" fill-rule="nonzero"/></svg>