<svg xmlns="http://www.w3.org/2000/svg" xmlns:xlink="http://www.w3.org/1999/xlink" width="500" zoomAndPan="magnify" viewBox="0 0 375 374.999991" height="500" preserveAspectRatio="xMidYMid meet" version="1.0"><defs><clipPath id="id1"><path d="M 66.480469 74 L 240 74 L 240 277 L 66.480469 277 Z M 66.480469 74 " clip-rule="nonzero"/></clipPath><clipPath id="id2"><path d="M 175 175 L 308.730469 175 L 308.730469 308.730469 L 175 308.730469 Z M 175 175 " clip-rule="nonzero"/></clipPath><clipPath id="id3"><path d="M 200 66.480469 L 308.730469 66.480469 L 308.730469 175 L 200 175 Z M 200 66.480469 " clip-rule="nonzero"/></clipPath></defs><rect x="-37.5" width="450" fill="#ffffff" y="-37.499999" height="449.999989" fill-opacity="1"/><rect x="-37.5" width="450" fill="#ffffff" y="-37.499999" height="449.999989" fill-opacity="1"/><rect x="-37.5" width="450" fill="#ffffff" y="-37.499999" height="449.999989" fill-opacity="1"/><path fill="#c3d9e8" d="M 265.136719 0 L 375 109.863281 L 375 265.136719 L 265.136719 375 L 109.863281 375 L 0 265.136719 L 0 109.863281 L 109.863281 0 L 265.136719 0 " fill-opacity="1" fill-rule="nonzero"/><path fill="#2b5a7b" d="M 276.082031 127.347656 L 276.082031 183.777344 L 284.144531 183.777344 L 284.144531 127.347656 L 276.082031 127.347656 " fill-opacity="1" fill-rule="nonzero"/><g clip-path="url(#id1)"><path fill="#2b5a7b" d="M 74.542969 115.253906 L 74.542969 91.070312 C 74.542969 86.628906 78.164062 83.007812 82.605469 83.007812 L 90.664062 83.007812 L 90.664062 244.238281 L 82.605469 244.238281 C 79.675781 244.238281 76.921875 245.027344 74.542969 246.394531 Z M 67.03125 264.328125 C 67.238281 265.101562 67.441406 265.871094 67.742188 266.597656 C 67.867188 266.878906 68.039062 267.132812 68.164062 267.398438 C 68.496094 268.0625 68.8125 268.738281 69.21875 269.351562 C 70.386719 271.085938 71.898438 272.578125 73.613281 273.746094 C 74.195312 274.136719 74.824219 274.421875 75.457031 274.738281 C 75.753906 274.894531 76.039062 275.082031 76.367188 275.226562 C 77.0625 275.523438 77.816406 275.714844 78.558594 275.902344 C 78.839844 275.980469 79.109375 276.105469 79.390625 276.152344 C 80.429688 276.375 81.519531 276.484375 82.605469 276.484375 L 191.433594 276.484375 L 191.433594 268.421875 L 82.605469 268.421875 C 82.054688 268.421875 81.519531 268.359375 81 268.265625 C 80.808594 268.21875 80.621094 268.140625 80.429688 268.09375 C 80.117188 267.996094 79.800781 267.917969 79.503906 267.792969 C 79.203125 267.683594 78.949219 267.511719 78.667969 267.351562 C 78.496094 267.257812 78.289062 267.179688 78.132812 267.054688 C 77.691406 266.769531 77.28125 266.4375 76.902344 266.0625 C 76.527344 265.683594 76.195312 265.273438 75.914062 264.847656 C 75.753906 264.613281 75.644531 264.359375 75.503906 264.109375 C 75.394531 263.902344 75.265625 263.699219 75.171875 263.480469 C 75.03125 263.148438 74.953125 262.785156 74.839844 262.441406 C 74.808594 262.28125 74.746094 262.125 74.699219 261.96875 C 74.589844 261.449219 74.542969 260.914062 74.542969 260.363281 C 74.542969 255.921875 78.164062 252.300781 82.605469 252.300781 L 94.695312 252.300781 C 96.917969 252.300781 98.726562 250.488281 98.726562 248.269531 L 98.726562 107.191406 L 239.804688 107.191406 L 239.804688 99.128906 L 98.726562 99.128906 L 98.726562 78.976562 C 98.726562 76.757812 96.917969 74.945312 94.695312 74.945312 L 82.605469 74.945312 C 73.707031 74.945312 66.480469 82.171875 66.480469 91.070312 L 66.480469 260.363281 C 66.480469 261.464844 66.589844 262.535156 66.8125 263.574219 C 66.859375 263.839844 66.96875 264.078125 67.03125 264.328125 " fill-opacity="1" fill-rule="nonzero"/></g><path fill="#2b5a7b" d="M 175.089844 169.8125 L 183.042969 179.746094 L 135.335938 179.746094 L 159.1875 149.925781 Z M 187.40625 228.117188 L 175.3125 228.117188 L 175.3125 199.898438 C 175.3125 197.679688 173.5 195.867188 171.28125 195.867188 L 147.097656 195.867188 C 144.875 195.867188 143.066406 197.679688 143.066406 199.898438 L 143.066406 228.117188 L 130.972656 228.117188 L 130.972656 187.808594 L 187.40625 187.808594 Z M 167.25 228.117188 L 151.128906 228.117188 L 151.128906 203.929688 L 167.25 203.929688 Z M 203.527344 139.4375 L 159.1875 139.4375 C 157.976562 139.4375 156.859375 139.988281 156.101562 140.902344 C 156.085938 140.917969 156.054688 140.933594 156.039062 140.949219 L 123.792969 181.257812 C 123.574219 181.539062 123.398438 181.839844 123.273438 182.140625 C 123.257812 182.171875 123.242188 182.1875 123.226562 182.21875 C 123.039062 182.660156 122.960938 183.132812 122.945312 183.621094 C 122.945312 183.667969 122.910156 183.714844 122.910156 183.777344 L 122.910156 232.144531 C 122.910156 234.367188 124.722656 236.175781 126.941406 236.175781 L 231.742188 236.175781 L 231.742188 228.117188 L 195.464844 228.117188 L 195.464844 187.808594 L 251.898438 187.808594 L 251.898438 211.992188 L 259.957031 211.992188 L 259.957031 183.777344 C 259.957031 183.714844 259.925781 183.667969 259.925781 183.621094 C 259.910156 183.132812 259.832031 182.660156 259.644531 182.21875 C 259.628906 182.1875 259.597656 182.171875 259.582031 182.140625 C 259.453125 181.824219 259.296875 181.523438 259.078125 181.257812 L 246.984375 166.125 L 240.6875 171.164062 L 247.550781 179.746094 L 193.371094 179.746094 L 176.179688 158.253906 L 167.582031 147.5 L 203.527344 147.5 L 203.527344 139.4375 " fill-opacity="1" fill-rule="nonzero"/><path fill="#2b5a7b" d="M 227.710938 211.992188 L 219.652344 211.992188 L 219.652344 203.929688 L 227.710938 203.929688 Z M 215.621094 195.867188 C 213.398438 195.867188 211.589844 197.679688 211.589844 199.898438 L 211.589844 216.023438 C 211.589844 218.242188 213.398438 220.054688 215.621094 220.054688 L 231.742188 220.054688 C 233.964844 220.054688 235.773438 218.242188 235.773438 216.023438 L 235.773438 199.898438 C 235.773438 197.679688 233.964844 195.867188 231.742188 195.867188 L 215.621094 195.867188 " fill-opacity="1" fill-rule="nonzero"/><g clip-path="url(#id2)"><path fill="#2b5a7b" d="M 300.265625 300.667969 L 189.074219 300.667969 L 300.265625 189.476562 Z M 305.839844 176.03125 C 304.328125 175.398438 302.597656 175.746094 301.445312 176.894531 L 176.492188 301.851562 C 175.34375 303 174.996094 304.730469 175.625 306.242188 C 176.242188 307.753906 177.707031 308.730469 179.34375 308.730469 L 304.296875 308.730469 C 306.515625 308.730469 308.328125 306.921875 308.328125 304.699219 L 308.328125 179.746094 C 308.328125 178.109375 307.351562 176.644531 305.839844 176.03125 " fill-opacity="1" fill-rule="nonzero"/></g><path fill="#2b5a7b" d="M 276.082031 249.9375 L 276.082031 276.484375 L 249.535156 276.484375 Z M 236.089844 282.058594 C 236.703125 283.570312 238.167969 284.546875 239.804688 284.546875 L 280.113281 284.546875 C 282.332031 284.546875 284.144531 282.734375 284.144531 280.515625 L 284.144531 240.207031 C 284.144531 238.570312 283.167969 237.105469 281.65625 236.492188 C 280.144531 235.863281 278.425781 236.207031 277.261719 237.359375 L 236.953125 277.664062 C 235.804688 278.816406 235.457031 280.546875 236.089844 282.058594 " fill-opacity="1" fill-rule="nonzero"/><g clip-path="url(#id3)"><path fill="#2b5a7b" d="M 255.925781 129.707031 L 245.503906 119.285156 L 288.175781 76.613281 L 298.597656 87.039062 Z M 233.757812 151.875 L 223.335938 141.453125 L 239.804688 124.984375 L 250.226562 135.40625 Z M 220.738281 159.007812 L 216.203125 154.476562 L 218.390625 147.910156 L 227.304688 156.820312 Z M 291.023438 68.066406 C 289.449219 66.492188 286.898438 66.492188 285.324219 68.066406 L 212.769531 140.617188 C 212.328125 141.058594 212 141.59375 211.792969 142.195312 L 207.761719 154.285156 C 207.273438 155.734375 207.667969 157.339844 208.738281 158.410156 L 209.921875 159.59375 L 200.675781 168.835938 L 206.378906 174.535156 L 215.621094 165.292969 L 216.800781 166.472656 C 217.570312 167.246094 218.59375 167.652344 219.652344 167.652344 C 220.074219 167.652344 220.515625 167.589844 220.925781 167.449219 L 233.019531 163.417969 C 233.617188 163.214844 234.152344 162.882812 234.59375 162.441406 L 307.148438 89.886719 C 308.722656 88.3125 308.722656 85.761719 307.148438 84.1875 L 291.023438 68.066406 " fill-opacity="1" fill-rule="nonzero"/></g><path fill="#2b5a7b" d="M 106.789062 236.175781 L 106.789062 248.269531 C 106.789062 250.488281 108.597656 252.300781 110.820312 252.300781 L 122.910156 252.300781 L 122.910156 244.238281 L 114.851562 244.238281 L 114.851562 236.175781 L 106.789062 236.175781 " fill-opacity="1" fill-rule="nonzero"/><path fill="#2b5a7b" d="M 122.910156 115.253906 L 110.820312 115.253906 C 108.597656 115.253906 106.789062 117.0625 106.789062 119.285156 L 106.789062 131.375 L 114.851562 131.375 L 114.851562 123.316406 L 122.910156 123.316406 L 122.910156 115.253906 " fill-opacity="1" fill-rule="nonzero"/></svg>