<svg xmlns="http://www.w3.org/2000/svg" xmlns:xlink="http://www.w3.org/1999/xlink" width="500" zoomAndPan="magnify" viewBox="0 0 375 374.999991" height="500" preserveAspectRatio="xMidYMid meet" version="1.0"><defs><clipPath id="id1"><path d="M 92.347656 123.660156 L 282.847656 123.660156 L 282.847656 213 L 92.347656 213 Z M 92.347656 123.660156 " clip-rule="nonzero"/></clipPath><clipPath id="id2"><path d="M 92.347656 223 L 278 223 L 278 238 L 92.347656 238 Z M 92.347656 223 " clip-rule="nonzero"/></clipPath></defs><rect x="-37.5" width="450" fill="#ffffff" y="-37.499999" height="449.999989" fill-opacity="1"/><rect x="-37.5" width="450" fill="#ffffff" y="-37.499999" height="449.999989" fill-opacity="1"/><rect x="-37.5" width="450" fill="#ffffff" y="-37.499999" height="449.999989" fill-opacity="1"/><g clip-path="url(#id1)"><path fill="#d69f50" d="M 228.164062 196.03125 L 228.164062 196.167969 C 228.164062 205.339844 221.464844 212.078125 210.582031 212.078125 C 201.789062 212.078125 195.71875 208.605469 191.53125 203.671875 L 198.929688 196.65625 C 202.277344 200.40625 205.765625 202.488281 210.71875 202.488281 C 214.765625 202.488281 217.628906 200.199219 217.628906 196.585938 C 217.574219 196.488281 218.417969 190.265625 208.070312 190.265625 L 203.601562 190.265625 L 201.929688 183.453125 L 217.597656 167.761719 L 211.316406 171.785156 L 194.394531 171.785156 L 194.394531 162.617188 L 227.394531 162.617188 L 227.394531 170.675781 L 215.046875 182.414062 C 221.675781 183.527344 228.164062 187 228.164062 196.03125 M 197.53125 140.378906 C 197.53125 135.976562 200.703125 132.433594 205.152344 132.433594 L 210.164062 132.433594 L 208.851562 133.085938 C 208.914062 145.152344 208.613281 146.671875 209.386719 148.4375 L 205.207031 148.433594 C 200.757812 148.433594 197.53125 144.835938 197.53125 140.433594 Z M 205.152344 150.457031 L 209.605469 150.457031 L 209.605469 148.859375 C 209.929688 149.421875 210.363281 149.859375 211.007812 150.164062 C 212.425781 150.832031 211.394531 150.410156 252.007812 150.535156 L 252.007812 130.410156 L 249.863281 130.410156 L 249.863281 148.402344 C 249.863281 148.402344 212.730469 148.546875 212.027344 148.230469 C 211.414062 147.953125 211.191406 147.328125 211.089844 146.65625 C 210.925781 145.570312 211.027344 145.550781 210.996094 130.410156 L 205.207031 130.410156 C 199.285156 130.410156 195.253906 135.089844 195.253906 140.433594 L 195.253906 140.488281 C 195.253906 145.832031 199.230469 150.457031 205.152344 150.457031 M 267.792969 128.277344 L 263.101562 128.277344 C 263.203125 126.730469 262.484375 123.84375 265.644531 123.84375 L 267.15625 123.84375 L 267.15625 125.328125 C 265.691406 125.4375 264.851562 124.976562 264.851562 126.140625 L 264.851562 126.632812 L 267.792969 126.632812 Z M 273.21875 150.753906 C 272.644531 150.753906 272.066406 150.671875 271.476562 150.511719 L 272.039062 148.460938 C 273.007812 148.734375 274.246094 148.75 274.757812 147.886719 C 275.351562 146.863281 275.140625 146.503906 275.171875 130.410156 L 277.3125 130.410156 C 277.253906 145.433594 277.460938 145.851562 277.113281 147.59375 C 276.703125 149.632812 275.464844 150.753906 273.21875 150.753906 M 210.996094 128.277344 L 208.851562 128.277344 L 208.851562 126.144531 L 210.996094 126.144531 Z M 258.140625 135.636719 C 259.144531 133.683594 261.257812 132.597656 263.414062 132.574219 L 263.414062 132.570312 L 266.875 132.570312 L 265.652344 133.179688 L 265.652344 142.757812 C 263.964844 142.707031 262.78125 142.914062 261.21875 142.421875 C 259.089844 141.753906 257.644531 140.117188 257.644531 137.742188 C 257.644531 136.980469 257.808594 136.277344 258.140625 135.636719 M 258.140625 143.195312 C 260.929688 145.179688 264.730469 144.851562 264.929688 144.886719 L 265.652344 143.382812 C 265.535156 144.84375 266.054688 146.878906 264.6875 147.902344 C 263.53125 148.761719 261.472656 148.734375 260.203125 148.433594 C 259.675781 148.308594 259.074219 148.097656 258.394531 147.792969 L 257.726562 149.847656 C 259.082031 150.347656 260.378906 150.753906 261.820312 150.753906 C 263.910156 150.753906 265.425781 150.261719 266.375 149.273438 C 267.320312 148.285156 267.792969 146.957031 267.792969 145.289062 L 267.792969 130.410156 C 265.15625 130.492188 263.15625 130.144531 260.75 130.972656 C 254.304688 133.183594 254.175781 140.378906 258.140625 143.195312 M 206.710938 128.277344 L 204.566406 128.277344 L 204.566406 126.144531 L 206.710938 126.144531 Z M 184.539062 130.390625 L 186.75 130.390625 L 186.75 150.414062 L 184.941406 150.414062 L 170.695312 132.402344 L 171.953125 135.320312 L 171.953125 150.414062 L 169.738281 150.414062 L 169.738281 130.390625 L 171.867188 130.390625 L 185.46875 147.617188 L 184.539062 145.160156 Z M 100.996094 150.558594 L 92.347656 130.390625 L 94.875 130.390625 C 95.003906 130.699219 101.894531 147.320312 102.59375 149.007812 L 102.375 146.804688 L 109.214844 130.390625 L 111.65625 130.390625 L 103.007812 150.558594 Z M 139.324219 130.390625 L 141.59375 130.390625 L 141.59375 150.414062 L 139.324219 150.414062 Z M 163.667969 140.460938 C 163.667969 145.007812 160.394531 148.671875 155.796875 148.671875 C 151.199219 148.671875 147.863281 144.949219 147.863281 140.402344 L 147.863281 140.34375 C 147.863281 135.796875 151.140625 132.132812 155.738281 132.132812 C 160.335938 132.132812 163.667969 135.855469 163.667969 140.402344 Z M 155.796875 130.046875 C 149.675781 130.046875 145.507812 134.878906 145.507812 140.402344 L 145.507812 140.460938 C 145.507812 145.980469 149.617188 150.757812 155.738281 150.757812 C 161.859375 150.757812 166.027344 145.925781 166.027344 140.402344 L 166.027344 140.34375 C 166.027344 134.824219 161.917969 130.046875 155.796875 130.046875 M 135.578125 144.980469 L 135.578125 145.035156 C 135.578125 148.46875 132.703125 150.703125 128.710938 150.703125 C 125.523438 150.703125 122.90625 149.644531 120.492188 147.496094 L 121.902344 145.839844 C 124 147.726562 126.011719 148.667969 128.796875 148.667969 C 131.5 148.667969 133.28125 147.238281 133.28125 145.265625 L 133.28125 145.207031 C 133.28125 139.621094 121.296875 143.308594 121.296875 135.625 L 121.296875 135.566406 C 121.296875 132.421875 124.085938 130.101562 127.90625 130.101562 C 130.835938 130.101562 132.933594 130.933594 134.976562 132.5625 L 133.652344 134.308594 C 129.09375 130.605469 123.566406 132.023438 123.566406 135.367188 L 123.566406 135.425781 C 123.566406 137.3125 124.601562 138.371094 129.027344 139.316406 C 133.511719 140.289062 135.578125 141.917969 135.578125 144.980469 M 117.007812 150.414062 L 114.738281 150.414062 L 114.738281 130.390625 L 117.007812 130.390625 Z M 249.117188 152.667969 L 251.261719 152.667969 L 251.261719 154.800781 L 249.117188 154.800781 Z M 244.832031 152.667969 L 246.976562 152.667969 L 246.976562 154.800781 L 244.832031 154.800781 Z M 110.308594 202.003906 L 128.933594 202.003906 L 128.933594 211.246094 L 92.789062 211.246094 L 92.789062 202.769531 C 110.847656 187.480469 117.488281 184.492188 117.488281 177.828125 C 117.488281 173.730469 114.765625 171.507812 110.929688 171.507812 C 107.160156 171.507812 104.578125 173.589844 100.953125 178.035156 L 93.417969 171.992188 C 98.230469 165.464844 102.90625 161.917969 111.628906 161.917969 C 121.746094 161.917969 128.441406 167.824219 128.441406 176.925781 L 128.441406 177.0625 C 128.441406 188.476562 119.78125 192.15625 104.929688 204.09375 L 102.859375 205.6875 Z M 271.613281 187.070312 C 271.613281 195.40625 265.613281 202.214844 256.960938 202.214844 C 248.308594 202.214844 242.167969 195.265625 242.167969 186.929688 L 242.167969 186.789062 C 242.167969 178.453125 248.167969 171.644531 256.820312 171.644531 C 265.472656 171.644531 271.613281 178.59375 271.613281 186.929688 Z M 256.960938 161.78125 C 241.890625 161.78125 230.933594 173.105469 230.933594 186.929688 L 230.933594 187.070312 C 230.933594 200.894531 241.75 212.078125 256.820312 212.078125 C 271.890625 212.078125 282.847656 200.753906 282.847656 186.929688 L 282.847656 186.789062 C 282.847656 172.964844 272.03125 161.78125 256.960938 161.78125 " fill-opacity="1" fill-rule="nonzero"/></g><path fill="#d69f50" d="M 158.128906 158.582031 L 160.601562 160.945312 L 158.226562 163.410156 L 155.753906 161.046875 " fill-opacity="1" fill-rule="nonzero"/><path fill="#d69f50" d="M 163.789062 161.046875 L 166.261719 163.410156 L 168.636719 160.945312 L 166.160156 158.582031 " fill-opacity="1" fill-rule="nonzero"/><path fill="#d69f50" d="M 160.304688 164.148438 L 162.230469 165.988281 L 164.078125 164.070312 L 162.15625 162.230469 " fill-opacity="1" fill-rule="nonzero"/><path fill="#d69f50" d="M 167.367188 165.203125 L 169.292969 167.042969 L 171.140625 165.125 L 169.214844 163.285156 " fill-opacity="1" fill-rule="nonzero"/><path fill="#d69f50" d="M 157.15625 167.082031 L 159.082031 168.921875 L 160.929688 167.003906 L 159.003906 165.164062 " fill-opacity="1" fill-rule="nonzero"/><path fill="#d69f50" d="M 163.617188 167.304688 L 165.542969 169.144531 L 167.390625 167.226562 L 165.464844 165.386719 " fill-opacity="1" fill-rule="nonzero"/><path fill="#d69f50" d="M 161.089844 169.507812 L 162.445312 170.804688 L 163.746094 169.453125 L 162.390625 168.160156 " fill-opacity="1" fill-rule="nonzero"/><path fill="#d69f50" d="M 166.203125 170.527344 L 167.554688 171.820312 L 168.855469 170.472656 L 167.503906 169.175781 " fill-opacity="1" fill-rule="nonzero"/><path fill="#d69f50" d="M 177.363281 160.265625 L 181.5625 159.496094 L 182.332031 163.679688 L 178.132812 164.449219 Z M 177.363281 160.265625 " fill-opacity="1" fill-rule="nonzero"/><path fill="#d69f50" d="M 171.878906 162.019531 L 175.25 161.402344 L 175.867188 164.761719 L 172.492188 165.375 Z M 171.878906 162.019531 " fill-opacity="1" fill-rule="nonzero"/><path fill="#d69f50" d="M 178.394531 166.699219 L 181.765625 166.082031 L 182.382812 169.4375 L 179.011719 170.054688 Z M 178.394531 166.699219 " fill-opacity="1" fill-rule="nonzero"/><path fill="#d69f50" d="M 173.746094 167.191406 L 176.371094 166.710938 L 176.851562 169.324219 L 174.226562 169.804688 Z M 173.746094 167.191406 " fill-opacity="1" fill-rule="nonzero"/><path fill="#d69f50" d="M 178.851562 172.15625 L 181.476562 171.675781 L 181.957031 174.289062 L 179.332031 174.769531 Z M 178.851562 172.15625 " fill-opacity="1" fill-rule="nonzero"/><path fill="#d69f50" d="M 169.8125 168.253906 L 172.4375 167.773438 L 172.917969 170.386719 L 170.292969 170.867188 Z M 169.8125 168.253906 " fill-opacity="1" fill-rule="nonzero"/><path fill="#d69f50" d="M 174.578125 171.675781 L 177.203125 171.195312 L 177.683594 173.8125 L 175.058594 174.292969 Z M 174.578125 171.675781 " fill-opacity="1" fill-rule="nonzero"/><path fill="#d69f50" d="M 171.230469 171.992188 L 173.078125 171.65625 L 173.417969 173.492188 L 171.570312 173.832031 Z M 171.230469 171.992188 " fill-opacity="1" fill-rule="nonzero"/><path fill="#d69f50" d="M 174.78125 175.792969 L 176.625 175.457031 L 176.960938 177.296875 L 175.117188 177.632812 Z M 174.78125 175.792969 " fill-opacity="1" fill-rule="nonzero"/><path fill="#d69f50" d="M 189.859375 173.972656 L 188.023438 177.816406 L 191.882812 179.644531 L 193.71875 175.800781 " fill-opacity="1" fill-rule="nonzero"/><path fill="#d69f50" d="M 184.382812 172.199219 L 182.910156 175.28125 L 186.007812 176.746094 L 187.480469 173.664062 " fill-opacity="1" fill-rule="nonzero"/><path fill="#d69f50" d="M 186.917969 179.789062 L 185.445312 182.875 L 188.539062 184.339844 L 190.011719 181.257812 " fill-opacity="1" fill-rule="nonzero"/><path fill="#d69f50" d="M 182.859375 177.480469 L 181.714844 179.878906 L 184.125 181.019531 L 185.273438 178.621094 " fill-opacity="1" fill-rule="nonzero"/><path fill="#d69f50" d="M 184.085938 184.484375 L 182.9375 186.882812 L 185.347656 188.023438 L 186.496094 185.625 " fill-opacity="1" fill-rule="nonzero"/><path fill="#d69f50" d="M 179.046875 176.050781 L 177.898438 178.449219 L 180.308594 179.589844 L 181.457031 177.191406 " fill-opacity="1" fill-rule="nonzero"/><path fill="#d69f50" d="M 180.898438 181.601562 L 179.75 184.003906 L 182.160156 185.144531 L 183.308594 182.746094 " fill-opacity="1" fill-rule="nonzero"/><path fill="#d69f50" d="M 178 179.910156 L 177.191406 181.597656 L 178.886719 182.402344 L 179.695312 180.714844 " fill-opacity="1" fill-rule="nonzero"/><path fill="#d69f50" d="M 177.832031 186.742188 L 178.636719 185.054688 L 180.332031 185.859375 L 179.527344 187.546875 Z M 177.832031 186.742188 " fill-opacity="1" fill-rule="nonzero"/><path fill="#d69f50" d="M 191.941406 192.371094 L 188.195312 194.417969 L 190.25 198.148438 L 193.996094 196.101562 " fill-opacity="1" fill-rule="nonzero"/><path fill="#d69f50" d="M 188.542969 187.742188 L 185.535156 189.382812 L 187.183594 192.375 L 190.191406 190.734375 " fill-opacity="1" fill-rule="nonzero"/><path fill="#d69f50" d="M 186.136719 195.375 L 183.128906 197.015625 L 184.777344 200.007812 L 187.785156 198.367188 " fill-opacity="1" fill-rule="nonzero"/><path fill="#d69f50" d="M 184.203125 191.136719 L 181.863281 192.414062 L 183.144531 194.742188 L 185.488281 193.464844 " fill-opacity="1" fill-rule="nonzero"/><path fill="#d69f50" d="M 181.082031 197.527344 L 178.738281 198.804688 L 180.023438 201.136719 L 182.363281 199.859375 " fill-opacity="1" fill-rule="nonzero"/><path fill="#d69f50" d="M 181.949219 187.753906 L 179.609375 189.03125 L 180.890625 191.363281 L 183.234375 190.085938 " fill-opacity="1" fill-rule="nonzero"/><path fill="#d69f50" d="M 180.1875 193.335938 L 177.847656 194.617188 L 179.132812 196.945312 L 181.472656 195.667969 " fill-opacity="1" fill-rule="nonzero"/><path fill="#d69f50" d="M 178.832031 190.277344 L 177.183594 191.175781 L 178.089844 192.8125 L 179.734375 191.914062 " fill-opacity="1" fill-rule="nonzero"/><path fill="#d69f50" d="M 176.328125 194.824219 L 174.679688 195.722656 L 175.582031 197.363281 L 177.230469 196.464844 " fill-opacity="1" fill-rule="nonzero"/><path fill="#d69f50" d="M 178.046875 212.1875 L 178.570312 207.964844 L 182.808594 208.488281 L 182.289062 212.710938 Z M 178.046875 212.1875 " fill-opacity="1" fill-rule="nonzero"/><path fill="#d69f50" d="M 178.960938 205.738281 L 179.382812 202.351562 L 182.785156 202.769531 L 182.363281 206.15625 Z M 178.960938 205.738281 " fill-opacity="1" fill-rule="nonzero"/><path fill="#d69f50" d="M 172.523438 210.523438 L 172.941406 207.136719 L 176.34375 207.558594 L 175.925781 210.945312 Z M 172.523438 210.523438 " fill-opacity="1" fill-rule="nonzero"/><path fill="#d69f50" d="M 174.292969 205.316406 L 174.621094 202.675781 L 177.269531 203.003906 L 176.945312 205.640625 Z M 174.292969 205.316406 " fill-opacity="1" fill-rule="nonzero"/><path fill="#d69f50" d="M 168.003906 208.675781 L 168.328125 206.039062 L 170.980469 206.367188 L 170.652344 209.003906 Z M 168.003906 208.675781 " fill-opacity="1" fill-rule="nonzero"/><path fill="#d69f50" d="M 174.449219 201.253906 L 174.777344 198.613281 L 177.429688 198.941406 L 177.101562 201.578125 Z M 174.449219 201.253906 " fill-opacity="1" fill-rule="nonzero"/><path fill="#d69f50" d="M 169.742188 204.75 L 170.070312 202.113281 L 172.722656 202.441406 L 172.394531 205.078125 Z M 169.742188 204.75 " fill-opacity="1" fill-rule="nonzero"/><path fill="#d69f50" d="M 171.328125 200.800781 L 171.558594 198.945312 L 173.417969 199.175781 L 173.191406 201.03125 Z M 171.328125 200.800781 " fill-opacity="1" fill-rule="nonzero"/><path fill="#d69f50" d="M 166.617188 203.027344 L 166.847656 201.171875 L 168.710938 201.402344 L 168.480469 203.257812 Z M 166.617188 203.027344 " fill-opacity="1" fill-rule="nonzero"/><path fill="#d69f50" d="M 165.9375 216.265625 L 162.804688 213.371094 L 159.898438 216.488281 L 163.027344 219.382812 " fill-opacity="1" fill-rule="nonzero"/><path fill="#d69f50" d="M 165.359375 156.671875 L 162.226562 153.777344 L 159.320312 156.898438 L 162.453125 159.792969 " fill-opacity="1" fill-rule="nonzero"/><path fill="#d69f50" d="M 169.277344 211.597656 L 166.765625 209.273438 L 164.433594 211.773438 L 166.945312 214.097656 " fill-opacity="1" fill-rule="nonzero"/><path fill="#d69f50" d="M 161.246094 211.730469 L 158.730469 209.40625 L 156.398438 211.910156 L 158.910156 214.230469 " fill-opacity="1" fill-rule="nonzero"/><path fill="#d69f50" d="M 164.675781 208.566406 L 162.71875 206.757812 L 160.902344 208.707031 L 162.855469 210.515625 " fill-opacity="1" fill-rule="nonzero"/><path fill="#d69f50" d="M 157.597656 207.632812 L 155.640625 205.824219 L 153.824219 207.769531 L 155.78125 209.582031 " fill-opacity="1" fill-rule="nonzero"/><path fill="#d69f50" d="M 167.1875 205.371094 L 165.230469 203.5625 L 163.414062 205.511719 L 165.371094 207.320312 " fill-opacity="1" fill-rule="nonzero"/><path fill="#d69f50" d="M 161.308594 205.46875 L 159.351562 203.660156 L 157.539062 205.609375 L 159.492188 207.414062 " fill-opacity="1" fill-rule="nonzero"/><path fill="#d69f50" d="M 163.800781 203.222656 L 162.421875 201.949219 L 161.148438 203.320312 L 162.523438 204.589844 " fill-opacity="1" fill-rule="nonzero"/><path fill="#d69f50" d="M 158.671875 202.289062 L 157.296875 201.015625 L 156.019531 202.386719 L 157.394531 203.660156 " fill-opacity="1" fill-rule="nonzero"/><path fill="#d69f50" d="M 142.65625 209.398438 L 146.847656 208.558594 L 147.683594 212.730469 L 143.496094 213.566406 Z M 142.65625 209.398438 " fill-opacity="1" fill-rule="nonzero"/><path fill="#d69f50" d="M 149.105469 208.210938 L 152.464844 207.539062 L 153.136719 210.886719 L 149.777344 211.558594 Z M 149.105469 208.210938 " fill-opacity="1" fill-rule="nonzero"/><path fill="#d69f50" d="M 142.515625 203.640625 L 145.875 202.964844 L 146.546875 206.3125 L 143.1875 206.984375 Z M 142.515625 203.640625 " fill-opacity="1" fill-rule="nonzero"/><path fill="#d69f50" d="M 148.042969 203.667969 L 150.660156 203.144531 L 151.183594 205.75 L 148.566406 206.273438 Z M 148.042969 203.667969 " fill-opacity="1" fill-rule="nonzero"/><path fill="#d69f50" d="M 151.957031 202.539062 L 154.574219 202.015625 L 155.097656 204.621094 L 152.484375 205.144531 Z M 151.957031 202.539062 " fill-opacity="1" fill-rule="nonzero"/><path fill="#d69f50" d="M 147.136719 199.195312 L 149.753906 198.671875 L 150.277344 201.277344 L 147.660156 201.800781 Z M 147.136719 199.195312 " fill-opacity="1" fill-rule="nonzero"/><path fill="#d69f50" d="M 151.40625 199.445312 L 153.25 199.078125 L 153.617188 200.910156 L 151.773438 201.277344 Z M 151.40625 199.445312 " fill-opacity="1" fill-rule="nonzero"/><path fill="#d69f50" d="M 147.800781 195.699219 L 149.640625 195.332031 L 150.007812 197.164062 L 148.167969 197.53125 Z M 147.800781 195.699219 " fill-opacity="1" fill-rule="nonzero"/><path fill="#d69f50" d="M 134.960938 199.230469 L 136.730469 195.359375 L 132.84375 193.597656 L 131.070312 197.46875 " fill-opacity="1" fill-rule="nonzero"/><path fill="#d69f50" d="M 140.464844 200.917969 L 141.886719 197.808594 L 138.769531 196.394531 L 137.347656 199.5 " fill-opacity="1" fill-rule="nonzero"/><path fill="#d69f50" d="M 137.804688 193.367188 L 139.226562 190.261719 L 136.105469 188.847656 L 134.6875 191.953125 " fill-opacity="1" fill-rule="nonzero"/><path fill="#d69f50" d="M 139.46875 194.511719 L 140.574219 192.09375 L 143.003906 193.199219 L 141.898438 195.617188 Z M 139.46875 194.511719 " fill-opacity="1" fill-rule="nonzero"/><path fill="#d69f50" d="M 145.152344 201.660156 L 146.257812 199.242188 L 143.828125 198.140625 L 142.722656 200.558594 " fill-opacity="1" fill-rule="nonzero"/><path fill="#d69f50" d="M 138.136719 187.527344 L 139.242188 185.109375 L 141.667969 186.214844 L 140.5625 188.632812 Z M 138.136719 187.527344 " fill-opacity="1" fill-rule="nonzero"/><path fill="#d69f50" d="M 143.3125 195.875 L 144.421875 193.457031 L 146.847656 194.5625 L 145.742188 196.980469 Z M 143.3125 195.875 " fill-opacity="1" fill-rule="nonzero"/><path fill="#d69f50" d="M 141.367188 190.359375 L 142.472656 187.941406 L 144.898438 189.046875 L 143.792969 191.464844 Z M 141.367188 190.359375 " fill-opacity="1" fill-rule="nonzero"/><path fill="#d69f50" d="M 146.722656 193.097656 L 147.5 191.398438 L 145.789062 190.621094 L 145.011719 192.324219 " fill-opacity="1" fill-rule="nonzero"/><path fill="#d69f50" d="M 145.992188 187.960938 L 146.773438 186.261719 L 145.0625 185.484375 L 144.285156 187.1875 " fill-opacity="1" fill-rule="nonzero"/><path fill="#d69f50" d="M 132.574219 180.871094 L 136.285156 178.765625 L 134.167969 175.066406 L 130.457031 177.175781 " fill-opacity="1" fill-rule="nonzero"/><path fill="#d69f50" d="M 136.050781 185.445312 L 139.027344 183.753906 L 137.328125 180.789062 L 134.351562 182.480469 " fill-opacity="1" fill-rule="nonzero"/><path fill="#d69f50" d="M 138.328125 177.773438 L 141.308594 176.082031 L 139.609375 173.117188 L 136.632812 174.808594 " fill-opacity="1" fill-rule="nonzero"/><path fill="#d69f50" d="M 140.332031 181.980469 L 142.648438 180.664062 L 141.328125 178.355469 L 139.007812 179.671875 " fill-opacity="1" fill-rule="nonzero"/><path fill="#d69f50" d="M 143.347656 175.535156 L 145.664062 174.21875 L 144.34375 171.910156 L 142.023438 173.226562 " fill-opacity="1" fill-rule="nonzero"/><path fill="#d69f50" d="M 142.640625 185.324219 L 144.960938 184.007812 L 143.636719 181.699219 L 141.320312 183.015625 " fill-opacity="1" fill-rule="nonzero"/><path fill="#d69f50" d="M 144.308594 179.710938 L 146.625 178.394531 L 145.304688 176.085938 L 142.984375 177.402344 " fill-opacity="1" fill-rule="nonzero"/><path fill="#d69f50" d="M 145.714844 182.75 L 147.347656 181.824219 L 146.417969 180.199219 L 144.785156 181.125 " fill-opacity="1" fill-rule="nonzero"/><path fill="#d69f50" d="M 148.144531 178.160156 L 149.777344 177.234375 L 148.847656 175.609375 L 147.214844 176.535156 " fill-opacity="1" fill-rule="nonzero"/><path fill="#d69f50" d="M 141.433594 164.597656 L 141.886719 160.367188 L 146.132812 160.820312 L 145.679688 165.050781 Z M 141.433594 164.597656 " fill-opacity="1" fill-rule="nonzero"/><path fill="#d69f50" d="M 141.558594 170.328125 L 141.921875 166.933594 L 145.332031 167.296875 L 144.96875 170.691406 Z M 141.558594 170.328125 " fill-opacity="1" fill-rule="nonzero"/><path fill="#d69f50" d="M 147.914062 165.433594 L 148.28125 162.039062 L 151.6875 162.402344 L 151.324219 165.796875 Z M 147.914062 165.433594 " fill-opacity="1" fill-rule="nonzero"/><path fill="#d69f50" d="M 147.070312 170.011719 L 147.355469 167.371094 L 150.007812 167.652344 L 149.726562 170.296875 Z M 147.070312 170.011719 " fill-opacity="1" fill-rule="nonzero"/><path fill="#d69f50" d="M 153.296875 166.535156 L 153.582031 163.894531 L 156.234375 164.175781 L 155.953125 166.820312 Z M 153.296875 166.535156 " fill-opacity="1" fill-rule="nonzero"/><path fill="#d69f50" d="M 146.976562 174.070312 L 147.261719 171.425781 L 149.914062 171.710938 L 149.628906 174.351562 Z M 146.976562 174.070312 " fill-opacity="1" fill-rule="nonzero"/><path fill="#d69f50" d="M 151.628906 170.488281 L 151.910156 167.84375 L 154.566406 168.128906 L 154.28125 170.773438 Z M 151.628906 170.488281 " fill-opacity="1" fill-rule="nonzero"/><path fill="#d69f50" d="M 150.980469 173.773438 L 151.179688 171.914062 L 153.046875 172.113281 L 152.847656 173.972656 Z M 150.980469 173.773438 " fill-opacity="1" fill-rule="nonzero"/><path fill="#d69f50" d="M 155.652344 171.464844 L 155.851562 169.605469 L 157.71875 169.804688 L 157.523438 171.664062 Z M 155.652344 171.464844 " fill-opacity="1" fill-rule="nonzero"/><path fill="#d69f50" d="M 175.8125 189.195312 C 173.578125 187.910156 170.464844 187.535156 167.238281 188.714844 C 165.832031 189.246094 164.417969 190.171875 163.230469 191.082031 C 162.480469 186.546875 162.84375 182.339844 163.019531 180.269531 C 163.019531 180.257812 163.035156 180.253906 163.042969 180.261719 C 164.65625 181.269531 164.203125 184.09375 163.867188 184.902344 C 163.859375 184.917969 163.882812 184.929688 163.894531 184.914062 C 165.902344 182.550781 164.921875 179.941406 164.507812 179.28125 C 164.433594 179.160156 164.886719 179.523438 165.261719 180 C 166.664062 181.78125 166.015625 183.78125 166.171875 183.734375 C 166.175781 183.734375 166.179688 183.734375 166.183594 183.730469 C 167.113281 181.90625 166.816406 179.589844 164.898438 177.921875 C 164.808594 177.847656 165.152344 177.957031 165.261719 177.996094 C 166.894531 178.5625 167.746094 180.242188 167.738281 181.738281 C 167.738281 182.070312 168.839844 178.925781 166.171875 177.328125 C 165.671875 177.03125 165.160156 176.867188 164.824219 176.828125 C 164.5625 176.796875 166.253906 176.546875 167.441406 177.347656 C 168.15625 177.828125 168.34375 178.40625 168.324219 178.246094 C 168.117188 176.140625 165.628906 175.308594 164.121094 175.941406 C 163.964844 176.019531 164.714844 174.90625 166.171875 174.992188 C 166.453125 175.007812 166.710938 175.070312 166.917969 175.167969 C 166.933594 175.175781 166.945312 175.15625 166.9375 175.144531 C 165.835938 173.890625 164.027344 173.863281 163.066406 175.3125 C 163.0625 175.324219 163.046875 175.324219 163.039062 175.3125 C 162.675781 174.664062 162.371094 173.832031 162.242188 173.046875 C 162.210938 172.84375 162.140625 174.019531 161.414062 175.3125 C 161.40625 175.324219 161.394531 175.324219 161.386719 175.3125 C 160.421875 173.859375 158.617188 173.890625 157.519531 175.144531 C 157.507812 175.15625 157.519531 175.175781 157.535156 175.167969 C 158.269531 174.820312 159.65625 174.921875 160.347656 175.917969 C 160.359375 175.929688 160.34375 175.949219 160.328125 175.941406 C 158.777344 175.289062 156.335938 176.171875 156.128906 178.246094 C 156.128906 178.261719 156.152344 178.273438 156.160156 178.257812 C 156.230469 178.128906 156.398438 177.851562 156.71875 177.570312 C 157.960938 176.480469 159.914062 176.796875 159.628906 176.828125 C 158.867188 176.921875 157.296875 177.597656 156.71875 179.148438 C 156.246094 180.414062 156.703125 182.082031 156.71875 181.667969 C 156.734375 180.261719 157.542969 178.375 159.542969 177.890625 C 159.558594 177.886719 159.570312 177.910156 159.558594 177.921875 C 156.453125 180.644531 158.328125 183.988281 158.300781 183.722656 C 158.203125 182.644531 158.125 180.714844 159.917969 179.261719 C 159.933594 179.25 159.953125 179.265625 159.945312 179.28125 C 159.53125 179.941406 158.554688 182.550781 160.558594 184.914062 C 160.570312 184.929688 160.59375 184.917969 160.585938 184.902344 C 160.25 184.09375 159.800781 181.269531 161.410156 180.261719 C 161.417969 180.253906 161.433594 180.257812 161.433594 180.269531 C 161.609375 182.339844 161.976562 186.546875 161.222656 191.082031 C 158.675781 189.136719 156.164062 187.863281 152.929688 188.003906 C 151.304688 188.074219 149.761719 188.546875 148.640625 189.195312 C 148.597656 189.21875 148.628906 189.277344 148.671875 189.261719 C 153.375 187.761719 157.445312 189.582031 161.230469 192.722656 C 159.320312 194.386719 157.582031 196.125 156.574219 196.648438 C 156.339844 196.328125 155.933594 196.144531 155.484375 196.242188 C 154.644531 196.425781 154.445312 197.476562 154.902344 197.929688 C 156.550781 199.574219 159.136719 196.308594 162.226562 193.582031 C 165.199219 196.203125 167.902344 199.570312 169.554688 197.929688 C 169.683594 197.796875 169.835938 197.363281 169.757812 197.019531 C 169.558594 196.164062 168.417969 195.914062 167.878906 196.648438 C 166.90625 196.164062 165.207031 194.445312 163.222656 192.722656 C 167.035156 189.554688 171.0625 187.785156 175.78125 189.261719 C 175.824219 189.277344 175.855469 189.21875 175.8125 189.195312 " fill-opacity="1" fill-rule="nonzero"/><g clip-path="url(#id2)"><path fill="#d69f50" d="M 160.765625 234.085938 L 161.992188 234.085938 L 161.992188 223.132812 L 160.765625 223.132812 Z M 128.640625 232.867188 L 126.722656 228.179688 C 128.707031 226.507812 131.164062 226.816406 132.746094 228.179688 L 130.832031 232.867188 Z M 121.882812 232.867188 C 120.917969 232.835938 120.238281 232.957031 119.34375 232.675781 C 116.03125 231.632812 116.933594 227.035156 120.640625 227.035156 L 121.882812 227.035156 Z M 155.96875 232.867188 C 153.992188 232.804688 152.214844 233.214844 151.308594 231.644531 C 151.488281 230.863281 151.386719 230.160156 151.414062 226.5625 L 150.1875 226.5625 L 150.1875 230.699219 C 150.1875 233.734375 146.519531 233.535156 145.652344 231.714844 C 145.304688 230.980469 145.515625 230.675781 145.453125 226.5625 L 144.226562 226.5625 L 144.226562 230.792969 C 144.226562 232.171875 143.363281 232.867188 142.15625 232.867188 L 139.78125 232.867188 L 139.78125 226.5625 L 138.554688 226.5625 L 138.554688 232.867188 L 132.121094 232.867188 L 134.265625 227.753906 C 133.046875 226.691406 131.351562 225.695312 129.730469 225.695312 C 128.078125 225.695312 126.417969 226.648438 125.191406 227.753906 L 127.351562 232.867188 L 123.105469 232.867188 L 123.105469 225.800781 L 121.144531 225.800781 C 118.371094 225.800781 116.070312 227.390625 116.070312 229.996094 C 116.070312 234.636719 121.777344 234.0625 121.882812 234.085938 C 121.863281 234.238281 122.035156 235.285156 121.328125 235.8125 C 120.671875 236.304688 119.496094 236.289062 118.761719 236.117188 C 118.460938 236.046875 118.117188 235.921875 117.726562 235.75 L 117.34375 236.925781 C 118.121094 237.210938 118.863281 237.445312 119.6875 237.445312 C 122.027344 237.445312 123.105469 236.28125 123.105469 234.316406 L 123.105469 234.085938 C 143.117188 233.960938 142.523438 234.375 143.746094 233.707031 C 144.210938 233.453125 144.585938 233.109375 144.871094 232.683594 C 145.167969 233.171875 145.570312 233.554688 146.082031 233.828125 C 147.152344 234.402344 148.789062 234.347656 149.785156 233.859375 C 150.300781 233.605469 150.695312 233.210938 150.972656 232.683594 C 151.445312 233.488281 152.179688 234.007812 153.652344 234.074219 L 153.652344 234.085938 L 157.191406 234.085938 L 157.191406 223.132812 L 155.96875 223.132812 Z M 265.980469 232.324219 C 264.894531 234.855469 261.160156 234.925781 260.078125 232.285156 C 259.761719 231.511719 259.761719 230.59375 260.078125 229.804688 C 261.386719 226.570312 266.234375 227.5 266.234375 231.050781 C 266.234375 231.507812 266.148438 231.933594 265.980469 232.324219 M 254.085938 232.324219 C 253.148438 234.5 250.324219 234.820312 248.84375 233.300781 C 247.632812 232.050781 247.667969 230.011719 248.839844 228.785156 C 249.792969 227.773438 251.261719 227.613281 252.386719 228.074219 C 254.160156 228.8125 254.75 230.792969 254.085938 232.324219 M 224.269531 232.867188 C 223.332031 232.835938 222.652344 232.960938 221.761719 232.667969 C 218.535156 231.609375 219.304688 227.019531 223.058594 227.019531 L 224.269531 227.019531 Z M 271.289062 232.867188 L 267.078125 232.867188 C 268.390625 229.984375 266.347656 226.609375 262.984375 226.609375 C 259.886719 226.609375 257.71875 229.777344 258.984375 232.867188 L 255.183594 232.867188 C 256.464844 230.070312 254.523438 226.609375 251.089844 226.609375 C 247.988281 226.609375 245.824219 229.777344 247.089844 232.867188 L 243.195312 232.867188 L 243.195312 223.132812 L 241.972656 223.132812 L 241.972656 232.867188 L 238.0625 232.867188 C 237.996094 231.613281 238.347656 229.757812 237.296875 228.585938 C 236.582031 227.78125 235.789062 227.53125 234.707031 227.53125 L 229.28125 227.53125 L 231.589844 223.132812 L 230.253906 223.132812 L 227.902344 227.515625 C 227.976562 228.003906 228.125 228.382812 228.453125 228.753906 C 234.585938 228.804688 234.984375 228.625 235.710938 228.929688 C 236.277344 229.164062 236.625 229.59375 236.746094 230.113281 C 236.890625 230.738281 236.816406 231.210938 236.835938 232.867188 L 225.496094 232.867188 L 225.496094 225.800781 L 223.5625 225.800781 C 220.316406 225.800781 218.507812 227.730469 218.507812 229.949219 C 218.507812 232.734375 220.75 234.085938 223.5625 234.085938 L 247.886719 234.085938 C 249.691406 236.023438 252.726562 235.859375 254.386719 234.085938 L 259.78125 234.085938 C 261.578125 236.019531 264.613281 235.867188 266.28125 234.085938 L 272.515625 234.085938 L 272.515625 223.132812 L 271.289062 223.132812 Z M 276.089844 234.085938 L 277.3125 234.085938 L 277.3125 223.132812 L 276.089844 223.132812 Z M 185.75 236.773438 L 187.007812 236.773438 L 187.007812 235.519531 L 185.75 235.519531 Z M 197.734375 232.867188 L 195.820312 228.179688 C 197.785156 226.519531 200.242188 226.800781 201.84375 228.179688 L 199.925781 232.867188 Z M 206.425781 232.867188 L 201.214844 232.867188 L 203.359375 227.753906 C 202.140625 226.6875 200.4375 225.695312 198.824219 225.695312 C 197.167969 225.695312 195.511719 226.65625 194.285156 227.753906 L 196.445312 232.867188 L 191.882812 232.867188 L 191.882812 225.800781 L 190.652344 225.800781 L 190.652344 234.347656 C 190.652344 235.425781 190.574219 236.222656 189.488281 236.222656 C 189.238281 236.222656 189.105469 236.203125 188.863281 236.132812 L 188.539062 237.308594 C 189.5625 237.585938 190.773438 237.492188 191.375 236.613281 C 191.917969 235.8125 191.855469 234.714844 191.882812 234.085938 L 207.652344 234.085938 L 207.652344 223.132812 L 206.425781 223.132812 Z M 113.34375 226.871094 C 111.980469 225.382812 110.402344 225.921875 109.863281 225.800781 L 109.863281 227.019531 C 110.757812 227.054688 111.171875 226.921875 111.78125 227.210938 C 112.292969 227.457031 112.652344 227.851562 112.800781 228.410156 C 112.964844 229.050781 112.871094 229.550781 112.898438 232.867188 L 107.152344 232.867188 L 107.152344 234.085938 L 114.125 234.085938 C 114.074219 229.460938 114.253906 228.96875 113.933594 227.9375 C 113.804688 227.519531 113.609375 227.164062 113.34375 226.871094 M 181.265625 236.789062 L 182.523438 236.789062 L 182.523438 235.535156 L 181.265625 235.535156 Z M 173.8125 232.867188 C 172.875 232.835938 172.195312 232.960938 171.304688 232.667969 C 168.070312 231.609375 168.851562 227.019531 172.597656 227.019531 L 173.8125 227.019531 Z M 186.992188 225.800781 L 185.765625 225.800781 L 185.765625 232.867188 L 181.136719 232.867188 L 181.136719 225.800781 L 179.910156 225.800781 L 179.910156 232.867188 L 175.035156 232.867188 L 175.035156 225.800781 C 173.496094 225.847656 171.195312 225.488281 169.425781 226.984375 C 166.921875 229.101562 167.566406 234.085938 173.105469 234.085938 L 186.992188 234.085938 Z M 179.117188 236.789062 L 180.378906 236.789062 L 180.378906 235.535156 L 179.117188 235.535156 Z M 97.179688 223.132812 L 95.921875 223.132812 L 95.921875 224.386719 L 97.179688 224.386719 Z M 223.34375 223.132812 L 222.082031 223.132812 L 222.082031 224.386719 L 223.34375 224.386719 Z M 175.03125 223.132812 L 173.769531 223.132812 L 173.769531 224.386719 L 175.03125 224.386719 Z M 104.414062 236.789062 L 105.675781 236.789062 L 105.675781 235.535156 L 104.414062 235.535156 Z M 172.882812 223.132812 L 171.625 223.132812 L 171.625 224.386719 L 172.882812 224.386719 Z M 99.328125 223.132812 L 98.070312 223.132812 L 98.070312 224.386719 L 99.328125 224.386719 Z M 102.265625 236.789062 L 103.527344 236.789062 L 103.527344 235.535156 L 102.265625 235.535156 Z M 98.109375 232.867188 C 97.175781 232.835938 96.492188 232.960938 95.601562 232.667969 C 92.375 231.613281 93.140625 227.019531 96.898438 227.019531 L 98.109375 227.019531 Z M 105.433594 225.800781 L 104.210938 225.800781 L 104.210938 232.867188 L 99.335938 232.867188 L 99.335938 225.800781 C 97.863281 225.847656 96.695312 225.65625 95.320312 226.113281 C 94.164062 226.5 93.21875 227.210938 92.707031 228.304688 C 92.171875 229.441406 92.265625 230.886719 92.761719 231.8125 C 93.648438 233.484375 95.507812 234.085938 97.402344 234.085938 L 105.433594 234.085938 Z M 211.222656 234.085938 L 212.449219 234.085938 L 212.449219 223.132812 L 211.222656 223.132812 Z M 225.488281 223.132812 L 224.230469 223.132812 L 224.230469 224.386719 L 225.488281 224.386719 Z M 225.488281 223.132812 " fill-opacity="1" fill-rule="nonzero"/></g><path fill="#d69f50" d="M 93.546875 242.109375 L 95.085938 242.109375 L 95.085938 246.492188 L 99.25 242.109375 L 101.140625 242.109375 L 97.5 245.859375 L 101.304688 250.828125 L 99.441406 250.828125 L 96.449219 246.902344 L 95.085938 248.300781 L 95.085938 250.828125 L 93.546875 250.828125 " fill-opacity="1" fill-rule="nonzero"/><path fill="#d69f50" d="M 102.707031 242.109375 L 104.246094 242.109375 L 104.246094 250.828125 L 102.707031 250.828125 Z M 102.707031 242.109375 " fill-opacity="1" fill-rule="nonzero"/><path fill="#d69f50" d="M 106.613281 242.109375 L 108.042969 242.109375 L 112.734375 248.136719 L 112.734375 242.109375 L 114.246094 242.109375 L 114.246094 250.828125 L 112.957031 250.828125 L 108.128906 244.625 L 108.128906 250.828125 L 106.613281 250.828125 " fill-opacity="1" fill-rule="nonzero"/><path fill="#d69f50" d="M 116.152344 246.492188 L 116.152344 246.46875 C 116.152344 244.027344 118.03125 241.957031 120.667969 241.957031 C 122.195312 241.957031 123.132812 242.382812 124.035156 243.140625 L 123.058594 244.300781 C 120.6875 242.292969 117.765625 243.738281 117.765625 246.445312 L 117.765625 246.46875 C 117.765625 248.261719 118.953125 249.582031 120.742188 249.582031 C 121.570312 249.582031 122.320312 249.320312 122.859375 248.921875 L 122.859375 247.289062 L 120.617188 247.289062 L 120.617188 245.957031 L 124.347656 245.957031 L 124.347656 249.621094 C 121.214844 252.289062 116.152344 250.917969 116.152344 246.492188 " fill-opacity="1" fill-rule="nonzero"/><path fill="#d69f50" d="M 129.738281 249.433594 C 133.824219 249.433594 133.773438 243.503906 129.738281 243.503906 L 128.011719 243.503906 L 128.011719 249.433594 Z M 126.472656 242.109375 L 129.738281 242.109375 C 135.984375 242.109375 135.902344 250.828125 129.738281 250.828125 L 126.472656 250.828125 Z M 126.472656 242.109375 " fill-opacity="1" fill-rule="nonzero"/><path fill="#d69f50" d="M 143.378906 246.492188 L 143.378906 246.46875 C 143.378906 244.773438 142.140625 243.367188 140.398438 243.367188 C 138.660156 243.367188 137.449219 244.75 137.449219 246.445312 L 137.449219 246.46875 C 137.449219 248.164062 138.6875 249.570312 140.425781 249.570312 C 142.164062 249.570312 143.378906 248.1875 143.378906 246.492188 M 135.832031 246.492188 L 135.832031 246.46875 C 135.832031 244.015625 137.734375 241.957031 140.425781 241.957031 C 143.113281 241.957031 144.992188 243.988281 144.992188 246.445312 L 144.992188 246.46875 C 144.992188 248.921875 143.089844 250.976562 140.398438 250.976562 C 137.710938 250.976562 135.832031 248.945312 135.832031 246.492188 " fill-opacity="1" fill-rule="nonzero"/><path fill="#d69f50" d="M 146.902344 242.109375 L 148.542969 242.109375 L 151.207031 246.230469 L 153.871094 242.109375 L 155.511719 242.109375 L 155.511719 250.828125 L 153.972656 250.828125 L 153.972656 244.574219 L 151.207031 248.683594 L 151.15625 248.683594 L 148.417969 244.601562 L 148.417969 250.828125 L 146.902344 250.828125 " fill-opacity="1" fill-rule="nonzero"/><path fill="#d69f50" d="M 168.675781 246.492188 L 168.675781 246.46875 C 168.675781 244.773438 167.4375 243.367188 165.699219 243.367188 C 163.960938 243.367188 162.746094 244.75 162.746094 246.445312 L 162.746094 246.46875 C 162.746094 248.164062 163.984375 249.570312 165.722656 249.570312 C 167.460938 249.570312 168.675781 248.1875 168.675781 246.492188 M 161.132812 246.492188 L 161.132812 246.46875 C 161.132812 244.015625 163.035156 241.957031 165.722656 241.957031 C 168.414062 241.957031 170.289062 243.988281 170.289062 246.445312 L 170.289062 246.46875 C 170.289062 248.921875 168.386719 250.976562 165.699219 250.976562 C 163.007812 250.976562 161.132812 248.945312 161.132812 246.492188 " fill-opacity="1" fill-rule="nonzero"/><path fill="#d69f50" d="M 172.203125 242.109375 L 178.71875 242.109375 L 178.71875 243.503906 L 173.742188 243.503906 L 173.742188 245.882812 L 178.15625 245.882812 L 178.15625 247.277344 L 173.742188 247.277344 L 173.742188 250.828125 L 172.203125 250.828125 " fill-opacity="1" fill-rule="nonzero"/><path fill="#d69f50" d="M 183.578125 249.558594 L 184.503906 248.460938 C 185.339844 249.183594 186.179688 249.59375 187.269531 249.59375 C 188.21875 249.59375 188.820312 249.160156 188.820312 248.5 L 188.820312 248.476562 C 188.820312 246.527344 183.925781 247.855469 183.925781 244.539062 L 183.925781 244.511719 C 183.925781 241.835938 187.683594 241.152344 190.09375 243.082031 L 189.269531 244.238281 C 187.253906 242.742188 185.46875 243.332031 185.46875 244.375 L 185.46875 244.402344 C 185.46875 246.320312 190.359375 245.105469 190.359375 248.324219 L 190.359375 248.347656 C 190.359375 251.40625 186.011719 251.722656 183.578125 249.558594 " fill-opacity="1" fill-rule="nonzero"/><path fill="#d69f50" d="M 197.277344 247.367188 L 195.761719 243.878906 L 194.261719 247.367188 Z M 195.074219 242.046875 L 196.5 242.046875 L 200.355469 250.828125 L 198.726562 250.828125 L 197.839844 248.722656 L 193.699219 248.722656 L 192.796875 250.828125 L 191.21875 250.828125 Z M 195.074219 242.046875 " fill-opacity="1" fill-rule="nonzero"/><path fill="#d69f50" d="M 201.257812 247.128906 L 201.257812 242.109375 L 202.796875 242.109375 L 202.796875 247.066406 C 202.796875 248.6875 203.636719 249.558594 205.011719 249.558594 C 206.375 249.558594 207.214844 248.734375 207.214844 247.128906 L 207.214844 242.109375 L 208.753906 242.109375 L 208.753906 247.054688 C 208.753906 249.65625 207.277344 250.964844 204.988281 250.964844 C 202.710938 250.964844 201.257812 249.65625 201.257812 247.128906 " fill-opacity="1" fill-rule="nonzero"/><path fill="#d69f50" d="M 214.269531 249.433594 C 218.355469 249.433594 218.308594 243.503906 214.269531 243.503906 L 212.542969 243.503906 L 212.542969 249.433594 Z M 211.003906 242.109375 L 214.269531 242.109375 C 220.519531 242.109375 220.433594 250.828125 214.269531 250.828125 L 211.003906 250.828125 Z M 211.003906 242.109375 " fill-opacity="1" fill-rule="nonzero"/><path fill="#d69f50" d="M 220.875 242.109375 L 222.414062 242.109375 L 222.414062 250.828125 L 220.875 250.828125 Z M 220.875 242.109375 " fill-opacity="1" fill-rule="nonzero"/><path fill="#d69f50" d="M 233.8125 247.367188 L 232.296875 243.878906 L 230.796875 247.367188 Z M 231.609375 242.046875 L 233.035156 242.046875 L 236.890625 250.828125 L 235.261719 250.828125 L 234.375 248.722656 L 230.234375 248.722656 L 229.332031 250.828125 L 227.757812 250.828125 Z M 231.609375 242.046875 " fill-opacity="1" fill-rule="nonzero"/><path fill="#d69f50" d="M 242.132812 246.429688 C 243.234375 246.429688 243.9375 245.859375 243.9375 244.972656 L 243.9375 244.949219 C 243.9375 244.015625 243.261719 243.503906 242.121094 243.503906 L 239.882812 243.503906 L 239.882812 246.429688 Z M 238.34375 242.109375 L 242.246094 242.109375 C 244.097656 242.109375 245.5 243.035156 245.5 244.859375 C 245.464844 244.957031 245.683594 246.878906 243.410156 247.527344 L 245.773438 250.828125 L 243.960938 250.828125 L 241.808594 247.789062 C 241.640625 247.789062 239.785156 247.789062 239.882812 247.789062 L 239.882812 250.828125 L 238.34375 250.828125 Z M 238.34375 242.109375 " fill-opacity="1" fill-rule="nonzero"/><path fill="#d69f50" d="M 252.964844 247.367188 L 251.449219 243.878906 L 249.949219 247.367188 Z M 250.761719 242.046875 L 252.1875 242.046875 L 256.039062 250.828125 L 254.414062 250.828125 L 253.527344 248.722656 L 249.382812 248.722656 L 248.484375 250.828125 L 246.90625 250.828125 Z M 250.761719 242.046875 " fill-opacity="1" fill-rule="nonzero"/><path fill="#d69f50" d="M 261.558594 249.472656 C 262.609375 249.472656 263.25 249.058594 263.25 248.273438 L 263.25 248.25 C 263.25 247.515625 262.660156 247.078125 261.445312 247.078125 L 259.007812 247.078125 L 259.007812 249.472656 Z M 261.109375 245.785156 C 262.097656 245.785156 262.761719 245.398438 262.761719 244.601562 L 262.761719 244.574219 C 262.761719 243.890625 262.210938 243.464844 261.222656 243.464844 L 259.007812 243.464844 L 259.007812 245.785156 Z M 257.492188 242.109375 L 261.421875 242.109375 C 262.960938 242.109375 264.300781 242.828125 264.300781 244.324219 C 264.265625 244.421875 264.457031 245.566406 263.046875 246.292969 C 264.074219 246.644531 264.785156 247.230469 264.785156 248.410156 L 264.785156 248.4375 C 264.785156 249.992188 263.5 250.828125 261.546875 250.828125 L 257.492188 250.828125 Z M 257.492188 242.109375 " fill-opacity="1" fill-rule="nonzero"/><path fill="#d69f50" d="M 266.691406 242.109375 L 268.230469 242.109375 L 268.230469 250.828125 L 266.691406 250.828125 Z M 266.691406 242.109375 " fill-opacity="1" fill-rule="nonzero"/><path fill="#d69f50" d="M 275.757812 247.367188 L 274.242188 243.878906 L 272.742188 247.367188 Z M 273.554688 242.046875 L 274.980469 242.046875 L 278.832031 250.828125 L 277.207031 250.828125 L 276.320312 248.722656 L 272.175781 248.722656 L 271.277344 250.828125 L 269.699219 250.828125 Z M 273.554688 242.046875 " fill-opacity="1" fill-rule="nonzero"/></svg>