<svg xmlns="http://www.w3.org/2000/svg" xmlns:xlink="http://www.w3.org/1999/xlink" width="500" zoomAndPan="magnify" viewBox="0 0 375 374.999991" height="500" preserveAspectRatio="xMidYMid meet" version="1.0"><defs><clipPath id="id1"><path d="M 73.359375 73.359375 L 301.359375 73.359375 L 301.359375 301.359375 L 73.359375 301.359375 Z M 73.359375 73.359375 " clip-rule="nonzero"/></clipPath></defs><rect x="-37.5" width="450" fill="#ffffff" y="-37.499999" height="449.999989" fill-opacity="1"/><rect x="-37.5" width="450" fill="#ffffff" y="-37.499999" height="449.999989" fill-opacity="1"/><rect x="-37.5" width="450" fill="#ffffff" y="-37.499999" height="449.999989" fill-opacity="1"/><path fill="#c3d9e8" d="M 265.136719 0 L 375 109.863281 L 375 265.136719 L 265.136719 375 L 109.863281 375 L 0 265.136719 L 0 109.863281 L 109.863281 0 L 265.136719 0 " fill-opacity="1" fill-rule="nonzero"/><g clip-path="url(#id1)"><path fill="#2b5a7b" d="M 301.449219 187.425781 C 301.449219 189.292969 301.402344 191.15625 301.3125 193.019531 C 301.21875 194.886719 301.082031 196.746094 300.898438 198.601562 C 300.71875 200.460938 300.488281 202.3125 300.214844 204.15625 C 299.941406 206.003906 299.621094 207.839844 299.257812 209.671875 C 298.894531 211.5 298.484375 213.320312 298.03125 215.132812 C 297.578125 216.941406 297.082031 218.738281 296.539062 220.523438 C 295.996094 222.3125 295.414062 224.082031 294.785156 225.839844 C 294.15625 227.597656 293.484375 229.335938 292.769531 231.0625 C 292.054688 232.785156 291.300781 234.492188 290.5 236.175781 C 289.703125 237.863281 288.863281 239.53125 287.984375 241.175781 C 287.105469 242.820312 286.1875 244.445312 285.226562 246.046875 C 284.265625 247.644531 283.269531 249.222656 282.234375 250.773438 C 281.195312 252.324219 280.121094 253.851562 279.011719 255.347656 C 277.898438 256.847656 276.75 258.320312 275.566406 259.761719 C 274.382812 261.203125 273.164062 262.617188 271.910156 264 C 270.660156 265.382812 269.371094 266.734375 268.050781 268.050781 C 266.734375 269.371094 265.382812 270.660156 264 271.910156 C 262.617188 273.164062 261.203125 274.382812 259.761719 275.566406 C 258.320312 276.75 256.847656 277.898438 255.347656 279.011719 C 253.851562 280.121094 252.324219 281.195312 250.773438 282.234375 C 249.222656 283.269531 247.644531 284.269531 246.046875 285.226562 C 244.445312 286.1875 242.820312 287.105469 241.175781 287.984375 C 239.53125 288.863281 237.863281 289.703125 236.175781 290.5 C 234.488281 291.300781 232.785156 292.054688 231.0625 292.769531 C 229.335938 293.484375 227.597656 294.15625 225.839844 294.785156 C 224.082031 295.414062 222.3125 295.996094 220.523438 296.539062 C 218.738281 297.082031 216.941406 297.578125 215.132812 298.03125 C 213.320312 298.484375 211.5 298.894531 209.671875 299.257812 C 207.839844 299.621094 206.003906 299.941406 204.15625 300.214844 C 202.3125 300.488281 200.460938 300.71875 198.601562 300.898438 C 196.746094 301.082031 194.882812 301.21875 193.019531 301.3125 C 191.15625 301.402344 189.292969 301.449219 187.425781 301.449219 C 185.558594 301.449219 183.695312 301.402344 181.832031 301.3125 C 179.96875 301.21875 178.105469 301.082031 176.25 300.898438 C 174.394531 300.71875 172.542969 300.488281 170.695312 300.214844 C 168.847656 299.941406 167.011719 299.621094 165.179688 299.257812 C 163.351562 298.894531 161.53125 298.484375 159.722656 298.03125 C 157.910156 297.578125 156.113281 297.082031 154.328125 296.539062 C 152.542969 295.996094 150.769531 295.414062 149.011719 294.785156 C 147.257812 294.15625 145.515625 293.484375 143.792969 292.769531 C 142.066406 292.054688 140.363281 291.300781 138.675781 290.5 C 136.988281 289.703125 135.320312 288.863281 133.675781 287.984375 C 132.03125 287.105469 130.40625 286.1875 128.804688 285.226562 C 127.207031 284.269531 125.628906 283.269531 124.078125 282.234375 C 122.527344 281.195312 121 280.121094 119.503906 279.011719 C 118.003906 277.898438 116.53125 276.75 115.089844 275.566406 C 113.648438 274.382812 112.234375 273.164062 110.851562 271.910156 C 109.46875 270.660156 108.121094 269.371094 106.800781 268.050781 C 105.480469 266.734375 104.195312 265.382812 102.941406 264 C 101.6875 262.617188 100.46875 261.203125 99.285156 259.761719 C 98.101562 258.320312 96.953125 256.847656 95.84375 255.351562 C 94.730469 253.851562 93.65625 252.324219 92.621094 250.773438 C 91.582031 249.222656 90.585938 247.644531 89.625 246.046875 C 88.664062 244.445312 87.746094 242.820312 86.867188 241.175781 C 85.988281 239.53125 85.148438 237.863281 84.351562 236.175781 C 83.554688 234.492188 82.796875 232.785156 82.082031 231.0625 C 81.367188 229.335938 80.695312 227.597656 80.070312 225.839844 C 79.441406 224.082031 78.855469 222.3125 78.3125 220.523438 C 77.769531 218.738281 77.273438 216.941406 76.820312 215.132812 C 76.367188 213.320312 75.957031 211.5 75.59375 209.671875 C 75.230469 207.839844 74.910156 206.003906 74.636719 204.15625 C 74.363281 202.3125 74.136719 200.460938 73.953125 198.601562 C 73.769531 196.746094 73.632812 194.886719 73.539062 193.019531 C 73.449219 191.15625 73.402344 189.292969 73.402344 187.425781 C 73.402344 185.558594 73.449219 183.695312 73.539062 181.832031 C 73.632812 179.96875 73.769531 178.105469 73.953125 176.25 C 74.136719 174.394531 74.363281 172.542969 74.636719 170.695312 C 74.910156 168.851562 75.230469 167.011719 75.59375 165.179688 C 75.957031 163.351562 76.367188 161.53125 76.820312 159.722656 C 77.273438 157.910156 77.769531 156.113281 78.3125 154.328125 C 78.855469 152.542969 79.441406 150.769531 80.070312 149.011719 C 80.695312 147.257812 81.367188 145.515625 82.082031 143.792969 C 82.796875 142.066406 83.554688 140.363281 84.351562 138.675781 C 85.148438 136.988281 85.988281 135.320312 86.867188 133.675781 C 87.746094 132.03125 88.664062 130.40625 89.625 128.808594 C 90.585938 127.207031 91.582031 125.628906 92.621094 124.078125 C 93.65625 122.527344 94.730469 121 95.84375 119.503906 C 96.953125 118.003906 98.101562 116.535156 99.285156 115.089844 C 100.46875 113.648438 101.6875 112.234375 102.941406 110.851562 C 104.195312 109.46875 105.480469 108.121094 106.800781 106.800781 C 108.121094 105.480469 109.46875 104.195312 110.851562 102.941406 C 112.234375 101.6875 113.648438 100.46875 115.089844 99.285156 C 116.53125 98.101562 118.003906 96.953125 119.503906 95.84375 C 121 94.730469 122.527344 93.65625 124.078125 92.621094 C 125.628906 91.582031 127.207031 90.585938 128.804688 89.625 C 130.40625 88.667969 132.03125 87.746094 133.675781 86.867188 C 135.320312 85.988281 136.988281 85.148438 138.675781 84.351562 C 140.363281 83.554688 142.066406 82.796875 143.792969 82.082031 C 145.515625 81.367188 147.257812 80.699219 149.011719 80.070312 C 150.769531 79.441406 152.542969 78.855469 154.328125 78.3125 C 156.113281 77.773438 157.910156 77.273438 159.722656 76.820312 C 161.53125 76.367188 163.351562 75.957031 165.179688 75.59375 C 167.011719 75.230469 168.847656 74.910156 170.695312 74.636719 C 172.542969 74.363281 174.394531 74.136719 176.25 73.953125 C 178.105469 73.769531 179.96875 73.632812 181.832031 73.539062 C 183.695312 73.449219 185.558594 73.402344 187.425781 73.402344 C 189.292969 73.402344 191.15625 73.449219 193.019531 73.539062 C 194.882812 73.632812 196.746094 73.769531 198.601562 73.953125 C 200.460938 74.136719 202.3125 74.363281 204.15625 74.636719 C 206.003906 74.910156 207.839844 75.230469 209.671875 75.59375 C 211.5 75.957031 213.320312 76.367188 215.132812 76.820312 C 216.941406 77.273438 218.738281 77.773438 220.523438 78.3125 C 222.3125 78.855469 224.082031 79.441406 225.839844 80.070312 C 227.597656 80.699219 229.335938 81.367188 231.0625 82.082031 C 232.785156 82.796875 234.488281 83.554688 236.175781 84.351562 C 237.863281 85.148438 239.53125 85.988281 241.175781 86.867188 C 242.820312 87.746094 244.445312 88.667969 246.046875 89.625 C 247.644531 90.585938 249.222656 91.582031 250.773438 92.621094 C 252.324219 93.65625 253.851562 94.730469 255.347656 95.84375 C 256.847656 96.953125 258.320312 98.101562 259.761719 99.285156 C 261.203125 100.46875 262.617188 101.6875 264 102.941406 C 265.382812 104.195312 266.734375 105.480469 268.050781 106.800781 C 269.371094 108.121094 270.660156 109.46875 271.910156 110.851562 C 273.164062 112.234375 274.382812 113.648438 275.566406 115.089844 C 276.75 116.535156 277.898438 118.003906 279.011719 119.503906 C 280.121094 121 281.195312 122.527344 282.234375 124.078125 C 283.269531 125.628906 284.265625 127.207031 285.226562 128.808594 C 286.1875 130.40625 287.105469 132.03125 287.984375 133.675781 C 288.863281 135.320312 289.703125 136.988281 290.5 138.675781 C 291.300781 140.363281 292.054688 142.066406 292.769531 143.792969 C 293.484375 145.515625 294.15625 147.257812 294.785156 149.011719 C 295.414062 150.769531 295.996094 152.542969 296.539062 154.328125 C 297.082031 156.113281 297.578125 157.910156 298.03125 159.722656 C 298.484375 161.53125 298.894531 163.351562 299.257812 165.179688 C 299.621094 167.011719 299.941406 168.851562 300.214844 170.695312 C 300.488281 172.542969 300.71875 174.394531 300.898438 176.25 C 301.082031 178.105469 301.21875 179.96875 301.3125 181.832031 C 301.402344 183.695312 301.449219 185.558594 301.449219 187.425781 Z M 301.449219 187.425781 " fill-opacity="1" fill-rule="nonzero"/></g><path fill="#c3d9e8" d="M 161.148438 133.144531 C 164.949219 125.167969 169.640625 118.996094 174.917969 115.191406 C 159.6875 117.8125 146.066406 125.128906 135.59375 135.597656 C 131.585938 139.605469 128.039062 144.078125 125.042969 148.921875 L 155.429688 148.921875 C 156.996094 143.113281 158.921875 137.8125 161.148438 133.144531 Z M 161.148438 133.144531 " fill-opacity="1" fill-rule="evenodd"/><path fill="#c3d9e8" d="M 185.796875 148.921875 L 185.796875 114.214844 C 177.414062 115.082031 169.777344 122.613281 164.089844 134.542969 C 162.050781 138.816406 160.273438 143.640625 158.804688 148.921875 Z M 185.796875 148.921875 " fill-opacity="1" fill-rule="evenodd"/><path fill="#c3d9e8" d="M 216.046875 148.921875 C 214.578125 143.640625 212.800781 138.816406 210.761719 134.542969 C 205.074219 122.613281 197.4375 115.082031 189.054688 114.214844 L 189.054688 148.921875 Z M 216.046875 148.921875 " fill-opacity="1" fill-rule="evenodd"/><path fill="#c3d9e8" d="M 239.257812 135.597656 C 228.785156 125.128906 215.160156 117.8125 199.933594 115.191406 C 205.207031 118.996094 209.898438 125.167969 213.703125 133.144531 C 215.925781 137.8125 217.855469 143.113281 219.421875 148.921875 L 249.808594 148.921875 C 246.808594 144.078125 243.265625 139.605469 239.257812 135.597656 Z M 239.257812 135.597656 " fill-opacity="1" fill-rule="evenodd"/><path fill="#c3d9e8" d="M 260.714844 186.136719 C 260.5 173.839844 257.261719 162.285156 251.707031 152.179688 L 220.25 152.179688 C 222.640625 162.203125 223.988281 173.59375 223.988281 185.785156 C 223.988281 185.902344 223.988281 186.019531 223.988281 186.136719 Z M 260.714844 186.136719 " fill-opacity="1" fill-rule="evenodd"/><path fill="#c3d9e8" d="M 220.730469 185.785156 C 220.730469 173.535156 219.347656 162.132812 216.902344 152.179688 L 189.054688 152.179688 L 189.054688 186.136719 L 220.730469 186.136719 C 220.730469 186.019531 220.730469 185.902344 220.730469 185.785156 Z M 220.730469 185.785156 " fill-opacity="1" fill-rule="evenodd"/><path fill="#c3d9e8" d="M 185.796875 186.136719 L 185.796875 152.179688 L 157.949219 152.179688 C 155.503906 162.132812 154.121094 173.535156 154.121094 185.785156 C 154.121094 185.902344 154.121094 186.019531 154.121094 186.136719 Z M 185.796875 186.136719 " fill-opacity="1" fill-rule="evenodd"/><path fill="#c3d9e8" d="M 150.863281 185.785156 C 150.863281 173.59375 152.210938 162.203125 154.601562 152.179688 L 123.140625 152.179688 C 117.589844 162.285156 114.347656 173.839844 114.136719 186.136719 L 150.863281 186.136719 C 150.863281 186.019531 150.863281 185.902344 150.863281 185.785156 Z M 150.863281 185.785156 " fill-opacity="1" fill-rule="evenodd"/><path fill="#c3d9e8" d="M 155.402344 223.351562 C 152.769531 213.128906 151.167969 201.5625 150.902344 189.394531 L 114.152344 189.394531 C 114.476562 201.710938 117.835938 213.269531 123.515625 223.351562 Z M 155.402344 223.351562 " fill-opacity="1" fill-rule="evenodd"/><path fill="#c3d9e8" d="M 185.796875 223.351562 L 185.796875 189.394531 L 154.160156 189.394531 C 154.433594 201.621094 156.074219 213.199219 158.757812 223.351562 Z M 185.796875 223.351562 " fill-opacity="1" fill-rule="evenodd"/><path fill="#c3d9e8" d="M 220.453125 195.285156 C 220.566406 193.355469 220.648438 191.390625 220.691406 189.394531 L 189.054688 189.394531 L 189.054688 223.347656 L 198.625 223.347656 L 191.773438 197.773438 L 191.042969 195.054688 L 193.765625 195.785156 L 219.832031 202.765625 C 220.097656 200.296875 220.304688 197.800781 220.453125 195.285156 Z M 220.453125 195.285156 " fill-opacity="1" fill-rule="evenodd"/><path fill="#c3d9e8" d="M 260.699219 189.394531 L 223.949219 189.394531 C 223.902344 191.421875 223.820312 193.453125 223.699219 195.476562 C 223.535156 198.25 223.304688 200.96875 223.011719 203.621094 L 239.835938 208.128906 L 226.203125 218.890625 L 230.660156 223.347656 L 251.339844 223.347656 C 253.050781 220.3125 254.550781 217.144531 255.820312 213.863281 C 258.765625 206.25 260.472656 198.011719 260.699219 189.394531 Z M 260.699219 189.394531 " fill-opacity="1" fill-rule="evenodd"/><path fill="#c3d9e8" d="M 161.351562 240.492188 C 159.433594 236.292969 157.734375 231.632812 156.292969 226.605469 L 125.460938 226.605469 C 128.371094 231.195312 131.773438 235.4375 135.59375 239.261719 C 146.210938 249.878906 160.074219 257.253906 175.5625 259.777344 C 170.113281 255.765625 165.265625 249.078125 161.351562 240.492188 Z M 161.351562 240.492188 " fill-opacity="1" fill-rule="evenodd"/><path fill="#c3d9e8" d="M 185.796875 260.636719 L 185.796875 226.605469 L 159.671875 226.605469 C 161.011719 231.132812 162.566406 235.335938 164.304688 239.144531 C 169.976562 251.582031 177.53125 259.6875 185.796875 260.636719 Z M 185.796875 260.636719 " fill-opacity="1" fill-rule="evenodd"/><path fill="#c3d9e8" d="M 204.117188 243.847656 L 199.5 226.609375 L 189.054688 226.609375 L 189.054688 260.636719 C 193.761719 260.09375 198.25 257.214844 202.292969 252.53125 C 206.597656 247.539062 210.375 240.535156 213.375 232.121094 Z M 204.117188 243.847656 " fill-opacity="1" fill-rule="evenodd"/><path fill="#c3d9e8" d="M 231.03125 246.359375 L 216.816406 232.144531 C 213.628906 241.398438 209.507812 249.140625 204.75 254.652344 C 203.015625 256.664062 201.195312 258.378906 199.300781 259.773438 C 203.414062 259.105469 207.410156 258.09375 211.261719 256.769531 C 218.421875 254.308594 225.074219 250.773438 231.03125 246.359375 Z M 231.03125 246.359375 " fill-opacity="1" fill-rule="evenodd"/><path fill="#c3d9e8" d="M 249.394531 226.609375 L 233.917969 226.609375 L 242.789062 235.476562 C 245.203125 232.695312 247.414062 229.730469 249.394531 226.609375 Z M 249.394531 226.609375 " fill-opacity="1" fill-rule="evenodd"/><path fill="#c3d9e8" d="M 248.992188 246.285156 L 221.320312 218.613281 L 232.746094 209.597656 L 195.644531 199.65625 L 205.585938 236.753906 L 214.605469 225.328125 L 242.277344 253 Z M 248.992188 246.285156 " fill-opacity="1" fill-rule="evenodd"/></svg>