<svg xmlns="http://www.w3.org/2000/svg" xmlns:xlink="http://www.w3.org/1999/xlink" width="500" zoomAndPan="magnify" viewBox="0 0 375 374.999991" height="500" preserveAspectRatio="xMidYMid meet" version="1.0"><defs><clipPath id="id1"><path d="M 87.117188 73.371094 L 288.289062 73.371094 L 288.289062 301.371094 L 87.117188 301.371094 Z M 87.117188 73.371094 " clip-rule="nonzero"/></clipPath></defs><rect x="-37.5" width="450" fill="#ffffff" y="-37.499999" height="449.999989" fill-opacity="1"/><rect x="-37.5" width="450" fill="#ffffff" y="-37.499999" height="449.999989" fill-opacity="1"/><rect x="-37.5" width="450" fill="#ffffff" y="-37.499999" height="449.999989" fill-opacity="1"/><rect x="-37.5" width="450" fill="#ffffff" y="-37.499999" height="449.999989" fill-opacity="1"/><path fill="#c3d9e8" d="M 265.136719 0 L 375 109.863281 L 375 265.136719 L 265.136719 375 L 109.863281 375 L 0 265.136719 L 0 109.863281 L 109.863281 0 L 265.136719 0 " fill-opacity="1" fill-rule="nonzero"/><g clip-path="url(#id1)"><path fill="#2b5a7b" d="M 106.734375 243.886719 C 98.640625 243.886719 92.085938 237.328125 92.085938 229.25 L 92.085938 220.324219 C 91.945312 212.390625 98.273438 205.851562 106.226562 205.710938 C 106.410156 205.710938 106.570312 205.710938 106.734375 205.710938 L 135.292969 205.710938 L 135.292969 119.460938 L 155.175781 119.460938 L 155.175781 187.371094 L 175.035156 220.324219 L 194.914062 187.371094 L 194.914062 119.964844 L 283.316406 120.453125 L 283.316406 243.886719 L 264.453125 243.886719 L 264.453125 154.417969 L 213.78125 154.417969 L 213.78125 243.886719 Z M 92.085938 109.542969 L 92.085938 106.324219 C 92.085938 98.246094 98.640625 91.710938 106.734375 91.710938 L 130.324219 91.710938 L 130.324219 200.75 L 106.734375 200.75 C 101.09375 200.648438 95.699219 203.117188 92.085938 207.449219 Z M 189.945312 78.328125 L 189.945312 99.136719 L 160.144531 99.136719 L 160.144531 78.328125 Z M 160.144531 104.097656 L 189.945312 104.097656 L 189.945312 185.894531 L 175.035156 210.667969 L 160.144531 185.894531 Z M 218.75 296.410156 L 218.75 159.355469 L 259.484375 159.355469 L 259.484375 180.183594 L 246.5625 180.183594 L 246.5625 185.144531 L 259.484375 185.144531 L 259.484375 202.996094 L 246.5625 202.996094 L 246.5625 207.9375 L 259.484375 207.9375 L 259.484375 225.527344 L 246.5625 225.527344 L 246.5625 230.503906 L 259.484375 230.503906 L 259.484375 248.09375 L 246.5625 248.09375 L 246.5625 253.054688 L 259.484375 253.054688 L 259.484375 296.410156 Z M 264.453125 301.371094 L 264.453125 248.824219 L 288.289062 248.824219 L 288.289062 115.757812 L 194.914062 115.007812 L 194.914062 73.371094 L 155.175781 73.371094 L 155.175781 114.765625 L 135.292969 114.765625 L 135.292969 86.75 L 106.734375 86.75 C 96.101562 86.75 87.378906 95.210938 87.117188 105.839844 L 87.117188 229.25 C 87.117188 240.058594 95.902344 248.824219 106.734375 248.824219 L 213.78125 248.824219 L 213.78125 301.371094 L 264.453125 301.371094 " fill-opacity="1" fill-rule="nonzero"/></g><path fill="#2b5a7b" d="M 239.117188 281.554688 C 235.972656 281.554688 233.394531 278.984375 233.394531 275.847656 C 233.394531 272.707031 235.972656 270.160156 239.117188 270.160156 C 242.28125 270.160156 244.835938 272.707031 244.835938 275.847656 C 244.835938 278.984375 242.28125 281.554688 239.117188 281.554688 Z M 239.117188 265.441406 C 233.292969 264.550781 227.835938 268.539062 226.945312 274.347656 C 226.03125 280.15625 230.046875 285.601562 235.871094 286.511719 C 236.945312 286.675781 238.039062 286.675781 239.117188 286.511719 C 244.9375 287.382812 250.394531 283.394531 251.289062 277.585938 C 252.199219 271.777344 248.203125 266.332031 242.363281 265.441406 C 241.285156 265.261719 240.191406 265.261719 239.117188 265.441406 " fill-opacity="1" fill-rule="nonzero"/></svg>