<svg xmlns="http://www.w3.org/2000/svg" xmlns:xlink="http://www.w3.org/1999/xlink" width="500" zoomAndPan="magnify" viewBox="0 0 375 374.999991" height="500" preserveAspectRatio="xMidYMid meet" version="1.0"><defs><clipPath id="id1"><path d="M 87 66.5 L 230 66.5 L 230 278 L 87 278 Z M 87 66.5 " clip-rule="nonzero"/></clipPath><clipPath id="id2"><path d="M 161 97 L 303.6875 97 L 303.6875 308.75 L 161 308.75 Z M 161 97 " clip-rule="nonzero"/></clipPath></defs><rect x="-37.5" width="450" fill="#ffffff" y="-37.499999" height="449.999989" fill-opacity="1"/><rect x="-37.5" width="450" fill="#ffffff" y="-37.499999" height="449.999989" fill-opacity="1"/><rect x="-37.5" width="450" fill="#ffffff" y="-37.499999" height="449.999989" fill-opacity="1"/><path fill="#c3d9e8" d="M 265.136719 0 L 375 109.863281 L 375 265.136719 L 265.136719 375 L 109.863281 375 L 0 265.136719 L 0 109.863281 L 109.863281 0 L 265.136719 0 " fill-opacity="1" fill-rule="nonzero"/><g clip-path="url(#id1)"><path fill="#2b5a7b" d="M 145.378906 257.480469 C 122.640625 241.46875 109.066406 215.3125 109.066406 187.519531 C 109.066406 142.058594 145.03125 104.507812 189.949219 102.183594 L 189.949219 109.757812 C 189.949219 114.601562 195.390625 117.503906 199.40625 114.753906 L 226.554688 96.15625 C 230.0625 93.753906 230.0625 88.566406 226.554688 86.164062 L 199.40625 67.5625 C 198.394531 66.867188 197.214844 66.5 196 66.5 C 192.664062 66.5 189.949219 69.214844 189.949219 72.558594 L 189.949219 80.265625 C 171.183594 81.039062 153 86.707031 137.152344 96.75 C 135.5 97.796875 135.011719 99.988281 136.054688 101.640625 C 137.101562 103.296875 139.289062 103.785156 140.9375 102.738281 C 155.652344 93.414062 172.523438 88.125 189.945312 87.359375 L 189.945312 95.078125 C 140.929688 97.390625 101.992188 137.871094 101.992188 187.519531 C 101.992188 217.621094 116.6875 245.941406 141.304688 263.277344 C 145.542969 266.257812 140.914062 272.421875 136.933594 269.625 C 83.363281 231.941406 79.492188 153.394531 129.925781 110.820312 C 131.417969 109.558594 131.605469 107.324219 130.351562 105.828125 C 129.089844 104.332031 126.859375 104.140625 125.363281 105.402344 C 71.335938 151.007812 75.554688 235.109375 132.867188 275.421875 C 136.675781 278.105469 141.925781 278.105469 145.902344 274.949219 C 151.632812 270.429688 151.339844 261.679688 145.378906 257.480469 Z M 197.027344 74.519531 L 221.3125 91.160156 L 197.027344 107.796875 Z M 197.027344 74.519531 " fill-opacity="1" fill-rule="nonzero"/></g><g clip-path="url(#id2)"><path fill="#2b5a7b" d="M 257.933594 99.164062 C 250.648438 94.039062 240.539062 99.585938 240.777344 108.445312 C 240.867188 111.933594 242.566406 115.09375 245.429688 117.105469 C 268.164062 133.117188 281.738281 159.269531 281.738281 187.070312 C 281.738281 232.527344 245.769531 270.074219 200.855469 272.402344 L 200.855469 264.828125 C 200.855469 259.984375 195.414062 257.082031 191.398438 259.832031 L 164.25 278.433594 C 160.742188 280.832031 160.742188 286.019531 164.25 288.421875 C 193.90625 308.742188 192.261719 308.085938 194.804688 308.085938 C 198.140625 308.085938 200.855469 305.367188 200.855469 302.027344 L 200.855469 294.316406 C 257.992188 291.992188 303.585938 244.933594 303.585938 187.070312 C 303.585938 152.132812 286.519531 119.269531 257.933594 99.164062 Z M 193.777344 300.066406 L 169.488281 283.429688 L 193.777344 266.789062 Z M 200.859375 287.226562 L 200.859375 279.503906 C 249.871094 277.195312 288.816406 236.714844 288.816406 187.070312 C 288.816406 156.964844 274.117188 128.644531 249.496094 111.3125 C 248.480469 110.59375 247.878906 109.480469 247.847656 108.253906 C 247.765625 105.167969 251.375 103.203125 253.871094 104.964844 C 280.570312 123.746094 296.511719 154.4375 296.511719 187.070312 C 296.507812 240.683594 253.921875 284.882812 200.859375 287.226562 Z M 200.859375 287.226562 " fill-opacity="1" fill-rule="nonzero"/></g><path fill="#2b5a7b" d="M 178.550781 192.742188 L 169.105469 180.132812 C 160.914062 169.191406 143.585938 173.722656 141.664062 187.175781 C 141.082031 191.234375 142.121094 195.277344 144.578125 198.558594 L 161.867188 221.648438 C 168.097656 229.96875 180.046875 231.398438 188.058594 224.742188 L 243.75 178.488281 C 250.273438 173.070312 251.175781 163.402344 245.765625 156.867188 C 240.371094 150.351562 230.683594 149.445312 224.175781 154.847656 Z M 240.320312 161.390625 C 243.230469 164.90625 242.746094 170.117188 239.234375 173.035156 L 183.542969 219.289062 C 178.652344 223.347656 171.339844 222.488281 167.527344 217.398438 L 150.238281 194.308594 C 148.914062 192.539062 148.355469 190.363281 148.667969 188.175781 C 149.707031 180.878906 159.050781 178.519531 163.445312 184.386719 L 175.117188 199.976562 C 176.324219 201.585938 178.640625 201.878906 180.207031 200.578125 L 228.691406 160.304688 C 232.199219 157.394531 237.414062 157.878906 240.320312 161.390625 Z M 240.320312 161.390625 " fill-opacity="1" fill-rule="nonzero"/></svg>