<svg xmlns="http://www.w3.org/2000/svg" xmlns:xlink="http://www.w3.org/1999/xlink" width="500" zoomAndPan="magnify" viewBox="0 0 375 374.999991" height="500" preserveAspectRatio="xMidYMid meet" version="1.0"><defs><clipPath id="id1"><path d="M 67.46875 78.421875 L 307.46875 78.421875 L 307.46875 296.671875 L 67.46875 296.671875 Z M 67.46875 78.421875 " clip-rule="nonzero"/></clipPath></defs><rect x="-37.5" width="450" fill="#ffffff" y="-37.499999" height="449.999989" fill-opacity="1"/><rect x="-37.5" width="450" fill="#ffffff" y="-37.499999" height="449.999989" fill-opacity="1"/><rect x="-37.5" width="450" fill="#ffffff" y="-37.499999" height="449.999989" fill-opacity="1"/><path fill="#c3d9e8" d="M 265.136719 0 L 375 109.863281 L 375 265.136719 L 265.136719 375 L 109.863281 375 L 0 265.136719 L 0 109.863281 L 109.863281 0 L 265.136719 0 " fill-opacity="1" fill-rule="nonzero"/><g clip-path="url(#id1)"><path fill="#2b5a7b" d="M 303.144531 117.300781 L 120.230469 117.300781 L 120.230469 82.605469 C 120.230469 82.328125 120.203125 82.058594 120.148438 81.789062 C 120.097656 81.519531 120.015625 81.257812 119.910156 81.003906 C 119.808594 80.75 119.679688 80.507812 119.527344 80.28125 C 119.375 80.050781 119.199219 79.839844 119.007812 79.648438 C 118.8125 79.453125 118.601562 79.28125 118.371094 79.125 C 118.144531 78.972656 117.902344 78.84375 117.648438 78.742188 C 117.394531 78.636719 117.136719 78.554688 116.867188 78.503906 C 116.597656 78.449219 116.324219 78.421875 116.050781 78.421875 L 91.433594 78.421875 C 78.296875 78.421875 67.609375 89.019531 67.609375 102.042969 L 67.609375 271.21875 C 67.609375 271.402344 67.621094 271.585938 67.648438 271.769531 C 67.621094 272.199219 67.609375 272.632812 67.609375 273.070312 C 67.609375 286.09375 78.296875 296.691406 91.433594 296.691406 L 303.144531 296.691406 C 303.417969 296.691406 303.691406 296.664062 303.960938 296.613281 C 304.230469 296.558594 304.492188 296.480469 304.746094 296.375 C 305 296.269531 305.238281 296.140625 305.46875 295.988281 C 305.695312 295.835938 305.90625 295.660156 306.101562 295.46875 C 306.296875 295.273438 306.46875 295.0625 306.621094 294.832031 C 306.773438 294.605469 306.902344 294.363281 307.007812 294.109375 C 307.113281 293.855469 307.191406 293.59375 307.246094 293.324219 C 307.296875 293.054688 307.324219 292.785156 307.324219 292.507812 L 307.324219 121.484375 C 307.324219 121.210938 307.296875 120.9375 307.246094 120.667969 C 307.191406 120.398438 307.113281 120.136719 307.007812 119.882812 C 306.902344 119.628906 306.773438 119.386719 306.621094 119.160156 C 306.46875 118.929688 306.296875 118.71875 306.101562 118.527344 C 305.90625 118.332031 305.695312 118.160156 305.46875 118.003906 C 305.238281 117.851562 305 117.722656 304.746094 117.621094 C 304.492188 117.515625 304.230469 117.433594 303.960938 117.382812 C 303.691406 117.328125 303.417969 117.300781 303.144531 117.300781 Z M 75.972656 102.042969 C 75.972656 93.632812 82.90625 86.789062 91.433594 86.789062 L 111.867188 86.789062 L 111.867188 249.445312 L 91.433594 249.445312 C 88.601562 249.441406 85.855469 249.925781 83.199219 250.902344 C 80.539062 251.875 78.128906 253.277344 75.972656 255.113281 Z M 298.964844 288.324219 L 91.433594 288.324219 C 82.90625 288.324219 75.972656 281.480469 75.972656 273.070312 C 75.972656 264.65625 82.90625 257.8125 91.433594 257.8125 L 116.050781 257.8125 C 116.324219 257.8125 116.597656 257.789062 116.867188 257.734375 C 117.136719 257.679688 117.398438 257.601562 117.648438 257.496094 C 117.902344 257.390625 118.144531 257.261719 118.371094 257.109375 C 118.601562 256.957031 118.8125 256.78125 119.007812 256.589844 C 119.199219 256.394531 119.375 256.183594 119.527344 255.953125 C 119.679688 255.726562 119.808594 255.484375 119.914062 255.230469 C 120.015625 254.976562 120.097656 254.714844 120.148438 254.445312 C 120.203125 254.179688 120.230469 253.90625 120.230469 253.632812 L 120.230469 125.667969 L 298.964844 125.667969 Z M 143.605469 243.300781 L 168.453125 243.300781 C 168.796875 243.300781 169.128906 243.234375 169.449219 243.101562 C 169.769531 242.96875 170.050781 242.78125 170.296875 242.539062 C 170.539062 242.292969 170.726562 242.011719 170.859375 241.691406 C 170.992188 241.371094 171.058594 241.039062 171.058594 240.691406 L 171.058594 205.886719 L 189.40625 205.886719 L 189.40625 240.691406 C 189.40625 241.039062 189.472656 241.371094 189.605469 241.691406 C 189.738281 242.011719 189.925781 242.292969 190.171875 242.535156 C 190.414062 242.78125 190.695312 242.96875 191.015625 243.101562 C 191.335938 243.234375 191.667969 243.300781 192.011719 243.300781 L 247.707031 243.300781 C 248.050781 243.300781 248.382812 243.234375 248.703125 243.101562 C 249.019531 242.96875 249.304688 242.78125 249.546875 242.539062 C 249.792969 242.292969 249.980469 242.011719 250.113281 241.691406 C 250.246094 241.371094 250.3125 241.039062 250.3125 240.691406 L 250.3125 184.203125 C 250.3125 184.140625 250.28125 184.09375 250.277344 184.035156 C 250.25 183.703125 250.171875 183.386719 250.039062 183.085938 C 249.929688 182.863281 249.792969 182.660156 249.628906 182.480469 C 249.589844 182.433594 249.5625 182.382812 249.519531 182.339844 C 249.496094 182.304688 211.058594 145.964844 211.058594 145.964844 C 210.558594 145.488281 209.960938 145.253906 209.269531 145.253906 L 182.039062 145.253906 C 181.703125 145.265625 181.378906 145.332031 181.0625 145.449219 C 180.910156 145.527344 180.769531 145.617188 180.632812 145.722656 C 180.5 145.789062 180.371094 145.871094 180.25 145.964844 L 141.816406 182.304688 C 141.746094 182.382812 141.71875 182.433594 141.679688 182.480469 C 141.515625 182.660156 141.378906 182.863281 141.273438 183.085938 C 141.140625 183.386719 141.058594 183.703125 141.035156 184.035156 C 141.03125 184.09375 141 184.140625 141 184.203125 L 141 240.691406 C 141 241.039062 141.066406 241.371094 141.199219 241.691406 C 141.328125 242.011719 141.519531 242.292969 141.761719 242.535156 C 142.007812 242.78125 142.289062 242.96875 142.605469 243.101562 C 142.925781 243.234375 143.257812 243.300781 143.605469 243.300781 Z M 245.101562 238.085938 L 223.082031 238.085938 L 223.082031 186.808594 L 245.101562 186.808594 Z M 208.234375 150.464844 L 241.15625 181.59375 L 221.511719 181.59375 L 188.589844 150.464844 Z M 182.039062 151.445312 L 213.925781 181.59375 L 150.15625 181.59375 Z M 146.210938 186.808594 L 217.871094 186.808594 L 217.871094 238.085938 L 194.621094 238.085938 L 194.621094 203.277344 C 194.621094 202.933594 194.554688 202.597656 194.421875 202.28125 C 194.289062 201.960938 194.101562 201.679688 193.855469 201.433594 C 193.613281 201.191406 193.332031 201 193.011719 200.867188 C 192.691406 200.738281 192.359375 200.671875 192.011719 200.671875 L 168.453125 200.671875 C 168.105469 200.671875 167.773438 200.738281 167.457031 200.867188 C 167.136719 201 166.855469 201.191406 166.609375 201.433594 C 166.367188 201.679688 166.175781 201.960938 166.046875 202.28125 C 165.914062 202.597656 165.847656 202.933594 165.847656 203.277344 L 165.847656 238.085938 L 146.210938 238.085938 Z M 257.421875 238.140625 L 266 238.140625 L 257.589844 221.304688 L 263.710938 221.304688 L 263.710938 167.351562 L 257.589844 167.351562 L 266 150.515625 L 257.421875 150.515625 C 257.078125 150.515625 256.746094 150.449219 256.425781 150.320312 C 256.105469 150.1875 255.824219 149.996094 255.578125 149.753906 C 255.335938 149.507812 255.148438 149.226562 255.015625 148.90625 C 254.882812 148.589844 254.816406 148.253906 254.816406 147.910156 C 254.816406 147.5625 254.882812 147.230469 255.015625 146.910156 C 255.148438 146.59375 255.335938 146.308594 255.578125 146.066406 C 255.824219 145.820312 256.105469 145.632812 256.425781 145.5 C 256.746094 145.367188 257.078125 145.300781 257.421875 145.300781 L 274.707031 145.300781 C 275.050781 145.300781 275.382812 145.367188 275.703125 145.5 C 276.023438 145.632812 276.304688 145.820312 276.546875 146.066406 C 276.792969 146.308594 276.980469 146.59375 277.113281 146.910156 C 277.246094 147.230469 277.3125 147.5625 277.3125 147.910156 C 277.3125 148.253906 277.246094 148.589844 277.113281 148.90625 C 276.980469 149.226562 276.792969 149.507812 276.546875 149.753906 C 276.304688 149.996094 276.023438 150.1875 275.703125 150.320312 C 275.382812 150.449219 275.050781 150.515625 274.707031 150.515625 L 266.128906 150.515625 L 274.539062 167.351562 L 268.417969 167.351562 L 268.417969 221.304688 L 274.539062 221.304688 L 266.128906 238.136719 L 274.707031 238.136719 C 275.046875 238.140625 275.378906 238.210938 275.691406 238.34375 C 276.007812 238.480469 276.285156 238.667969 276.527344 238.914062 C 276.765625 239.15625 276.953125 239.4375 277.082031 239.753906 C 277.210938 240.070312 277.277344 240.402344 277.277344 240.746094 C 277.277344 241.085938 277.210938 241.417969 277.082031 241.734375 C 276.953125 242.050781 276.765625 242.332031 276.527344 242.578125 C 276.285156 242.820312 276.007812 243.007812 275.691406 243.144531 C 275.378906 243.277344 275.046875 243.347656 274.707031 243.351562 L 257.421875 243.351562 C 257.078125 243.347656 256.75 243.277344 256.4375 243.144531 C 256.121094 243.007812 255.84375 242.820312 255.601562 242.578125 C 255.363281 242.332031 255.175781 242.050781 255.046875 241.734375 C 254.917969 241.417969 254.851562 241.085938 254.851562 240.746094 C 254.851562 240.402344 254.917969 240.070312 255.046875 239.753906 C 255.175781 239.4375 255.363281 239.15625 255.601562 238.914062 C 255.84375 238.667969 256.121094 238.480469 256.4375 238.34375 C 256.75 238.210938 257.078125 238.140625 257.421875 238.136719 Z M 141 266.992188 L 141 249.695312 C 141 249.351562 141.066406 249.019531 141.199219 248.699219 C 141.332031 248.378906 141.519531 248.097656 141.761719 247.855469 C 142.007812 247.609375 142.289062 247.421875 142.609375 247.289062 C 142.925781 247.160156 143.257812 247.09375 143.605469 247.09375 C 143.949219 247.09375 144.28125 247.160156 144.601562 247.289062 C 144.917969 247.421875 145.199219 247.609375 145.445312 247.855469 C 145.691406 248.097656 145.878906 248.378906 146.011719 248.699219 C 146.144531 249.019531 146.210938 249.351562 146.210938 249.695312 L 146.210938 258.320312 L 163.109375 249.863281 L 163.109375 256.003906 L 228.199219 256.003906 L 228.199219 249.863281 L 245.101562 258.320312 L 245.101562 249.695312 C 245.097656 249.347656 245.160156 249.011719 245.289062 248.6875 C 245.417969 248.363281 245.605469 248.078125 245.851562 247.832031 C 246.097656 247.582031 246.378906 247.390625 246.699219 247.257812 C 247.023438 247.121094 247.359375 247.054688 247.707031 247.054688 C 248.054688 247.054688 248.390625 247.121094 248.710938 247.257812 C 249.03125 247.390625 249.316406 247.582031 249.5625 247.832031 C 249.804688 248.078125 249.992188 248.363281 250.125 248.6875 C 250.253906 249.011719 250.316406 249.347656 250.3125 249.695312 L 250.3125 266.992188 C 250.308594 267.332031 250.238281 267.664062 250.105469 267.976562 C 249.96875 268.292969 249.78125 268.570312 249.535156 268.8125 C 249.292969 269.054688 249.011719 269.238281 248.695312 269.367188 C 248.378906 269.5 248.050781 269.5625 247.707031 269.5625 C 247.363281 269.5625 247.035156 269.5 246.71875 269.367188 C 246.398438 269.238281 246.121094 269.054688 245.875 268.8125 C 245.632812 268.570312 245.441406 268.292969 245.308594 267.976562 C 245.175781 267.664062 245.105469 267.332031 245.101562 266.992188 L 245.101562 258.367188 L 228.199219 266.824219 L 228.199219 260.679688 L 163.109375 260.679688 L 163.109375 266.824219 L 146.210938 258.367188 L 146.210938 266.992188 C 146.210938 267.335938 146.144531 267.667969 146.011719 267.988281 C 145.878906 268.308594 145.691406 268.589844 145.445312 268.832031 C 145.199219 269.078125 144.917969 269.265625 144.601562 269.398438 C 144.28125 269.527344 143.949219 269.59375 143.605469 269.59375 C 143.257812 269.59375 142.925781 269.527344 142.609375 269.398438 C 142.289062 269.265625 142.007812 269.078125 141.761719 268.832031 C 141.519531 268.589844 141.332031 268.308594 141.199219 267.988281 C 141.066406 267.667969 141 267.335938 141 266.992188 Z M 141 266.992188 " fill-opacity="1" fill-rule="nonzero"/></g></svg>