<svg xmlns="http://www.w3.org/2000/svg" xmlns:xlink="http://www.w3.org/1999/xlink" width="500" zoomAndPan="magnify" viewBox="0 0 375 374.999991" height="500" preserveAspectRatio="xMidYMid meet" version="1.0"><defs><clipPath id="id1"><path d="M 89 66.996094 L 110 66.996094 L 110 307.746094 L 89 307.746094 Z M 89 66.996094 " clip-rule="nonzero"/></clipPath><clipPath id="id2"><path d="M 137 66.996094 L 172 66.996094 L 172 307.746094 L 137 307.746094 Z M 137 66.996094 " clip-rule="nonzero"/></clipPath><clipPath id="id3"><path d="M 176.601562 81.410156 L 285.417969 81.410156 L 285.417969 292.847656 L 176.601562 292.847656 Z M 176.601562 81.410156 " clip-rule="nonzero"/></clipPath></defs><rect x="-37.5" width="450" fill="#ffffff" y="-37.499999" height="449.999989" fill-opacity="1"/><rect x="-37.5" width="450" fill="#ffffff" y="-37.499999" height="449.999989" fill-opacity="1"/><rect x="-37.5" width="450" fill="#ffffff" y="-37.499999" height="449.999989" fill-opacity="1"/><path fill="#c3d9e8" d="M 265.136719 0 L 375 109.863281 L 375 265.136719 L 265.136719 375 L 109.863281 375 L 0 265.136719 L 0 109.863281 L 109.863281 0 L 265.136719 0 " fill-opacity="1" fill-rule="nonzero"/><g clip-path="url(#id1)"><path fill="#2b5a7b" d="M 99.675781 67.050781 L 89.847656 88.75 C 89.847656 88.769531 89.847656 88.769531 89.847656 88.789062 L 89.847656 296.734375 C 89.847656 302.140625 93.894531 307.019531 99.316406 307.246094 C 104.984375 307.507812 109.671875 302.984375 109.671875 297.390625 L 109.671875 88.789062 C 109.671875 88.769531 109.671875 88.769531 109.671875 88.75 L 109.652344 88.75 L 99.84375 67.050781 C 99.804688 66.976562 99.691406 66.976562 99.675781 67.050781 " fill-opacity="1" fill-rule="nonzero"/></g><g clip-path="url(#id2)"><path fill="#2b5a7b" d="M 154.515625 91.023438 C 150.808594 91.023438 147.796875 88.019531 147.796875 84.320312 C 147.796875 80.640625 150.808594 77.636719 154.515625 77.636719 C 158.226562 77.636719 161.21875 80.640625 161.21875 84.320312 C 161.21875 88.019531 158.226562 91.023438 154.515625 91.023438 Z M 168.089844 66.996094 L 140.941406 66.996094 C 138.832031 66.996094 137.121094 68.703125 137.121094 70.785156 L 137.121094 107.070312 C 137.121094 107.316406 137.347656 107.539062 137.589844 107.539062 L 147.304688 107.539062 C 148.511719 107.539062 149.488281 108.515625 149.488281 109.71875 L 149.488281 111.03125 C 149.488281 112.234375 148.511719 113.210938 147.304688 113.210938 L 137.589844 113.210938 C 137.347656 113.210938 137.121094 113.433594 137.121094 113.695312 L 137.121094 132.167969 C 137.121094 132.429688 137.347656 132.636719 137.589844 132.636719 L 147.304688 132.636719 C 148.511719 132.636719 149.488281 133.613281 149.488281 134.832031 L 149.488281 136.148438 C 149.488281 137.347656 148.511719 138.324219 147.304688 138.324219 L 137.589844 138.324219 C 137.347656 138.324219 137.121094 138.550781 137.121094 138.792969 L 137.121094 157.285156 C 137.121094 157.546875 137.347656 157.753906 137.589844 157.753906 L 147.304688 157.753906 C 148.511719 157.753906 149.488281 158.730469 149.488281 159.929688 L 149.488281 161.261719 C 149.488281 162.464844 148.511719 163.441406 147.304688 163.441406 L 137.589844 163.441406 C 137.347656 163.441406 137.121094 163.648438 137.121094 163.910156 L 137.121094 182.398438 C 137.121094 182.660156 137.347656 182.867188 137.589844 182.867188 L 147.304688 182.867188 C 148.511719 182.867188 149.488281 183.84375 149.488281 185.046875 L 149.488281 186.359375 C 149.488281 187.578125 148.511719 188.554688 147.304688 188.554688 L 137.589844 188.554688 C 137.347656 188.554688 137.121094 188.761719 137.121094 189.023438 L 137.121094 207.496094 C 137.121094 207.757812 137.347656 207.984375 137.589844 207.984375 L 147.304688 207.984375 C 148.511719 207.984375 149.488281 208.960938 149.488281 210.160156 L 149.488281 211.476562 C 149.488281 212.695312 148.511719 213.671875 147.304688 213.671875 L 137.589844 213.671875 C 137.347656 213.671875 137.121094 213.878906 137.121094 214.121094 L 137.121094 232.613281 C 137.121094 232.875 137.347656 233.082031 137.589844 233.082031 L 147.304688 233.082031 C 148.511719 233.082031 149.488281 234.074219 149.488281 235.277344 L 149.488281 236.589844 C 149.488281 237.792969 148.511719 238.769531 147.304688 238.769531 L 137.589844 238.769531 C 137.347656 238.769531 137.121094 238.976562 137.121094 239.238281 L 137.121094 257.726562 C 137.121094 257.988281 137.347656 258.195312 137.589844 258.195312 L 147.304688 258.195312 C 148.511719 258.195312 149.488281 259.171875 149.488281 260.375 L 149.488281 261.707031 C 149.488281 262.90625 148.511719 263.882812 147.304688 263.882812 L 137.589844 263.882812 C 137.347656 263.882812 137.121094 264.089844 137.121094 264.355469 L 137.121094 282.84375 C 137.121094 283.105469 137.347656 283.3125 137.589844 283.3125 L 147.304688 283.3125 C 148.511719 283.3125 149.488281 284.289062 149.488281 285.488281 L 149.488281 286.804688 C 149.488281 288.023438 148.511719 289 147.304688 289 L 137.589844 289 C 137.347656 289 137.121094 289.207031 137.121094 289.46875 L 137.121094 303.453125 C 137.121094 305.554688 138.832031 307.265625 140.941406 307.265625 L 168.089844 307.265625 C 170.199219 307.265625 171.894531 305.554688 171.894531 303.453125 L 171.894531 70.785156 C 171.894531 68.703125 170.199219 66.996094 168.089844 66.996094 " fill-opacity="1" fill-rule="nonzero"/></g><path fill="#2b5a7b" d="M 132.167969 279.464844 C 132.167969 279.40625 132.113281 279.351562 132.054688 279.351562 C 132 279.351562 131.941406 279.390625 131.941406 279.464844 C 131.941406 279.5 131.980469 279.539062 132.019531 279.578125 C 132.054688 279.578125 132.09375 279.578125 132.113281 279.558594 C 132.148438 279.539062 132.167969 279.5 132.167969 279.464844 " fill-opacity="1" fill-rule="nonzero"/><g clip-path="url(#id3)"><path fill="#2b5a7b" d="M 257.234375 194.917969 C 257.253906 194.789062 257.347656 194.65625 257.480469 194.582031 L 285.175781 180.035156 C 285.363281 179.921875 285.457031 179.734375 285.417969 179.527344 L 282.199219 161.132812 C 282.164062 160.925781 281.992188 160.773438 281.804688 160.757812 L 250.777344 156.421875 C 250.628906 156.402344 250.496094 156.324219 250.4375 156.195312 L 242.625 142.679688 C 242.550781 142.546875 242.550781 142.398438 242.605469 142.265625 L 254.429688 113.359375 C 254.503906 113.171875 254.449219 112.945312 254.296875 112.816406 L 239.972656 100.800781 C 239.800781 100.671875 239.59375 100.652344 239.40625 100.765625 L 212.859375 117.320312 C 212.746094 117.414062 212.597656 117.414062 212.445312 117.375 L 197.761719 112.027344 C 197.628906 111.96875 197.515625 111.859375 197.480469 111.726562 L 187.894531 81.992188 C 187.839844 81.785156 187.652344 81.65625 187.445312 81.65625 L 177.335938 81.65625 C 177.203125 81.65625 177.089844 81.691406 176.996094 81.785156 C 176.902344 81.878906 176.863281 81.992188 176.863281 82.125 L 176.863281 149.664062 C 176.863281 149.792969 176.902344 149.90625 177.015625 150 C 177.089844 150.09375 177.222656 150.132812 177.351562 150.132812 C 196.574219 149.0625 214.007812 162.40625 217.492188 181.78125 C 221.238281 202.710938 207.269531 222.71875 186.277344 226.472656 C 183.265625 227 180.289062 227.128906 177.351562 226.980469 C 177.222656 226.960938 177.089844 227.019531 177.015625 227.113281 C 176.902344 227.1875 176.863281 227.316406 176.863281 227.449219 L 176.863281 267.226562 C 176.863281 267.488281 177.070312 267.714844 177.335938 267.714844 L 185.675781 267.714844 C 185.808594 267.714844 185.957031 267.769531 186.03125 267.902344 L 205.234375 292.566406 C 205.367188 292.734375 205.574219 292.792969 205.78125 292.734375 L 223.386719 286.351562 C 223.574219 286.296875 223.703125 286.109375 223.6875 285.902344 L 222.574219 254.6875 C 222.554688 254.554688 222.632812 254.40625 222.746094 254.3125 L 234.738281 244.304688 C 234.851562 244.210938 235 244.175781 235.132812 244.210938 L 265.746094 250.800781 C 265.953125 250.839844 266.160156 250.746094 266.253906 250.574219 L 275.648438 234.414062 C 275.742188 234.246094 275.722656 234.019531 275.589844 233.871094 L 254.601562 210.6875 C 254.503906 210.574219 254.46875 210.425781 254.488281 210.273438 L 257.234375 194.917969 " fill-opacity="1" fill-rule="nonzero"/></g></svg>