<svg xmlns="http://www.w3.org/2000/svg" xmlns:xlink="http://www.w3.org/1999/xlink" width="500" zoomAndPan="magnify" viewBox="0 0 375 374.999991" height="500" preserveAspectRatio="xMidYMid meet" version="1.0"><defs><clipPath id="id1"><path d="M 124 75.019531 L 216 75.019531 L 216 121 L 124 121 Z M 124 75.019531 " clip-rule="nonzero"/></clipPath><clipPath id="id2"><path d="M 75.019531 141 L 213 141 L 213 300.019531 L 75.019531 300.019531 Z M 75.019531 141 " clip-rule="nonzero"/></clipPath><clipPath id="id3"><path d="M 215 184 L 300 184 L 300 300.019531 L 215 300.019531 Z M 215 184 " clip-rule="nonzero"/></clipPath></defs><rect x="-37.5" width="450" fill="#ffffff" y="-37.499999" height="449.999989" fill-opacity="1"/><rect x="-37.5" width="450" fill="#ffffff" y="-37.499999" height="449.999989" fill-opacity="1"/><rect x="-37.5" width="450" fill="#ffffff" y="-37.499999" height="449.999989" fill-opacity="1"/><path fill="#c3d9e8" d="M 265.136719 0 L 375 109.863281 L 375 265.136719 L 265.136719 375 L 109.863281 375 L 0 265.136719 L 0 109.863281 L 109.863281 0 L 265.136719 0 " fill-opacity="1" fill-rule="nonzero"/><g clip-path="url(#id1)"><path fill="#2b5a7b" d="M 165.578125 75.371094 C 164.964844 75.460938 163.292969 75.765625 161.84375 76.03125 C 157.976562 76.691406 153.980469 78.050781 149.761719 80.160156 C 138.957031 85.5625 130.652344 95.183594 126.613281 106.957031 C 125.601562 109.898438 124.285156 117.015625 124.285156 119.5625 L 124.285156 120.792969 L 131.183594 120.792969 L 131.449219 117.148438 C 132.457031 104.539062 139.664062 93.25 150.730469 87.011719 C 153.542969 85.429688 154.949219 85.429688 157.058594 87.054688 C 159.339844 88.859375 159.429688 89.648438 159.429688 105.859375 L 159.429688 120.792969 L 166.5 120.792969 L 166.371094 105.066406 C 166.238281 89.515625 166.238281 89.382812 165.183594 87.40625 C 164.613281 86.308594 163.734375 84.859375 163.292969 84.199219 C 162.8125 83.496094 162.546875 82.839844 162.722656 82.664062 C 163.117188 82.265625 176.824219 82.265625 177.21875 82.664062 C 177.394531 82.839844 177.132812 83.496094 176.648438 84.199219 C 176.207031 84.859375 175.328125 86.308594 174.757812 87.40625 C 173.703125 89.382812 173.703125 89.515625 173.570312 105.066406 L 173.441406 120.792969 L 180.511719 120.792969 L 180.511719 105.855469 C 180.511719 89.644531 180.601562 88.855469 182.882812 87.054688 C 184.992188 85.429688 186.398438 85.429688 189.210938 86.964844 C 200.105469 93.117188 207.484375 104.710938 208.492188 117.363281 L 208.757812 120.792969 L 215.652344 120.792969 L 215.652344 119.5625 C 215.652344 117.015625 214.335938 109.898438 213.324219 106.957031 C 207.964844 91.316406 194.875 79.589844 178.976562 76.160156 C 175.902344 75.503906 167.644531 75.019531 165.578125 75.371094 Z M 165.578125 75.371094 " fill-opacity="1" fill-rule="nonzero"/></g><path fill="#2b5a7b" d="M 117.476562 122.199219 C 118.398438 126.414062 121.828125 130.105469 127.667969 133.179688 C 148.929688 144.382812 188.859375 144.691406 211.042969 133.753906 C 217.941406 130.367188 221.632812 126.679688 222.511719 122.15625 L 222.816406 120.792969 L 215.832031 120.792969 L 215.308594 122.289062 C 211.660156 132.304688 176.296875 137.972656 147.789062 133.097656 C 135.226562 130.941406 125.429688 126.332031 124.507812 122.070312 L 124.199219 120.796875 L 117.167969 120.796875 Z M 117.476562 122.199219 " fill-opacity="1" fill-rule="nonzero"/><g clip-path="url(#id2)"><path fill="#2b5a7b" d="M 127.800781 145.65625 C 127.800781 149.652344 128.109375 150.574219 130.039062 152.640625 C 131.09375 153.785156 131.359375 154.53125 131.753906 157.910156 C 133.113281 169.027344 137.683594 179.523438 144.140625 186.507812 L 145.371094 187.824219 L 145.285156 195.425781 L 145.152344 203.027344 L 131.050781 209.308594 C 123.320312 212.734375 114.710938 216.378906 111.941406 217.390625 C 91.339844 225.078125 80.097656 234.875 76.316406 248.492188 C 75.394531 251.785156 75.351562 252.835938 75.175781 275.945312 L 75.042969 300.019531 L 82.117188 300.019531 L 82.117188 277.042969 C 82.117188 251.433594 82.203125 250.511719 85.015625 244.800781 C 88.222656 238.296875 94.636719 232.808594 104.605469 227.976562 L 110.011719 225.339844 L 110.140625 262.679688 L 110.226562 300.015625 L 117.257812 300.015625 L 117.257812 222.921875 L 123.980469 219.9375 C 127.625 218.3125 130.789062 216.996094 131.007812 216.996094 C 131.1875 216.996094 131.316406 235.664062 131.316406 258.503906 L 131.316406 300.015625 L 138.34375 300.015625 L 138.34375 213.609375 L 142.914062 211.546875 C 145.417969 210.449219 147.613281 209.523438 147.832031 209.570312 C 148.050781 209.570312 152.578125 214.707031 157.890625 220.945312 C 163.601562 227.664062 168.082031 232.542969 168.785156 232.847656 C 169.796875 233.289062 170.28125 233.242188 171.289062 232.757812 C 172.125 232.320312 189.34375 212.859375 191.761719 209.609375 C 191.804688 209.523438 194.042969 210.578125 196.722656 211.894531 L 201.597656 214.355469 L 201.597656 300.015625 L 208.628906 300.015625 L 208.628906 255.867188 C 208.628906 223.140625 208.496094 211.457031 208.101562 210.621094 C 207.75 209.789062 205.90625 208.644531 201.074219 206.183594 L 194.570312 202.890625 L 194.570312 195.292969 C 194.570312 188.835938 194.660156 187.5625 195.273438 187.078125 C 196.371094 186.199219 199.621094 181.851562 201.203125 179.171875 C 204.585938 173.414062 207.308594 165.15625 208.1875 157.910156 C 208.628906 154.527344 208.847656 153.78125 209.902344 152.640625 C 211.832031 150.574219 212.140625 149.652344 212.140625 145.652344 L 212.140625 141.875 L 205.113281 141.875 L 205.113281 144.601562 C 205.113281 147.148438 205.027344 147.457031 203.488281 148.992188 C 201.90625 150.574219 201.90625 150.707031 201.511719 155.40625 C 200.632812 167.136719 195.933594 177.8125 189.035156 184.003906 C 178.449219 193.402344 161.492188 193.402344 150.90625 184.003906 C 144.097656 177.898438 139.175781 166.785156 138.472656 155.933594 C 138.210938 151.453125 137.769531 150.179688 135.96875 148.511719 C 134.960938 147.589844 134.828125 147.0625 134.828125 144.644531 L 134.828125 141.878906 L 127.796875 141.878906 L 127.796875 145.65625 Z M 178.933594 213.917969 C 174.1875 219.496094 170.148438 224.019531 169.972656 224.019531 C 169.796875 224.019531 165.753906 219.496094 161.011719 213.960938 L 152.398438 203.902344 L 152.398438 198.765625 C 152.398438 194.8125 152.53125 193.667969 152.972656 193.84375 C 159.121094 196.570312 162.460938 197.488281 167.46875 197.929688 C 173.351562 198.367188 182.007812 196.65625 186.003906 194.238281 L 187.324219 193.402344 L 187.453125 198.628906 L 187.585938 203.859375 Z M 178.933594 213.917969 " fill-opacity="1" fill-rule="nonzero"/></g><path fill="#2b5a7b" d="M 236.742188 187.5625 L 236.742188 198.105469 L 278.914062 198.105469 L 278.914062 177.019531 L 236.742188 177.019531 Z M 271.882812 187.5625 L 271.882812 191.078125 L 243.769531 191.078125 L 243.769531 184.046875 L 271.882812 184.046875 Z M 271.882812 187.5625 " fill-opacity="1" fill-rule="nonzero"/><g clip-path="url(#id3)"><path fill="#2b5a7b" d="M 215.65625 242.03125 L 215.65625 300.019531 L 299.996094 300.019531 L 299.996094 184.046875 L 285.941406 184.046875 L 285.941406 191.078125 L 292.96875 191.078125 L 292.96875 292.988281 L 222.683594 292.988281 L 222.683594 191.078125 L 229.714844 191.078125 L 229.714844 184.046875 L 215.65625 184.046875 Z M 215.65625 242.03125 " fill-opacity="1" fill-rule="nonzero"/></g><path fill="#2b5a7b" d="M 229.714844 208.648438 L 229.714844 212.164062 L 236.742188 212.164062 L 236.742188 205.132812 L 229.714844 205.132812 Z M 229.714844 208.648438 " fill-opacity="1" fill-rule="nonzero"/><path fill="#2b5a7b" d="M 243.769531 208.648438 L 243.769531 212.164062 L 285.941406 212.164062 L 285.941406 205.132812 L 243.769531 205.132812 Z M 243.769531 208.648438 " fill-opacity="1" fill-rule="nonzero"/><path fill="#2b5a7b" d="M 229.714844 222.707031 L 229.714844 226.21875 L 236.742188 226.21875 L 236.742188 219.191406 L 229.714844 219.191406 Z M 229.714844 222.707031 " fill-opacity="1" fill-rule="nonzero"/><path fill="#2b5a7b" d="M 243.769531 222.707031 L 243.769531 226.21875 L 285.941406 226.21875 L 285.941406 219.191406 L 243.769531 219.191406 Z M 243.769531 222.707031 " fill-opacity="1" fill-rule="nonzero"/><path fill="#2b5a7b" d="M 229.714844 236.761719 L 229.714844 240.277344 L 236.742188 240.277344 L 236.742188 233.25 L 229.714844 233.25 Z M 229.714844 236.761719 " fill-opacity="1" fill-rule="nonzero"/><path fill="#2b5a7b" d="M 243.769531 236.761719 L 243.769531 240.277344 L 285.941406 240.277344 L 285.941406 233.25 L 243.769531 233.25 Z M 243.769531 236.761719 " fill-opacity="1" fill-rule="nonzero"/><path fill="#2b5a7b" d="M 166.457031 243.792969 L 166.457031 247.304688 L 173.484375 247.304688 L 173.484375 240.277344 L 166.457031 240.277344 Z M 166.457031 243.792969 " fill-opacity="1" fill-rule="nonzero"/><path fill="#2b5a7b" d="M 229.714844 250.816406 L 229.714844 254.332031 L 236.742188 254.332031 L 236.742188 247.304688 L 229.714844 247.304688 Z M 229.714844 250.816406 " fill-opacity="1" fill-rule="nonzero"/><path fill="#2b5a7b" d="M 243.769531 250.816406 L 243.769531 254.332031 L 285.941406 254.332031 L 285.941406 247.304688 L 243.769531 247.304688 Z M 243.769531 250.816406 " fill-opacity="1" fill-rule="nonzero"/><path fill="#2b5a7b" d="M 166.457031 257.847656 L 166.457031 261.359375 L 173.484375 261.359375 L 173.484375 254.332031 L 166.457031 254.332031 Z M 166.457031 257.847656 " fill-opacity="1" fill-rule="nonzero"/><path fill="#2b5a7b" d="M 166.457031 271.902344 L 166.457031 275.417969 L 173.484375 275.417969 L 173.484375 268.390625 L 166.457031 268.390625 Z M 166.457031 271.902344 " fill-opacity="1" fill-rule="nonzero"/><path fill="#2b5a7b" d="M 268.367188 275.417969 L 268.367188 278.933594 L 285.9375 278.933594 L 285.9375 271.902344 L 268.367188 271.902344 Z M 268.367188 275.417969 " fill-opacity="1" fill-rule="nonzero"/></svg>