<svg xmlns="http://www.w3.org/2000/svg" xmlns:xlink="http://www.w3.org/1999/xlink" width="500" zoomAndPan="magnify" viewBox="0 0 375 374.999991" height="500" preserveAspectRatio="xMidYMid meet" version="1.0"><defs><clipPath id="id1"><path d="M 73.011719 72.582031 L 230 72.582031 L 230 284 L 73.011719 284 Z M 73.011719 72.582031 " clip-rule="nonzero"/></clipPath><clipPath id="id2"><path d="M 237 100 L 301.761719 100 L 301.761719 302.082031 L 237 302.082031 Z M 237 100 " clip-rule="nonzero"/></clipPath><clipPath id="id3"><path d="M 73.011719 195 L 83 195 L 83 205 L 73.011719 205 Z M 73.011719 195 " clip-rule="nonzero"/></clipPath></defs><rect x="-37.5" width="450" fill="#ffffff" y="-37.499999" height="449.999989" fill-opacity="1"/><rect x="-37.5" width="450" fill="#ffffff" y="-37.499999" height="449.999989" fill-opacity="1"/><rect x="-37.5" width="450" fill="#ffffff" y="-37.499999" height="449.999989" fill-opacity="1"/><path fill="#c3d9e8" d="M 265.136719 0 L 375 109.863281 L 375 265.136719 L 265.136719 375 L 109.863281 375 L 0 265.136719 L 0 109.863281 L 109.863281 0 L 265.136719 0 " fill-opacity="1" fill-rule="nonzero"/><g clip-path="url(#id1)"><path fill="#2b5a7b" d="M 198.273438 72.582031 L 104.609375 72.582031 C 87.46875 72.582031 73.527344 86.519531 73.527344 103.648438 L 73.527344 179.976562 C 73.527344 182.453125 75.535156 184.460938 78.011719 184.460938 C 80.488281 184.460938 82.496094 182.453125 82.496094 179.976562 L 82.496094 103.648438 C 82.496094 91.460938 92.414062 81.546875 104.609375 81.546875 L 198.273438 81.546875 C 210.46875 81.546875 220.386719 91.460938 220.386719 103.648438 L 220.386719 252.230469 C 220.386719 264.414062 210.46875 274.328125 198.273438 274.328125 L 104.609375 274.328125 C 92.414062 274.328125 82.496094 264.414062 82.496094 252.230469 L 82.496094 220.871094 C 82.496094 218.398438 80.488281 216.390625 78.011719 216.390625 C 75.535156 216.390625 73.527344 218.398438 73.527344 220.871094 L 73.527344 252.230469 C 73.527344 269.359375 87.46875 283.292969 104.609375 283.292969 L 198.273438 283.292969 C 215.414062 283.292969 229.355469 269.359375 229.355469 252.230469 L 229.355469 103.648438 C 229.355469 86.519531 215.414062 72.582031 198.273438 72.582031 Z M 198.273438 72.582031 " fill-opacity="1" fill-rule="nonzero"/></g><path fill="#2b5a7b" d="M 199.542969 93.4375 L 104.757812 93.4375 C 99.28125 93.4375 94.824219 97.886719 94.824219 103.363281 L 94.824219 123.222656 C 94.824219 128.699219 99.28125 133.152344 104.757812 133.152344 L 199.542969 133.152344 C 205.019531 133.152344 209.476562 128.699219 209.476562 123.222656 L 209.476562 103.363281 C 209.476562 97.886719 205.019531 93.4375 199.542969 93.4375 Z M 200.507812 123.222656 C 200.507812 123.757812 200.074219 124.1875 199.542969 124.1875 L 104.757812 124.1875 C 104.226562 124.1875 103.792969 123.753906 103.792969 123.222656 L 103.792969 103.363281 C 103.792969 102.832031 104.226562 102.402344 104.757812 102.402344 L 199.542969 102.402344 C 200.074219 102.402344 200.507812 102.832031 200.507812 103.363281 Z M 200.507812 123.222656 " fill-opacity="1" fill-rule="nonzero"/><g clip-path="url(#id2)"><path fill="#2b5a7b" d="M 297.203125 160.945312 C 297.203125 160.285156 297.242188 159.601562 297.117188 158.949219 C 296.445312 150.015625 291.480469 142.265625 284.273438 137.757812 L 284.273438 114.867188 C 284.273438 111.035156 282.785156 107.433594 280.074219 104.726562 C 277.363281 102.019531 273.765625 100.527344 269.933594 100.527344 C 262.023438 100.527344 255.589844 106.960938 255.589844 114.867188 L 255.589844 137.539062 C 247.722656 142.304688 242.429688 150.90625 242.328125 160.726562 C 242.324219 160.746094 242.324219 160.765625 242.324219 160.785156 L 237.839844 297.089844 C 237.78125 298.863281 238.773438 300.5 240.367188 301.273438 C 240.988281 301.574219 241.65625 301.71875 242.320312 301.71875 C 243.363281 301.71875 244.394531 301.359375 245.21875 300.660156 L 260.132812 288.03125 C 260.984375 287.3125 261.539062 286.300781 261.683594 285.195312 L 269.875 222.859375 L 278.734375 286.878906 C 279.042969 289.09375 280.941406 290.746094 283.179688 290.746094 L 285.644531 290.746094 L 285.644531 297.601562 C 285.644531 300.078125 287.652344 302.082031 290.128906 302.082031 C 292.605469 302.082031 294.613281 300.078125 294.613281 297.601562 L 294.613281 290.746094 L 297.203125 290.746094 C 298.417969 290.746094 299.582031 290.253906 300.429688 289.378906 C 301.273438 288.5 301.726562 287.320312 301.683594 286.105469 Z M 271.539062 179.394531 C 263.472656 180.167969 255.644531 175.25 252.632812 167.765625 C 249.699219 160.488281 251.851562 152.003906 257.828125 146.9375 C 263.824219 141.847656 272.671875 141.148438 279.386719 145.265625 C 285.808594 149.207031 289.265625 156.851562 287.941406 164.273438 C 286.683594 171.324219 281.226562 177.171875 274.273438 178.921875 C 273.378906 179.144531 272.460938 179.308594 271.539062 179.394531 Z M 264.558594 134.078125 L 264.558594 114.867188 C 264.558594 111.902344 266.96875 109.492188 269.933594 109.492188 C 271.367188 109.492188 272.71875 110.050781 273.734375 111.066406 C 274.746094 112.082031 275.308594 113.429688 275.308594 114.867188 L 275.308594 134.148438 C 271.78125 133.421875 268.09375 133.402344 264.558594 134.078125 Z M 253.015625 282.3125 L 247.132812 287.289062 L 250.644531 180.667969 C 254.570312 184.488281 259.636719 187.144531 265.277344 188.074219 L 265.277344 188.132812 C 265.277344 188.730469 265.238281 189.328125 265.160156 189.921875 Z M 274.246094 188.058594 C 278.191406 187.433594 281.976562 185.910156 285.273438 183.648438 C 286.574219 182.757812 287.800781 181.75 288.929688 180.644531 L 292.550781 281.78125 L 287.085938 281.78125 L 274.375 189.941406 C 274.289062 189.316406 274.246094 188.691406 274.246094 188.058594 Z M 274.246094 188.058594 " fill-opacity="1" fill-rule="nonzero"/></g><g clip-path="url(#id3)"><path fill="#2b5a7b" d="M 73.871094 201.980469 C 74.605469 203.742188 76.433594 204.886719 78.34375 204.738281 C 80.191406 204.59375 81.792969 203.304688 82.3125 201.523438 C 83.417969 197.742188 79.238281 194.441406 75.804688 196.371094 C 73.859375 197.460938 73.011719 199.921875 73.871094 201.980469 Z M 73.871094 201.980469 " fill-opacity="1" fill-rule="nonzero"/></g><path fill="#2b5a7b" d="M 111.488281 176.535156 L 113.910156 176.535156 L 113.910156 178.957031 C 113.910156 181.433594 115.917969 183.441406 118.394531 183.441406 C 120.871094 183.441406 122.878906 181.433594 122.878906 178.957031 L 122.878906 176.535156 L 125.300781 176.535156 C 127.777344 176.535156 129.785156 174.527344 129.785156 172.054688 C 129.785156 169.578125 127.777344 167.570312 125.300781 167.570312 L 122.878906 167.570312 L 122.878906 165.148438 C 122.878906 162.671875 120.871094 160.667969 118.394531 160.667969 C 115.917969 160.667969 113.910156 162.671875 113.910156 165.148438 L 113.910156 167.570312 L 111.488281 167.570312 C 109.011719 167.570312 107.003906 169.578125 107.003906 172.054688 C 107.003906 174.527344 109.007812 176.535156 111.488281 176.535156 Z M 111.488281 176.535156 " fill-opacity="1" fill-rule="nonzero"/><path fill="#2b5a7b" d="M 190.902344 167.570312 L 177.390625 167.570312 C 174.910156 167.570312 172.90625 169.578125 172.90625 172.054688 C 172.90625 174.527344 174.910156 176.535156 177.390625 176.535156 L 190.902344 176.535156 C 193.378906 176.535156 195.386719 174.527344 195.386719 172.054688 C 195.386719 169.578125 193.378906 167.570312 190.902344 167.570312 Z M 190.902344 167.570312 " fill-opacity="1" fill-rule="nonzero"/><path fill="#2b5a7b" d="M 118.394531 200.386719 C 133.996094 200.386719 146.6875 187.703125 146.6875 172.105469 C 146.6875 156.515625 133.996094 143.828125 118.394531 143.828125 C 102.792969 143.828125 90.101562 156.515625 90.101562 172.105469 C 90.101562 187.703125 102.792969 200.386719 118.394531 200.386719 Z M 118.394531 152.792969 C 129.050781 152.792969 137.71875 161.457031 137.71875 172.105469 C 137.71875 182.757812 129.050781 191.421875 118.394531 191.421875 C 107.738281 191.421875 99.070312 182.757812 99.070312 172.105469 C 99.070312 161.457031 107.738281 152.792969 118.394531 152.792969 Z M 118.394531 152.792969 " fill-opacity="1" fill-rule="nonzero"/><path fill="#2b5a7b" d="M 183.910156 143.828125 C 168.308594 143.828125 155.617188 156.515625 155.617188 172.105469 C 155.617188 187.703125 168.308594 200.386719 183.910156 200.386719 C 199.511719 200.386719 212.203125 187.703125 212.203125 172.105469 C 212.203125 156.515625 199.511719 143.828125 183.910156 143.828125 Z M 183.910156 191.421875 C 173.253906 191.421875 164.585938 182.757812 164.585938 172.105469 C 164.585938 161.457031 173.253906 152.792969 183.910156 152.792969 C 194.566406 152.792969 203.230469 161.457031 203.230469 172.105469 C 203.230469 182.757812 194.566406 191.421875 183.910156 191.421875 Z M 183.910156 191.421875 " fill-opacity="1" fill-rule="nonzero"/><path fill="#2b5a7b" d="M 98.390625 215.726562 C 87.359375 226.75 87.359375 244.691406 98.390625 255.714844 C 103.90625 261.230469 111.148438 263.988281 118.394531 263.988281 C 125.640625 263.988281 132.882812 261.230469 138.398438 255.714844 C 149.429688 244.691406 149.429688 226.75 138.398438 215.726562 C 127.367188 204.699219 109.417969 204.699219 98.390625 215.726562 Z M 132.058594 222.0625 C 139.589844 229.59375 139.589844 241.847656 132.058594 249.378906 C 124.523438 256.910156 112.265625 256.910156 104.730469 249.378906 C 97.195312 241.847656 97.195312 229.59375 104.730469 222.0625 C 108.5 218.296875 113.445312 216.414062 118.394531 216.414062 C 123.34375 216.414062 128.292969 218.296875 132.058594 222.0625 Z M 132.058594 222.0625 " fill-opacity="1" fill-rule="nonzero"/><path fill="#2b5a7b" d="M 183.910156 207.441406 C 168.308594 207.441406 155.617188 220.128906 155.617188 235.722656 C 155.617188 251.3125 168.308594 264 183.910156 264 C 199.511719 264 212.203125 251.3125 212.203125 235.722656 C 212.203125 220.128906 199.511719 207.441406 183.910156 207.441406 Z M 183.910156 255.035156 C 173.253906 255.035156 164.585938 246.371094 164.585938 235.722656 C 164.585938 225.070312 173.253906 216.40625 183.910156 216.40625 C 194.566406 216.40625 203.230469 225.070312 203.230469 235.722656 C 203.230469 246.371094 194.566406 255.035156 183.910156 255.035156 Z M 183.910156 255.035156 " fill-opacity="1" fill-rule="nonzero"/><path fill="#2b5a7b" d="M 190.902344 224.890625 L 177.390625 224.890625 C 174.910156 224.890625 172.90625 226.898438 172.90625 229.375 C 172.90625 231.851562 174.910156 233.855469 177.390625 233.855469 L 190.902344 233.855469 C 193.378906 233.855469 195.386719 231.851562 195.386719 229.375 C 195.386719 226.898438 193.378906 224.890625 190.902344 224.890625 Z M 190.902344 224.890625 " fill-opacity="1" fill-rule="nonzero"/><path fill="#2b5a7b" d="M 190.902344 238.164062 L 177.390625 238.164062 C 174.910156 238.164062 172.90625 240.171875 172.90625 242.648438 C 172.90625 245.125 174.910156 247.128906 177.390625 247.128906 L 190.902344 247.128906 C 193.378906 247.128906 195.386719 245.125 195.386719 242.648438 C 195.386719 240.171875 193.378906 238.164062 190.902344 238.164062 Z M 190.902344 238.164062 " fill-opacity="1" fill-rule="nonzero"/><path fill="#2b5a7b" d="M 110.339844 243.773438 C 111.214844 244.648438 112.363281 245.085938 113.511719 245.085938 C 114.65625 245.085938 115.804688 244.648438 116.679688 243.773438 L 118.394531 242.058594 L 120.105469 243.773438 C 120.984375 244.648438 122.128906 245.085938 123.277344 245.085938 C 124.425781 245.085938 125.574219 244.644531 126.449219 243.773438 C 128.199219 242.019531 128.199219 239.183594 126.449219 237.433594 L 124.734375 235.722656 L 126.449219 234.007812 C 128.199219 232.257812 128.199219 229.417969 126.449219 227.667969 C 124.699219 225.917969 121.859375 225.917969 120.105469 227.667969 L 118.394531 229.378906 L 116.679688 227.667969 C 114.929688 225.917969 112.089844 225.917969 110.335938 227.667969 C 108.585938 229.417969 108.585938 232.257812 110.335938 234.007812 L 112.050781 235.722656 L 110.335938 237.433594 C 108.585938 239.183594 108.585938 242.019531 110.339844 243.773438 Z M 110.339844 243.773438 " fill-opacity="1" fill-rule="nonzero"/><path fill="#2b5a7b" d="M 273.902344 159.304688 C 272.972656 157.046875 270.296875 155.949219 268.046875 156.878906 C 265.789062 157.8125 264.683594 160.476562 265.617188 162.734375 C 266.550781 164.992188 269.21875 166.089844 271.476562 165.160156 C 273.730469 164.226562 274.839844 161.554688 273.902344 159.304688 Z M 273.902344 159.304688 " fill-opacity="1" fill-rule="nonzero"/></svg>