<svg xmlns="http://www.w3.org/2000/svg" xmlns:xlink="http://www.w3.org/1999/xlink" width="500" zoomAndPan="magnify" viewBox="0 0 375 374.999991" height="500" preserveAspectRatio="xMidYMid meet" version="1.0"><defs><filter x="0%" y="0%" width="100%" height="100%" id="id1"><feColorMatrix values="0 0 0 0 1 0 0 0 0 1 0 0 0 0 1 0 0 0 1 0" color-interpolation-filters="sRGB"/></filter><mask id="id2"><g filter="url(#id1)"><rect x="-37.5" width="450" fill="#000000" y="-37.499999" height="449.999989" fill-opacity="0.5765"/></g></mask><clipPath id="id3"><rect x="0" width="375" y="0" height="375"/></clipPath><clipPath id="id4"><path d="M 98 256 L 115 256 L 115 280.085938 L 98 280.085938 Z M 98 256 " clip-rule="nonzero"/></clipPath><clipPath id="id5"><path d="M 260 256 L 277 256 L 277 280.085938 L 260 280.085938 Z M 260 256 " clip-rule="nonzero"/></clipPath><clipPath id="id6"><path d="M 79.382812 94.835938 L 295.382812 94.835938 L 295.382812 111 L 79.382812 111 Z M 79.382812 94.835938 " clip-rule="nonzero"/></clipPath></defs><rect x="-37.5" width="450" fill="#ffffff" y="-37.499999" height="449.999989" fill-opacity="1"/><rect x="-37.5" width="450" fill="#ffffff" y="-37.499999" height="449.999989" fill-opacity="1"/><rect x="-37.5" width="450" fill="#ffffff" y="-37.499999" height="449.999989" fill-opacity="1"/><g mask="url(#id2)"><g transform="matrix(1, 0, 0, 1, 0, 0)"><g clip-path="url(#id3)"><path fill="#d69f50" d="M 187.5 0 C 83.945312 0 0 83.945312 0 187.5 C 0 291.054688 83.945312 375 187.5 375 C 291.054688 375 375 291.054688 375 187.5 C 375 83.945312 291.054688 0 187.5 0 " fill-opacity="1" fill-rule="nonzero"/></g></g></g><g clip-path="url(#id4)"><path fill="#000000" d="M 98.679688 256.929688 L 114.105469 256.929688 L 114.105469 280.085938 L 98.679688 280.085938 Z M 98.679688 256.929688 " fill-opacity="1" fill-rule="nonzero"/></g><g clip-path="url(#id5)"><path fill="#000000" d="M 276.085938 280.085938 L 260.660156 280.085938 L 260.660156 256.929688 L 276.085938 256.929688 Z M 276.085938 280.085938 " fill-opacity="1" fill-rule="nonzero"/></g><path fill="#075e54" d="M 87.109375 106.414062 L 287.65625 106.414062 L 287.65625 256.929688 C 287.65625 261.1875 284.199219 264.648438 279.941406 264.648438 L 94.824219 264.648438 C 90.566406 264.648438 87.109375 261.1875 87.109375 256.929688 Z M 87.109375 106.414062 " fill-opacity="1" fill-rule="nonzero"/><path fill="#000000" d="M 110.25 125.710938 L 264.515625 125.710938 C 265.023438 125.710938 265.523438 125.757812 266.019531 125.859375 C 266.515625 125.957031 267 126.101562 267.46875 126.296875 C 267.933594 126.492188 268.378906 126.726562 268.800781 127.011719 C 269.222656 127.292969 269.613281 127.613281 269.96875 127.96875 C 270.328125 128.328125 270.648438 128.71875 270.929688 129.140625 C 271.210938 129.5625 271.449219 130.007812 271.640625 130.472656 C 271.835938 130.941406 271.980469 131.425781 272.082031 131.921875 C 272.179688 132.417969 272.230469 132.921875 272.230469 133.429688 L 272.230469 172.023438 C 272.230469 172.527344 272.179688 173.03125 272.082031 173.527344 C 271.980469 174.023438 271.835938 174.507812 271.640625 174.976562 C 271.449219 175.445312 271.210938 175.886719 270.929688 176.308594 C 270.648438 176.730469 270.328125 177.121094 269.96875 177.480469 C 269.613281 177.839844 269.222656 178.15625 268.800781 178.441406 C 268.378906 178.722656 267.933594 178.957031 267.46875 179.152344 C 267 179.347656 266.515625 179.492188 266.019531 179.59375 C 265.523438 179.691406 265.023438 179.742188 264.515625 179.742188 L 110.25 179.742188 C 109.742188 179.742188 109.242188 179.691406 108.746094 179.59375 C 108.246094 179.492188 107.765625 179.347656 107.296875 179.152344 C 106.828125 178.957031 106.386719 178.722656 105.964844 178.441406 C 105.542969 178.15625 105.152344 177.839844 104.796875 177.480469 C 104.4375 177.121094 104.117188 176.730469 103.835938 176.308594 C 103.554688 175.886719 103.316406 175.445312 103.125 174.976562 C 102.929688 174.507812 102.78125 174.023438 102.683594 173.527344 C 102.585938 173.03125 102.535156 172.527344 102.535156 172.023438 L 102.535156 133.429688 C 102.535156 132.921875 102.585938 132.417969 102.683594 131.921875 C 102.78125 131.425781 102.929688 130.941406 103.125 130.472656 C 103.316406 130.007812 103.554688 129.5625 103.835938 129.140625 C 104.117188 128.71875 104.4375 128.328125 104.796875 127.96875 C 105.152344 127.613281 105.542969 127.292969 105.964844 127.011719 C 106.386719 126.726562 106.828125 126.492188 107.296875 126.296875 C 107.765625 126.101562 108.246094 125.957031 108.746094 125.859375 C 109.242188 125.757812 109.742188 125.710938 110.25 125.710938 Z M 110.25 125.710938 " fill-opacity="1" fill-rule="nonzero"/><path fill="#000000" d="M 110.25 195.179688 L 264.515625 195.179688 C 265.023438 195.179688 265.523438 195.226562 266.019531 195.328125 C 266.515625 195.425781 267 195.570312 267.46875 195.765625 C 267.933594 195.960938 268.378906 196.195312 268.800781 196.480469 C 269.222656 196.761719 269.613281 197.082031 269.96875 197.4375 C 270.328125 197.796875 270.648438 198.1875 270.929688 198.609375 C 271.210938 199.03125 271.449219 199.472656 271.640625 199.941406 C 271.835938 200.410156 271.980469 200.894531 272.082031 201.390625 C 272.179688 201.886719 272.230469 202.390625 272.230469 202.898438 L 272.230469 241.492188 C 272.230469 241.996094 272.179688 242.5 272.082031 242.996094 C 271.980469 243.492188 271.835938 243.976562 271.640625 244.445312 C 271.449219 244.914062 271.210938 245.355469 270.929688 245.777344 C 270.648438 246.199219 270.328125 246.589844 269.96875 246.949219 C 269.613281 247.308594 269.222656 247.625 268.800781 247.910156 C 268.378906 248.191406 267.933594 248.425781 267.46875 248.621094 C 267 248.816406 266.515625 248.960938 266.019531 249.0625 C 265.523438 249.160156 265.023438 249.210938 264.515625 249.210938 L 110.25 249.210938 C 109.742188 249.210938 109.242188 249.160156 108.746094 249.0625 C 108.246094 248.960938 107.765625 248.816406 107.296875 248.621094 C 106.828125 248.425781 106.386719 248.191406 105.964844 247.910156 C 105.542969 247.625 105.152344 247.308594 104.796875 246.949219 C 104.4375 246.589844 104.117188 246.199219 103.835938 245.777344 C 103.554688 245.355469 103.316406 244.914062 103.125 244.445312 C 102.929688 243.976562 102.78125 243.492188 102.683594 242.996094 C 102.585938 242.5 102.535156 241.996094 102.535156 241.492188 L 102.535156 202.898438 C 102.535156 202.390625 102.585938 201.886719 102.683594 201.390625 C 102.78125 200.894531 102.929688 200.410156 103.125 199.941406 C 103.316406 199.472656 103.554688 199.03125 103.835938 198.609375 C 104.117188 198.1875 104.4375 197.796875 104.796875 197.4375 C 105.152344 197.082031 105.542969 196.761719 105.964844 196.480469 C 106.386719 196.195312 106.828125 195.960938 107.296875 195.765625 C 107.765625 195.570312 108.246094 195.425781 108.746094 195.328125 C 109.242188 195.226562 109.742188 195.179688 110.25 195.179688 Z M 110.25 195.179688 " fill-opacity="1" fill-rule="nonzero"/><path fill="#ffffff" d="M 202.808594 152.726562 C 200.675781 152.726562 198.953125 150.996094 198.953125 148.867188 L 198.953125 145.007812 L 175.8125 145.007812 L 175.8125 148.867188 C 175.8125 150.996094 174.085938 152.726562 171.957031 152.726562 C 169.824219 152.726562 168.097656 150.996094 168.097656 148.867188 L 168.097656 141.148438 C 168.097656 139.015625 169.824219 137.289062 171.957031 137.289062 L 202.808594 137.289062 C 204.941406 137.289062 206.664062 139.015625 206.664062 141.148438 L 206.664062 148.867188 C 206.664062 150.996094 204.941406 152.726562 202.808594 152.726562 Z M 202.808594 152.726562 " fill-opacity="1" fill-rule="nonzero"/><path fill="#ffffff" d="M 202.808594 222.195312 C 200.675781 222.195312 198.953125 220.464844 198.953125 218.335938 L 198.953125 214.476562 L 175.8125 214.476562 L 175.8125 218.335938 C 175.8125 220.464844 174.085938 222.195312 171.957031 222.195312 C 169.824219 222.195312 168.097656 220.464844 168.097656 218.335938 L 168.097656 210.617188 C 168.097656 208.484375 169.824219 206.757812 171.957031 206.757812 L 202.808594 206.757812 C 204.941406 206.757812 206.664062 208.484375 206.664062 210.617188 L 206.664062 218.335938 C 206.664062 220.464844 204.941406 222.195312 202.808594 222.195312 Z M 202.808594 222.195312 " fill-opacity="1" fill-rule="nonzero"/><g clip-path="url(#id6)"><path fill="#000000" d="M 83.253906 94.835938 L 291.511719 94.835938 C 292.023438 94.835938 292.515625 94.933594 292.988281 95.128906 C 293.460938 95.324219 293.878906 95.601562 294.238281 95.964844 C 294.601562 96.328125 294.878906 96.742188 295.074219 97.214844 C 295.269531 97.691406 295.367188 98.183594 295.367188 98.695312 L 295.367188 106.414062 C 295.367188 106.925781 295.269531 107.417969 295.074219 107.890625 C 294.878906 108.363281 294.601562 108.78125 294.238281 109.140625 C 293.878906 109.503906 293.460938 109.78125 292.988281 109.976562 C 292.515625 110.171875 292.023438 110.273438 291.511719 110.273438 L 83.253906 110.273438 C 82.742188 110.273438 82.25 110.171875 81.777344 109.976562 C 81.304688 109.78125 80.886719 109.503906 80.527344 109.140625 C 80.164062 108.78125 79.886719 108.363281 79.691406 107.890625 C 79.492188 107.417969 79.394531 106.925781 79.394531 106.414062 L 79.394531 98.695312 C 79.394531 98.183594 79.492188 97.691406 79.691406 97.214844 C 79.886719 96.742188 80.164062 96.328125 80.527344 95.964844 C 80.886719 95.601562 81.304688 95.324219 81.777344 95.128906 C 82.25 94.933594 82.742188 94.835938 83.253906 94.835938 Z M 83.253906 94.835938 " fill-opacity="1" fill-rule="nonzero"/></g></svg>