<svg xmlns="http://www.w3.org/2000/svg" xmlns:xlink="http://www.w3.org/1999/xlink" width="500" zoomAndPan="magnify" viewBox="0 0 375 374.999991" height="500" preserveAspectRatio="xMidYMid meet" version="1.0"><defs><filter x="0%" y="0%" width="100%" height="100%" id="id1"><feColorMatrix values="0 0 0 0 1 0 0 0 0 1 0 0 0 0 1 0 0 0 1 0" color-interpolation-filters="sRGB"/></filter><mask id="id2"><g filter="url(#id1)"><rect x="-37.5" width="450" fill="#000000" y="-37.499999" height="449.999989" fill-opacity="0.5765"/></g></mask><clipPath id="id3"><rect x="0" width="375" y="0" height="375"/></clipPath><clipPath id="id4"><path d="M 75 93.816406 L 300 93.816406 L 300 194 L 75 194 Z M 75 93.816406 " clip-rule="nonzero"/></clipPath><clipPath id="id5"><path d="M 100 193 L 275 193 L 275 281.316406 L 100 281.316406 Z M 100 193 " clip-rule="nonzero"/></clipPath></defs><rect x="-37.5" width="450" fill="#ffffff" y="-37.499999" height="449.999989" fill-opacity="1"/><rect x="-37.5" width="450" fill="#ffffff" y="-37.499999" height="449.999989" fill-opacity="1"/><rect x="-37.5" width="450" fill="#ffffff" y="-37.499999" height="449.999989" fill-opacity="1"/><g mask="url(#id2)"><g transform="matrix(1, 0, 0, 1, 0, 0)"><g clip-path="url(#id3)"><path fill="#d69f50" d="M 187.5 0 C 83.945312 0 0 83.945312 0 187.5 C 0 291.054688 83.945312 375 187.5 375 C 291.054688 375 375 291.054688 375 187.5 C 375 83.945312 291.054688 0 187.5 0 " fill-opacity="1" fill-rule="nonzero"/></g></g></g><g clip-path="url(#id4)"><path fill="#075e54" d="M 299.914062 168.816406 C 299.914062 182.625 288.730469 193.816406 274.933594 193.816406 L 100.066406 193.816406 C 86.269531 193.816406 75.085938 182.625 75.085938 168.816406 L 75.085938 118.816406 C 75.085938 105.011719 86.269531 93.816406 100.066406 93.816406 L 274.933594 93.816406 C 288.730469 93.816406 299.914062 105.011719 299.914062 118.816406 Z M 299.914062 168.816406 " fill-opacity="1" fill-rule="nonzero"/><path fill="#a89e9b" d="M 112.554688 93.816406 L 100.066406 93.816406 C 86.269531 93.816406 75.085938 105.011719 75.085938 118.816406 L 75.085938 131.316406 Z M 150.027344 93.816406 L 75.085938 168.816406 C 75.085938 177.316406 79.34375 184.804688 85.828125 189.316406 L 181.253906 93.816406 Z M 118.800781 193.816406 L 150.027344 193.816406 L 249.953125 93.816406 L 218.726562 93.816406 Z M 218.726562 193.816406 L 299.242188 113.242188 C 297.484375 105.554688 292.207031 99.242188 285.175781 96.066406 L 187.5 193.816406 Z M 299.914062 168.816406 L 299.914062 150.066406 L 256.199219 193.816406 L 274.933594 193.816406 C 288.730469 193.816406 299.914062 182.625 299.914062 168.816406 Z M 299.914062 168.816406 " fill-opacity="1" fill-rule="nonzero"/></g><g clip-path="url(#id5)"><path fill="#ffffff" d="M 100.066406 193.816406 L 131.292969 193.816406 L 131.292969 281.316406 L 100.066406 281.316406 Z M 243.707031 193.816406 L 274.933594 193.816406 L 274.933594 281.316406 L 243.707031 281.316406 Z M 243.707031 193.816406 " fill-opacity="1" fill-rule="nonzero"/></g></svg>