<svg xmlns="http://www.w3.org/2000/svg" xmlns:xlink="http://www.w3.org/1999/xlink" width="500" zoomAndPan="magnify" viewBox="0 0 375 374.999991" height="500" preserveAspectRatio="xMidYMid meet" version="1.0"><defs><filter x="0%" y="0%" width="100%" height="100%" id="id1"><feColorMatrix values="0 0 0 0 1 0 0 0 0 1 0 0 0 0 1 0 0 0 1 0" color-interpolation-filters="sRGB"/></filter><mask id="id2"><g filter="url(#id1)"><rect x="-37.5" width="450" fill="#000000" y="-37.499999" height="449.999989" fill-opacity="0.5765"/></g></mask><clipPath id="id3"><rect x="0" width="375" y="0" height="375"/></clipPath><clipPath id="id4"><path d="M 148 175 L 153 175 L 153 290.296875 L 148 290.296875 Z M 148 175 " clip-rule="nonzero"/></clipPath><clipPath id="id5"><path d="M 88.773438 84.796875 L 187 84.796875 L 187 186 L 88.773438 186 Z M 88.773438 84.796875 " clip-rule="nonzero"/></clipPath><clipPath id="id6"><path d="M 153 84.796875 L 286 84.796875 L 286 186 L 153 186 Z M 153 84.796875 " clip-rule="nonzero"/></clipPath><clipPath id="id7"><path d="M 88.773438 149 L 154 149 L 154 195 L 88.773438 195 Z M 88.773438 149 " clip-rule="nonzero"/></clipPath></defs><rect x="-37.5" width="450" fill="#ffffff" y="-37.499999" height="449.999989" fill-opacity="1"/><rect x="-37.5" width="450" fill="#ffffff" y="-37.499999" height="449.999989" fill-opacity="1"/><rect x="-37.5" width="450" fill="#ffffff" y="-37.499999" height="449.999989" fill-opacity="1"/><g mask="url(#id2)"><g transform="matrix(1, 0, 0, 1, 0, 0)"><g clip-path="url(#id3)"><path fill="#d69f50" d="M 187.5 0 C 83.945312 0 0 83.945312 0 187.5 C 0 291.054688 83.945312 375 187.5 375 C 291.054688 375 375 291.054688 375 187.5 C 375 83.945312 291.054688 0 187.5 0 " fill-opacity="1" fill-rule="nonzero"/></g></g></g><path fill="#075e54" d="M 98.597656 253.113281 C 98.597656 253.113281 97.929688 253.800781 96.308594 253.800781 C 94.6875 253.800781 94.023438 253.113281 94.023438 253.113281 L 94.023438 147.3125 C 94.023438 146.046875 95.042969 145.019531 96.308594 145.019531 C 97.570312 145.019531 98.597656 146.046875 98.597656 147.3125 L 98.597656 253.113281 " fill-opacity="1" fill-rule="nonzero"/><g clip-path="url(#id4)"><path fill="#075e54" d="M 152.625 289.570312 C 152.625 289.570312 151.960938 290.257812 150.335938 290.257812 C 148.710938 290.257812 148.046875 289.570312 148.046875 289.570312 L 148.046875 177.871094 C 148.046875 176.605469 149.070312 175.578125 150.335938 175.578125 C 151.597656 175.578125 152.625 176.605469 152.625 177.871094 L 152.625 289.570312 " fill-opacity="1" fill-rule="nonzero"/></g><path fill="#075e54" d="M 224.632812 225.105469 C 224.632812 225.105469 223.964844 225.792969 222.34375 225.792969 C 220.71875 225.792969 220.054688 225.105469 220.054688 225.105469 L 220.054688 119.300781 C 220.054688 118.035156 221.082031 117.011719 222.34375 117.011719 C 223.609375 117.011719 224.632812 118.035156 224.632812 119.300781 L 224.632812 225.105469 " fill-opacity="1" fill-rule="nonzero"/><path fill="#075e54" d="M 278.660156 261.5625 C 278.660156 261.5625 277.996094 262.25 276.371094 262.25 C 274.75 262.25 274.082031 261.5625 274.082031 261.5625 L 274.082031 154.476562 C 274.082031 153.210938 275.109375 152.183594 276.371094 152.183594 C 277.636719 152.183594 278.660156 153.210938 278.660156 154.476562 L 278.660156 261.5625 " fill-opacity="1" fill-rule="nonzero"/><g clip-path="url(#id5)"><path fill="#000000" d="M 88.800781 149.777344 L 153.980469 185.503906 L 186.96875 84.941406 Z M 88.800781 149.777344 " fill-opacity="1" fill-rule="nonzero"/></g><g clip-path="url(#id6)"><path fill="#075e54" d="M 187.707031 84.777344 L 186.96875 84.941406 L 153.980469 185.503906 L 285.941406 155.355469 L 187.707031 84.777344 " fill-opacity="1" fill-rule="nonzero"/></g><g clip-path="url(#id7)"><path fill="#075e54" d="M 88.800781 149.777344 L 88.800781 159.28125 L 153.980469 194.980469 L 153.980469 185.503906 L 88.800781 149.777344 " fill-opacity="1" fill-rule="nonzero"/></g><path fill="#000000" d="M 153.980469 185.503906 L 153.980469 194.980469 L 285.941406 167.441406 L 285.941406 155.355469 L 153.980469 185.503906 " fill-opacity="1" fill-rule="nonzero"/></svg>