<svg xmlns="http://www.w3.org/2000/svg" xmlns:xlink="http://www.w3.org/1999/xlink" width="500" zoomAndPan="magnify" viewBox="0 0 375 374.999991" height="500" preserveAspectRatio="xMidYMid meet" version="1.0"><defs><filter x="0%" y="0%" width="100%" height="100%" id="id1"><feColorMatrix values="0 0 0 0 1 0 0 0 0 1 0 0 0 0 1 0 0 0 1 0" color-interpolation-filters="sRGB"/></filter><mask id="id2"><g filter="url(#id1)"><rect x="-37.5" width="450" fill="#000000" y="-37.499999" height="449.999989" fill-opacity="0.5765"/></g></mask><clipPath id="id3"><rect x="0" width="375" y="0" height="375"/></clipPath><clipPath id="id4"><path d="M 81.582031 81.582031 L 293.082031 81.582031 L 293.082031 293.082031 L 81.582031 293.082031 Z M 81.582031 81.582031 " clip-rule="nonzero"/></clipPath></defs><rect x="-37.5" width="450" fill="#ffffff" y="-37.499999" height="449.999989" fill-opacity="1"/><rect x="-37.5" width="450" fill="#ffffff" y="-37.499999" height="449.999989" fill-opacity="1"/><rect x="-37.5" width="450" fill="#ffffff" y="-37.499999" height="449.999989" fill-opacity="1"/><g mask="url(#id2)"><g transform="matrix(1, 0, 0, 1, 0, 0)"><g clip-path="url(#id3)"><path fill="#d69f50" d="M 187.5 0 C 83.945312 0 0 83.945312 0 187.5 C 0 291.054688 83.945312 375 187.5 375 C 291.054688 375 375 291.054688 375 187.5 C 375 83.945312 291.054688 0 187.5 0 " fill-opacity="1" fill-rule="nonzero"/></g></g></g><g clip-path="url(#id4)"><path fill="#075e54" d="M 108.023438 81.582031 L 266.652344 81.582031 C 281.191406 81.582031 293.089844 93.480469 293.089844 108.019531 L 293.089844 266.652344 C 293.089844 281.191406 281.191406 293.089844 266.652344 293.089844 L 108.023438 293.089844 C 93.480469 293.089844 81.582031 281.191406 81.582031 266.652344 L 81.582031 108.019531 C 81.582031 93.480469 93.480469 81.582031 108.023438 81.582031 " fill-opacity="1" fill-rule="evenodd"/></g><path fill="#000000" d="M 112.980469 169.460938 L 129.503906 169.460938 L 129.503906 198.601562 L 109.675781 198.601562 L 109.675781 169.460938 Z M 116.933594 175.417969 L 116.933594 180.726562 L 122.242188 180.726562 L 122.242188 175.417969 Z M 116.933594 187.335938 L 116.933594 192.648438 L 122.242188 192.648438 L 122.242188 187.335938 L 116.933594 187.335938 " fill-opacity="1" fill-rule="evenodd"/><path fill="#000000" d="M 203.898438 118.855469 L 254.164062 118.855469 L 254.164062 266.34375 L 200.59375 266.34375 L 200.59375 118.855469 Z M 156.410156 177.621094 L 169.582031 164.449219 L 182.757812 177.621094 L 178.082031 182.292969 L 172.886719 177.101562 L 172.886719 216.082031 L 166.277344 216.082031 L 166.277344 177.101562 L 161.082031 182.292969 Z M 218.878906 198.234375 L 214.207031 202.90625 L 227.378906 216.082031 L 240.550781 202.90625 L 235.878906 198.234375 L 230.683594 203.429688 L 230.683594 164.449219 L 224.074219 164.449219 L 224.074219 203.429688 Z M 146.101562 118.855469 L 142.796875 118.855469 L 142.796875 266.34375 L 196.367188 266.34375 L 196.367188 118.855469 L 146.101562 118.855469 " fill-opacity="1" fill-rule="evenodd"/><path fill="#000000" d="M 131.960938 266.652344 L 131.960938 108.019531 L 265 108.019531 L 265 266.652344 L 258.390625 266.652344 L 258.390625 114.628906 L 138.574219 114.628906 L 138.574219 266.652344 L 131.960938 266.652344 " fill-opacity="1" fill-rule="nonzero"/></svg>