<svg xmlns="http://www.w3.org/2000/svg" xmlns:xlink="http://www.w3.org/1999/xlink" width="500" zoomAndPan="magnify" viewBox="0 0 375 374.999991" height="500" preserveAspectRatio="xMidYMid meet" version="1.0"><defs><filter x="0%" y="0%" width="100%" height="100%" id="id1"><feColorMatrix values="0 0 0 0 1 0 0 0 0 1 0 0 0 0 1 0 0 0 1 0" color-interpolation-filters="sRGB"/></filter><mask id="id2"><g filter="url(#id1)"><rect x="-37.5" width="450" fill="#000000" y="-37.499999" height="449.999989" fill-opacity="0.5765"/></g></mask><clipPath id="id3"><rect x="0" width="375" y="0" height="375"/></clipPath><clipPath id="id4"><path d="M 89.402344 90.472656 L 285.902344 90.472656 L 285.902344 284.722656 L 89.402344 284.722656 Z M 89.402344 90.472656 " clip-rule="nonzero"/></clipPath></defs><rect x="-37.5" width="450" fill="#ffffff" y="-37.499999" height="449.999989" fill-opacity="1"/><rect x="-37.5" width="450" fill="#ffffff" y="-37.499999" height="449.999989" fill-opacity="1"/><rect x="-37.5" width="450" fill="#ffffff" y="-37.499999" height="449.999989" fill-opacity="1"/><g mask="url(#id2)"><g transform="matrix(1, 0, 0, 1, 0, 0)"><g clip-path="url(#id3)"><path fill="#d69f50" d="M 187.5 0 C 83.945312 0 0 83.945312 0 187.5 C 0 291.054688 83.945312 375 187.5 375 C 291.054688 375 375 291.054688 375 187.5 C 375 83.945312 291.054688 0 187.5 0 " fill-opacity="1" fill-rule="nonzero"/></g></g></g><g clip-path="url(#id4)"><path fill="#075e54" d="M 203.03125 284.722656 C 198.6875 284.722656 194.542969 283.230469 191.082031 280.449219 C 186.738281 276.855469 184.226562 271.628906 184.226562 266 L 184.226562 212.667969 C 184.226562 210.769531 185.71875 209.277344 187.621094 209.277344 C 189.519531 209.277344 191.015625 210.769531 191.015625 212.667969 L 191.015625 266 C 191.015625 269.59375 192.574219 272.917969 195.359375 275.226562 C 198.144531 277.53125 201.808594 278.414062 205.339844 277.734375 C 249.535156 269.050781 280.421875 229.972656 278.726562 184.785156 C 276.960938 137.492188 238.46875 99.089844 191.21875 97.328125 C 166.234375 96.378906 142.472656 105.402344 124.484375 122.703125 C 106.425781 140.070312 96.515625 163.34375 96.515625 188.378906 C 96.515625 230.308594 124.890625 266.609375 165.554688 276.785156 C 167.390625 277.261719 168.476562 279.09375 168 280.925781 C 167.523438 282.757812 165.691406 283.84375 163.859375 283.367188 C 120.207031 272.445312 89.726562 233.363281 89.726562 188.378906 C 89.726562 161.511719 100.382812 136.476562 119.730469 117.886719 C 139.082031 99.292969 164.539062 89.59375 191.488281 90.609375 C 242.269531 92.511719 283.613281 133.828125 285.515625 184.582031 C 287.347656 233.089844 254.21875 275.089844 206.695312 284.453125 C 205.476562 284.65625 204.253906 284.722656 203.03125 284.722656 Z M 167.050781 122.296875 C 163.519531 122.296875 160.738281 125.144531 160.738281 128.605469 L 160.738281 176.097656 C 160.738281 179.628906 163.585938 182.410156 167.050781 182.410156 C 170.582031 182.410156 173.363281 179.558594 173.363281 176.097656 L 173.363281 128.605469 C 173.429688 125.144531 170.582031 122.296875 167.050781 122.296875 Z M 214.570312 128.671875 L 214.570312 176.167969 C 214.570312 179.695312 211.71875 182.476562 208.257812 182.476562 C 204.796875 182.476562 201.945312 179.628906 201.945312 176.167969 L 201.945312 128.671875 C 201.945312 125.144531 204.796875 122.363281 208.257812 122.363281 C 211.71875 122.363281 214.570312 125.144531 214.570312 128.671875 Z M 214.570312 128.671875 " fill-opacity="1" fill-rule="nonzero"/></g><path fill="#000000" d="M 230.253906 151.878906 L 145.054688 151.878906 C 140.980469 151.878906 138.742188 156.625 141.386719 159.746094 L 151.300781 176.097656 C 153.132812 179.085938 154.082031 182.542969 154.082031 186.003906 L 154.082031 195.640625 C 154.082031 213.144531 168.273438 227.257812 185.71875 227.257812 L 189.65625 227.257812 C 207.171875 227.257812 221.292969 213.078125 221.292969 195.640625 L 221.292969 186.003906 C 221.292969 182.476562 222.242188 179.085938 224.074219 176.097656 L 233.988281 159.746094 C 236.566406 156.625 234.328125 151.878906 230.253906 151.878906 Z M 230.253906 151.878906 " fill-opacity="1" fill-rule="nonzero"/></svg>