<svg xmlns="http://www.w3.org/2000/svg" xmlns:xlink="http://www.w3.org/1999/xlink" width="500" zoomAndPan="magnify" viewBox="0 0 375 374.999991" height="500" preserveAspectRatio="xMidYMid meet" version="1.0"><defs><filter x="0%" y="0%" width="100%" height="100%" id="id1"><feColorMatrix values="0 0 0 0 1 0 0 0 0 1 0 0 0 0 1 0 0 0 1 0" color-interpolation-filters="sRGB"/></filter><mask id="id2"><g filter="url(#id1)"><rect x="-37.5" width="450" fill="#000000" y="-37.499999" height="449.999989" fill-opacity="0.5765"/></g></mask><clipPath id="id3"><path d="M 0 0.789062 L 375 0.789062 L 375 371 L 0 371 Z M 0 0.789062 " clip-rule="nonzero"/></clipPath><clipPath id="id4"><rect x="0" width="375" y="0" height="371"/></clipPath><clipPath id="id5"><path d="M 64 136 L 311.40625 136 L 311.40625 215 L 64 215 Z M 64 136 " clip-rule="nonzero"/></clipPath><clipPath id="id6"><path d="M 110 220 L 120 220 L 120 274.234375 L 110 274.234375 Z M 110 220 " clip-rule="nonzero"/></clipPath><clipPath id="id7"><path d="M 158 220 L 169 220 L 169 274.234375 L 158 274.234375 Z M 158 220 " clip-rule="nonzero"/></clipPath><clipPath id="id8"><path d="M 207 220 L 217 220 L 217 274.234375 L 207 274.234375 Z M 207 220 " clip-rule="nonzero"/></clipPath><clipPath id="id9"><path d="M 255 220 L 265 220 L 265 274.234375 L 255 274.234375 Z M 255 220 " clip-rule="nonzero"/></clipPath><clipPath id="id10"><path d="M 222 100.984375 L 298 100.984375 L 298 176 L 222 176 Z M 222 100.984375 " clip-rule="nonzero"/></clipPath></defs><rect x="-37.5" width="450" fill="#ffffff" y="-37.499999" height="449.999989" fill-opacity="1"/><rect x="-37.5" width="450" fill="#ffffff" y="-37.499999" height="449.999989" fill-opacity="1"/><rect x="-37.5" width="450" fill="#ffffff" y="-37.499999" height="449.999989" fill-opacity="1"/><g mask="url(#id2)"><g transform="matrix(1, 0, 0, 1, 0, 4)"><g clip-path="url(#id4)"><g clip-path="url(#id3)"><path fill="#d69f50" d="M 187.5 0.789062 C 83.945312 0.789062 0 84.734375 0 188.289062 C 0 291.839844 83.945312 375.789062 187.5 375.789062 C 291.054688 375.789062 375 291.839844 375 188.289062 C 375 84.734375 291.054688 0.789062 187.5 0.789062 " fill-opacity="1" fill-rule="nonzero"/></g></g></g></g><path fill="#075e54" d="M 295.125 138.386719 L 302.851562 138.386719 C 306.113281 138.386719 308.761719 141.035156 308.761719 144.296875 L 308.761719 194.242188 C 308.761719 204.03125 300.816406 211.976562 291.03125 211.976562 L 84.28125 211.976562 C 74.492188 211.976562 66.546875 204.03125 66.546875 194.242188 L 66.546875 144.296875 C 66.546875 141.035156 69.195312 138.386719 72.457031 138.386719 L 295.125 138.386719 " fill-opacity="1" fill-rule="nonzero"/><path fill="#ffffff" d="M 107.316406 160.117188 C 107.316406 166.097656 102.464844 170.949219 96.484375 170.949219 C 90.503906 170.949219 85.652344 166.097656 85.652344 160.117188 C 85.652344 154.136719 90.503906 149.285156 96.484375 149.285156 C 102.464844 149.285156 107.316406 154.136719 107.316406 160.117188 " fill-opacity="1" fill-rule="nonzero"/><path fill="#ffffff" d="M 295.125 138.390625 C 295.125 157.742188 279.441406 173.429688 260.089844 173.429688 C 240.734375 173.429688 225.050781 157.742188 225.050781 138.390625 C 225.050781 119.039062 240.734375 103.351562 260.089844 103.351562 C 279.441406 103.351562 295.125 119.039062 295.125 138.390625 " fill-opacity="1" fill-rule="nonzero"/><g clip-path="url(#id5)"><path fill="#000000" d="M 291.03125 214.34375 L 84.28125 214.34375 C 73.199219 214.34375 64.183594 205.324219 64.183594 194.242188 L 64.183594 144.296875 C 64.183594 139.734375 67.894531 136.023438 72.457031 136.023438 L 225.050781 136.023438 L 225.050781 140.753906 L 72.457031 140.753906 C 70.503906 140.753906 68.910156 142.34375 68.910156 144.296875 L 68.910156 194.242188 C 68.910156 202.71875 75.804688 209.613281 84.28125 209.613281 L 291.03125 209.613281 C 299.503906 209.613281 306.398438 202.71875 306.398438 194.242188 L 306.398438 144.296875 C 306.398438 142.34375 304.808594 140.753906 302.851562 140.753906 L 295.125 140.753906 L 295.125 136.023438 L 302.851562 136.023438 C 307.414062 136.023438 311.125 139.734375 311.125 144.296875 L 311.125 194.242188 C 311.125 205.324219 302.113281 214.34375 291.03125 214.34375 " fill-opacity="1" fill-rule="nonzero"/></g><path fill="#000000" d="M 264.074219 140.753906 L 256.101562 140.753906 L 256.101562 136.023438 L 264.074219 136.023438 L 264.074219 140.753906 " fill-opacity="1" fill-rule="nonzero"/><path fill="#000000" d="M 287.921875 142.03125 C 287.503906 141.011719 286.34375 140.527344 285.324219 140.941406 L 275.46875 144.96875 L 264.074219 138.390625 L 275.46875 131.8125 L 285.324219 135.839844 C 285.570312 135.941406 285.824219 135.988281 286.074219 135.988281 C 286.859375 135.988281 287.605469 135.519531 287.921875 134.75 C 288.335938 133.730469 287.847656 132.566406 286.832031 132.148438 L 279.835938 129.289062 L 285.988281 125.738281 C 286.941406 125.1875 287.269531 123.96875 286.71875 123.015625 C 286.167969 122.0625 284.949219 121.734375 283.996094 122.285156 L 277.84375 125.839844 L 278.863281 118.347656 C 279.011719 117.261719 278.246094 116.253906 277.160156 116.109375 C 276.074219 115.960938 275.0625 116.722656 274.914062 117.8125 L 273.476562 128.359375 L 262.082031 134.9375 L 262.082031 121.78125 L 270.496094 115.261719 C 271.363281 114.585938 271.523438 113.335938 270.851562 112.464844 C 270.175781 111.59375 268.925781 111.4375 268.054688 112.109375 L 262.082031 116.738281 L 262.082031 109.632812 C 262.082031 108.53125 261.1875 107.640625 260.089844 107.640625 C 258.988281 107.640625 258.09375 108.53125 258.09375 109.632812 L 258.09375 116.738281 L 252.121094 112.109375 C 251.253906 111.4375 250 111.59375 249.324219 112.464844 C 248.652344 113.335938 248.8125 114.585938 249.679688 115.261719 L 258.09375 121.78125 L 258.09375 134.9375 L 246.699219 128.359375 L 245.261719 117.8125 C 245.113281 116.722656 244.105469 115.960938 243.015625 116.109375 C 241.925781 116.253906 241.164062 117.261719 241.3125 118.347656 L 242.332031 125.839844 L 236.179688 122.285156 C 235.226562 121.734375 234.007812 122.066406 233.457031 123.015625 C 232.90625 123.96875 233.234375 125.1875 234.1875 125.738281 L 240.339844 129.289062 L 233.347656 132.148438 C 232.328125 132.566406 231.839844 133.730469 232.253906 134.75 C 232.570312 135.519531 233.3125 135.988281 234.101562 135.988281 C 234.351562 135.988281 234.605469 135.941406 234.851562 135.839844 L 244.707031 131.8125 L 256.101562 138.390625 L 244.707031 144.96875 L 234.851562 140.941406 C 233.835938 140.527344 232.671875 141.011719 232.253906 142.03125 C 231.839844 143.050781 232.324219 144.214844 233.347656 144.628906 L 240.339844 147.492188 L 234.1875 151.042969 C 233.234375 151.59375 232.90625 152.8125 233.457031 153.765625 C 233.828125 154.40625 234.496094 154.761719 235.183594 154.761719 C 235.523438 154.761719 235.867188 154.675781 236.179688 154.496094 L 242.332031 150.945312 L 241.3125 158.429688 C 241.164062 159.519531 241.925781 160.527344 243.015625 160.675781 C 243.109375 160.683594 243.199219 160.691406 243.289062 160.691406 C 244.269531 160.691406 245.125 159.96875 245.261719 158.96875 L 246.699219 148.421875 L 258.09375 141.84375 L 258.09375 155 L 249.679688 161.519531 C 248.8125 162.191406 248.652344 163.445312 249.324219 164.316406 C 249.71875 164.824219 250.308594 165.089844 250.902344 165.089844 C 251.328125 165.089844 251.757812 164.953125 252.121094 164.667969 L 258.09375 160.039062 L 258.09375 167.148438 C 258.09375 168.246094 258.988281 169.140625 260.089844 169.140625 C 261.1875 169.140625 262.082031 168.246094 262.082031 167.148438 L 262.082031 160.039062 L 268.054688 164.667969 C 268.417969 164.953125 268.847656 165.089844 269.273438 165.089844 C 269.871094 165.089844 270.460938 164.824219 270.851562 164.316406 C 271.523438 163.445312 271.363281 162.191406 270.496094 161.519531 L 262.082031 155 L 262.082031 141.84375 L 273.476562 148.421875 L 274.914062 158.96875 C 275.050781 159.96875 275.90625 160.691406 276.886719 160.691406 C 276.976562 160.691406 277.066406 160.683594 277.160156 160.675781 C 278.246094 160.527344 279.011719 159.519531 278.863281 158.429688 L 277.84375 150.941406 L 283.996094 154.496094 C 284.308594 154.675781 284.652344 154.761719 284.992188 154.761719 C 285.679688 154.761719 286.347656 154.40625 286.71875 153.765625 C 287.269531 152.8125 286.941406 151.59375 285.988281 151.042969 L 279.835938 147.492188 L 286.832031 144.628906 C 287.851562 144.214844 288.335938 143.050781 287.921875 142.03125 " fill-opacity="1" fill-rule="nonzero"/><path fill="#000000" d="M 287.679688 187.445312 L 87.628906 187.445312 C 86.324219 187.445312 85.261719 186.386719 85.261719 185.082031 C 85.261719 183.773438 86.324219 182.71875 87.628906 182.71875 L 287.679688 182.71875 C 288.988281 182.71875 290.046875 183.773438 290.046875 185.082031 C 290.046875 186.386719 288.988281 187.445312 287.679688 187.445312 " fill-opacity="1" fill-rule="nonzero"/><path fill="#000000" d="M 287.679688 201.242188 L 87.628906 201.242188 C 86.324219 201.242188 85.261719 200.183594 85.261719 198.878906 C 85.261719 197.570312 86.324219 196.511719 87.628906 196.511719 L 287.679688 196.511719 C 288.988281 196.511719 290.046875 197.570312 290.046875 198.878906 C 290.046875 200.183594 288.988281 201.242188 287.679688 201.242188 " fill-opacity="1" fill-rule="nonzero"/><g clip-path="url(#id6)"><path fill="#000000" d="M 112.855469 274.230469 C 111.550781 274.230469 110.492188 273.167969 110.492188 271.863281 C 110.492188 267.140625 111.917969 264.679688 113.175781 262.503906 C 114.273438 260.605469 115.222656 258.96875 115.222656 255.511719 C 115.222656 252.058594 114.273438 250.417969 113.175781 248.519531 C 111.917969 246.347656 110.492188 243.882812 110.492188 239.160156 C 110.492188 234.4375 111.917969 231.976562 113.175781 229.800781 C 114.273438 227.902344 115.222656 226.261719 115.222656 222.808594 C 115.222656 221.503906 116.28125 220.445312 117.585938 220.445312 C 118.890625 220.445312 119.949219 221.503906 119.949219 222.808594 C 119.949219 227.53125 118.527344 229.996094 117.269531 232.167969 C 116.171875 234.066406 115.222656 235.707031 115.222656 239.160156 C 115.222656 242.613281 116.171875 244.253906 117.269531 246.152344 C 118.527344 248.328125 119.949219 250.789062 119.949219 255.511719 C 119.949219 260.234375 118.527344 262.699219 117.269531 264.875 C 116.171875 266.769531 115.222656 268.410156 115.222656 271.863281 C 115.222656 273.167969 114.164062 274.230469 112.855469 274.230469 " fill-opacity="1" fill-rule="nonzero"/></g><g clip-path="url(#id7)"><path fill="#000000" d="M 161.144531 274.230469 C 159.839844 274.230469 158.78125 273.167969 158.78125 271.863281 C 158.78125 267.140625 160.207031 264.679688 161.464844 262.503906 C 162.5625 260.605469 163.511719 258.96875 163.511719 255.511719 C 163.511719 252.058594 162.5625 250.417969 161.464844 248.519531 C 160.207031 246.347656 158.78125 243.882812 158.78125 239.160156 C 158.78125 234.4375 160.207031 231.976562 161.464844 229.800781 C 162.5625 227.902344 163.511719 226.261719 163.511719 222.808594 C 163.511719 221.503906 164.570312 220.445312 165.875 220.445312 C 167.179688 220.445312 168.238281 221.503906 168.238281 222.808594 C 168.238281 227.53125 166.8125 229.996094 165.558594 232.167969 C 164.457031 234.066406 163.511719 235.707031 163.511719 239.160156 C 163.511719 242.613281 164.457031 244.253906 165.558594 246.152344 C 166.8125 248.328125 168.238281 250.789062 168.238281 255.511719 C 168.238281 260.234375 166.8125 262.699219 165.558594 264.875 C 164.457031 266.769531 163.511719 268.410156 163.511719 271.863281 C 163.511719 273.167969 162.453125 274.230469 161.144531 274.230469 " fill-opacity="1" fill-rule="nonzero"/></g><g clip-path="url(#id8)"><path fill="#000000" d="M 209.433594 274.230469 C 208.128906 274.230469 207.070312 273.167969 207.070312 271.863281 C 207.070312 267.140625 208.496094 264.679688 209.753906 262.503906 C 210.851562 260.605469 211.796875 258.96875 211.796875 255.511719 C 211.796875 252.058594 210.851562 250.417969 209.753906 248.519531 C 208.496094 246.347656 207.070312 243.882812 207.070312 239.160156 C 207.070312 234.4375 208.496094 231.976562 209.753906 229.800781 C 210.851562 227.902344 211.796875 226.261719 211.796875 222.808594 C 211.796875 221.503906 212.855469 220.445312 214.164062 220.445312 C 215.46875 220.445312 216.527344 221.503906 216.527344 222.808594 C 216.527344 227.53125 215.105469 229.996094 213.84375 232.167969 C 212.746094 234.066406 211.796875 235.707031 211.796875 239.160156 C 211.796875 242.613281 212.746094 244.253906 213.84375 246.152344 C 215.105469 248.328125 216.527344 250.789062 216.527344 255.511719 C 216.527344 260.234375 215.105469 262.699219 213.84375 264.875 C 212.746094 266.769531 211.796875 268.410156 211.796875 271.863281 C 211.796875 273.167969 210.742188 274.230469 209.433594 274.230469 " fill-opacity="1" fill-rule="nonzero"/></g><g clip-path="url(#id9)"><path fill="#000000" d="M 257.722656 274.230469 C 256.417969 274.230469 255.359375 273.167969 255.359375 271.863281 C 255.359375 267.140625 256.78125 264.679688 258.039062 262.503906 C 259.140625 260.605469 260.089844 258.96875 260.089844 255.511719 C 260.089844 252.058594 259.140625 250.417969 258.039062 248.519531 C 256.78125 246.347656 255.359375 243.882812 255.359375 239.160156 C 255.359375 234.4375 256.78125 231.976562 258.039062 229.800781 C 259.140625 227.902344 260.089844 226.261719 260.089844 222.808594 C 260.089844 221.503906 261.148438 220.445312 262.453125 220.445312 C 263.757812 220.445312 264.816406 221.503906 264.816406 222.808594 C 264.816406 227.53125 263.390625 229.996094 262.136719 232.167969 C 261.035156 234.066406 260.089844 235.707031 260.089844 239.160156 C 260.089844 242.613281 261.035156 244.253906 262.136719 246.152344 C 263.390625 248.328125 264.816406 250.789062 264.816406 255.511719 C 264.816406 260.234375 263.390625 262.699219 262.136719 264.875 C 261.035156 266.769531 260.089844 268.410156 260.089844 271.863281 C 260.089844 273.167969 259.027344 274.230469 257.722656 274.230469 " fill-opacity="1" fill-rule="nonzero"/></g><path fill="#000000" d="M 96.484375 151.652344 C 91.816406 151.652344 88.019531 155.449219 88.019531 160.117188 C 88.019531 164.785156 91.816406 168.582031 96.484375 168.582031 C 101.152344 168.582031 104.949219 164.785156 104.949219 160.117188 C 104.949219 155.449219 101.152344 151.652344 96.484375 151.652344 Z M 96.484375 173.3125 C 89.207031 173.3125 83.289062 167.394531 83.289062 160.117188 C 83.289062 152.84375 89.207031 146.921875 96.484375 146.921875 C 103.761719 146.921875 109.679688 152.84375 109.679688 160.117188 C 109.679688 167.394531 103.761719 173.3125 96.484375 173.3125 " fill-opacity="1" fill-rule="nonzero"/><g clip-path="url(#id10)"><path fill="#000000" d="M 260.089844 105.714844 C 242.070312 105.714844 227.414062 120.375 227.414062 138.390625 C 227.414062 156.40625 242.070312 171.0625 260.089844 171.0625 C 278.105469 171.0625 292.761719 156.40625 292.761719 138.390625 C 292.761719 120.375 278.105469 105.714844 260.089844 105.714844 Z M 260.089844 175.792969 C 239.464844 175.792969 222.6875 159.011719 222.6875 138.390625 C 222.6875 117.765625 239.464844 100.988281 260.089844 100.988281 C 280.710938 100.988281 297.488281 117.765625 297.488281 138.390625 C 297.488281 159.011719 280.710938 175.792969 260.089844 175.792969 " fill-opacity="1" fill-rule="nonzero"/></g></svg>