<svg xmlns="http://www.w3.org/2000/svg" xmlns:xlink="http://www.w3.org/1999/xlink" width="500" zoomAndPan="magnify" viewBox="0 0 375 374.999991" height="500" preserveAspectRatio="xMidYMid meet" version="1.0"><defs><filter x="0%" y="0%" width="100%" height="100%" id="id1"><feColorMatrix values="0 0 0 0 1 0 0 0 0 1 0 0 0 0 1 0 0 0 1 0" color-interpolation-filters="sRGB"/></filter><mask id="id2"><g filter="url(#id1)"><rect x="-37.5" width="450" fill="#000000" y="-37.499999" height="449.999989" fill-opacity="0.5765"/></g></mask><clipPath id="id3"><rect x="0" width="375" y="0" height="375"/></clipPath><clipPath id="id4"><path d="M 109 67.410156 L 282 67.410156 L 282 125 L 109 125 Z M 109 67.410156 " clip-rule="nonzero"/></clipPath><clipPath id="id5"><path d="M 196 67.410156 L 245 67.410156 L 245 108 L 196 108 Z M 196 67.410156 " clip-rule="nonzero"/></clipPath><clipPath id="id6"><path d="M 90.554688 121 L 283 121 L 283 135 L 90.554688 135 Z M 90.554688 121 " clip-rule="nonzero"/></clipPath><clipPath id="id7"><path d="M 209 297 L 230 297 L 230 307.410156 L 209 307.410156 Z M 209 297 " clip-rule="nonzero"/></clipPath><clipPath id="id8"><path d="M 272 120 L 284.804688 120 L 284.804688 136 L 272 136 Z M 272 120 " clip-rule="nonzero"/></clipPath></defs><rect x="-37.5" width="450" fill="#ffffff" y="-37.499999" height="449.999989" fill-opacity="1"/><rect x="-37.5" width="450" fill="#ffffff" y="-37.499999" height="449.999989" fill-opacity="1"/><rect x="-37.5" width="450" fill="#ffffff" y="-37.499999" height="449.999989" fill-opacity="1"/><g mask="url(#id2)"><g transform="matrix(1, 0, 0, 1, 0, 0)"><g clip-path="url(#id3)"><path fill="#d69f50" d="M 187.5 0 C 83.945312 0 0 83.945312 0 187.5 C 0 291.054688 83.945312 375 187.5 375 C 291.054688 375 375 291.054688 375 187.5 C 375 83.945312 291.054688 0 187.5 0 " fill-opacity="1" fill-rule="nonzero"/></g></g></g><path stroke-linecap="round" transform="matrix(0.0935559, 0, 0, -0.0933126, -11.172827, 386.352894)" fill="none" stroke-linejoin="round" d="M 1343.708819 2699.902918 L 1343.708819 2236.993101 " stroke="#655a58" stroke-width="25" stroke-opacity="1" stroke-miterlimit="10"/><path stroke-linecap="round" transform="matrix(0.0935559, 0, 0, -0.0933126, -11.172827, 386.352894)" fill="none" stroke-linejoin="round" d="M 1495.815406 2059.498289 L 1343.708819 2236.993101 L 1190.600158 2059.498289 " stroke="#655a58" stroke-width="25" stroke-opacity="1" stroke-miterlimit="10"/><path fill="#075e54" d="M 130.875 226.164062 C 130.875 227.066406 130.132812 227.804688 129.226562 227.804688 L 99.851562 227.804688 C 98.941406 227.804688 98.203125 227.066406 98.203125 226.164062 L 98.203125 195.222656 C 98.203125 194.316406 98.941406 193.578125 99.851562 193.578125 L 129.226562 193.578125 C 130.132812 193.578125 130.875 194.316406 130.875 195.222656 L 130.875 226.164062 " fill-opacity="1" fill-rule="nonzero"/><path fill="#075e54" d="M 226.09375 303.949219 L 213.285156 303.949219 L 213.285156 147.304688 L 226.09375 147.304688 L 226.09375 303.949219 " fill-opacity="1" fill-rule="nonzero"/><g clip-path="url(#id4)"><path stroke-linecap="round" transform="matrix(0.0935559, 0, 0, -0.0933126, -11.172827, 386.352894)" fill="none" stroke-linejoin="round" d="M 3120.387234 2821.218948 L 2467.70259 3404.984313 L 1300.619608 2821.218948 " stroke="#655a58" stroke-width="25" stroke-opacity="1" stroke-miterlimit="10"/></g><g clip-path="url(#id5)"><path stroke-linecap="round" transform="matrix(0.0935559, 0, 0, -0.0933126, -11.172827, 386.352894)" fill="none" stroke-linejoin="round" d="M 2722.605338 2998.08583 L 2467.70259 3404.984313 L 2229.00005 3014.998071 " stroke="#655a58" stroke-width="25" stroke-opacity="1" stroke-miterlimit="10"/></g><g clip-path="url(#id6)"><path fill="#075e54" d="M 282.789062 121.644531 L 282.789062 134.417969 L 90.738281 134.417969 L 102.414062 121.644531 L 282.789062 121.644531 " fill-opacity="1" fill-rule="nonzero"/></g><path fill="#ffffff" d="M 281.105469 124.640625 L 272.703125 131.535156 L 261.394531 122.257812 C 260.992188 121.921875 260.410156 121.921875 260 122.257812 L 248.699219 131.535156 L 237.386719 122.257812 C 236.984375 121.921875 236.394531 121.921875 235.992188 122.257812 L 224.691406 131.535156 L 213.378906 122.257812 C 212.976562 121.921875 212.386719 121.921875 211.984375 122.257812 L 200.683594 131.535156 L 189.375 122.257812 C 188.972656 121.921875 188.382812 121.921875 187.980469 122.257812 L 176.679688 131.535156 L 165.375 122.257812 C 164.964844 121.921875 164.375 121.921875 163.972656 122.257812 L 152.671875 131.535156 L 141.371094 122.257812 C 140.96875 121.921875 140.378906 121.921875 139.976562 122.257812 L 128.675781 131.535156 L 117.363281 122.257812 C 116.960938 121.921875 116.371094 121.921875 115.96875 122.257812 L 104.667969 131.535156 L 98.210938 126.242188 L 96.6875 127.90625 L 103.964844 133.800781 C 104.367188 134.136719 104.957031 134.136719 105.371094 133.800781 L 116.660156 124.519531 L 127.972656 133.800781 C 128.375 134.136719 128.964844 134.136719 129.367188 133.800781 L 140.667969 124.519531 L 151.980469 133.800781 C 152.382812 134.136719 152.972656 134.136719 153.375 133.800781 L 164.675781 124.519531 L 175.976562 133.800781 C 176.386719 134.136719 176.96875 134.136719 177.378906 133.800781 L 188.679688 124.519531 L 199.984375 133.800781 C 200.386719 134.136719 200.972656 134.136719 201.375 133.800781 L 212.679688 124.519531 L 223.988281 133.800781 C 224.390625 134.136719 224.980469 134.136719 225.382812 133.800781 L 236.695312 124.519531 L 247.996094 133.800781 C 248.398438 134.136719 248.988281 134.136719 249.390625 133.800781 L 260.699219 124.519531 L 272.003906 133.800781 C 272.207031 133.96875 272.453125 134.054688 272.703125 134.054688 C 272.957031 134.054688 273.199219 133.96875 273.40625 133.800781 L 281.105469 127.476562 L 281.105469 124.640625 " fill-opacity="1" fill-rule="nonzero"/><path fill="#ffffff" d="M 216.300781 122.007812 L 223.210938 130.378906 L 213.902344 141.660156 C 213.566406 142.058594 213.566406 142.648438 213.902344 143.050781 L 223.210938 154.332031 L 213.902344 165.601562 C 213.566406 166.015625 213.566406 166.59375 213.902344 166.992188 L 223.210938 178.273438 L 213.902344 189.546875 C 213.566406 189.957031 213.566406 190.535156 213.902344 190.945312 L 223.210938 202.21875 L 213.902344 213.492188 C 213.566406 213.890625 213.566406 214.480469 213.902344 214.882812 L 223.210938 226.152344 L 213.902344 237.433594 C 213.566406 237.835938 213.566406 238.425781 213.902344 238.824219 L 223.210938 250.097656 L 213.902344 261.378906 C 213.566406 261.78125 213.566406 262.359375 213.902344 262.769531 L 223.210938 274.042969 L 213.902344 285.3125 C 213.566406 285.722656 213.566406 286.304688 213.902344 286.703125 L 223.210938 297.984375 L 217.832031 304.5 C 218.480469 304.84375 219.078125 305.28125 219.582031 305.824219 L 225.484375 298.675781 C 225.8125 298.273438 225.8125 297.6875 225.484375 297.285156 L 216.167969 286.015625 L 225.484375 274.742188 C 225.8125 274.332031 225.8125 273.753906 225.484375 273.34375 L 216.167969 262.070312 L 225.484375 250.796875 C 225.8125 250.394531 225.8125 249.808594 225.484375 249.40625 L 216.167969 238.136719 L 225.484375 226.855469 C 225.8125 226.453125 225.8125 225.863281 225.484375 225.464844 L 216.167969 214.191406 L 225.484375 202.910156 C 225.8125 202.507812 225.8125 201.921875 225.484375 201.519531 L 216.167969 190.246094 L 225.484375 178.976562 C 225.8125 178.5625 225.8125 177.976562 225.484375 177.574219 L 216.167969 166.304688 L 225.484375 155.023438 C 225.8125 154.621094 225.8125 154.03125 225.484375 153.632812 L 216.167969 142.359375 L 225.484375 131.078125 C 225.65625 130.871094 225.738281 130.628906 225.738281 130.378906 C 225.738281 130.136719 225.65625 129.894531 225.484375 129.6875 L 219.144531 122.007812 L 216.300781 122.007812 " fill-opacity="1" fill-rule="nonzero"/><path fill="#075e54" d="M 245.320312 154.332031 C 245.320312 156.152344 243.84375 157.617188 242.027344 157.617188 L 197.363281 157.617188 C 195.539062 157.617188 194.070312 156.152344 194.070312 154.332031 L 194.070312 108.289062 C 194.070312 106.480469 195.539062 105.015625 197.363281 105.015625 L 242.027344 105.015625 C 243.84375 105.015625 245.320312 106.480469 245.320312 108.289062 L 245.320312 154.332031 " fill-opacity="1" fill-rule="nonzero"/><path fill="#000000" d="M 217.039062 105.015625 L 197.363281 105.015625 C 195.539062 105.015625 194.070312 106.480469 194.070312 108.289062 L 194.070312 128.960938 L 217.039062 128.960938 L 217.039062 105.015625 " fill-opacity="1" fill-rule="nonzero"/><g clip-path="url(#id7)"><path fill="#075e54" d="M 229.667969 307.328125 L 209.769531 307.328125 L 209.769531 297.304688 L 229.667969 297.304688 L 229.667969 307.328125 " fill-opacity="1" fill-rule="nonzero"/></g><g clip-path="url(#id8)"><path fill="#075e54" d="M 284.707031 120.199219 L 284.707031 135.863281 L 272.039062 135.863281 L 272.039062 120.199219 L 284.707031 120.199219 " fill-opacity="1" fill-rule="nonzero"/></g></svg>