<svg xmlns="http://www.w3.org/2000/svg" xmlns:xlink="http://www.w3.org/1999/xlink" width="500" zoomAndPan="magnify" viewBox="0 0 375 374.999991" height="500" preserveAspectRatio="xMidYMid meet" version="1.0"><defs><filter x="0%" y="0%" width="100%" height="100%" id="id1"><feColorMatrix values="0 0 0 0 1 0 0 0 0 1 0 0 0 0 1 0 0 0 1 0" color-interpolation-filters="sRGB"/></filter><mask id="id2"><g filter="url(#id1)"><rect x="-37.5" width="450" fill="#000000" y="-37.499999" height="449.999989" fill-opacity="0.5765"/></g></mask><clipPath id="id3"><rect x="0" width="375" y="0" height="375"/></clipPath><clipPath id="id4"><path d="M 80.964844 98.371094 L 293.878906 98.371094 L 293.878906 276.871094 L 80.964844 276.871094 Z M 80.964844 98.371094 " clip-rule="nonzero"/></clipPath></defs><rect x="-37.5" width="450" fill="#ffffff" y="-37.499999" height="449.999989" fill-opacity="1"/><rect x="-37.5" width="450" fill="#ffffff" y="-37.499999" height="449.999989" fill-opacity="1"/><rect x="-37.5" width="450" fill="#ffffff" y="-37.499999" height="449.999989" fill-opacity="1"/><g mask="url(#id2)"><g transform="matrix(1, 0, 0, 1, 0, 0)"><g clip-path="url(#id3)"><path fill="#d69f50" d="M 187.5 0 C 83.945312 0 0 83.945312 0 187.5 C 0 291.054688 83.945312 375 187.5 375 C 291.054688 375 375 291.054688 375 187.5 C 375 83.945312 291.054688 0 187.5 0 " fill-opacity="1" fill-rule="nonzero"/></g></g></g><g clip-path="url(#id4)"><path fill="#075e54" d="M 153.890625 113.480469 L 128.855469 145.445312 L 128.855469 113.480469 Z M 160.070312 199.648438 L 134.863281 199.648438 L 160.070312 167.460938 L 160.070312 131.726562 L 128.855469 171.582031 L 128.855469 156.210938 L 160.070312 116.359375 L 160.070312 113.480469 Z M 205.324219 113.480469 L 166.605469 162.917969 L 166.605469 113.480469 Z M 239.808594 113.480469 L 214.773438 145.445312 L 214.773438 156.210938 L 245.988281 116.359375 L 245.988281 131.726562 L 214.773438 171.582031 L 214.773438 199.648438 L 214.773438 113.480469 Z M 252.523438 199.648438 L 252.523438 131.441406 L 277.371094 121.523438 L 277.371094 199.648438 Z M 128.855469 257.347656 L 245.988281 257.347656 L 245.988281 270.328125 L 128.855469 270.328125 Z M 97.476562 130.789062 L 122.324219 120.871094 L 122.324219 199.648438 L 97.476562 199.648438 Z M 128.855469 234.988281 L 128.855469 225.726562 L 245.988281 225.726562 L 245.988281 234.988281 Z M 128.855469 241.535156 L 245.988281 241.535156 L 245.988281 250.796875 L 128.855469 250.796875 Z M 245.988281 199.648438 L 220.777344 199.648438 L 245.988281 167.460938 Z M 245.988281 206.195312 L 245.988281 219.179688 L 128.855469 219.179688 L 128.855469 206.195312 Z M 208.238281 199.648438 L 166.605469 199.648438 L 166.605469 198.652344 L 208.238281 145.496094 Z M 88.503906 113.480469 L 90.941406 113.480469 L 90.941406 274.695312 C 90.941406 275.898438 91.917969 276.875 93.121094 276.875 L 281.726562 276.875 C 282.929688 276.875 283.902344 275.898438 283.902344 274.695312 L 283.902344 113.480469 L 286.34375 113.480469 C 290.503906 113.480469 293.878906 110.101562 293.878906 105.929688 C 293.878906 101.753906 290.503906 98.371094 286.34375 98.371094 L 88.503906 98.371094 C 84.339844 98.371094 80.964844 101.753906 80.964844 105.929688 C 80.964844 110.101562 84.339844 113.480469 88.503906 113.480469 " fill-opacity="1" fill-rule="nonzero"/></g></svg>