<svg xmlns="http://www.w3.org/2000/svg" xmlns:xlink="http://www.w3.org/1999/xlink" width="500" zoomAndPan="magnify" viewBox="0 0 375 374.999991" height="500" preserveAspectRatio="xMidYMid meet" version="1.0"><defs><filter x="0%" y="0%" width="100%" height="100%" id="id1"><feColorMatrix values="0 0 0 0 1 0 0 0 0 1 0 0 0 0 1 0 0 0 1 0" color-interpolation-filters="sRGB"/></filter><mask id="id2"><g filter="url(#id1)"><rect x="-37.5" width="450" fill="#000000" y="-37.499999" height="449.999989" fill-opacity="0.5765"/></g></mask><clipPath id="id3"><rect x="0" width="375" y="0" height="375"/></clipPath><clipPath id="id4"><path d="M 107 145 L 285.488281 145 L 285.488281 286 L 107 286 Z M 107 145 " clip-rule="nonzero"/></clipPath><clipPath id="id5"><path d="M 89.738281 89 L 268 89 L 268 230 L 89.738281 230 Z M 89.738281 89 " clip-rule="nonzero"/></clipPath></defs><rect x="-37.5" width="450" fill="#ffffff" y="-37.499999" height="449.999989" fill-opacity="1"/><rect x="-37.5" width="450" fill="#ffffff" y="-37.499999" height="449.999989" fill-opacity="1"/><rect x="-37.5" width="450" fill="#ffffff" y="-37.499999" height="449.999989" fill-opacity="1"/><g mask="url(#id2)"><g transform="matrix(1, 0, 0, 1, 0, 0)"><g clip-path="url(#id3)"><path fill="#d69f50" d="M 187.5 0 C 83.945312 0 0 83.945312 0 187.5 C 0 291.054688 83.945312 375 187.5 375 C 291.054688 375 375 291.054688 375 187.5 C 375 83.945312 291.054688 0 187.5 0 " fill-opacity="1" fill-rule="nonzero"/></g></g></g><path fill="#075e54" d="M 202.539062 166.417969 C 201.695312 165.574219 200.792969 164.792969 199.839844 164.078125 C 198.882812 163.359375 197.882812 162.714844 196.835938 162.140625 C 195.789062 161.5625 194.707031 161.0625 193.589844 160.640625 C 192.472656 160.21875 191.332031 159.875 190.164062 159.613281 C 189 159.351562 187.820312 159.171875 186.628906 159.078125 C 185.4375 158.984375 184.246094 158.972656 183.054688 159.042969 C 181.863281 159.117188 180.679688 159.273438 179.507812 159.511719 C 178.339844 159.753906 177.191406 160.074219 176.066406 160.472656 L 187.140625 171.546875 L 171.746094 186.933594 L 160.667969 175.863281 C 160.265625 176.988281 159.945312 178.136719 159.703125 179.304688 C 159.464844 180.472656 159.308594 181.65625 159.234375 182.847656 C 159.164062 184.039062 159.171875 185.230469 159.269531 186.421875 C 159.363281 187.609375 159.542969 188.789062 159.804688 189.953125 C 160.066406 191.117188 160.410156 192.257812 160.832031 193.375 C 161.257812 194.492188 161.757812 195.574219 162.332031 196.621094 C 162.910156 197.667969 163.554688 198.667969 164.273438 199.621094 C 164.992188 200.578125 165.773438 201.476562 166.617188 202.320312 C 167.460938 203.164062 168.363281 203.945312 169.316406 204.664062 C 170.273438 205.378906 171.273438 206.027344 172.320312 206.601562 C 173.367188 207.175781 174.449219 207.675781 175.566406 208.101562 C 176.683594 208.523438 177.824219 208.863281 178.992188 209.125 C 180.15625 209.386719 181.335938 209.566406 182.527344 209.664062 C 183.71875 209.757812 184.910156 209.769531 186.101562 209.695312 C 187.292969 209.621094 188.476562 209.464844 189.648438 209.226562 C 190.816406 208.984375 191.964844 208.664062 193.089844 208.261719 L 223.714844 242.757812 C 224.023438 243.105469 224.347656 243.4375 224.691406 243.75 C 225.035156 244.0625 225.390625 244.359375 225.761719 244.636719 C 226.136719 244.914062 226.519531 245.175781 226.921875 245.414062 C 227.320312 245.652344 227.730469 245.867188 228.148438 246.066406 C 228.570312 246.261719 229 246.4375 229.4375 246.589844 C 229.878906 246.742188 230.324219 246.871094 230.773438 246.980469 C 231.226562 247.089844 231.683594 247.171875 232.144531 247.234375 C 232.605469 247.292969 233.066406 247.332031 233.53125 247.347656 C 233.996094 247.359375 234.460938 247.351562 234.925781 247.316406 C 235.386719 247.285156 235.847656 247.226562 236.304688 247.144531 C 236.761719 247.066406 237.214844 246.960938 237.664062 246.835938 C 238.109375 246.710938 238.550781 246.5625 238.980469 246.390625 C 239.414062 246.21875 239.835938 246.027344 240.25 245.8125 C 240.660156 245.597656 241.0625 245.363281 241.449219 245.109375 C 241.835938 244.851562 242.210938 244.578125 242.574219 244.285156 C 242.933594 243.992188 243.277344 243.683594 243.605469 243.355469 C 243.933594 243.027344 244.246094 242.679688 244.539062 242.320312 C 244.832031 241.960938 245.105469 241.585938 245.363281 241.199219 C 245.617188 240.808594 245.851562 240.410156 246.066406 240 C 246.28125 239.585938 246.472656 239.164062 246.644531 238.734375 C 246.816406 238.300781 246.964844 237.863281 247.089844 237.414062 C 247.214844 236.96875 247.320312 236.515625 247.402344 236.058594 C 247.480469 235.601562 247.539062 235.140625 247.570312 234.675781 C 247.605469 234.214844 247.613281 233.75 247.601562 233.285156 C 247.585938 232.820312 247.546875 232.359375 247.488281 231.898438 C 247.425781 231.4375 247.34375 230.984375 247.234375 230.53125 C 247.125 230.078125 246.996094 229.632812 246.84375 229.195312 C 246.691406 228.757812 246.515625 228.328125 246.320312 227.90625 C 246.121094 227.484375 245.902344 227.078125 245.664062 226.679688 C 245.425781 226.28125 245.167969 225.894531 244.890625 225.523438 C 244.613281 225.148438 244.316406 224.792969 244.003906 224.449219 C 243.6875 224.109375 243.355469 223.785156 243.007812 223.476562 L 208.484375 192.878906 C 208.886719 191.753906 209.207031 190.605469 209.449219 189.4375 C 209.6875 188.265625 209.84375 187.085938 209.917969 185.894531 C 209.988281 184.703125 209.980469 183.511719 209.882812 182.320312 C 209.789062 181.128906 209.609375 179.953125 209.347656 178.789062 C 209.085938 177.621094 208.742188 176.480469 208.320312 175.363281 C 207.898438 174.25 207.398438 173.167969 206.820312 172.121094 C 206.246094 171.074219 205.601562 170.074219 204.882812 169.117188 C 204.164062 168.164062 203.382812 167.265625 202.539062 166.417969 Z M 202.539062 166.417969 " fill-opacity="1" fill-rule="nonzero"/><path fill="#a89e9b" d="M 247.789062 174.78125 C 247.128906 174.785156 246.484375 174.691406 245.855469 174.488281 C 245.226562 174.289062 244.644531 173.996094 244.109375 173.613281 C 243.574219 173.226562 243.109375 172.765625 242.722656 172.234375 C 242.332031 171.699219 242.035156 171.121094 241.832031 170.492188 C 240.8125 167.234375 239.507812 164.09375 237.917969 161.074219 C 237.617188 160.484375 237.414062 159.863281 237.3125 159.210938 C 237.207031 158.558594 237.210938 157.90625 237.3125 157.253906 C 237.417969 156.601562 237.621094 155.980469 237.925781 155.394531 C 238.226562 154.808594 238.613281 154.28125 239.085938 153.816406 C 239.371094 153.53125 239.625 153.222656 239.847656 152.890625 C 240.070312 152.554688 240.257812 152.203125 240.414062 151.832031 C 240.566406 151.460938 240.683594 151.078125 240.761719 150.683594 C 240.839844 150.289062 240.878906 149.890625 240.878906 149.488281 C 240.878906 149.085938 240.839844 148.6875 240.761719 148.292969 C 240.683594 147.898438 240.566406 147.515625 240.414062 147.144531 C 240.257812 146.773438 240.070312 146.421875 239.847656 146.085938 C 239.625 145.75 239.371094 145.441406 239.085938 145.160156 L 229.886719 135.964844 C 229.605469 135.683594 229.292969 135.429688 228.960938 135.203125 C 228.625 134.980469 228.273438 134.792969 227.902344 134.640625 C 227.527344 134.484375 227.144531 134.367188 226.75 134.289062 C 226.355469 134.210938 225.957031 134.171875 225.554688 134.171875 C 225.152344 134.171875 224.753906 134.210938 224.359375 134.289062 C 223.964844 134.367188 223.582031 134.484375 223.210938 134.640625 C 222.839844 134.792969 222.488281 134.980469 222.152344 135.203125 C 221.816406 135.429688 221.507812 135.683594 221.222656 135.964844 C 220.757812 136.4375 220.234375 136.824219 219.644531 137.125 C 219.058594 137.429688 218.4375 137.632812 217.785156 137.738281 C 217.132812 137.839844 216.480469 137.84375 215.824219 137.738281 C 215.171875 137.636719 214.550781 137.433594 213.960938 137.132812 C 210.941406 135.542969 207.796875 134.242188 204.539062 133.222656 C 203.910156 133.019531 203.328125 132.722656 202.792969 132.332031 C 202.257812 131.945312 201.796875 131.480469 201.410156 130.945312 C 201.027344 130.410156 200.730469 129.828125 200.53125 129.195312 C 200.332031 128.566406 200.234375 127.921875 200.242188 127.261719 C 200.242188 126.859375 200.203125 126.460938 200.125 126.066406 C 200.042969 125.671875 199.929688 125.289062 199.773438 124.917969 C 199.621094 124.546875 199.429688 124.195312 199.207031 123.859375 C 198.984375 123.527344 198.730469 123.21875 198.445312 122.933594 C 198.160156 122.648438 197.851562 122.394531 197.519531 122.171875 C 197.183594 121.949219 196.832031 121.761719 196.460938 121.605469 C 196.089844 121.453125 195.707031 121.335938 195.3125 121.257812 C 194.917969 121.179688 194.519531 121.140625 194.117188 121.140625 L 181.109375 121.140625 C 180.707031 121.140625 180.308594 121.179688 179.914062 121.257812 C 179.519531 121.335938 179.136719 121.453125 178.765625 121.605469 C 178.394531 121.761719 178.039062 121.949219 177.707031 122.171875 C 177.371094 122.394531 177.0625 122.648438 176.777344 122.933594 C 176.492188 123.21875 176.238281 123.527344 176.015625 123.859375 C 175.792969 124.195312 175.605469 124.546875 175.449219 124.917969 C 175.296875 125.289062 175.179688 125.671875 175.101562 126.066406 C 175.023438 126.460938 174.984375 126.859375 174.984375 127.261719 L 174.984375 127.394531 C 174.988281 128.035156 174.894531 128.660156 174.699219 129.269531 C 174.507812 129.882812 174.222656 130.445312 173.847656 130.964844 C 173.472656 131.488281 173.027344 131.9375 172.511719 132.3125 C 171.992188 132.691406 171.429688 132.980469 170.820312 133.175781 C 167.515625 134.199219 164.332031 135.519531 161.269531 137.128906 C 160.679688 137.429688 160.058594 137.628906 159.40625 137.734375 C 158.753906 137.835938 158.097656 137.835938 157.445312 137.730469 C 156.792969 137.625 156.171875 137.421875 155.585938 137.117188 C 154.996094 136.816406 154.472656 136.429688 154.007812 135.960938 C 153.722656 135.675781 153.414062 135.421875 153.078125 135.199219 C 152.742188 134.976562 152.390625 134.785156 152.019531 134.632812 C 151.648438 134.480469 151.265625 134.363281 150.871094 134.285156 C 150.476562 134.207031 150.078125 134.167969 149.675781 134.167969 C 149.273438 134.167969 148.875 134.207031 148.480469 134.285156 C 148.085938 134.363281 147.703125 134.480469 147.332031 134.632812 C 146.957031 134.785156 146.605469 134.976562 146.269531 135.199219 C 145.9375 135.421875 145.628906 135.675781 145.34375 135.960938 L 136.144531 145.152344 C 135.859375 145.4375 135.605469 145.746094 135.382812 146.078125 C 135.160156 146.414062 134.972656 146.765625 134.816406 147.136719 C 134.664062 147.507812 134.546875 147.890625 134.46875 148.285156 C 134.390625 148.679688 134.351562 149.078125 134.351562 149.480469 C 134.351562 149.882812 134.390625 150.28125 134.46875 150.675781 C 134.546875 151.070312 134.664062 151.453125 134.816406 151.824219 C 134.972656 152.195312 135.160156 152.546875 135.382812 152.882812 C 135.605469 153.21875 135.859375 153.527344 136.144531 153.808594 C 136.617188 154.273438 137.003906 154.800781 137.304688 155.386719 C 137.609375 155.976562 137.8125 156.597656 137.917969 157.25 C 138.023438 157.902344 138.023438 158.554688 137.917969 159.207031 C 137.816406 159.859375 137.613281 160.480469 137.3125 161.066406 C 135.722656 164.089844 134.417969 167.226562 133.398438 170.488281 C 133.195312 171.117188 132.898438 171.695312 132.511719 172.230469 C 132.121094 172.765625 131.65625 173.226562 131.121094 173.609375 C 130.585938 173.996094 130 174.289062 129.371094 174.492188 C 128.742188 174.691406 128.097656 174.789062 127.433594 174.78125 C 127.03125 174.78125 126.632812 174.820312 126.238281 174.898438 C 125.847656 174.976562 125.464844 175.09375 125.089844 175.246094 C 124.71875 175.402344 124.367188 175.589844 124.03125 175.8125 C 123.699219 176.035156 123.390625 176.289062 123.105469 176.574219 C 122.820312 176.859375 122.566406 177.167969 122.34375 177.503906 C 122.121094 177.835938 121.929688 178.1875 121.777344 178.558594 C 121.621094 178.933594 121.507812 179.316406 121.429688 179.707031 C 121.347656 180.101562 121.308594 180.5 121.308594 180.902344 L 121.308594 193.902344 C 121.308594 194.304688 121.347656 194.703125 121.429688 195.097656 C 121.507812 195.492188 121.621094 195.875 121.777344 196.246094 C 121.929688 196.617188 122.121094 196.96875 122.34375 197.304688 C 122.566406 197.636719 122.820312 197.945312 123.105469 198.230469 C 123.390625 198.515625 123.699219 198.769531 124.03125 198.992188 C 124.367188 199.214844 124.71875 199.402344 125.089844 199.558594 C 125.464844 199.710938 125.847656 199.828125 126.238281 199.90625 C 126.632812 199.984375 127.03125 200.023438 127.433594 200.023438 C 128.09375 200.019531 128.738281 200.117188 129.367188 200.316406 C 129.996094 200.515625 130.582031 200.808594 131.117188 201.195312 C 131.652344 201.578125 132.113281 202.039062 132.503906 202.570312 C 132.890625 203.105469 133.1875 203.683594 133.394531 204.3125 C 134.414062 207.570312 135.71875 210.710938 137.308594 213.730469 C 137.609375 214.320312 137.808594 214.941406 137.914062 215.59375 C 138.015625 216.246094 138.015625 216.898438 137.910156 217.550781 C 137.804688 218.203125 137.601562 218.824219 137.300781 219.410156 C 136.996094 220 136.609375 220.523438 136.140625 220.988281 C 135.855469 221.273438 135.601562 221.582031 135.378906 221.917969 C 135.152344 222.25 134.964844 222.605469 134.8125 222.976562 C 134.65625 223.347656 134.542969 223.730469 134.460938 224.125 C 134.382812 224.519531 134.34375 224.917969 134.34375 225.316406 C 134.34375 225.71875 134.382812 226.117188 134.460938 226.511719 C 134.542969 226.90625 134.65625 227.289062 134.8125 227.660156 C 134.964844 228.03125 135.152344 228.386719 135.378906 228.71875 C 135.601562 229.054688 135.855469 229.363281 136.140625 229.648438 L 145.335938 238.839844 C 145.621094 239.125 145.929688 239.378906 146.265625 239.601562 C 146.597656 239.824219 146.953125 240.011719 147.324219 240.167969 C 147.695312 240.320312 148.078125 240.4375 148.472656 240.515625 C 148.867188 240.59375 149.265625 240.632812 149.667969 240.632812 C 150.070312 240.632812 150.46875 240.59375 150.863281 240.515625 C 151.257812 240.4375 151.640625 240.320312 152.011719 240.167969 C 152.382812 240.011719 152.738281 239.824219 153.070312 239.601562 C 153.40625 239.378906 153.714844 239.125 154 238.839844 C 154.464844 238.367188 154.992188 237.984375 155.578125 237.679688 C 156.167969 237.378906 156.789062 237.175781 157.441406 237.070312 C 158.09375 236.964844 158.746094 236.964844 159.398438 237.066406 C 160.050781 237.167969 160.671875 237.371094 161.261719 237.671875 C 164.285156 239.261719 167.425781 240.566406 170.6875 241.585938 C 171.316406 241.789062 171.898438 242.082031 172.429688 242.472656 C 172.964844 242.863281 173.425781 243.324219 173.8125 243.859375 C 174.199219 244.394531 174.492188 244.980469 174.691406 245.609375 C 174.890625 246.238281 174.988281 246.882812 174.984375 247.542969 C 174.984375 247.945312 175.023438 248.34375 175.101562 248.738281 C 175.179688 249.132812 175.296875 249.515625 175.449219 249.886719 C 175.605469 250.257812 175.792969 250.609375 176.015625 250.945312 C 176.238281 251.277344 176.492188 251.589844 176.777344 251.871094 C 177.0625 252.15625 177.371094 252.410156 177.707031 252.632812 C 178.039062 252.855469 178.394531 253.046875 178.765625 253.199219 C 179.136719 253.351562 179.519531 253.46875 179.914062 253.546875 C 180.308594 253.625 180.707031 253.664062 181.109375 253.667969 L 194.117188 253.667969 C 194.519531 253.664062 194.917969 253.625 195.3125 253.546875 C 195.707031 253.46875 196.089844 253.351562 196.460938 253.199219 C 196.832031 253.046875 197.183594 252.855469 197.519531 252.632812 C 197.851562 252.410156 198.160156 252.15625 198.445312 251.871094 C 198.730469 251.589844 198.984375 251.277344 199.207031 250.945312 C 199.429688 250.609375 199.621094 250.257812 199.773438 249.886719 C 199.929688 249.515625 200.042969 249.132812 200.125 248.738281 C 200.203125 248.34375 200.242188 247.945312 200.242188 247.542969 C 200.234375 246.886719 200.332031 246.242188 200.53125 245.613281 C 200.734375 244.984375 201.027344 244.402344 201.410156 243.867188 C 201.796875 243.332031 202.257812 242.867188 202.789062 242.480469 C 203.324219 242.089844 203.902344 241.792969 204.53125 241.589844 C 206.984375 240.808594 209.371094 239.859375 211.691406 238.75 L 202.882812 228.824219 C 202.101562 229.113281 201.308594 229.382812 200.511719 229.625 C 199.714844 229.871094 198.910156 230.09375 198.097656 230.296875 C 197.289062 230.496094 196.472656 230.671875 195.652344 230.824219 C 194.832031 230.980469 194.007812 231.109375 193.179688 231.21875 C 192.351562 231.324219 191.519531 231.410156 190.6875 231.46875 C 189.855469 231.53125 189.019531 231.566406 188.183594 231.582031 C 187.351562 231.59375 186.515625 231.582031 185.679688 231.550781 C 184.847656 231.515625 184.015625 231.457031 183.183594 231.378906 C 182.351562 231.296875 181.523438 231.191406 180.699219 231.066406 C 179.875 230.9375 179.050781 230.789062 178.234375 230.613281 C 177.417969 230.441406 176.609375 230.242188 175.800781 230.023438 C 174.996094 229.804688 174.199219 229.5625 173.40625 229.296875 C 172.613281 229.03125 171.828125 228.746094 171.054688 228.4375 C 170.277344 228.125 169.511719 227.796875 168.753906 227.445312 C 168 227.089844 167.25 226.71875 166.515625 226.324219 C 165.78125 225.929688 165.054688 225.515625 164.34375 225.078125 C 163.632812 224.644531 162.929688 224.1875 162.246094 223.714844 C 161.558594 223.238281 160.886719 222.746094 160.226562 222.230469 C 159.566406 221.71875 158.921875 221.1875 158.296875 220.640625 C 157.667969 220.089844 157.054688 219.523438 156.457031 218.941406 C 155.859375 218.355469 155.28125 217.753906 154.71875 217.140625 C 154.15625 216.523438 153.609375 215.890625 153.082031 215.242188 C 152.554688 214.597656 152.046875 213.933594 151.558594 213.257812 C 151.066406 212.582031 150.597656 211.894531 150.148438 211.191406 C 149.695312 210.488281 149.265625 209.773438 148.855469 209.046875 C 148.445312 208.320312 148.054688 207.582031 147.6875 206.832031 C 147.316406 206.085938 146.972656 205.324219 146.644531 204.558594 C 146.320312 203.789062 146.015625 203.011719 145.734375 202.226562 C 145.453125 201.441406 145.191406 200.648438 144.957031 199.847656 C 144.71875 199.046875 144.503906 198.242188 144.3125 197.429688 C 144.121094 196.617188 143.953125 195.796875 143.808594 194.976562 C 143.664062 194.15625 143.542969 193.328125 143.441406 192.5 C 143.34375 191.671875 143.269531 190.839844 143.21875 190.007812 C 143.167969 189.175781 143.136719 188.339844 143.132812 187.507812 C 143.128906 186.671875 143.148438 185.839844 143.191406 185.003906 C 143.234375 184.171875 143.300781 183.339844 143.390625 182.511719 C 143.480469 181.679688 143.59375 180.855469 143.730469 180.03125 C 143.867188 179.207031 144.023438 178.386719 144.207031 177.574219 C 144.390625 176.757812 144.597656 175.949219 144.824219 175.148438 C 145.054688 174.347656 145.304688 173.550781 145.578125 172.761719 C 145.851562 171.972656 146.144531 171.191406 146.464844 170.421875 C 146.78125 169.648438 147.121094 168.886719 147.480469 168.132812 C 147.839844 167.382812 148.222656 166.640625 148.625 165.90625 C 149.027344 165.175781 149.453125 164.457031 149.894531 163.75 C 150.335938 163.042969 150.800781 162.347656 151.28125 161.667969 C 151.765625 160.988281 152.265625 160.320312 152.789062 159.667969 C 153.308594 159.015625 153.84375 158.375 154.402344 157.753906 C 154.957031 157.132812 155.53125 156.523438 156.121094 155.933594 C 156.710938 155.34375 157.320312 154.773438 157.941406 154.214844 C 158.566406 153.660156 159.203125 153.121094 159.855469 152.601562 C 160.507812 152.082031 161.175781 151.582031 161.859375 151.097656 C 162.539062 150.617188 163.234375 150.15625 163.941406 149.710938 C 164.652344 149.269531 165.371094 148.847656 166.101562 148.445312 C 166.832031 148.042969 167.574219 147.660156 168.328125 147.300781 C 169.082031 146.941406 169.84375 146.601562 170.617188 146.285156 C 171.390625 145.96875 172.171875 145.671875 172.960938 145.398438 C 173.75 145.125 174.546875 144.875 175.347656 144.644531 C 176.152344 144.417969 176.960938 144.210938 177.773438 144.03125 C 178.589844 143.847656 179.410156 143.6875 180.234375 143.550781 C 181.058594 143.414062 181.882812 143.304688 182.714844 143.214844 C 183.542969 143.125 184.375 143.058594 185.210938 143.015625 C 186.042969 142.972656 186.878906 142.953125 187.714844 142.957031 C 188.550781 142.960938 189.382812 142.992188 190.21875 143.042969 C 191.050781 143.09375 191.882812 143.167969 192.710938 143.265625 C 193.539062 143.367188 194.367188 143.488281 195.1875 143.632812 C 196.011719 143.777344 196.828125 143.945312 197.640625 144.136719 C 198.453125 144.328125 199.261719 144.542969 200.0625 144.78125 C 200.863281 145.015625 201.65625 145.277344 202.441406 145.558594 C 203.226562 145.839844 204.003906 146.144531 204.773438 146.46875 C 205.542969 146.796875 206.300781 147.140625 207.050781 147.511719 C 207.800781 147.878906 208.539062 148.269531 209.265625 148.679688 C 209.992188 149.089844 210.707031 149.519531 211.410156 149.96875 C 212.113281 150.421875 212.804688 150.890625 213.480469 151.378906 C 214.15625 151.871094 214.816406 152.378906 215.464844 152.902344 C 216.113281 153.429688 216.746094 153.976562 217.363281 154.539062 C 217.980469 155.101562 218.578125 155.679688 219.164062 156.277344 C 219.746094 156.875 220.316406 157.484375 220.863281 158.113281 C 221.414062 158.742188 221.945312 159.386719 222.457031 160.042969 C 222.972656 160.703125 223.464844 161.375 223.941406 162.0625 C 224.414062 162.75 224.871094 163.449219 225.304688 164.160156 C 225.742188 164.871094 226.15625 165.59375 226.550781 166.332031 C 226.945312 167.066406 227.320312 167.8125 227.671875 168.570312 C 228.023438 169.324219 228.355469 170.089844 228.664062 170.867188 C 228.972656 171.640625 229.261719 172.425781 229.523438 173.21875 C 229.789062 174.007812 230.03125 174.808594 230.25 175.613281 C 230.472656 176.417969 230.667969 177.226562 230.84375 178.042969 C 231.015625 178.859375 231.167969 179.679688 231.292969 180.503906 C 231.421875 181.332031 231.527344 182.160156 231.605469 182.988281 C 231.6875 183.820312 231.746094 184.652344 231.777344 185.484375 C 231.8125 186.320312 231.820312 187.152344 231.808594 187.988281 C 231.792969 188.824219 231.757812 189.65625 231.695312 190.488281 C 231.636719 191.320312 231.550781 192.152344 231.445312 192.980469 C 231.335938 193.804688 231.207031 194.628906 231.050781 195.449219 C 230.898438 196.269531 230.722656 197.085938 230.519531 197.894531 C 230.320312 198.707031 230.097656 199.511719 229.851562 200.308594 C 229.605469 201.105469 229.339844 201.894531 229.046875 202.679688 L 238.976562 211.476562 C 240.113281 209.117188 241.074219 206.691406 241.871094 204.195312 C 242.066406 203.585938 242.355469 203.019531 242.730469 202.503906 C 243.109375 201.984375 243.558594 201.539062 244.078125 201.164062 C 244.601562 200.785156 245.164062 200.503906 245.777344 200.308594 C 246.390625 200.113281 247.015625 200.019531 247.65625 200.023438 L 247.789062 200.023438 C 248.191406 200.023438 248.589844 199.984375 248.984375 199.90625 C 249.378906 199.828125 249.761719 199.710938 250.132812 199.558594 C 250.503906 199.402344 250.855469 199.214844 251.191406 198.992188 C 251.527344 198.769531 251.835938 198.515625 252.121094 198.230469 C 252.402344 197.945312 252.65625 197.636719 252.882812 197.304688 C 253.105469 196.96875 253.292969 196.617188 253.449219 196.246094 C 253.601562 195.875 253.71875 195.492188 253.796875 195.097656 C 253.875 194.703125 253.914062 194.304688 253.914062 193.902344 L 253.914062 180.902344 C 253.914062 180.5 253.875 180.101562 253.796875 179.707031 C 253.71875 179.316406 253.601562 178.933594 253.449219 178.558594 C 253.292969 178.1875 253.105469 177.835938 252.882812 177.503906 C 252.65625 177.167969 252.402344 176.859375 252.121094 176.574219 C 251.835938 176.289062 251.527344 176.035156 251.191406 175.8125 C 250.855469 175.589844 250.503906 175.402344 250.132812 175.246094 C 249.761719 175.09375 249.378906 174.976562 248.984375 174.898438 C 248.589844 174.820312 248.191406 174.78125 247.789062 174.78125 Z M 247.789062 174.78125 " fill-opacity="1" fill-rule="nonzero"/><path fill="#a89e9b" d="M 236.679688 236.441406 C 236.898438 236.222656 237.09375 235.980469 237.269531 235.722656 C 237.441406 235.464844 237.585938 235.191406 237.707031 234.90625 C 237.824219 234.617188 237.914062 234.320312 237.976562 234.015625 C 238.035156 233.710938 238.066406 233.40625 238.066406 233.09375 C 238.066406 232.785156 238.035156 232.476562 237.976562 232.171875 C 237.914062 231.867188 237.824219 231.570312 237.707031 231.28125 C 237.585938 230.996094 237.441406 230.722656 237.269531 230.464844 C 237.097656 230.207031 236.898438 229.964844 236.679688 229.746094 C 236.460938 229.527344 236.222656 229.332031 235.960938 229.15625 C 235.703125 228.984375 235.429688 228.839844 235.144531 228.722656 C 234.855469 228.601562 234.558594 228.511719 234.253906 228.453125 C 233.949219 228.390625 233.640625 228.359375 233.332031 228.359375 C 233.019531 228.359375 232.710938 228.390625 232.40625 228.453125 C 232.101562 228.511719 231.804688 228.601562 231.519531 228.722656 C 231.230469 228.839844 230.957031 228.984375 230.699219 229.15625 C 230.441406 229.332031 230.203125 229.527344 229.980469 229.746094 C 229.761719 229.964844 229.566406 230.207031 229.394531 230.464844 C 229.21875 230.722656 229.074219 230.996094 228.957031 231.28125 C 228.835938 231.570312 228.746094 231.867188 228.6875 232.171875 C 228.625 232.476562 228.59375 232.785156 228.59375 233.09375 C 228.59375 233.40625 228.625 233.710938 228.6875 234.015625 C 228.746094 234.320312 228.835938 234.617188 228.957031 234.90625 C 229.074219 235.191406 229.222656 235.464844 229.394531 235.722656 C 229.566406 235.980469 229.761719 236.222656 229.984375 236.441406 C 230.203125 236.660156 230.441406 236.855469 230.699219 237.027344 C 230.957031 237.203125 231.230469 237.347656 231.519531 237.464844 C 231.804688 237.585938 232.101562 237.675781 232.40625 237.734375 C 232.710938 237.796875 233.019531 237.828125 233.332031 237.828125 C 233.640625 237.828125 233.949219 237.796875 234.253906 237.734375 C 234.558594 237.675781 234.855469 237.585938 235.144531 237.464844 C 235.429688 237.347656 235.703125 237.203125 235.960938 237.027344 C 236.21875 236.855469 236.460938 236.660156 236.679688 236.441406 Z M 236.679688 236.441406 " fill-opacity="1" fill-rule="nonzero"/><g clip-path="url(#id4)"><path fill="#075e54" d="M 275.84375 145.011719 L 270.160156 147.753906 C 273.148438 153.933594 275.398438 160.371094 276.921875 167.066406 C 278.441406 173.757812 279.191406 180.539062 279.171875 187.402344 C 279.175781 189.605469 279.097656 191.804688 278.941406 194.003906 C 278.78125 196.199219 278.546875 198.386719 278.230469 200.566406 C 277.914062 202.746094 277.519531 204.914062 277.050781 207.0625 C 276.578125 209.214844 276.027344 211.347656 275.402344 213.460938 C 274.773438 215.570312 274.074219 217.65625 273.296875 219.71875 C 272.519531 221.78125 271.667969 223.808594 270.746094 225.808594 C 269.820312 227.808594 268.824219 229.773438 267.757812 231.699219 C 266.695312 233.628906 265.558594 235.515625 264.355469 237.363281 C 263.15625 239.207031 261.886719 241.007812 260.554688 242.761719 C 259.222656 244.515625 257.828125 246.21875 256.371094 247.875 C 254.917969 249.527344 253.402344 251.125 251.832031 252.671875 C 250.261719 254.214844 248.636719 255.699219 246.957031 257.128906 C 245.277344 258.554688 243.550781 259.917969 241.773438 261.222656 C 239.996094 262.523438 238.171875 263.761719 236.304688 264.929688 C 234.4375 266.101562 232.53125 267.203125 230.585938 268.234375 C 228.636719 269.269531 226.65625 270.230469 224.640625 271.121094 C 222.625 272.007812 220.578125 272.824219 218.503906 273.566406 C 216.429688 274.308594 214.328125 274.976562 212.207031 275.566406 C 210.082031 276.15625 207.941406 276.667969 205.78125 277.105469 C 203.621094 277.539062 201.449219 277.898438 199.261719 278.175781 C 197.074219 278.457031 194.882812 278.65625 192.679688 278.773438 C 190.480469 278.894531 188.277344 278.9375 186.074219 278.898438 C 183.871094 278.859375 181.671875 278.742188 179.476562 278.542969 C 177.28125 278.34375 175.097656 278.070312 172.921875 277.714844 C 170.746094 277.359375 168.589844 276.925781 166.445312 276.414062 C 164.300781 275.902344 162.179688 275.3125 160.078125 274.648438 C 157.976562 273.984375 155.902344 273.246094 153.855469 272.429688 C 151.804688 271.617188 149.789062 270.730469 147.808594 269.769531 C 145.824219 268.808594 143.878906 267.777344 141.96875 266.675781 C 140.058594 265.578125 138.191406 264.410156 136.367188 263.171875 C 134.542969 261.9375 132.765625 260.636719 131.035156 259.273438 C 129.304688 257.910156 127.625 256.484375 126 255 L 135.003906 246.015625 L 107.472656 240.5 L 112.953125 268.015625 L 121.523438 259.464844 C 123.261719 261.058594 125.054688 262.589844 126.902344 264.054688 C 128.75 265.519531 130.648438 266.917969 132.597656 268.246094 C 134.546875 269.574219 136.542969 270.828125 138.582031 272.011719 C 140.625 273.195312 142.703125 274.304688 144.824219 275.335938 C 146.945312 276.371094 149.097656 277.324219 151.289062 278.203125 C 153.480469 279.078125 155.695312 279.875 157.945312 280.59375 C 160.191406 281.308594 162.460938 281.945312 164.753906 282.496094 C 167.046875 283.050781 169.359375 283.519531 171.6875 283.90625 C 174.011719 284.289062 176.351562 284.589844 178.699219 284.808594 C 181.050781 285.023438 183.402344 285.15625 185.761719 285.203125 C 188.121094 285.246094 190.476562 285.207031 192.832031 285.085938 C 195.1875 284.960938 197.535156 284.75 199.875 284.457031 C 202.21875 284.164062 204.542969 283.785156 206.855469 283.324219 C 209.171875 282.859375 211.464844 282.316406 213.738281 281.6875 C 216.011719 281.058594 218.257812 280.351562 220.480469 279.558594 C 222.703125 278.769531 224.894531 277.898438 227.054688 276.949219 C 229.214844 276 231.335938 274.976562 233.421875 273.871094 C 235.507812 272.769531 237.546875 271.59375 239.546875 270.34375 C 241.546875 269.09375 243.5 267.773438 245.40625 266.382812 C 247.308594 264.988281 249.160156 263.53125 250.960938 262.007812 C 252.757812 260.480469 254.5 258.894531 256.183594 257.242188 C 257.867188 255.589844 259.488281 253.878906 261.046875 252.113281 C 262.609375 250.34375 264.101562 248.519531 265.53125 246.644531 C 266.957031 244.769531 268.316406 242.84375 269.605469 240.867188 C 270.894531 238.894531 272.109375 236.875 273.253906 234.8125 C 274.394531 232.75 275.460938 230.648438 276.453125 228.507812 C 277.441406 226.367188 278.351562 224.195312 279.1875 221.988281 C 280.019531 219.785156 280.769531 217.550781 281.441406 215.292969 C 282.113281 213.03125 282.703125 210.75 283.210938 208.445312 C 283.714844 206.144531 284.136719 203.828125 284.476562 201.492188 C 284.8125 199.160156 285.066406 196.816406 285.238281 194.464844 C 285.40625 192.113281 285.488281 189.761719 285.488281 187.402344 C 285.507812 180.0625 284.703125 172.816406 283.074219 165.660156 C 281.449219 158.503906 279.039062 151.621094 275.84375 145.011719 Z M 275.84375 145.011719 " fill-opacity="1" fill-rule="nonzero"/></g><g clip-path="url(#id5)"><path fill="#075e54" d="M 267.753906 134.304688 L 262.273438 106.789062 L 253.746094 115.308594 C 252.007812 113.714844 250.214844 112.183594 248.367188 110.71875 C 246.515625 109.253906 244.617188 107.859375 242.667969 106.53125 C 240.71875 105.203125 238.722656 103.949219 236.679688 102.765625 C 234.640625 101.582031 232.558594 100.476562 230.4375 99.441406 C 228.316406 98.410156 226.160156 97.457031 223.972656 96.578125 C 221.78125 95.703125 219.5625 94.90625 217.3125 94.1875 C 215.066406 93.472656 212.796875 92.839844 210.5 92.285156 C 208.207031 91.734375 205.898438 91.265625 203.570312 90.878906 C 201.242188 90.496094 198.902344 90.195312 196.554688 89.976562 C 194.203125 89.761719 191.851562 89.628906 189.492188 89.585938 C 187.132812 89.539062 184.773438 89.578125 182.417969 89.703125 C 180.0625 89.828125 177.714844 90.035156 175.375 90.332031 C 173.03125 90.625 170.707031 91.003906 168.390625 91.464844 C 166.078125 91.929688 163.785156 92.476562 161.511719 93.101562 C 159.234375 93.730469 156.988281 94.441406 154.765625 95.230469 C 152.542969 96.023438 150.351562 96.894531 148.191406 97.84375 C 146.03125 98.792969 143.910156 99.816406 141.824219 100.921875 C 139.738281 102.023438 137.695312 103.199219 135.695312 104.449219 C 133.695312 105.699219 131.742188 107.023438 129.839844 108.414062 C 127.933594 109.804688 126.082031 111.265625 124.28125 112.789062 C 122.484375 114.316406 120.742188 115.902344 119.058594 117.554688 C 117.375 119.207031 115.75 120.917969 114.191406 122.683594 C 112.628906 124.453125 111.136719 126.277344 109.707031 128.152344 C 108.28125 130.03125 106.921875 131.957031 105.632812 133.929688 C 104.34375 135.90625 103.125 137.925781 101.984375 139.988281 C 100.839844 142.050781 99.773438 144.152344 98.785156 146.292969 C 97.792969 148.433594 96.878906 150.605469 96.046875 152.8125 C 95.214844 155.015625 94.460938 157.25 93.789062 159.511719 C 93.117188 161.769531 92.527344 164.050781 92.019531 166.355469 C 91.515625 168.65625 91.089844 170.976562 90.753906 173.308594 C 90.414062 175.644531 90.160156 177.984375 89.988281 180.339844 C 89.820312 182.691406 89.734375 185.042969 89.738281 187.402344 C 89.71875 194.742188 90.519531 201.988281 92.148438 209.144531 C 93.777344 216.300781 96.1875 223.183594 99.378906 229.792969 L 105.0625 227.054688 C 102.078125 220.871094 99.824219 214.433594 98.304688 207.738281 C 96.78125 201.046875 96.03125 194.265625 96.050781 187.402344 C 96.050781 185.199219 96.128906 183 96.289062 180.804688 C 96.445312 178.605469 96.683594 176.417969 97 174.238281 C 97.316406 172.058594 97.710938 169.894531 98.1875 167.742188 C 98.660156 165.59375 99.210938 163.460938 99.835938 161.347656 C 100.464844 159.238281 101.164062 157.152344 101.945312 155.089844 C 102.722656 153.03125 103.574219 151 104.496094 149 C 105.421875 147 106.417969 145.039062 107.484375 143.109375 C 108.550781 141.183594 109.683594 139.296875 110.886719 137.453125 C 112.089844 135.605469 113.359375 133.804688 114.691406 132.050781 C 116.023438 130.296875 117.417969 128.59375 118.875 126.941406 C 120.332031 125.289062 121.84375 123.6875 123.414062 122.144531 C 124.988281 120.601562 126.613281 119.117188 128.292969 117.6875 C 129.96875 116.261719 131.699219 114.898438 133.476562 113.59375 C 135.253906 112.292969 137.074219 111.058594 138.941406 109.886719 C 140.808594 108.714844 142.714844 107.613281 144.664062 106.582031 C 146.609375 105.546875 148.589844 104.585938 150.605469 103.699219 C 152.621094 102.808594 154.667969 101.992188 156.742188 101.25 C 158.816406 100.507812 160.914062 99.839844 163.039062 99.25 C 165.160156 98.660156 167.304688 98.144531 169.464844 97.710938 C 171.625 97.273438 173.796875 96.914062 175.984375 96.636719 C 178.167969 96.355469 180.363281 96.15625 182.5625 96.035156 C 184.761719 95.914062 186.964844 95.875 189.167969 95.910156 C 191.371094 95.949219 193.570312 96.066406 195.765625 96.261719 C 197.960938 96.460938 200.144531 96.734375 202.320312 97.089844 C 204.496094 97.445312 206.65625 97.875 208.800781 98.386719 C 210.941406 98.898438 213.066406 99.484375 215.167969 100.148438 C 217.269531 100.8125 219.34375 101.550781 221.390625 102.363281 C 223.4375 103.175781 225.457031 104.0625 227.4375 105.019531 C 229.421875 105.980469 231.371094 107.007812 233.28125 108.109375 C 235.1875 109.207031 237.058594 110.375 238.882812 111.609375 C 240.707031 112.84375 242.484375 114.140625 244.21875 115.503906 C 245.949219 116.867188 247.628906 118.289062 249.257812 119.773438 L 240.222656 128.789062 Z M 267.753906 134.304688 " fill-opacity="1" fill-rule="nonzero"/></g></svg>