<svg xmlns="http://www.w3.org/2000/svg" xmlns:xlink="http://www.w3.org/1999/xlink" width="500" zoomAndPan="magnify" viewBox="0 0 375 374.999991" height="500" preserveAspectRatio="xMidYMid meet" version="1.0"><defs><filter x="0%" y="0%" width="100%" height="100%" id="id1"><feColorMatrix values="0 0 0 0 1 0 0 0 0 1 0 0 0 0 1 0 0 0 1 0" color-interpolation-filters="sRGB"/></filter><mask id="id2"><g filter="url(#id1)"><rect x="-37.5" width="450" fill="#000000" y="-37.499999" height="449.999989" fill-opacity="0.5765"/></g></mask><clipPath id="id3"><rect x="0" width="375" y="0" height="375"/></clipPath><clipPath id="id4"><path d="M 158 93.113281 L 217 93.113281 L 217 282.113281 L 158 282.113281 Z M 158 93.113281 " clip-rule="nonzero"/></clipPath><clipPath id="id5"><path d="M 225 125 L 283.429688 125 L 283.429688 282.113281 L 225 282.113281 Z M 225 125 " clip-rule="nonzero"/></clipPath><clipPath id="id6"><path d="M 91.429688 125 L 150 125 L 150 282.113281 L 91.429688 282.113281 Z M 91.429688 125 " clip-rule="nonzero"/></clipPath></defs><rect x="-37.5" width="450" fill="#ffffff" y="-37.499999" height="449.999989" fill-opacity="1"/><rect x="-37.5" width="450" fill="#ffffff" y="-37.499999" height="449.999989" fill-opacity="1"/><rect x="-37.5" width="450" fill="#ffffff" y="-37.499999" height="449.999989" fill-opacity="1"/><g mask="url(#id2)"><g transform="matrix(1, 0, 0, 1, 0, 0)"><g clip-path="url(#id3)"><path fill="#d69f50" d="M 187.5 0 C 83.945312 0 0 83.945312 0 187.5 C 0 291.054688 83.945312 375 187.5 375 C 291.054688 375 375 291.054688 375 187.5 C 375 83.945312 291.054688 0 187.5 0 " fill-opacity="1" fill-rule="nonzero"/></g></g></g><g clip-path="url(#id4)"><path fill="#075e54" d="M 216.390625 274.371094 C 216.390625 278.613281 212.957031 282.054688 208.722656 282.054688 L 166.128906 282.054688 C 161.894531 282.054688 158.460938 278.613281 158.460938 274.371094 L 158.460938 100.894531 C 158.460938 96.652344 161.894531 93.214844 166.128906 93.214844 L 208.722656 93.214844 C 212.957031 93.214844 216.390625 96.652344 216.390625 100.894531 L 216.390625 274.371094 " fill-opacity="1" fill-rule="nonzero"/></g><path fill="#ffffff" d="M 193.6875 117.132812 C 193.6875 117.792969 193.15625 118.324219 192.503906 118.324219 L 182.351562 118.324219 C 181.695312 118.324219 181.164062 117.792969 181.164062 117.132812 L 181.164062 106.964844 C 181.164062 106.308594 181.695312 105.777344 182.351562 105.777344 L 192.503906 105.777344 C 193.15625 105.777344 193.6875 106.308594 193.6875 106.964844 L 193.6875 117.132812 " fill-opacity="1" fill-rule="nonzero"/><path fill="#ffffff" d="M 176.367188 117.132812 C 176.367188 117.792969 175.835938 118.324219 175.183594 118.324219 L 165.027344 118.324219 C 164.375 118.324219 163.84375 117.792969 163.84375 117.132812 L 163.84375 106.964844 C 163.84375 106.308594 164.375 105.777344 165.027344 105.777344 L 175.183594 105.777344 C 175.835938 105.777344 176.367188 106.308594 176.367188 106.964844 L 176.367188 117.132812 " fill-opacity="1" fill-rule="nonzero"/><path fill="#ffffff" d="M 198.484375 117.132812 C 198.484375 117.792969 199.015625 118.324219 199.671875 118.324219 L 209.820312 118.324219 C 210.476562 118.324219 211.007812 117.792969 211.007812 117.132812 L 211.007812 106.964844 C 211.007812 106.308594 210.476562 105.777344 209.820312 105.777344 L 199.671875 105.777344 C 199.015625 105.777344 198.484375 106.308594 198.484375 106.964844 L 198.484375 117.132812 " fill-opacity="1" fill-rule="nonzero"/><path fill="#ffffff" d="M 193.6875 134.488281 C 193.6875 135.144531 193.15625 135.675781 192.503906 135.675781 L 182.351562 135.675781 C 181.695312 135.675781 181.164062 135.144531 181.164062 134.488281 L 181.164062 124.316406 C 181.164062 123.660156 181.695312 123.128906 182.351562 123.128906 L 192.503906 123.128906 C 193.15625 123.128906 193.6875 123.660156 193.6875 124.316406 L 193.6875 134.488281 " fill-opacity="1" fill-rule="nonzero"/><path fill="#ffffff" d="M 176.367188 134.488281 C 176.367188 135.144531 175.835938 135.675781 175.183594 135.675781 L 165.027344 135.675781 C 164.375 135.675781 163.84375 135.144531 163.84375 134.488281 L 163.84375 124.316406 C 163.84375 123.660156 164.375 123.128906 165.027344 123.128906 L 175.183594 123.128906 C 175.835938 123.128906 176.367188 123.660156 176.367188 124.316406 L 176.367188 134.488281 " fill-opacity="1" fill-rule="nonzero"/><path fill="#ffffff" d="M 198.484375 134.488281 C 198.484375 135.144531 199.015625 135.675781 199.671875 135.675781 L 209.820312 135.675781 C 210.476562 135.675781 211.007812 135.144531 211.007812 134.488281 L 211.007812 124.316406 C 211.007812 123.660156 210.476562 123.128906 209.820312 123.128906 L 199.671875 123.128906 C 199.015625 123.128906 198.484375 123.660156 198.484375 124.316406 L 198.484375 134.488281 " fill-opacity="1" fill-rule="nonzero"/><path fill="#ffffff" d="M 193.6875 151.84375 C 193.6875 152.5 193.15625 153.03125 192.503906 153.03125 L 182.351562 153.03125 C 181.695312 153.03125 181.164062 152.5 181.164062 151.84375 L 181.164062 141.667969 C 181.164062 141.011719 181.695312 140.480469 182.351562 140.480469 L 192.503906 140.480469 C 193.15625 140.480469 193.6875 141.011719 193.6875 141.667969 L 193.6875 151.84375 " fill-opacity="1" fill-rule="nonzero"/><path fill="#ffffff" d="M 176.367188 151.84375 C 176.367188 152.5 175.835938 153.03125 175.183594 153.03125 L 165.027344 153.03125 C 164.375 153.03125 163.84375 152.5 163.84375 151.84375 L 163.84375 141.667969 C 163.84375 141.011719 164.375 140.480469 165.027344 140.480469 L 175.183594 140.480469 C 175.835938 140.480469 176.367188 141.011719 176.367188 141.667969 L 176.367188 151.84375 " fill-opacity="1" fill-rule="nonzero"/><path fill="#ffffff" d="M 198.484375 151.84375 C 198.484375 152.5 199.015625 153.03125 199.671875 153.03125 L 209.820312 153.03125 C 210.476562 153.03125 211.007812 152.5 211.007812 151.84375 L 211.007812 141.667969 C 211.007812 141.011719 210.476562 140.480469 209.820312 140.480469 L 199.671875 140.480469 C 199.015625 140.480469 198.484375 141.011719 198.484375 141.667969 L 198.484375 151.84375 " fill-opacity="1" fill-rule="nonzero"/><path fill="#ffffff" d="M 193.6875 169.195312 C 193.6875 169.851562 193.15625 170.382812 192.503906 170.382812 L 182.351562 170.382812 C 181.695312 170.382812 181.164062 169.851562 181.164062 169.195312 L 181.164062 159.023438 C 181.164062 158.367188 181.695312 157.835938 182.351562 157.835938 L 192.503906 157.835938 C 193.15625 157.835938 193.6875 158.367188 193.6875 159.023438 L 193.6875 169.195312 " fill-opacity="1" fill-rule="nonzero"/><path fill="#ffffff" d="M 176.367188 169.195312 C 176.367188 169.851562 175.835938 170.382812 175.183594 170.382812 L 165.027344 170.382812 C 164.375 170.382812 163.84375 169.851562 163.84375 169.195312 L 163.84375 159.023438 C 163.84375 158.367188 164.375 157.835938 165.027344 157.835938 L 175.183594 157.835938 C 175.835938 157.835938 176.367188 158.367188 176.367188 159.023438 L 176.367188 169.195312 " fill-opacity="1" fill-rule="nonzero"/><path fill="#ffffff" d="M 198.484375 169.195312 C 198.484375 169.851562 199.015625 170.382812 199.671875 170.382812 L 209.820312 170.382812 C 210.476562 170.382812 211.007812 169.851562 211.007812 169.195312 L 211.007812 159.023438 C 211.007812 158.367188 210.476562 157.835938 209.820312 157.835938 L 199.671875 157.835938 C 199.015625 157.835938 198.484375 158.367188 198.484375 159.023438 L 198.484375 169.195312 " fill-opacity="1" fill-rule="nonzero"/><path fill="#ffffff" d="M 193.6875 186.546875 C 193.6875 187.203125 193.15625 187.738281 192.503906 187.738281 L 182.351562 187.738281 C 181.695312 187.738281 181.164062 187.203125 181.164062 186.546875 L 181.164062 176.378906 C 181.164062 175.722656 181.695312 175.191406 182.351562 175.191406 L 192.503906 175.191406 C 193.15625 175.191406 193.6875 175.722656 193.6875 176.378906 L 193.6875 186.546875 " fill-opacity="1" fill-rule="nonzero"/><path fill="#ffffff" d="M 176.367188 186.546875 C 176.367188 187.203125 175.835938 187.738281 175.183594 187.738281 L 165.027344 187.738281 C 164.375 187.738281 163.84375 187.203125 163.84375 186.546875 L 163.84375 176.378906 C 163.84375 175.722656 164.375 175.191406 165.027344 175.191406 L 175.183594 175.191406 C 175.835938 175.191406 176.367188 175.722656 176.367188 176.378906 L 176.367188 186.546875 " fill-opacity="1" fill-rule="nonzero"/><path fill="#ffffff" d="M 198.484375 186.546875 C 198.484375 187.203125 199.015625 187.738281 199.671875 187.738281 L 209.820312 187.738281 C 210.476562 187.738281 211.007812 187.203125 211.007812 186.546875 L 211.007812 176.378906 C 211.007812 175.722656 210.476562 175.191406 209.820312 175.191406 L 199.671875 175.191406 C 199.015625 175.191406 198.484375 175.722656 198.484375 176.378906 L 198.484375 186.546875 " fill-opacity="1" fill-rule="nonzero"/><path fill="#ffffff" d="M 193.6875 203.902344 C 193.6875 204.558594 193.15625 205.089844 192.503906 205.089844 L 182.351562 205.089844 C 181.695312 205.089844 181.164062 204.558594 181.164062 203.902344 L 181.164062 193.734375 C 181.164062 193.074219 181.695312 192.542969 182.351562 192.542969 L 192.503906 192.542969 C 193.15625 192.542969 193.6875 193.074219 193.6875 193.734375 L 193.6875 203.902344 " fill-opacity="1" fill-rule="nonzero"/><path fill="#ffffff" d="M 176.367188 203.902344 C 176.367188 204.558594 175.835938 205.089844 175.183594 205.089844 L 165.027344 205.089844 C 164.375 205.089844 163.84375 204.558594 163.84375 203.902344 L 163.84375 193.734375 C 163.84375 193.074219 164.375 192.542969 165.027344 192.542969 L 175.183594 192.542969 C 175.835938 192.542969 176.367188 193.074219 176.367188 193.734375 L 176.367188 203.902344 " fill-opacity="1" fill-rule="nonzero"/><path fill="#ffffff" d="M 198.484375 203.902344 C 198.484375 204.558594 199.015625 205.089844 199.671875 205.089844 L 209.820312 205.089844 C 210.476562 205.089844 211.007812 204.558594 211.007812 203.902344 L 211.007812 193.734375 C 211.007812 193.074219 210.476562 192.542969 209.820312 192.542969 L 199.671875 192.542969 C 199.015625 192.542969 198.484375 193.074219 198.484375 193.734375 L 198.484375 203.902344 " fill-opacity="1" fill-rule="nonzero"/><path fill="#ffffff" d="M 193.6875 221.257812 C 193.6875 221.914062 193.15625 222.445312 192.503906 222.445312 L 182.351562 222.445312 C 181.695312 222.445312 181.164062 221.914062 181.164062 221.257812 L 181.164062 211.085938 C 181.164062 210.429688 181.695312 209.894531 182.351562 209.894531 L 192.503906 209.894531 C 193.15625 209.894531 193.6875 210.429688 193.6875 211.085938 L 193.6875 221.257812 " fill-opacity="1" fill-rule="nonzero"/><path fill="#ffffff" d="M 176.367188 221.257812 C 176.367188 221.914062 175.835938 222.445312 175.183594 222.445312 L 165.027344 222.445312 C 164.375 222.445312 163.84375 221.914062 163.84375 221.257812 L 163.84375 211.085938 C 163.84375 210.429688 164.375 209.894531 165.027344 209.894531 L 175.183594 209.894531 C 175.835938 209.894531 176.367188 210.429688 176.367188 211.085938 L 176.367188 221.257812 " fill-opacity="1" fill-rule="nonzero"/><path fill="#ffffff" d="M 198.484375 221.257812 C 198.484375 221.914062 199.015625 222.445312 199.671875 222.445312 L 209.820312 222.445312 C 210.476562 222.445312 211.007812 221.914062 211.007812 221.257812 L 211.007812 211.085938 C 211.007812 210.429688 210.476562 209.894531 209.820312 209.894531 L 199.671875 209.894531 C 199.015625 209.894531 198.484375 210.429688 198.484375 211.085938 L 198.484375 221.257812 " fill-opacity="1" fill-rule="nonzero"/><path fill="#ffffff" d="M 193.6875 238.609375 C 193.6875 239.265625 193.15625 239.800781 192.503906 239.800781 L 182.351562 239.800781 C 181.695312 239.800781 181.164062 239.265625 181.164062 238.609375 L 181.164062 228.4375 C 181.164062 227.78125 181.695312 227.25 182.351562 227.25 L 192.503906 227.25 C 193.15625 227.25 193.6875 227.78125 193.6875 228.4375 L 193.6875 238.609375 " fill-opacity="1" fill-rule="nonzero"/><path fill="#ffffff" d="M 176.367188 238.609375 C 176.367188 239.265625 175.835938 239.800781 175.183594 239.800781 L 165.027344 239.800781 C 164.375 239.800781 163.84375 239.265625 163.84375 238.609375 L 163.84375 228.4375 C 163.84375 227.78125 164.375 227.25 165.027344 227.25 L 175.183594 227.25 C 175.835938 227.25 176.367188 227.78125 176.367188 228.4375 L 176.367188 238.609375 " fill-opacity="1" fill-rule="nonzero"/><path fill="#ffffff" d="M 198.484375 238.609375 C 198.484375 239.265625 199.015625 239.800781 199.671875 239.800781 L 209.820312 239.800781 C 210.476562 239.800781 211.007812 239.265625 211.007812 238.609375 L 211.007812 228.4375 C 211.007812 227.78125 210.476562 227.25 209.820312 227.25 L 199.671875 227.25 C 199.015625 227.25 198.484375 227.78125 198.484375 228.4375 L 198.484375 238.609375 " fill-opacity="1" fill-rule="nonzero"/><path fill="#ffffff" d="M 193.6875 255.960938 C 193.6875 256.617188 193.15625 257.152344 192.503906 257.152344 L 182.351562 257.152344 C 181.695312 257.152344 181.164062 256.617188 181.164062 255.960938 L 181.164062 245.792969 C 181.164062 245.136719 181.695312 244.605469 182.351562 244.605469 L 192.503906 244.605469 C 193.15625 244.605469 193.6875 245.136719 193.6875 245.792969 L 193.6875 255.960938 " fill-opacity="1" fill-rule="nonzero"/><path fill="#ffffff" d="M 176.367188 255.960938 C 176.367188 256.617188 175.835938 257.152344 175.183594 257.152344 L 165.027344 257.152344 C 164.375 257.152344 163.84375 256.617188 163.84375 255.960938 L 163.84375 245.792969 C 163.84375 245.136719 164.375 244.605469 165.027344 244.605469 L 175.183594 244.605469 C 175.835938 244.605469 176.367188 245.136719 176.367188 245.792969 L 176.367188 255.960938 " fill-opacity="1" fill-rule="nonzero"/><path fill="#ffffff" d="M 198.484375 255.960938 C 198.484375 256.617188 199.015625 257.152344 199.671875 257.152344 L 209.820312 257.152344 C 210.476562 257.152344 211.007812 256.617188 211.007812 255.960938 L 211.007812 245.792969 C 211.007812 245.136719 210.476562 244.605469 209.820312 244.605469 L 199.671875 244.605469 C 199.015625 244.605469 198.484375 245.136719 198.484375 245.792969 L 198.484375 255.960938 " fill-opacity="1" fill-rule="nonzero"/><g clip-path="url(#id5)"><path fill="#000000" d="M 283.417969 274.371094 C 283.417969 278.613281 279.988281 282.054688 275.753906 282.054688 L 233.15625 282.054688 C 228.921875 282.054688 225.492188 278.613281 225.492188 274.371094 L 225.492188 133.246094 C 225.492188 129 228.921875 125.5625 233.15625 125.5625 L 274.085938 147.535156 C 279.417969 150.308594 283.417969 152.628906 283.417969 156.871094 L 283.417969 274.371094 " fill-opacity="1" fill-rule="nonzero"/></g><path fill="#ffffff" d="M 260.71875 169.195312 C 260.71875 169.851562 260.1875 170.382812 259.53125 170.382812 L 249.378906 170.382812 C 248.722656 170.382812 248.191406 169.851562 248.191406 169.195312 L 248.191406 159.023438 C 248.191406 158.367188 248.722656 157.835938 249.378906 157.835938 L 259.53125 157.835938 C 260.1875 157.835938 260.71875 158.367188 260.71875 159.023438 L 260.71875 169.195312 " fill-opacity="1" fill-rule="nonzero"/><path fill="#ffffff" d="M 243.398438 169.195312 C 243.398438 169.851562 242.867188 170.382812 242.210938 170.382812 L 232.058594 170.382812 C 231.402344 170.382812 230.871094 169.851562 230.871094 169.195312 L 230.871094 159.023438 C 230.871094 158.367188 231.402344 157.835938 232.058594 157.835938 L 242.210938 157.835938 C 242.867188 157.835938 243.398438 158.367188 243.398438 159.023438 L 243.398438 169.195312 " fill-opacity="1" fill-rule="nonzero"/><path fill="#ffffff" d="M 265.515625 169.195312 C 265.515625 169.851562 266.042969 170.382812 266.699219 170.382812 L 276.851562 170.382812 C 277.507812 170.382812 278.039062 169.851562 278.039062 169.195312 L 278.039062 159.023438 C 278.039062 158.367188 277.507812 157.835938 276.851562 157.835938 L 266.699219 157.835938 C 266.042969 157.835938 265.515625 158.367188 265.515625 159.023438 L 265.515625 169.195312 " fill-opacity="1" fill-rule="nonzero"/><path fill="#ffffff" d="M 260.71875 186.546875 C 260.71875 187.203125 260.1875 187.738281 259.53125 187.738281 L 249.378906 187.738281 C 248.722656 187.738281 248.191406 187.203125 248.191406 186.546875 L 248.191406 176.378906 C 248.191406 175.722656 248.722656 175.191406 249.378906 175.191406 L 259.53125 175.191406 C 260.1875 175.191406 260.71875 175.722656 260.71875 176.378906 L 260.71875 186.546875 " fill-opacity="1" fill-rule="nonzero"/><path fill="#ffffff" d="M 243.398438 186.546875 C 243.398438 187.203125 242.867188 187.738281 242.210938 187.738281 L 232.058594 187.738281 C 231.402344 187.738281 230.871094 187.203125 230.871094 186.546875 L 230.871094 176.378906 C 230.871094 175.722656 231.402344 175.191406 232.058594 175.191406 L 242.210938 175.191406 C 242.867188 175.191406 243.398438 175.722656 243.398438 176.378906 L 243.398438 186.546875 " fill-opacity="1" fill-rule="nonzero"/><path fill="#ffffff" d="M 265.515625 186.546875 C 265.515625 187.203125 266.042969 187.738281 266.699219 187.738281 L 276.851562 187.738281 C 277.507812 187.738281 278.039062 187.203125 278.039062 186.546875 L 278.039062 176.378906 C 278.039062 175.722656 277.507812 175.191406 276.851562 175.191406 L 266.699219 175.191406 C 266.042969 175.191406 265.515625 175.722656 265.515625 176.378906 L 265.515625 186.546875 " fill-opacity="1" fill-rule="nonzero"/><path fill="#ffffff" d="M 260.71875 203.902344 C 260.71875 204.558594 260.1875 205.089844 259.53125 205.089844 L 249.378906 205.089844 C 248.722656 205.089844 248.191406 204.558594 248.191406 203.902344 L 248.191406 193.734375 C 248.191406 193.074219 248.722656 192.542969 249.378906 192.542969 L 259.53125 192.542969 C 260.1875 192.542969 260.71875 193.074219 260.71875 193.734375 L 260.71875 203.902344 " fill-opacity="1" fill-rule="nonzero"/><path fill="#ffffff" d="M 243.398438 203.902344 C 243.398438 204.558594 242.867188 205.089844 242.210938 205.089844 L 232.058594 205.089844 C 231.402344 205.089844 230.871094 204.558594 230.871094 203.902344 L 230.871094 193.734375 C 230.871094 193.074219 231.402344 192.542969 232.058594 192.542969 L 242.210938 192.542969 C 242.867188 192.542969 243.398438 193.074219 243.398438 193.734375 L 243.398438 203.902344 " fill-opacity="1" fill-rule="nonzero"/><path fill="#ffffff" d="M 265.515625 203.902344 C 265.515625 204.558594 266.042969 205.089844 266.699219 205.089844 L 276.851562 205.089844 C 277.507812 205.089844 278.039062 204.558594 278.039062 203.902344 L 278.039062 193.734375 C 278.039062 193.074219 277.507812 192.542969 276.851562 192.542969 L 266.699219 192.542969 C 266.042969 192.542969 265.515625 193.074219 265.515625 193.734375 L 265.515625 203.902344 " fill-opacity="1" fill-rule="nonzero"/><path fill="#ffffff" d="M 260.71875 221.257812 C 260.71875 221.914062 260.1875 222.445312 259.53125 222.445312 L 249.378906 222.445312 C 248.722656 222.445312 248.191406 221.914062 248.191406 221.257812 L 248.191406 211.085938 C 248.191406 210.429688 248.722656 209.894531 249.378906 209.894531 L 259.53125 209.894531 C 260.1875 209.894531 260.71875 210.429688 260.71875 211.085938 L 260.71875 221.257812 " fill-opacity="1" fill-rule="nonzero"/><path fill="#ffffff" d="M 243.398438 221.257812 C 243.398438 221.914062 242.867188 222.445312 242.210938 222.445312 L 232.058594 222.445312 C 231.402344 222.445312 230.871094 221.914062 230.871094 221.257812 L 230.871094 211.085938 C 230.871094 210.429688 231.402344 209.894531 232.058594 209.894531 L 242.210938 209.894531 C 242.867188 209.894531 243.398438 210.429688 243.398438 211.085938 L 243.398438 221.257812 " fill-opacity="1" fill-rule="nonzero"/><path fill="#ffffff" d="M 265.515625 221.257812 C 265.515625 221.914062 266.042969 222.445312 266.699219 222.445312 L 276.851562 222.445312 C 277.507812 222.445312 278.039062 221.914062 278.039062 221.257812 L 278.039062 211.085938 C 278.039062 210.429688 277.507812 209.894531 276.851562 209.894531 L 266.699219 209.894531 C 266.042969 209.894531 265.515625 210.429688 265.515625 211.085938 L 265.515625 221.257812 " fill-opacity="1" fill-rule="nonzero"/><path fill="#ffffff" d="M 260.71875 238.609375 C 260.71875 239.265625 260.1875 239.800781 259.53125 239.800781 L 249.378906 239.800781 C 248.722656 239.800781 248.191406 239.265625 248.191406 238.609375 L 248.191406 228.4375 C 248.191406 227.78125 248.722656 227.25 249.378906 227.25 L 259.53125 227.25 C 260.1875 227.25 260.71875 227.78125 260.71875 228.4375 L 260.71875 238.609375 " fill-opacity="1" fill-rule="nonzero"/><path fill="#ffffff" d="M 243.398438 238.609375 C 243.398438 239.265625 242.867188 239.800781 242.210938 239.800781 L 232.058594 239.800781 C 231.402344 239.800781 230.871094 239.265625 230.871094 238.609375 L 230.871094 228.4375 C 230.871094 227.78125 231.402344 227.25 232.058594 227.25 L 242.210938 227.25 C 242.867188 227.25 243.398438 227.78125 243.398438 228.4375 L 243.398438 238.609375 " fill-opacity="1" fill-rule="nonzero"/><path fill="#ffffff" d="M 265.515625 238.609375 C 265.515625 239.265625 266.042969 239.800781 266.699219 239.800781 L 276.851562 239.800781 C 277.507812 239.800781 278.039062 239.265625 278.039062 238.609375 L 278.039062 228.4375 C 278.039062 227.78125 277.507812 227.25 276.851562 227.25 L 266.699219 227.25 C 266.042969 227.25 265.515625 227.78125 265.515625 228.4375 L 265.515625 238.609375 " fill-opacity="1" fill-rule="nonzero"/><path fill="#ffffff" d="M 260.71875 255.960938 C 260.71875 256.617188 260.1875 257.152344 259.53125 257.152344 L 249.378906 257.152344 C 248.722656 257.152344 248.191406 256.617188 248.191406 255.960938 L 248.191406 245.792969 C 248.191406 245.136719 248.722656 244.605469 249.378906 244.605469 L 259.53125 244.605469 C 260.1875 244.605469 260.71875 245.136719 260.71875 245.792969 L 260.71875 255.960938 " fill-opacity="1" fill-rule="nonzero"/><path fill="#ffffff" d="M 243.398438 255.960938 C 243.398438 256.617188 242.867188 257.152344 242.210938 257.152344 L 232.058594 257.152344 C 231.402344 257.152344 230.871094 256.617188 230.871094 255.960938 L 230.871094 245.792969 C 230.871094 245.136719 231.402344 244.605469 232.058594 244.605469 L 242.210938 244.605469 C 242.867188 244.605469 243.398438 245.136719 243.398438 245.792969 L 243.398438 255.960938 " fill-opacity="1" fill-rule="nonzero"/><path fill="#ffffff" d="M 265.515625 255.960938 C 265.515625 256.617188 266.042969 257.152344 266.699219 257.152344 L 276.851562 257.152344 C 277.507812 257.152344 278.039062 256.617188 278.039062 255.960938 L 278.039062 245.792969 C 278.039062 245.136719 277.507812 244.605469 276.851562 244.605469 L 266.699219 244.605469 C 266.042969 244.605469 265.515625 245.136719 265.515625 245.792969 L 265.515625 255.960938 " fill-opacity="1" fill-rule="nonzero"/><g clip-path="url(#id6)"><path fill="#000000" d="M 91.429688 274.371094 C 91.429688 278.613281 94.863281 282.054688 99.097656 282.054688 L 141.695312 282.054688 C 145.929688 282.054688 149.359375 278.613281 149.359375 274.371094 L 149.359375 133.246094 C 149.359375 129 145.929688 125.5625 141.695312 125.5625 L 100.769531 147.535156 C 95.4375 150.308594 91.429688 152.628906 91.429688 156.871094 L 91.429688 274.371094 " fill-opacity="1" fill-rule="nonzero"/></g><path fill="#ffffff" d="M 114.132812 169.195312 C 114.132812 169.851562 114.667969 170.382812 115.320312 170.382812 L 125.472656 170.382812 C 126.128906 170.382812 126.660156 169.851562 126.660156 169.195312 L 126.660156 159.023438 C 126.660156 158.367188 126.128906 157.835938 125.472656 157.835938 L 115.320312 157.835938 C 114.667969 157.835938 114.132812 158.367188 114.132812 159.023438 L 114.132812 169.195312 " fill-opacity="1" fill-rule="nonzero"/><path fill="#ffffff" d="M 131.457031 169.195312 C 131.457031 169.851562 131.984375 170.382812 132.640625 170.382812 L 142.792969 170.382812 C 143.449219 170.382812 143.980469 169.851562 143.980469 169.195312 L 143.980469 159.023438 C 143.980469 158.367188 143.449219 157.835938 142.792969 157.835938 L 132.640625 157.835938 C 131.984375 157.835938 131.457031 158.367188 131.457031 159.023438 L 131.457031 169.195312 " fill-opacity="1" fill-rule="nonzero"/><path fill="#ffffff" d="M 109.339844 169.195312 C 109.339844 169.851562 108.808594 170.382812 108.152344 170.382812 L 98 170.382812 C 97.34375 170.382812 96.8125 169.851562 96.8125 169.195312 L 96.8125 159.023438 C 96.8125 158.367188 97.34375 157.835938 98 157.835938 L 108.152344 157.835938 C 108.808594 157.835938 109.339844 158.367188 109.339844 159.023438 L 109.339844 169.195312 " fill-opacity="1" fill-rule="nonzero"/><path fill="#ffffff" d="M 114.132812 186.546875 C 114.132812 187.203125 114.667969 187.738281 115.320312 187.738281 L 125.472656 187.738281 C 126.128906 187.738281 126.660156 187.203125 126.660156 186.546875 L 126.660156 176.378906 C 126.660156 175.722656 126.128906 175.191406 125.472656 175.191406 L 115.320312 175.191406 C 114.667969 175.191406 114.132812 175.722656 114.132812 176.378906 L 114.132812 186.546875 " fill-opacity="1" fill-rule="nonzero"/><path fill="#ffffff" d="M 131.457031 186.546875 C 131.457031 187.203125 131.984375 187.738281 132.640625 187.738281 L 142.792969 187.738281 C 143.449219 187.738281 143.980469 187.203125 143.980469 186.546875 L 143.980469 176.378906 C 143.980469 175.722656 143.449219 175.191406 142.792969 175.191406 L 132.640625 175.191406 C 131.984375 175.191406 131.457031 175.722656 131.457031 176.378906 L 131.457031 186.546875 " fill-opacity="1" fill-rule="nonzero"/><path fill="#ffffff" d="M 109.339844 186.546875 C 109.339844 187.203125 108.808594 187.738281 108.152344 187.738281 L 98 187.738281 C 97.34375 187.738281 96.8125 187.203125 96.8125 186.546875 L 96.8125 176.378906 C 96.8125 175.722656 97.34375 175.191406 98 175.191406 L 108.152344 175.191406 C 108.808594 175.191406 109.339844 175.722656 109.339844 176.378906 L 109.339844 186.546875 " fill-opacity="1" fill-rule="nonzero"/><path fill="#ffffff" d="M 114.132812 203.902344 C 114.132812 204.558594 114.667969 205.089844 115.320312 205.089844 L 125.472656 205.089844 C 126.128906 205.089844 126.660156 204.558594 126.660156 203.902344 L 126.660156 193.734375 C 126.660156 193.074219 126.128906 192.542969 125.472656 192.542969 L 115.320312 192.542969 C 114.667969 192.542969 114.132812 193.074219 114.132812 193.734375 L 114.132812 203.902344 " fill-opacity="1" fill-rule="nonzero"/><path fill="#ffffff" d="M 131.457031 203.902344 C 131.457031 204.558594 131.984375 205.089844 132.640625 205.089844 L 142.792969 205.089844 C 143.449219 205.089844 143.980469 204.558594 143.980469 203.902344 L 143.980469 193.734375 C 143.980469 193.074219 143.449219 192.542969 142.792969 192.542969 L 132.640625 192.542969 C 131.984375 192.542969 131.457031 193.074219 131.457031 193.734375 L 131.457031 203.902344 " fill-opacity="1" fill-rule="nonzero"/><path fill="#ffffff" d="M 109.339844 203.902344 C 109.339844 204.558594 108.808594 205.089844 108.152344 205.089844 L 98 205.089844 C 97.34375 205.089844 96.8125 204.558594 96.8125 203.902344 L 96.8125 193.734375 C 96.8125 193.074219 97.34375 192.542969 98 192.542969 L 108.152344 192.542969 C 108.808594 192.542969 109.339844 193.074219 109.339844 193.734375 L 109.339844 203.902344 " fill-opacity="1" fill-rule="nonzero"/><path fill="#ffffff" d="M 114.132812 221.257812 C 114.132812 221.914062 114.667969 222.445312 115.320312 222.445312 L 125.472656 222.445312 C 126.128906 222.445312 126.660156 221.914062 126.660156 221.257812 L 126.660156 211.085938 C 126.660156 210.429688 126.128906 209.894531 125.472656 209.894531 L 115.320312 209.894531 C 114.667969 209.894531 114.132812 210.429688 114.132812 211.085938 L 114.132812 221.257812 " fill-opacity="1" fill-rule="nonzero"/><path fill="#ffffff" d="M 131.457031 221.257812 C 131.457031 221.914062 131.984375 222.445312 132.640625 222.445312 L 142.792969 222.445312 C 143.449219 222.445312 143.980469 221.914062 143.980469 221.257812 L 143.980469 211.085938 C 143.980469 210.429688 143.449219 209.894531 142.792969 209.894531 L 132.640625 209.894531 C 131.984375 209.894531 131.457031 210.429688 131.457031 211.085938 L 131.457031 221.257812 " fill-opacity="1" fill-rule="nonzero"/><path fill="#ffffff" d="M 109.339844 221.257812 C 109.339844 221.914062 108.808594 222.445312 108.152344 222.445312 L 98 222.445312 C 97.34375 222.445312 96.8125 221.914062 96.8125 221.257812 L 96.8125 211.085938 C 96.8125 210.429688 97.34375 209.894531 98 209.894531 L 108.152344 209.894531 C 108.808594 209.894531 109.339844 210.429688 109.339844 211.085938 L 109.339844 221.257812 " fill-opacity="1" fill-rule="nonzero"/><path fill="#ffffff" d="M 114.132812 238.609375 C 114.132812 239.265625 114.667969 239.800781 115.320312 239.800781 L 125.472656 239.800781 C 126.128906 239.800781 126.660156 239.265625 126.660156 238.609375 L 126.660156 228.4375 C 126.660156 227.78125 126.128906 227.25 125.472656 227.25 L 115.320312 227.25 C 114.667969 227.25 114.132812 227.78125 114.132812 228.4375 L 114.132812 238.609375 " fill-opacity="1" fill-rule="nonzero"/><path fill="#ffffff" d="M 131.457031 238.609375 C 131.457031 239.265625 131.984375 239.800781 132.640625 239.800781 L 142.792969 239.800781 C 143.449219 239.800781 143.980469 239.265625 143.980469 238.609375 L 143.980469 228.4375 C 143.980469 227.78125 143.449219 227.25 142.792969 227.25 L 132.640625 227.25 C 131.984375 227.25 131.457031 227.78125 131.457031 228.4375 L 131.457031 238.609375 " fill-opacity="1" fill-rule="nonzero"/><path fill="#ffffff" d="M 109.339844 238.609375 C 109.339844 239.265625 108.808594 239.800781 108.152344 239.800781 L 98 239.800781 C 97.34375 239.800781 96.8125 239.265625 96.8125 238.609375 L 96.8125 228.4375 C 96.8125 227.78125 97.34375 227.25 98 227.25 L 108.152344 227.25 C 108.808594 227.25 109.339844 227.78125 109.339844 228.4375 L 109.339844 238.609375 " fill-opacity="1" fill-rule="nonzero"/><path fill="#ffffff" d="M 114.132812 255.960938 C 114.132812 256.617188 114.667969 257.152344 115.320312 257.152344 L 125.472656 257.152344 C 126.128906 257.152344 126.660156 256.617188 126.660156 255.960938 L 126.660156 245.792969 C 126.660156 245.136719 126.128906 244.605469 125.472656 244.605469 L 115.320312 244.605469 C 114.667969 244.605469 114.132812 245.136719 114.132812 245.792969 L 114.132812 255.960938 " fill-opacity="1" fill-rule="nonzero"/><path fill="#ffffff" d="M 131.457031 255.960938 C 131.457031 256.617188 131.984375 257.152344 132.640625 257.152344 L 142.792969 257.152344 C 143.449219 257.152344 143.980469 256.617188 143.980469 255.960938 L 143.980469 245.792969 C 143.980469 245.136719 143.449219 244.605469 142.792969 244.605469 L 132.640625 244.605469 C 131.984375 244.605469 131.457031 245.136719 131.457031 245.792969 L 131.457031 255.960938 " fill-opacity="1" fill-rule="nonzero"/><path fill="#ffffff" d="M 109.339844 255.960938 C 109.339844 256.617188 108.808594 257.152344 108.152344 257.152344 L 98 257.152344 C 97.34375 257.152344 96.8125 256.617188 96.8125 255.960938 L 96.8125 245.792969 C 96.8125 245.136719 97.34375 244.605469 98 244.605469 L 108.152344 244.605469 C 108.808594 244.605469 109.339844 245.136719 109.339844 245.792969 L 109.339844 255.960938 " fill-opacity="1" fill-rule="nonzero"/></svg>