<svg xmlns="http://www.w3.org/2000/svg" xmlns:xlink="http://www.w3.org/1999/xlink" width="500" zoomAndPan="magnify" viewBox="0 0 375 374.999991" height="500" preserveAspectRatio="xMidYMid meet" version="1.0"><defs><filter x="0%" y="0%" width="100%" height="100%" id="id1"><feColorMatrix values="0 0 0 0 1 0 0 0 0 1 0 0 0 0 1 0 0 0 1 0" color-interpolation-filters="sRGB"/></filter><mask id="id2"><g filter="url(#id1)"><rect x="-37.5" width="450" fill="#000000" y="-37.499999" height="449.999989" fill-opacity="0.5765"/></g></mask><clipPath id="id3"><rect x="0" width="375" y="0" height="375"/></clipPath><clipPath id="id4"><path d="M 81.5625 284 L 249 284 L 249 293.8125 L 81.5625 293.8125 Z M 81.5625 284 " clip-rule="nonzero"/></clipPath><clipPath id="id5"><path d="M 81.5625 117 L 188 117 L 188 293.8125 L 81.5625 293.8125 Z M 81.5625 117 " clip-rule="nonzero"/></clipPath><clipPath id="id6"><path d="M 209 240 L 219 240 L 219 293.8125 L 209 293.8125 Z M 209 240 " clip-rule="nonzero"/></clipPath><clipPath id="id7"><path d="M 116 240 L 153 240 L 153 293.8125 L 116 293.8125 Z M 116 240 " clip-rule="nonzero"/></clipPath></defs><rect x="-37.5" width="450" fill="#ffffff" y="-37.499999" height="449.999989" fill-opacity="1"/><rect x="-37.5" width="450" fill="#ffffff" y="-37.499999" height="449.999989" fill-opacity="1"/><rect x="-37.5" width="450" fill="#ffffff" y="-37.499999" height="449.999989" fill-opacity="1"/><g mask="url(#id2)"><g transform="matrix(1, 0, 0, 1, 0, 0)"><g clip-path="url(#id3)"><path fill="#d69f50" d="M 187.5 0 C 83.945312 0 0 83.945312 0 187.5 C 0 291.054688 83.945312 375 187.5 375 C 291.054688 375 375 291.054688 375 187.5 C 375 83.945312 291.054688 0 187.5 0 " fill-opacity="1" fill-rule="nonzero"/></g></g></g><path fill="#a79d9a" d="M 246.90625 205.300781 L 233.265625 205.300781 C 228.773438 205.300781 225.054688 201.882812 224.625 197.347656 L 223.542969 186.144531 C 220.976562 184.964844 218.539062 183.503906 216.238281 181.777344 L 206.367188 186.367188 C 202.210938 188.269531 197.445312 186.710938 195.207031 182.71875 L 188.382812 170.550781 C 186.199219 166.65625 187.238281 161.722656 190.804688 159.074219 L 199.613281 152.554688 C 199.445312 151.183594 199.320312 149.648438 199.320312 148.046875 C 199.320312 146.445312 199.453125 144.910156 199.613281 143.539062 L 190.804688 137.019531 C 187.238281 134.371094 186.199219 129.4375 188.390625 125.542969 L 195.199219 113.382812 C 197.4375 109.394531 202.238281 107.816406 206.359375 109.726562 L 216.238281 114.316406 C 218.539062 112.589844 220.976562 111.128906 223.539062 109.957031 L 224.625 98.734375 C 225.066406 94.226562 228.78125 90.808594 233.273438 90.808594 L 246.914062 90.808594 C 251.40625 90.808594 255.125 94.226562 255.554688 98.761719 L 256.636719 109.972656 C 259.199219 111.152344 261.640625 112.605469 263.9375 114.332031 L 273.8125 109.746094 C 277.960938 107.832031 282.742188 109.410156 284.96875 113.398438 L 291.796875 125.5625 C 293.980469 129.457031 292.941406 134.386719 289.375 137.039062 L 280.566406 143.554688 C 280.734375 144.929688 280.855469 146.460938 280.855469 148.066406 C 280.855469 149.667969 280.726562 151.199219 280.566406 152.574219 L 289.375 159.089844 C 292.941406 161.742188 293.980469 166.664062 291.785156 170.566406 L 284.980469 182.730469 C 282.722656 186.71875 277.925781 188.277344 273.820312 186.382812 L 263.9375 181.796875 C 261.640625 183.523438 259.199219 184.984375 256.636719 186.164062 L 255.554688 197.375 C 255.113281 201.882812 251.398438 205.300781 246.90625 205.300781 Z M 246.90625 205.300781 " fill-opacity="1" fill-rule="nonzero"/><g clip-path="url(#id4)"><path fill="#075e54" d="M 244.492188 293.371094 L 85.964844 293.371094 C 83.535156 293.371094 81.5625 291.398438 81.5625 288.96875 C 81.5625 286.539062 83.535156 284.566406 85.964844 284.566406 L 244.492188 284.566406 C 246.921875 284.566406 248.898438 286.539062 248.898438 288.96875 C 248.898438 291.398438 246.921875 293.371094 244.492188 293.371094 Z M 244.492188 293.371094 " fill-opacity="1" fill-rule="nonzero"/></g><g clip-path="url(#id5)"><path fill="#075e54" d="M 182.84375 293.371094 L 85.964844 293.371094 C 83.535156 293.371094 81.5625 291.398438 81.5625 288.96875 L 81.5625 130.441406 C 81.5625 123.160156 87.488281 117.230469 94.773438 117.230469 L 166.375 117.230469 C 168.804688 117.230469 170.777344 119.203125 170.777344 121.632812 C 170.777344 124.066406 168.804688 126.039062 166.375 126.039062 L 94.773438 126.039062 C 92.351562 126.039062 90.371094 128.011719 90.371094 130.441406 L 90.371094 284.566406 L 178.441406 284.566406 L 178.441406 201.691406 C 178.441406 199.261719 180.414062 197.289062 182.84375 197.289062 C 185.273438 197.289062 187.246094 199.261719 187.246094 201.691406 L 187.246094 288.96875 C 187.246094 291.398438 185.273438 293.371094 182.84375 293.371094 Z M 182.84375 293.371094 " fill-opacity="1" fill-rule="nonzero"/></g><path fill="#075e54" d="M 165.230469 126.039062 L 103.582031 126.039062 C 101.148438 126.039062 99.175781 124.066406 99.175781 121.632812 L 99.175781 112.828125 C 99.175781 105.542969 105.105469 99.617188 112.386719 99.617188 L 156.421875 99.617188 C 163.707031 99.617188 169.632812 105.542969 169.632812 112.828125 L 169.632812 121.632812 C 169.632812 124.066406 167.660156 126.039062 165.230469 126.039062 Z M 107.984375 117.230469 L 160.824219 117.230469 L 160.824219 112.828125 C 160.824219 110.398438 158.84375 108.425781 156.421875 108.425781 L 112.386719 108.425781 C 109.964844 108.425781 107.984375 110.398438 107.984375 112.828125 Z M 107.984375 117.230469 " fill-opacity="1" fill-rule="nonzero"/><path fill="#075e54" d="M 134.40625 108.425781 C 131.972656 108.425781 130 106.453125 130 104.019531 L 130 86.40625 C 130 83.976562 131.972656 82.003906 134.40625 82.003906 C 136.835938 82.003906 138.808594 83.976562 138.808594 86.40625 L 138.808594 104.019531 C 138.808594 106.453125 136.835938 108.425781 134.40625 108.425781 Z M 134.40625 108.425781 " fill-opacity="1" fill-rule="nonzero"/><g clip-path="url(#id6)"><path fill="#075e54" d="M 213.667969 293.371094 C 211.238281 293.371094 209.265625 291.398438 209.265625 288.96875 L 209.265625 244.976562 C 209.265625 242.546875 211.238281 240.574219 213.667969 240.574219 C 216.097656 240.574219 218.070312 242.546875 218.070312 244.976562 L 218.070312 288.96875 C 218.070312 291.398438 216.097656 293.371094 213.667969 293.371094 Z M 213.667969 293.371094 " fill-opacity="1" fill-rule="nonzero"/></g><path fill="#075e54" d="M 213.667969 249.382812 C 203.953125 249.382812 196.054688 241.480469 196.054688 231.765625 C 196.054688 222.050781 203.953125 214.152344 213.667969 214.152344 C 223.382812 214.152344 231.28125 222.050781 231.28125 231.765625 C 231.28125 241.480469 223.382812 249.382812 213.667969 249.382812 Z M 213.667969 222.960938 C 208.808594 222.960938 204.859375 226.914062 204.859375 231.765625 C 204.859375 236.621094 208.808594 240.574219 213.667969 240.574219 C 218.53125 240.574219 222.476562 236.621094 222.476562 231.765625 C 222.476562 226.914062 218.53125 222.960938 213.667969 222.960938 Z M 213.667969 222.960938 " fill-opacity="1" fill-rule="nonzero"/><g clip-path="url(#id7)"><path fill="#075e54" d="M 147.617188 293.371094 L 121.195312 293.371094 C 118.761719 293.371094 116.789062 291.398438 116.789062 288.96875 L 116.789062 244.933594 C 116.789062 242.503906 118.761719 240.53125 121.195312 240.53125 L 147.617188 240.53125 C 150.046875 240.53125 152.019531 242.503906 152.019531 244.933594 L 152.019531 288.96875 C 152.019531 291.398438 150.046875 293.371094 147.617188 293.371094 Z M 125.597656 284.566406 L 143.210938 284.566406 L 143.210938 249.335938 L 125.597656 249.335938 Z M 125.597656 284.566406 " fill-opacity="1" fill-rule="nonzero"/></g><path fill="#075e54" d="M 143.210938 222.914062 L 125.597656 222.914062 C 120.734375 222.914062 116.789062 218.960938 116.789062 214.109375 L 116.789062 196.496094 C 116.789062 191.640625 120.734375 187.6875 125.597656 187.6875 L 143.210938 187.6875 C 148.074219 187.6875 152.019531 191.640625 152.019531 196.496094 L 152.019531 214.109375 C 152.019531 218.960938 148.074219 222.914062 143.210938 222.914062 Z M 143.210938 214.109375 L 143.210938 218.511719 Z M 125.597656 196.496094 L 125.597656 214.109375 L 143.210938 214.109375 L 143.210938 196.496094 Z M 125.597656 196.496094 " fill-opacity="1" fill-rule="nonzero"/><path fill="#075e54" d="M 143.210938 178.878906 L 125.597656 178.878906 C 120.734375 178.878906 116.789062 174.925781 116.789062 170.074219 L 116.789062 152.460938 C 116.789062 147.605469 120.734375 143.652344 125.597656 143.652344 L 143.210938 143.652344 C 148.074219 143.652344 152.019531 147.605469 152.019531 152.460938 L 152.019531 170.074219 C 152.019531 174.925781 148.074219 178.878906 143.210938 178.878906 Z M 143.210938 170.074219 L 143.210938 174.476562 Z M 125.597656 152.460938 L 125.597656 170.074219 L 143.210938 170.074219 L 143.210938 152.460938 Z M 125.597656 152.460938 " fill-opacity="1" fill-rule="nonzero"/><path fill="#075e54" d="M 240.089844 170.074219 C 227.945312 170.074219 218.070312 160.191406 218.070312 148.054688 C 218.070312 135.917969 227.945312 126.039062 240.089844 126.039062 C 252.234375 126.039062 262.105469 135.917969 262.105469 148.054688 C 262.105469 160.191406 252.234375 170.074219 240.089844 170.074219 Z M 240.089844 134.84375 C 232.804688 134.84375 226.878906 140.773438 226.878906 148.054688 C 226.878906 155.339844 232.804688 161.265625 240.089844 161.265625 C 247.371094 161.265625 253.300781 155.339844 253.300781 148.054688 C 253.300781 140.773438 247.371094 134.84375 240.089844 134.84375 Z M 240.089844 134.84375 " fill-opacity="1" fill-rule="nonzero"/></svg>