<svg xmlns="http://www.w3.org/2000/svg" xmlns:xlink="http://www.w3.org/1999/xlink" width="500" zoomAndPan="magnify" viewBox="0 0 375 374.999991" height="500" preserveAspectRatio="xMidYMid meet" version="1.0"><defs><filter x="0%" y="0%" width="100%" height="100%" id="id1"><feColorMatrix values="0 0 0 0 1 0 0 0 0 1 0 0 0 0 1 0 0 0 1 0" color-interpolation-filters="sRGB"/></filter><mask id="id2"><g filter="url(#id1)"><rect x="-37.5" width="450" fill="#000000" y="-37.499999" height="449.999989" fill-opacity="0.5765"/></g></mask><clipPath id="id3"><rect x="0" width="375" y="0" height="375"/></clipPath><clipPath id="id4"><path d="M 69.140625 69.140625 L 306.140625 69.140625 L 306.140625 306.140625 L 69.140625 306.140625 Z M 69.140625 69.140625 " clip-rule="nonzero"/></clipPath></defs><rect x="-37.5" width="450" fill="#ffffff" y="-37.499999" height="449.999989" fill-opacity="1"/><rect x="-37.5" width="450" fill="#ffffff" y="-37.499999" height="449.999989" fill-opacity="1"/><rect x="-37.5" width="450" fill="#ffffff" y="-37.499999" height="449.999989" fill-opacity="1"/><g mask="url(#id2)"><g transform="matrix(1, 0, 0, 1, 0, 0)"><g clip-path="url(#id3)"><path fill="#d69f50" d="M 187.5 0 C 83.945312 0 0 83.945312 0 187.5 C 0 291.054688 83.945312 375 187.5 375 C 291.054688 375 375 291.054688 375 187.5 C 375 83.945312 291.054688 0 187.5 0 " fill-opacity="1" fill-rule="nonzero"/></g></g></g><g clip-path="url(#id4)"><path fill="#075e54" d="M 187.640625 69.140625 C 253.054688 69.140625 306.140625 122.226562 306.140625 187.640625 C 306.140625 253.058594 253.054688 306.140625 187.640625 306.140625 C 122.226562 306.140625 69.140625 253.058594 69.140625 187.640625 C 69.140625 122.226562 122.226562 69.140625 187.640625 69.140625 Z M 110.953125 286.726562 L 110.183594 286.726562 L 108.929688 286.390625 Z M 265.097656 286.726562 L 264.328125 286.726562 L 266.351562 286.390625 Z M 188.121094 88.554688 L 188.121094 112.6875 L 196.984375 112.6875 L 196.984375 155.800781 L 204.210938 155.800781 L 204.210938 109.121094 L 209.316406 109.121094 L 209.316406 155.847656 L 200.453125 155.847656 L 200.453125 176.320312 L 195.394531 176.320312 L 195.394531 159.460938 L 188.171875 159.460938 L 188.171875 179.933594 L 197.035156 179.933594 L 197.035156 226.660156 L 192.601562 226.660156 L 192.601562 235.8125 L 189.421875 235.8125 L 184.171875 247.613281 L 184.125 247.277344 L 180.320312 247.277344 L 173.621094 232.246094 L 170.445312 232.246094 L 170.445312 223.09375 L 165.964844 223.09375 L 165.964844 176.367188 L 174.828125 176.367188 L 174.828125 155.847656 L 165.964844 155.847656 L 165.964844 109.121094 L 174.828125 109.121094 L 174.828125 89.371094 C 126.175781 95.632812 88.554688 137.300781 88.554688 187.640625 C 88.554688 232.007812 117.746094 269.578125 157.96875 282.199219 L 140.046875 264.183594 L 165.433594 282.054688 L 157.96875 268.855469 L 171.40625 280.417969 L 162.738281 257.921875 L 177.765625 279.261719 L 177.476562 265.386719 L 184.363281 278.683594 L 187.6875 255.753906 L 191.011719 278.683594 L 197.902344 265.386719 L 197.613281 279.261719 L 212.640625 257.921875 L 203.96875 280.417969 L 217.410156 268.855469 L 209.847656 282.054688 L 235.234375 264.183594 L 217.3125 282.199219 C 257.535156 269.578125 286.726562 231.957031 286.726562 187.640625 C 286.726562 137.300781 249.105469 95.632812 200.40625 89.371094 L 200.40625 109.074219 L 195.347656 109.074219 L 195.347656 88.84375 C 192.988281 88.648438 190.578125 88.554688 188.121094 88.554688 Z M 209.316406 223.046875 L 204.886719 223.046875 L 204.886719 232.199219 L 201.707031 232.199219 L 195.011719 247.226562 L 191.207031 247.226562 L 190.144531 255.753906 L 185.085938 255.753906 L 185.085938 255.609375 L 186.097656 247.179688 L 189.90625 247.179688 L 196.601562 232.152344 L 199.78125 232.152344 L 199.78125 223 L 204.210938 223 L 204.210938 176.320312 L 209.316406 176.320312 Z M 209.316406 223.046875 " fill-opacity="1" fill-rule="evenodd"/></g></svg>