<svg xmlns="http://www.w3.org/2000/svg" xmlns:xlink="http://www.w3.org/1999/xlink" width="500" zoomAndPan="magnify" viewBox="0 0 375 374.999991" height="500" preserveAspectRatio="xMidYMid meet" version="1.0"><defs><filter x="0%" y="0%" width="100%" height="100%" id="id1"><feColorMatrix values="0 0 0 0 1 0 0 0 0 1 0 0 0 0 1 0 0 0 1 0" color-interpolation-filters="sRGB"/></filter><mask id="id2"><g filter="url(#id1)"><rect x="-37.5" width="450" fill="#000000" y="-37.499999" height="449.999989" fill-opacity="0.5765"/></g></mask><clipPath id="id3"><rect x="0" width="375" y="0" height="375"/></clipPath><clipPath id="id4"><path d="M 71.503906 93.542969 L 303 93.542969 L 303 281.792969 L 71.503906 281.792969 Z M 71.503906 93.542969 " clip-rule="nonzero"/></clipPath></defs><rect x="-37.5" width="450" fill="#ffffff" y="-37.499999" height="449.999989" fill-opacity="1"/><rect x="-37.5" width="450" fill="#ffffff" y="-37.499999" height="449.999989" fill-opacity="1"/><rect x="-37.5" width="450" fill="#ffffff" y="-37.499999" height="449.999989" fill-opacity="1"/><g mask="url(#id2)"><g transform="matrix(1, 0, 0, 1, 0, 0)"><g clip-path="url(#id3)"><path fill="#d69f50" d="M 187.5 0 C 83.945312 0 0 83.945312 0 187.5 C 0 291.054688 83.945312 375 187.5 375 C 291.054688 375 375 291.054688 375 187.5 C 375 83.945312 291.054688 0 187.5 0 " fill-opacity="1" fill-rule="nonzero"/></g></g></g><path fill="#000000" d="M 155.097656 222.320312 L 218.070312 222.320312 L 218.070312 178.078125 L 229.386719 170.644531 L 251.945312 170.644531 L 251.945312 108.332031 L 121.101562 108.332031 L 121.101562 170.644531 L 147.523438 170.644531 L 156.613281 181.433594 Z M 155.097656 222.320312 " fill-opacity="1" fill-rule="nonzero"/><g clip-path="url(#id4)"><path fill="#075e54" d="M 298.976562 104.335938 L 277.214844 104.335938 L 277.214844 97.421875 C 277.214844 95.222656 275.421875 93.425781 273.230469 93.425781 L 253.183594 93.425781 C 250.988281 93.425781 249.195312 95.222656 249.195312 97.421875 L 249.195312 104.335938 L 125.5625 104.335938 L 125.5625 97.421875 C 125.5625 95.222656 123.769531 93.425781 121.578125 93.425781 L 101.53125 93.425781 C 99.339844 93.425781 97.546875 95.222656 97.546875 97.421875 L 97.546875 104.335938 L 75.785156 104.335938 C 73.59375 104.335938 71.800781 106.132812 71.800781 108.332031 L 71.800781 171.164062 C 71.800781 173.359375 73.59375 175.160156 75.785156 175.160156 L 97.546875 175.160156 L 97.546875 182.074219 C 97.546875 184.273438 99.339844 186.070312 101.53125 186.070312 L 121.578125 186.070312 C 123.769531 186.070312 125.5625 184.273438 125.5625 182.074219 L 125.5625 175.160156 L 145.371094 175.160156 C 149.078125 175.160156 152.070312 178.15625 152.070312 181.875 L 152.070312 218.964844 L 145.171875 218.964844 C 142.980469 218.964844 141.1875 220.761719 141.1875 222.960938 L 141.1875 243.066406 C 141.1875 245.265625 142.980469 247.0625 145.171875 247.0625 L 152.070312 247.0625 L 152.070312 277.519531 C 152.070312 279.714844 153.863281 281.515625 156.054688 281.515625 L 218.707031 281.515625 C 220.898438 281.515625 222.691406 279.714844 222.691406 277.519531 L 222.691406 247.0625 L 229.585938 247.0625 C 231.78125 247.0625 233.574219 245.265625 233.574219 243.066406 L 233.574219 222.960938 C 233.574219 220.761719 231.78125 218.964844 229.585938 218.964844 L 222.691406 218.964844 L 222.691406 181.875 C 222.691406 178.15625 225.683594 175.160156 229.386719 175.160156 L 249.195312 175.160156 L 249.195312 182.074219 C 249.195312 184.273438 250.988281 186.070312 253.183594 186.070312 L 273.230469 186.070312 C 275.421875 186.070312 277.214844 184.273438 277.214844 182.074219 L 277.214844 175.160156 L 298.976562 175.160156 C 301.167969 175.160156 302.960938 173.359375 302.960938 171.164062 L 302.960938 108.332031 C 302.960938 106.132812 301.167969 104.335938 298.976562 104.335938 Z M 97.546875 167.207031 L 79.769531 167.207031 L 79.769531 112.328125 L 97.546875 112.328125 Z M 117.59375 178.078125 L 105.515625 178.078125 L 105.515625 101.417969 L 117.59375 101.417969 Z M 214.722656 273.519531 L 160.039062 273.519531 L 160.039062 247.0625 L 214.722656 247.0625 Z M 225.601562 226.957031 L 225.601562 239.070312 L 149.160156 239.070312 L 149.160156 226.957031 Z M 249.195312 167.207031 L 229.386719 167.207031 C 221.296875 167.207031 214.722656 173.800781 214.722656 181.914062 L 214.722656 219.003906 L 160.039062 219.003906 L 160.039062 181.914062 C 160.039062 173.800781 153.464844 167.207031 145.371094 167.207031 L 125.5625 167.207031 L 125.5625 112.328125 L 249.238281 112.328125 L 249.238281 167.207031 Z M 269.242188 178.078125 L 257.167969 178.078125 L 257.167969 101.417969 L 269.242188 101.417969 Z M 294.992188 167.207031 L 277.214844 167.207031 L 277.214844 112.328125 L 294.992188 112.328125 Z M 294.992188 167.207031 " fill-opacity="1" fill-rule="nonzero"/></g></svg>