<svg xmlns="http://www.w3.org/2000/svg" xmlns:xlink="http://www.w3.org/1999/xlink" width="500" zoomAndPan="magnify" viewBox="0 0 375 374.999991" height="500" preserveAspectRatio="xMidYMid meet" version="1.0"><defs><filter x="0%" y="0%" width="100%" height="100%" id="id1"><feColorMatrix values="0 0 0 0 1 0 0 0 0 1 0 0 0 0 1 0 0 0 1 0" color-interpolation-filters="sRGB"/></filter><mask id="id2"><g filter="url(#id1)"><rect x="-37.5" width="450" fill="#000000" y="-37.499999" height="449.999989" fill-opacity="0.5765"/></g></mask><clipPath id="id3"><rect x="0" width="375" y="0" height="375"/></clipPath><clipPath id="id4"><path d="M 162 73.8125 L 206 73.8125 L 206 226 L 162 226 Z M 162 73.8125 " clip-rule="nonzero"/></clipPath><clipPath id="id5"><path d="M 254 197 L 278.367188 197 L 278.367188 221.570312 L 254 221.570312 Z M 254 197 " clip-rule="nonzero"/></clipPath><clipPath id="id6"><path d="M 103 220 L 249.914062 220 L 249.914062 300.921875 L 103 300.921875 Z M 103 220 " clip-rule="nonzero"/></clipPath></defs><rect x="-37.5" width="450" fill="#ffffff" y="-37.499999" height="449.999989" fill-opacity="1"/><rect x="-37.5" width="450" fill="#ffffff" y="-37.499999" height="449.999989" fill-opacity="1"/><rect x="-37.5" width="450" fill="#ffffff" y="-37.499999" height="449.999989" fill-opacity="1"/><g mask="url(#id2)"><g transform="matrix(1, 0, 0, 1, 0, 0)"><g clip-path="url(#id3)"><path fill="#d69f50" d="M 187.5 0 C 83.945312 0 0 83.945312 0 187.5 C 0 291.054688 83.945312 375 187.5 375 C 291.054688 375 375 291.054688 375 187.5 C 375 83.945312 291.054688 0 187.5 0 " fill-opacity="1" fill-rule="nonzero"/></g></g></g><path fill="#075e54" d="M 216.582031 160.042969 C 216.386719 159.925781 216.1875 159.8125 215.992188 159.71875 C 215.890625 159.671875 215.808594 159.640625 215.703125 159.605469 C 215.53125 159.535156 215.359375 159.476562 215.175781 159.429688 C 215.046875 159.398438 214.921875 159.375 214.78125 159.351562 C 214.621094 159.316406 214.460938 159.304688 214.285156 159.292969 C 214.207031 159.292969 214.113281 159.269531 214.023438 159.269531 C 213.964844 159.269531 213.90625 159.28125 213.847656 159.292969 C 213.6875 159.292969 213.527344 159.316406 213.363281 159.339844 C 213.226562 159.363281 213.085938 159.375 212.949219 159.40625 C 212.765625 159.453125 212.582031 159.511719 212.40625 159.582031 C 212.316406 159.617188 212.210938 159.640625 212.128906 159.683594 C 211.898438 159.789062 211.679688 159.90625 211.472656 160.042969 C 211.449219 160.066406 211.414062 160.078125 211.382812 160.101562 C 210.148438 160.953125 209.339844 162.386719 209.339844 164.003906 C 209.339844 166.609375 211.4375 168.734375 214.023438 168.734375 C 216.605469 168.734375 218.703125 166.609375 218.703125 164.003906 C 218.703125 162.398438 217.917969 160.988281 216.707031 160.136719 C 216.660156 160.113281 216.628906 160.078125 216.582031 160.042969 " fill-opacity="1" fill-rule="nonzero"/><g clip-path="url(#id4)"><path fill="#075e54" d="M 171.707031 147.4375 L 171.707031 220.484375 C 171.707031 223.09375 173.804688 225.21875 176.390625 225.21875 C 178.972656 225.21875 181.070312 223.09375 181.070312 220.484375 L 181.070312 147.4375 C 181.070312 145.765625 181.957031 144.207031 183.410156 143.363281 L 190.476562 139.207031 L 190.476562 127.214844 C 190.476562 123.691406 190.675781 120.183594 191.054688 116.6875 C 191.226562 115.105469 191.421875 113.535156 191.675781 111.964844 C 191.917969 110.371094 192.21875 108.800781 192.53125 107.230469 C 194.582031 97.304688 198.144531 87.710938 203.125 78.847656 L 205.9375 73.8125 L 179.15625 73.8125 L 173.726562 83.488281 C 169.539062 90.933594 166.460938 98.941406 164.558594 107.230469 C 164.203125 108.800781 163.890625 110.371094 163.613281 111.964844 C 163.347656 113.535156 163.117188 115.105469 162.921875 116.6875 C 162.519531 120.171875 162.300781 123.679688 162.300781 127.214844 L 162.300781 139.207031 L 169.367188 143.363281 C 170.820312 144.207031 171.707031 145.765625 171.707031 147.4375 " fill-opacity="1" fill-rule="nonzero"/></g><path fill="#075e54" d="M 132.425781 211.019531 L 162.253906 211.019531 L 162.253906 188.820312 L 141.144531 201.207031 C 140.40625 201.632812 139.574219 201.855469 138.757812 201.855469 C 137.925781 201.855469 137.097656 201.632812 136.359375 201.207031 L 108.132812 184.640625 C 106.691406 183.800781 105.792969 182.242188 105.792969 180.554688 L 105.792969 147.4375 C 105.792969 145.765625 106.691406 144.21875 108.132812 143.363281 L 136.359375 126.796875 C 137.835938 125.945312 139.667969 125.945312 141.144531 126.796875 L 152.847656 133.667969 L 152.847656 127.214844 C 152.847656 123.691406 153.042969 120.183594 153.421875 116.6875 L 110.566406 116.6875 C 102.773438 116.6875 96.433594 123.035156 96.433594 130.839844 L 96.433594 196.867188 C 96.433594 204.671875 102.773438 211.019531 110.566406 211.019531 L 132.425781 211.019531 " fill-opacity="1" fill-rule="nonzero"/><path fill="#075e54" d="M 236.355469 189.503906 L 216.410156 201.207031 C 215.683594 201.632812 214.851562 201.855469 214.023438 201.855469 C 213.191406 201.855469 212.371094 201.632812 211.636719 201.207031 L 190.523438 188.820312 L 190.523438 211.019531 L 242.210938 211.019531 C 243.339844 211.019531 244.4375 210.867188 245.496094 210.613281 C 245.472656 210.199219 245.429688 209.796875 245.429688 209.367188 C 245.429688 205.789062 246.328125 202.417969 247.882812 199.453125 L 236.355469 189.503906 " fill-opacity="1" fill-rule="nonzero"/><path fill="#075e54" d="M 199.875 144.667969 L 190.523438 150.148438 L 190.523438 177.855469 L 214.023438 191.636719 L 228.78125 182.980469 L 221.042969 176.308594 C 218.980469 177.496094 216.582031 178.199219 214.023438 178.199219 C 206.226562 178.199219 199.886719 171.828125 199.886719 164.003906 C 199.886719 156.175781 206.226562 149.804688 214.023438 149.804688 C 221.816406 149.804688 228.15625 156.175781 228.15625 164.003906 C 228.15625 165.804688 227.8125 167.523438 227.1875 169.117188 L 237.402344 177.925781 L 237.519531 177.855469 L 237.519531 150.148438 L 214.023438 136.367188 L 199.875 144.667969 " fill-opacity="1" fill-rule="nonzero"/><g clip-path="url(#id5)"><path fill="#075e54" d="M 266.621094 197.546875 C 266.332031 197.546875 266.042969 197.570312 265.753906 197.582031 C 264.246094 197.699219 262.824219 198.101562 261.523438 198.726562 C 261.375 198.804688 261.222656 198.875 261.074219 198.957031 C 258.363281 200.421875 256.300781 202.925781 255.390625 205.929688 C 255.066406 207.023438 254.882812 208.179688 254.882812 209.367188 C 254.882812 210.777344 255.136719 212.117188 255.585938 213.363281 C 255.863281 214.125 256.207031 214.851562 256.625 215.519531 C 258.6875 218.925781 262.386719 221.199219 266.621094 221.199219 C 273.097656 221.199219 278.367188 215.890625 278.367188 209.367188 C 278.367188 202.847656 273.097656 197.546875 266.621094 197.546875 " fill-opacity="1" fill-rule="nonzero"/></g><path fill="#075e54" d="M 138.757812 136.367188 L 115.25 150.148438 L 115.25 177.855469 L 138.757812 191.636719 L 162.253906 177.855469 L 162.253906 150.148438 L 152.890625 144.667969 L 138.757812 136.367188 " fill-opacity="1" fill-rule="nonzero"/><path fill="#075e54" d="M 256.347656 130.839844 C 256.347656 123.035156 250.003906 116.6875 242.210938 116.6875 L 200.566406 116.6875 C 200.152344 120.171875 199.933594 123.691406 199.933594 127.214844 L 199.933594 133.667969 L 211.636719 126.796875 C 213.109375 125.945312 214.945312 125.945312 216.410156 126.796875 L 244.644531 143.363281 C 246.085938 144.21875 246.972656 145.765625 246.972656 147.4375 L 246.972656 180.554688 C 246.972656 182.113281 246.1875 183.535156 244.933594 184.410156 L 254.050781 192.273438 C 254.777344 191.730469 255.539062 191.222656 256.347656 190.773438 L 256.347656 130.839844 " fill-opacity="1" fill-rule="nonzero"/><g clip-path="url(#id6)"><path fill="#075e54" d="M 244.195312 291.453125 C 243.652344 291.453125 243.121094 291.417969 242.589844 291.363281 C 242.292969 291.417969 241.980469 291.453125 241.65625 291.453125 L 201.523438 291.453125 C 198.917969 291.453125 196.808594 289.332031 196.808594 286.722656 C 196.808594 284.113281 198.917969 281.988281 201.523438 281.988281 L 229.96875 281.988281 C 229.5625 281.03125 229.230469 280.015625 229.023438 278.964844 L 216.523438 220.484375 L 190.523438 220.484375 C 190.523438 228.3125 184.183594 234.683594 176.390625 234.683594 C 168.59375 234.683594 162.253906 228.3125 162.253906 220.484375 L 136.242188 220.484375 L 123.746094 279.023438 C 123.539062 280.0625 123.214844 281.042969 122.8125 281.988281 L 176.390625 281.988281 C 178.996094 281.988281 181.117188 284.113281 181.117188 286.722656 C 181.117188 289.332031 178.996094 291.453125 176.390625 291.453125 L 108.574219 291.453125 C 105.96875 291.453125 103.742188 293.324219 103.511719 295.703125 C 103.382812 297.074219 103.8125 298.378906 104.722656 299.382812 C 105.621094 300.367188 106.84375 300.921875 108.167969 300.921875 L 244.609375 300.921875 C 245.933594 300.921875 247.15625 300.367188 248.058594 299.382812 C 248.96875 298.378906 249.394531 297.074219 249.265625 295.703125 C 249.035156 293.324219 246.8125 291.453125 244.195312 291.453125 " fill-opacity="1" fill-rule="nonzero"/></g></svg>