<svg xmlns="http://www.w3.org/2000/svg" xmlns:xlink="http://www.w3.org/1999/xlink" width="500" zoomAndPan="magnify" viewBox="0 0 375 374.999991" height="500" preserveAspectRatio="xMidYMid meet" version="1.0"><rect x="-37.5" width="450" fill="#ffffff" y="-37.499999" height="449.999989" fill-opacity="1"/><rect x="-37.5" width="450" fill="#ffffff" y="-37.499999" height="449.999989" fill-opacity="1"/><rect x="-37.5" width="450" fill="#ffffff" y="-37.499999" height="449.999989" fill-opacity="1"/><path fill="#c3d9e8" d="M 265.136719 0 L 375 109.863281 L 375 265.136719 L 265.136719 375 L 109.863281 375 L 0 265.136719 L 0 109.863281 L 109.863281 0 L 265.136719 0 " fill-opacity="1" fill-rule="nonzero"/><path fill="#2b5a7b" d="M 97.5 120 L 105 120 L 105 150 L 97.5 150 Z M 105 105 L 150 105 L 150 161.585938 C 139.378906 163.386719 131.25 172.617188 131.25 183.75 C 131.25 185.816406 132.933594 187.5 135 187.5 L 150 187.5 L 150 195 L 105 195 L 105 157.5 L 108.75 157.5 C 110.816406 157.5 112.5 155.816406 112.5 153.75 L 112.5 116.25 C 112.5 114.183594 110.816406 112.5 108.75 112.5 L 105 112.5 Z M 195 112.5 L 228.75 112.5 C 230.816406 112.5 232.5 110.816406 232.5 108.75 L 232.5 105 L 240 105 L 240 120 L 236.25 120 C 234.183594 120 232.5 121.683594 232.5 123.75 L 232.5 161.25 C 232.5 163.316406 234.183594 165 236.25 165 L 240 165 L 240 172.5 L 183.75 172.5 L 183.75 165 L 198.75 165 C 200.816406 165 202.5 163.316406 202.5 161.25 C 202.5 150.117188 194.371094 140.886719 183.75 139.085938 L 183.75 105 L 191.25 105 L 191.25 108.75 C 191.25 110.816406 192.933594 112.5 195 112.5 Z M 198.75 97.5 L 225 97.5 L 225 105 L 198.75 105 Z M 247.5 157.5 L 240 157.5 L 240 127.5 L 247.5 127.5 Z M 236.25 187.5 C 234.183594 187.5 232.5 189.183594 232.5 191.25 L 232.5 228.75 C 232.5 230.816406 234.183594 232.5 236.25 232.5 L 240 232.5 L 240 240 L 183.75 240 L 183.75 213.414062 C 194.371094 211.613281 202.5 202.382812 202.5 191.25 C 202.5 189.183594 200.816406 187.5 198.75 187.5 L 183.75 187.5 L 183.75 180 L 240 180 L 240 187.5 Z M 247.5 225 L 240 225 L 240 195 L 247.5 195 Z M 150 180 L 139.234375 180 C 140.578125 174.742188 144.742188 170.640625 150 169.277344 Z M 176.25 131.25 L 157.5 131.25 L 157.5 105 L 176.25 105 Z M 183.75 146.777344 C 189.007812 148.140625 193.171875 152.242188 194.515625 157.5 L 183.75 157.5 Z M 183.75 195 L 194.515625 195 C 193.171875 200.257812 189.007812 204.359375 183.75 205.722656 Z M 232.5 270 L 232.5 266.25 C 232.5 264.183594 230.816406 262.5 228.75 262.5 L 191.25 262.5 C 189.183594 262.5 187.5 264.183594 187.5 266.25 L 187.5 270 L 161.25 270 L 161.25 266.25 C 161.25 264.183594 159.566406 262.5 157.5 262.5 L 120 262.5 C 117.933594 262.5 116.25 264.183594 116.25 266.25 L 116.25 270 L 105 270 L 105 255 L 120 255 C 122.066406 255 123.75 253.316406 123.75 251.25 C 123.75 243.425781 119.738281 236.527344 113.660156 232.5 C 119.738281 228.472656 123.75 221.574219 123.75 213.75 C 123.75 211.683594 122.066406 210 120 210 L 105 210 L 105 202.5 L 153.75 202.5 C 155.816406 202.5 157.5 200.816406 157.5 198.75 L 157.5 138.75 L 176.25 138.75 L 176.25 243.75 C 176.25 245.816406 177.933594 247.5 180 247.5 L 240 247.5 L 240 270 Z M 225 277.5 L 195 277.5 L 195 270 L 225 270 Z M 153.75 277.5 L 123.75 277.5 L 123.75 270 L 153.75 270 Z M 105 228.222656 L 105 217.5 L 115.765625 217.5 C 114.421875 222.757812 110.257812 226.859375 105 228.222656 Z M 105 236.777344 C 110.257812 238.140625 114.421875 242.242188 115.765625 247.5 L 105 247.5 Z M 93.75 157.5 L 97.5 157.5 L 97.5 273.75 C 97.5 275.816406 99.183594 277.5 101.25 277.5 L 116.25 277.5 L 116.25 281.25 C 116.25 283.316406 117.933594 285 120 285 L 157.5 285 C 159.566406 285 161.25 283.316406 161.25 281.25 L 161.25 277.5 L 187.5 277.5 L 187.5 281.25 C 187.5 283.316406 189.183594 285 191.25 285 L 228.75 285 C 230.816406 285 232.5 283.316406 232.5 281.25 L 232.5 277.5 L 243.75 277.5 C 245.816406 277.5 247.5 275.816406 247.5 273.75 L 247.5 232.5 L 251.25 232.5 C 253.316406 232.5 255 230.816406 255 228.75 L 255 191.25 C 255 189.183594 253.316406 187.5 251.25 187.5 L 247.5 187.5 L 247.5 165 L 251.25 165 C 253.316406 165 255 163.316406 255 161.25 L 255 123.75 C 255 121.683594 253.316406 120 251.25 120 L 247.5 120 L 247.5 101.25 C 247.5 99.183594 245.816406 97.5 243.75 97.5 L 232.5 97.5 L 232.5 93.75 C 232.5 91.683594 230.816406 90 228.75 90 L 195 90 C 192.933594 90 191.25 91.683594 191.25 93.75 L 191.25 97.5 L 101.25 97.5 C 99.183594 97.5 97.5 99.183594 97.5 101.25 L 97.5 112.5 L 93.75 112.5 C 91.683594 112.5 90 114.183594 90 116.25 L 90 153.75 C 90 155.816406 91.683594 157.5 93.75 157.5 " fill-opacity="1" fill-rule="nonzero"/><path fill="#2b5a7b" d="M 270 292.5 L 270 131.25 L 292.5 131.25 L 292.5 292.5 Z M 292.5 82.5 L 292.5 123.75 L 270 123.75 L 270 82.5 Z M 262.5 292.5 L 82.5 292.5 L 82.5 82.5 L 262.5 82.5 Z M 296.25 75 L 78.75 75 C 76.683594 75 75 76.683594 75 78.75 L 75 296.25 C 75 298.316406 76.683594 300 78.75 300 L 296.25 300 C 298.316406 300 300 298.316406 300 296.25 L 300 78.75 C 300 76.683594 298.316406 75 296.25 75 " fill-opacity="1" fill-rule="nonzero"/></svg>