<svg xmlns="http://www.w3.org/2000/svg" xmlns:xlink="http://www.w3.org/1999/xlink" width="500" zoomAndPan="magnify" viewBox="0 0 375 374.999991" height="500" preserveAspectRatio="xMidYMid meet" version="1.0"><defs><clipPath id="id1"><path d="M 201 201 L 298.167969 201 L 298.167969 298.167969 L 201 298.167969 Z M 201 201 " clip-rule="nonzero"/></clipPath><clipPath id="id2"><path d="M 76.917969 76.917969 L 230 76.917969 L 230 298.167969 L 76.917969 298.167969 Z M 76.917969 76.917969 " clip-rule="nonzero"/></clipPath></defs><rect x="-37.5" width="450" fill="#ffffff" y="-37.499999" height="449.999989" fill-opacity="1"/><rect x="-37.5" width="450" fill="#ffffff" y="-37.499999" height="449.999989" fill-opacity="1"/><rect x="-37.5" width="450" fill="#ffffff" y="-37.499999" height="449.999989" fill-opacity="1"/><path fill="#c3d9e8" d="M 265.136719 0 L 375 109.863281 L 375 265.136719 L 265.136719 375 L 109.863281 375 L 0 265.136719 L 0 109.863281 L 109.863281 0 L 265.136719 0 " fill-opacity="1" fill-rule="nonzero"/><g clip-path="url(#id1)"><path fill="#2b5a7b" d="M 249.769531 201.371094 C 223.152344 201.371094 201.371094 223.152344 201.371094 249.769531 C 201.371094 276.390625 223.152344 298.167969 249.769531 298.167969 C 276.390625 298.167969 298.167969 276.390625 298.167969 249.769531 C 298.167969 223.152344 276.390625 201.371094 249.769531 201.371094 Z M 271.203125 266.363281 C 272.585938 267.746094 272.585938 269.820312 271.203125 271.203125 C 269.820312 272.585938 267.574219 272.585938 266.363281 271.203125 C 266.363281 271.203125 249.769531 254.609375 249.769531 254.609375 L 233.175781 271.203125 C 231.792969 272.585938 229.546875 272.585938 228.335938 271.203125 C 226.953125 269.820312 226.953125 267.746094 228.335938 266.363281 L 244.929688 249.769531 L 228.335938 233.175781 C 226.953125 231.792969 226.953125 229.71875 228.335938 228.335938 C 229.71875 226.953125 231.792969 226.953125 233.175781 228.335938 L 249.769531 244.929688 L 266.363281 228.335938 C 267.746094 226.953125 269.820312 226.953125 271.203125 228.335938 C 272.585938 229.71875 272.585938 231.792969 271.203125 233.175781 L 254.609375 249.769531 Z M 271.203125 266.363281 " fill-opacity="1" fill-rule="nonzero"/></g><path fill="#2b5a7b" d="M 104.574219 258.414062 L 114.945312 258.414062 L 114.945312 268.785156 L 104.574219 268.785156 Z M 104.574219 258.414062 " fill-opacity="1" fill-rule="nonzero"/><g clip-path="url(#id2)"><path fill="#2b5a7b" d="M 195.148438 258.414062 L 139.144531 258.414062 C 137.242188 258.414062 135.6875 256.855469 135.6875 254.957031 C 135.6875 253.054688 137.242188 251.5 139.144531 251.5 L 194.457031 251.5 C 194.457031 250.980469 194.457031 250.289062 194.457031 249.769531 C 194.457031 239.054688 197.570312 228.855469 202.925781 220.386719 L 139.144531 220.386719 C 137.242188 220.386719 135.6875 218.828125 135.6875 216.929688 C 135.6875 215.027344 137.242188 213.472656 139.144531 213.472656 L 204.828125 213.472656 C 205.691406 213.472656 206.558594 213.816406 207.25 214.507812 C 213.125 207.59375 220.558594 202.0625 229.027344 198.605469 L 229.027344 90.746094 C 229.027344 83.140625 222.804688 76.917969 215.199219 76.917969 L 90.746094 76.917969 C 83.140625 76.917969 76.917969 83.140625 76.917969 90.746094 L 76.917969 284.339844 C 76.917969 291.945312 83.140625 298.167969 90.746094 298.167969 L 215.199219 298.167969 C 217.273438 298.167969 219.175781 297.648438 220.902344 296.957031 C 207.421875 288.660156 197.742188 274.660156 195.148438 258.414062 Z M 139.144531 99.390625 L 204.828125 99.390625 C 206.730469 99.390625 208.285156 100.945312 208.285156 102.847656 C 208.285156 104.746094 206.730469 106.304688 204.828125 106.304688 L 139.144531 106.304688 C 137.242188 106.304688 135.6875 104.746094 135.6875 102.847656 C 135.6875 100.945312 137.242188 99.390625 139.144531 99.390625 Z M 139.144531 116.675781 L 180.628906 116.675781 C 182.53125 116.675781 184.085938 118.230469 184.085938 120.132812 C 184.085938 122.03125 182.53125 123.589844 180.628906 123.589844 L 139.144531 123.589844 C 137.242188 123.589844 135.6875 122.03125 135.6875 120.132812 C 135.6875 118.230469 137.242188 116.675781 139.144531 116.675781 Z M 139.144531 137.417969 L 204.828125 137.417969 C 206.730469 137.417969 208.285156 138.972656 208.285156 140.875 C 208.285156 142.773438 206.730469 144.332031 204.828125 144.332031 L 139.144531 144.332031 C 137.242188 144.332031 135.6875 142.773438 135.6875 140.875 C 135.6875 138.972656 137.242188 137.417969 139.144531 137.417969 Z M 139.144531 154.703125 L 180.628906 154.703125 C 182.53125 154.703125 184.085938 156.257812 184.085938 158.160156 C 184.085938 160.058594 182.53125 161.617188 180.628906 161.617188 L 139.144531 161.617188 C 137.242188 161.617188 135.6875 160.058594 135.6875 158.160156 C 135.6875 156.257812 137.242188 154.703125 139.144531 154.703125 Z M 139.144531 175.445312 L 204.828125 175.445312 C 206.730469 175.445312 208.285156 177 208.285156 178.902344 C 208.285156 180.800781 206.730469 182.359375 204.828125 182.359375 L 139.144531 182.359375 C 137.242188 182.359375 135.6875 180.800781 135.6875 178.902344 C 135.6875 177 137.242188 175.445312 139.144531 175.445312 Z M 139.144531 192.730469 L 180.628906 192.730469 C 182.53125 192.730469 184.085938 194.285156 184.085938 196.1875 C 184.085938 198.085938 182.53125 199.644531 180.628906 199.644531 L 139.144531 199.644531 C 137.242188 199.644531 135.6875 198.085938 135.6875 196.1875 C 135.6875 194.285156 137.242188 192.730469 139.144531 192.730469 Z M 139.144531 230.757812 L 180.628906 230.757812 C 182.53125 230.757812 184.085938 232.3125 184.085938 234.214844 C 184.085938 236.113281 182.53125 237.671875 180.628906 237.671875 L 139.144531 237.671875 C 137.242188 237.671875 135.6875 236.113281 135.6875 234.214844 C 135.6875 232.3125 137.242188 230.757812 139.144531 230.757812 Z M 121.859375 268.785156 C 121.859375 272.585938 118.75 275.699219 114.945312 275.699219 L 104.574219 275.699219 C 100.773438 275.699219 97.660156 272.585938 97.660156 268.785156 L 97.660156 258.414062 C 97.660156 254.609375 100.773438 251.5 104.574219 251.5 L 114.945312 251.5 C 118.75 251.5 121.859375 254.609375 121.859375 258.414062 Z M 120.824219 231.792969 C 122.207031 233.175781 122.207031 235.25 120.824219 236.632812 C 119.441406 238.015625 117.191406 238.015625 115.984375 236.632812 C 115.984375 236.632812 109.761719 230.410156 109.761719 230.410156 L 103.539062 236.632812 C 102.15625 238.015625 99.90625 238.015625 98.699219 236.632812 C 97.316406 235.25 97.316406 233.175781 98.699219 231.792969 L 104.921875 225.570312 L 98.699219 219.347656 C 97.316406 217.964844 97.316406 215.890625 98.699219 214.507812 C 100.082031 213.125 102.15625 213.125 103.539062 214.507812 L 109.761719 220.730469 L 115.984375 214.507812 C 117.367188 213.125 119.441406 213.125 120.824219 214.507812 C 122.207031 215.890625 122.207031 217.964844 120.824219 219.347656 L 114.601562 225.570312 Z M 120.824219 193.765625 C 122.207031 195.148438 122.207031 197.222656 120.824219 198.605469 C 119.441406 199.988281 117.191406 199.988281 115.984375 198.605469 C 115.984375 198.605469 109.761719 192.382812 109.761719 192.382812 L 103.539062 198.605469 C 102.15625 199.988281 99.90625 199.988281 98.699219 198.605469 C 97.316406 197.222656 97.316406 195.148438 98.699219 193.765625 L 104.921875 187.542969 L 98.699219 181.320312 C 97.316406 179.9375 97.316406 177.863281 98.699219 176.480469 C 100.082031 175.097656 102.15625 175.097656 103.539062 176.480469 L 109.761719 182.703125 L 115.984375 176.480469 C 117.367188 175.097656 119.441406 175.097656 120.824219 176.480469 C 122.207031 177.863281 122.207031 179.9375 120.824219 181.320312 L 114.601562 187.542969 Z M 120.824219 155.738281 C 122.207031 157.121094 122.207031 159.195312 120.824219 160.578125 C 119.441406 161.960938 117.191406 161.960938 115.984375 160.578125 C 115.984375 160.578125 109.761719 154.355469 109.761719 154.355469 L 103.539062 160.578125 C 102.15625 161.960938 99.90625 161.960938 98.699219 160.578125 C 97.316406 159.195312 97.316406 157.121094 98.699219 155.738281 L 104.921875 149.515625 L 98.699219 143.292969 C 97.316406 141.910156 97.316406 139.835938 98.699219 138.453125 C 100.082031 137.070312 102.15625 137.070312 103.539062 138.453125 L 109.761719 144.675781 L 115.984375 138.453125 C 117.367188 137.070312 119.441406 137.070312 120.824219 138.453125 C 122.207031 139.835938 122.207031 141.910156 120.824219 143.292969 L 114.601562 149.515625 Z M 120.824219 117.710938 C 122.207031 119.09375 122.207031 121.167969 120.824219 122.550781 C 119.441406 123.933594 117.191406 123.933594 115.984375 122.550781 C 115.984375 122.550781 109.761719 116.328125 109.761719 116.328125 L 103.539062 122.550781 C 102.15625 123.933594 99.90625 123.933594 98.699219 122.550781 C 97.316406 121.167969 97.316406 119.09375 98.699219 117.710938 L 104.921875 111.488281 L 98.699219 105.265625 C 97.316406 103.882812 97.316406 101.808594 98.699219 100.425781 C 100.082031 99.042969 102.15625 99.042969 103.539062 100.425781 L 109.761719 106.648438 L 115.984375 100.425781 C 117.367188 99.042969 119.441406 99.042969 120.824219 100.425781 C 122.207031 101.808594 122.207031 103.882812 120.824219 105.265625 L 114.601562 111.488281 Z M 180.628906 275.699219 L 139.144531 275.699219 C 137.242188 275.699219 135.6875 274.140625 135.6875 272.242188 C 135.6875 270.339844 137.242188 268.785156 139.144531 268.785156 L 180.628906 268.785156 C 182.53125 268.785156 184.085938 270.339844 184.085938 272.242188 C 184.085938 274.140625 182.53125 275.699219 180.628906 275.699219 Z M 180.628906 275.699219 " fill-opacity="1" fill-rule="nonzero"/></g></svg>