<svg xmlns="http://www.w3.org/2000/svg" xmlns:xlink="http://www.w3.org/1999/xlink" width="500" zoomAndPan="magnify" viewBox="0 0 375 374.999991" height="500" preserveAspectRatio="xMidYMid meet" version="1.0"><defs><clipPath id="id1"><path d="M 73.679688 67.214844 L 301.679688 67.214844 L 301.679688 307.964844 L 73.679688 307.964844 Z M 73.679688 67.214844 " clip-rule="nonzero"/></clipPath></defs><rect x="-37.5" width="450" fill="#ffffff" y="-37.499999" height="449.999989" fill-opacity="1"/><rect x="-37.5" width="450" fill="#ffffff" y="-37.499999" height="449.999989" fill-opacity="1"/><rect x="-37.5" width="450" fill="#ffffff" y="-37.499999" height="449.999989" fill-opacity="1"/><path fill="#c3d9e8" d="M 265.136719 0 L 375 109.863281 L 375 265.136719 L 265.136719 375 L 109.863281 375 L 0 265.136719 L 0 109.863281 L 109.863281 0 L 265.136719 0 " fill-opacity="1" fill-rule="nonzero"/><path fill="#2b5a7b" d="M 186.0625 143.375 L 151.148438 143.375 L 151.148438 120.03125 L 159.40625 120.03125 L 159.40625 115.265625 L 151.148438 115.265625 L 151.148438 91.210938 L 179.152344 91.210938 L 179.152344 115.265625 L 173.355469 115.265625 L 173.355469 120.03125 L 186.0625 120.03125 L 186.0625 115.265625 L 183.832031 115.265625 L 183.832031 91.210938 L 202.394531 91.210938 L 202.394531 115.265625 L 200.007812 115.265625 L 200.007812 120.03125 L 202.394531 120.03125 L 202.394531 143.375 L 200.007812 143.375 L 200.007812 148.140625 L 207.078125 148.140625 L 207.078125 86.441406 L 146.464844 86.441406 L 146.464844 148.140625 L 186.0625 148.140625 Z M 186.0625 143.375 " fill-opacity="1" fill-rule="nonzero"/><g clip-path="url(#id1)"><path fill="#2b5a7b" d="M 293.710938 67.214844 L 133.839844 67.214844 C 129.449219 67.214844 125.886719 70.773438 125.886719 75.164062 L 125.886719 117.117188 C 122.464844 115.660156 118.703125 114.886719 114.886719 114.886719 C 108.898438 114.886719 103.058594 116.785156 98.429688 120.238281 C 94.332031 123.296875 91.320312 127.402344 89.582031 132.261719 C 88.117188 133.703125 87.207031 135.707031 87.207031 137.925781 L 87.207031 140.59375 C 87.207031 143.066406 88.335938 145.273438 90.109375 146.734375 C 90.550781 149.074219 91.25 151.296875 92.191406 153.371094 L 91.359375 153.371094 C 81.617188 153.371094 73.691406 161.3125 73.691406 171.082031 L 73.691406 218.507812 C 73.691406 225.410156 77.648438 231.398438 83.402344 234.320312 L 83.402344 289.109375 C 83.402344 299.464844 91.808594 307.886719 102.132812 307.886719 C 107.039062 307.886719 111.503906 305.992188 114.847656 302.890625 C 118.195312 306.027344 122.691406 307.949219 127.625 307.949219 C 137.953125 307.949219 146.355469 299.523438 146.355469 289.171875 L 146.355469 223.210938 L 293.710938 223.210938 C 298.105469 223.210938 301.664062 219.65625 301.664062 215.265625 L 301.664062 75.164062 C 301.664062 70.773438 298.101562 67.214844 293.710938 67.214844 Z M 138.371094 164.175781 C 140.152344 164.214844 141.816406 164.921875 143.0625 166.179688 L 152.632812 175.796875 L 162.210938 166.179688 C 163.507812 164.875 165.230469 164.160156 167.0625 164.160156 C 168.894531 164.160156 170.617188 164.875 171.914062 166.179688 C 174.605469 168.878906 174.605469 173.277344 171.914062 175.980469 L 157.488281 190.480469 C 156.191406 191.78125 154.46875 192.5 152.632812 192.5 C 150.800781 192.5 149.078125 191.78125 147.78125 190.480469 L 141.425781 184.089844 L 135.558594 178.175781 L 135.558594 289.167969 C 135.558594 293.574219 132 297.160156 127.621094 297.160156 C 123.25 297.160156 119.691406 293.574219 119.691406 289.167969 L 119.691406 225.429688 L 110.070312 225.429688 L 110.070312 289.105469 C 110.070312 293.511719 106.507812 297.097656 102.132812 297.097656 C 97.757812 297.097656 94.199219 293.511719 94.199219 289.105469 L 94.199219 225.429688 L 91.359375 225.429688 C 87.570312 225.429688 84.488281 222.328125 84.488281 218.507812 L 84.488281 171.082031 C 84.488281 167.261719 87.570312 164.15625 91.359375 164.15625 L 100.144531 164.15625 L 108.265625 177.28125 L 114.8125 166.707031 L 121.378906 177.273438 L 129.496094 164.160156 Z M 119.167969 134.859375 L 110.613281 134.859375 L 109.140625 126.484375 C 110.917969 125.664062 112.875 125.234375 114.890625 125.234375 C 116.90625 125.234375 118.863281 125.664062 120.644531 126.484375 Z M 99.308594 137.671875 C 99.902344 135.394531 101.058594 133.277344 102.648438 131.496094 L 104.414062 137.671875 Z M 118.011719 156.855469 C 116.976562 157.082031 115.941406 157.199219 114.945312 157.203125 L 114.859375 157.203125 C 113.8125 157.199219 112.742188 157.074219 111.675781 156.832031 C 105.570312 155.433594 101.496094 150.441406 100.613281 143.515625 L 129.167969 143.515625 C 128.277344 150.488281 124.171875 155.488281 118.011719 156.855469 Z M 125.363281 137.671875 L 127.128906 131.496094 C 128.71875 133.277344 129.875 135.394531 130.46875 137.671875 Z M 293.710938 215.265625 L 141.242188 215.265625 L 141.242188 191.960938 L 143.75 194.484375 C 146.121094 196.867188 149.277344 198.175781 152.632812 198.175781 C 155.992188 198.175781 159.148438 196.863281 161.515625 194.484375 L 175.941406 179.984375 C 180.832031 175.074219 180.832031 167.085938 175.941406 162.175781 C 173.574219 159.792969 170.417969 158.480469 167.058594 158.480469 C 163.707031 158.480469 160.550781 159.792969 158.179688 162.175781 L 152.636719 167.746094 L 147.09375 162.175781 C 144.796875 159.867188 141.726562 158.558594 138.453125 158.5 L 133.839844 158.488281 L 133.839844 149.164062 C 134.441406 147.398438 134.851562 145.507812 135.054688 143.519531 L 137.539062 143.519531 L 137.539062 135 L 135.78125 135 C 135.296875 133.53125 134.644531 132.121094 133.839844 130.789062 L 133.839844 75.164062 L 293.710938 75.164062 Z M 293.710938 215.265625 " fill-opacity="1" fill-rule="nonzero"/></g><path fill="#2b5a7b" d="M 208.246094 174.664062 L 212.292969 170.542969 L 212.292969 206.136719 L 276.515625 206.136719 L 276.515625 170.542969 L 280.566406 174.664062 L 284.09375 170.378906 C 284.09375 170.378906 246.355469 131.980469 246.171875 131.792969 L 244.410156 129.996094 L 204.71875 170.378906 Z M 273.988281 203.234375 L 260.769531 203.234375 L 260.769531 169.542969 L 273.988281 169.542969 Z M 271.542969 165.480469 L 248.082031 165.480469 L 259.296875 153.019531 Z M 245.714844 139.199219 L 257.367188 151.058594 L 245.714844 164.007812 Z M 245.714844 169.546875 L 258.503906 169.546875 L 258.503906 176.964844 L 245.714844 176.964844 Z M 245.714844 179.867188 L 258.503906 179.867188 L 258.503906 203.234375 L 245.714844 203.234375 Z M 227.699219 199.882812 L 221.988281 186.097656 L 227.699219 172.320312 Z M 235.84375 186.097656 L 230.308594 199.449219 L 230.308594 172.75 Z M 230.707031 169.546875 L 242.703125 169.546875 L 236.703125 184.019531 Z M 230.46875 203.234375 L 236.703125 188.179688 L 242.945312 203.234375 Z M 243.097656 199.449219 L 237.570312 186.097656 L 243.097656 172.75 Z M 243.097656 139.199219 L 243.097656 163.8125 L 231.539062 150.960938 Z M 229.609375 152.925781 L 240.90625 165.480469 L 217.269531 165.480469 Z M 227.125 169.546875 L 221.125 184.019531 L 215.128906 169.546875 Z M 214.90625 173.179688 L 220.261719 186.097656 L 214.90625 199.023438 Z M 214.90625 203.1875 L 221.125 188.179688 L 227.363281 203.234375 L 214.90625 203.234375 Z M 214.90625 203.1875 " fill-opacity="1" fill-rule="nonzero"/></svg>