<svg xmlns="http://www.w3.org/2000/svg" xmlns:xlink="http://www.w3.org/1999/xlink" width="500" zoomAndPan="magnify" viewBox="0 0 375 374.999991" height="500" preserveAspectRatio="xMidYMid meet" version="1.0"><defs><clipPath id="id1"><path d="M 90 78.710938 L 288 78.710938 L 288 89 L 90 89 Z M 90 78.710938 " clip-rule="nonzero"/></clipPath><clipPath id="id2"><path d="M 94 78.710938 L 283 78.710938 L 283 81 L 94 81 Z M 94 78.710938 " clip-rule="nonzero"/></clipPath><clipPath id="id3"><path d="M 73 284 L 301.734375 284 L 301.734375 296.210938 L 73 296.210938 Z M 73 284 " clip-rule="nonzero"/></clipPath></defs><rect x="-37.5" width="450" fill="#ffffff" y="-37.499999" height="449.999989" fill-opacity="1"/><rect x="-37.5" width="450" fill="#ffffff" y="-37.499999" height="449.999989" fill-opacity="1"/><rect x="-37.5" width="450" fill="#ffffff" y="-37.499999" height="449.999989" fill-opacity="1"/><path fill="#c3d9e8" d="M 265.136719 0 L 375 109.863281 L 375 265.136719 L 265.136719 375 L 109.863281 375 L 0 265.136719 L 0 109.863281 L 109.863281 0 L 265.136719 0 " fill-opacity="1" fill-rule="nonzero"/><path fill="#2b5a7b" d="M 96.382812 104.859375 L 86.269531 104.859375 L 86.269531 90.796875 L 96.382812 90.796875 Z M 88.300781 102.824219 L 94.351562 102.824219 L 94.351562 92.832031 L 88.300781 92.832031 Z M 88.300781 102.824219 " fill-opacity="1" fill-rule="nonzero"/><path fill="#2b5a7b" d="M 98.453125 108.59375 L 83.785156 108.59375 L 83.785156 102.824219 L 98.453125 102.824219 Z M 85.816406 106.558594 L 96.421875 106.558594 L 96.421875 104.859375 L 85.816406 104.859375 Z M 85.816406 106.558594 " fill-opacity="1" fill-rule="nonzero"/><path fill="#2b5a7b" d="M 114.097656 104.859375 L 103.988281 104.859375 L 103.988281 90.796875 L 114.097656 90.796875 Z M 106.019531 102.824219 L 112.066406 102.824219 L 112.066406 92.832031 L 106.019531 92.832031 Z M 106.019531 102.824219 " fill-opacity="1" fill-rule="nonzero"/><path fill="#2b5a7b" d="M 116.167969 108.59375 L 101.5 108.59375 L 101.5 102.824219 L 116.167969 102.824219 Z M 103.53125 106.558594 L 114.136719 106.558594 L 114.136719 104.859375 L 103.53125 104.859375 Z M 103.53125 106.558594 " fill-opacity="1" fill-rule="nonzero"/><path fill="#2b5a7b" d="M 103.53125 108.59375 L 96.421875 108.59375 L 96.421875 102.824219 L 103.53125 102.824219 Z M 98.453125 106.558594 L 101.5 106.558594 L 101.5 104.859375 L 98.453125 104.859375 Z M 98.453125 106.558594 " fill-opacity="1" fill-rule="nonzero"/><path fill="#2b5a7b" d="M 121.246094 108.59375 L 114.136719 108.59375 L 114.136719 102.824219 L 121.246094 102.824219 Z M 116.167969 106.558594 L 119.214844 106.558594 L 119.214844 104.859375 L 116.167969 104.859375 Z M 116.167969 106.558594 " fill-opacity="1" fill-rule="nonzero"/><path fill="#2b5a7b" d="M 100.132812 100.667969 C 98.519531 100.667969 97.207031 99.355469 97.207031 97.742188 C 97.207031 96.128906 98.519531 94.816406 100.132812 94.816406 C 101.742188 94.816406 103.054688 96.128906 103.054688 97.742188 C 103.054688 99.355469 101.742188 100.667969 100.132812 100.667969 Z M 100.132812 96.847656 C 99.640625 96.847656 99.238281 97.25 99.238281 97.742188 C 99.238281 98.234375 99.640625 98.632812 100.132812 98.632812 C 100.621094 98.632812 101.023438 98.234375 101.023438 97.742188 C 101.023438 97.25 100.621094 96.847656 100.132812 96.847656 Z M 100.132812 96.847656 " fill-opacity="1" fill-rule="nonzero"/><path fill="#2b5a7b" d="M 118.011719 100.707031 C 116.402344 100.707031 115.089844 99.394531 115.089844 97.78125 C 115.089844 96.167969 116.402344 94.855469 118.011719 94.855469 C 119.625 94.855469 120.9375 96.167969 120.9375 97.78125 C 120.9375 99.394531 119.625 100.707031 118.011719 100.707031 Z M 118.011719 96.890625 C 117.519531 96.890625 117.121094 97.289062 117.121094 97.78125 C 117.121094 98.273438 117.519531 98.675781 118.011719 98.675781 C 118.503906 98.675781 118.902344 98.273438 118.902344 97.78125 C 118.902344 97.289062 118.503906 96.890625 118.011719 96.890625 Z M 118.011719 96.890625 " fill-opacity="1" fill-rule="nonzero"/><path fill="#2b5a7b" d="M 153.414062 100.707031 C 151.800781 100.707031 150.488281 99.394531 150.488281 97.78125 C 150.488281 96.167969 151.800781 94.855469 153.414062 94.855469 C 155.023438 94.855469 156.335938 96.167969 156.335938 97.78125 C 156.335938 99.394531 155.023438 100.707031 153.414062 100.707031 Z M 153.414062 96.890625 C 152.921875 96.890625 152.519531 97.289062 152.519531 97.78125 C 152.519531 98.273438 152.921875 98.675781 153.414062 98.675781 C 153.902344 98.675781 154.304688 98.273438 154.304688 97.78125 C 154.304688 97.289062 153.902344 96.890625 153.414062 96.890625 Z M 153.414062 96.890625 " fill-opacity="1" fill-rule="nonzero"/><path fill="#2b5a7b" d="M 91.328125 101.742188 C 90.765625 101.742188 90.3125 101.285156 90.3125 100.726562 L 90.3125 94.855469 C 90.3125 94.296875 90.765625 93.839844 91.328125 93.839844 C 91.886719 93.839844 92.34375 94.296875 92.34375 94.855469 L 92.34375 100.726562 C 92.34375 101.285156 91.886719 101.742188 91.328125 101.742188 Z M 91.328125 101.742188 " fill-opacity="1" fill-rule="nonzero"/><path fill="#2b5a7b" d="M 109.042969 101.78125 C 108.480469 101.78125 108.027344 101.324219 108.027344 100.761719 L 108.027344 94.894531 C 108.027344 94.332031 108.480469 93.878906 109.042969 93.878906 C 109.601562 93.878906 110.058594 94.332031 110.058594 94.894531 L 110.058594 100.761719 C 110.058594 101.324219 109.601562 101.78125 109.042969 101.78125 Z M 109.042969 101.78125 " fill-opacity="1" fill-rule="nonzero"/><path fill="#2b5a7b" d="M 131.8125 104.859375 L 121.699219 104.859375 L 121.699219 90.796875 L 131.8125 90.796875 Z M 123.730469 102.824219 L 129.78125 102.824219 L 129.78125 92.832031 L 123.730469 92.832031 Z M 123.730469 102.824219 " fill-opacity="1" fill-rule="nonzero"/><path fill="#2b5a7b" d="M 133.882812 108.59375 L 119.214844 108.59375 L 119.214844 102.824219 L 133.882812 102.824219 Z M 121.246094 106.558594 L 131.851562 106.558594 L 131.851562 104.859375 L 121.246094 104.859375 Z M 121.246094 106.558594 " fill-opacity="1" fill-rule="nonzero"/><path fill="#2b5a7b" d="M 149.527344 104.859375 L 139.414062 104.859375 L 139.414062 90.796875 L 149.527344 90.796875 Z M 141.449219 102.824219 L 147.496094 102.824219 L 147.496094 92.832031 L 141.449219 92.832031 Z M 141.449219 102.824219 " fill-opacity="1" fill-rule="nonzero"/><path fill="#2b5a7b" d="M 151.597656 108.59375 L 136.929688 108.59375 L 136.929688 102.824219 L 151.597656 102.824219 Z M 138.960938 106.558594 L 149.566406 106.558594 L 149.566406 104.859375 L 138.960938 104.859375 Z M 138.960938 106.558594 " fill-opacity="1" fill-rule="nonzero"/><path fill="#2b5a7b" d="M 138.960938 108.59375 L 131.851562 108.59375 L 131.851562 102.824219 L 138.960938 102.824219 Z M 133.882812 106.558594 L 136.929688 106.558594 L 136.929688 104.859375 L 133.882812 104.859375 Z M 133.882812 106.558594 " fill-opacity="1" fill-rule="nonzero"/><path fill="#2b5a7b" d="M 156.675781 108.59375 L 149.566406 108.59375 L 149.566406 102.824219 L 156.675781 102.824219 Z M 151.597656 106.558594 L 154.644531 106.558594 L 154.644531 104.859375 L 151.597656 104.859375 Z M 151.597656 106.558594 " fill-opacity="1" fill-rule="nonzero"/><path fill="#2b5a7b" d="M 135.558594 100.667969 C 133.949219 100.667969 132.636719 99.355469 132.636719 97.742188 C 132.636719 96.128906 133.949219 94.816406 135.558594 94.816406 C 137.171875 94.816406 138.484375 96.128906 138.484375 97.742188 C 138.484375 99.355469 137.171875 100.667969 135.558594 100.667969 Z M 135.558594 96.847656 C 135.066406 96.847656 134.667969 97.25 134.667969 97.742188 C 134.667969 98.234375 135.066406 98.632812 135.558594 98.632812 C 136.050781 98.632812 136.453125 98.234375 136.453125 97.742188 C 136.453125 97.25 136.050781 96.847656 135.558594 96.847656 Z M 135.558594 96.847656 " fill-opacity="1" fill-rule="nonzero"/><path fill="#2b5a7b" d="M 126.757812 101.742188 C 126.195312 101.742188 125.742188 101.285156 125.742188 100.726562 L 125.742188 94.855469 C 125.742188 94.296875 126.195312 93.839844 126.757812 93.839844 C 127.316406 93.839844 127.773438 94.296875 127.773438 94.855469 L 127.773438 100.726562 C 127.773438 101.285156 127.316406 101.742188 126.757812 101.742188 Z M 126.757812 101.742188 " fill-opacity="1" fill-rule="nonzero"/><path fill="#2b5a7b" d="M 144.472656 101.78125 C 143.910156 101.78125 143.457031 101.324219 143.457031 100.761719 L 143.457031 94.894531 C 143.457031 94.332031 143.910156 93.878906 144.472656 93.878906 C 145.03125 93.878906 145.488281 94.332031 145.488281 94.894531 L 145.488281 100.761719 C 145.488281 101.324219 145.03125 101.78125 144.472656 101.78125 Z M 144.472656 101.78125 " fill-opacity="1" fill-rule="nonzero"/><path fill="#2b5a7b" d="M 167.242188 104.859375 L 157.128906 104.859375 L 157.128906 90.796875 L 167.242188 90.796875 Z M 159.164062 102.824219 L 165.210938 102.824219 L 165.210938 92.832031 L 159.164062 92.832031 Z M 159.164062 102.824219 " fill-opacity="1" fill-rule="nonzero"/><path fill="#2b5a7b" d="M 169.316406 108.59375 L 154.644531 108.59375 L 154.644531 102.824219 L 169.316406 102.824219 Z M 156.675781 106.558594 L 167.28125 106.558594 L 167.28125 104.859375 L 156.675781 104.859375 Z M 156.675781 106.558594 " fill-opacity="1" fill-rule="nonzero"/><path fill="#2b5a7b" d="M 184.957031 104.859375 L 174.84375 104.859375 L 174.84375 90.796875 L 184.957031 90.796875 Z M 176.878906 102.824219 L 182.925781 102.824219 L 182.925781 92.832031 L 176.878906 92.832031 Z M 176.878906 102.824219 " fill-opacity="1" fill-rule="nonzero"/><path fill="#2b5a7b" d="M 187.03125 108.59375 L 172.359375 108.59375 L 172.359375 102.824219 L 187.03125 102.824219 Z M 174.390625 106.558594 L 184.996094 106.558594 L 184.996094 104.859375 L 174.390625 104.859375 Z M 174.390625 106.558594 " fill-opacity="1" fill-rule="nonzero"/><path fill="#2b5a7b" d="M 174.390625 108.59375 L 167.28125 108.59375 L 167.28125 102.824219 L 174.390625 102.824219 Z M 169.316406 106.558594 L 172.359375 106.558594 L 172.359375 104.859375 L 169.316406 104.859375 Z M 169.316406 106.558594 " fill-opacity="1" fill-rule="nonzero"/><path fill="#2b5a7b" d="M 192.105469 108.59375 L 184.996094 108.59375 L 184.996094 102.824219 L 192.105469 102.824219 Z M 187.03125 106.558594 L 190.074219 106.558594 L 190.074219 104.859375 L 187.03125 104.859375 Z M 187.03125 106.558594 " fill-opacity="1" fill-rule="nonzero"/><path fill="#2b5a7b" d="M 170.988281 100.667969 C 169.378906 100.667969 168.066406 99.355469 168.066406 97.742188 C 168.066406 96.128906 169.378906 94.816406 170.988281 94.816406 C 172.601562 94.816406 173.914062 96.128906 173.914062 97.742188 C 173.914062 99.355469 172.601562 100.667969 170.988281 100.667969 Z M 170.988281 96.847656 C 170.496094 96.847656 170.097656 97.25 170.097656 97.742188 C 170.097656 98.234375 170.496094 98.632812 170.988281 98.632812 C 171.480469 98.632812 171.882812 98.234375 171.882812 97.742188 C 171.882812 97.25 171.480469 96.847656 170.988281 96.847656 Z M 170.988281 96.847656 " fill-opacity="1" fill-rule="nonzero"/><path fill="#2b5a7b" d="M 188.839844 100.667969 C 187.226562 100.667969 185.914062 99.355469 185.914062 97.742188 C 185.914062 96.128906 187.226562 94.816406 188.839844 94.816406 C 190.449219 94.816406 191.761719 96.128906 191.761719 97.742188 C 191.761719 99.355469 190.449219 100.667969 188.839844 100.667969 Z M 188.839844 96.847656 C 188.347656 96.847656 187.945312 97.25 187.945312 97.742188 C 187.945312 98.234375 188.347656 98.632812 188.839844 98.632812 C 189.332031 98.632812 189.730469 98.234375 189.730469 97.742188 C 189.730469 97.25 189.332031 96.847656 188.839844 96.847656 Z M 188.839844 96.847656 " fill-opacity="1" fill-rule="nonzero"/><path fill="#2b5a7b" d="M 224.296875 100.667969 C 222.6875 100.667969 221.375 99.355469 221.375 97.742188 C 221.375 96.128906 222.6875 94.816406 224.296875 94.816406 C 225.910156 94.816406 227.21875 96.128906 227.21875 97.742188 C 227.21875 99.355469 225.910156 100.667969 224.296875 100.667969 Z M 224.296875 96.847656 C 223.804688 96.847656 223.40625 97.25 223.40625 97.742188 C 223.40625 98.234375 223.804688 98.632812 224.296875 98.632812 C 224.789062 98.632812 225.1875 98.234375 225.1875 97.742188 C 225.1875 97.25 224.789062 96.847656 224.296875 96.847656 Z M 224.296875 96.847656 " fill-opacity="1" fill-rule="nonzero"/><path fill="#2b5a7b" d="M 259.703125 100.753906 C 258.09375 100.753906 256.78125 99.441406 256.78125 97.828125 C 256.78125 96.214844 258.09375 94.902344 259.703125 94.902344 C 261.316406 94.902344 262.628906 96.214844 262.628906 97.828125 C 262.628906 99.441406 261.316406 100.753906 259.703125 100.753906 Z M 259.703125 96.9375 C 259.210938 96.9375 258.8125 97.335938 258.8125 97.828125 C 258.8125 98.320312 259.210938 98.722656 259.703125 98.722656 C 260.195312 98.722656 260.597656 98.320312 260.597656 97.828125 C 260.597656 97.335938 260.195312 96.9375 259.703125 96.9375 Z M 259.703125 96.9375 " fill-opacity="1" fill-rule="nonzero"/><path fill="#2b5a7b" d="M 162.1875 101.742188 C 161.625 101.742188 161.171875 101.285156 161.171875 100.726562 L 161.171875 94.855469 C 161.171875 94.296875 161.625 93.839844 162.1875 93.839844 C 162.746094 93.839844 163.203125 94.296875 163.203125 94.855469 L 163.203125 100.726562 C 163.203125 101.285156 162.746094 101.742188 162.1875 101.742188 Z M 162.1875 101.742188 " fill-opacity="1" fill-rule="nonzero"/><path fill="#2b5a7b" d="M 179.898438 101.78125 C 179.339844 101.78125 178.882812 101.324219 178.882812 100.761719 L 178.882812 94.894531 C 178.882812 94.332031 179.339844 93.878906 179.898438 93.878906 C 180.460938 93.878906 180.917969 94.332031 180.917969 94.894531 L 180.917969 100.761719 C 180.917969 101.324219 180.460938 101.78125 179.898438 101.78125 Z M 179.898438 101.78125 " fill-opacity="1" fill-rule="nonzero"/><path fill="#2b5a7b" d="M 202.671875 104.859375 L 192.558594 104.859375 L 192.558594 90.796875 L 202.671875 90.796875 Z M 194.589844 102.824219 L 200.640625 102.824219 L 200.640625 92.832031 L 194.589844 92.832031 Z M 194.589844 102.824219 " fill-opacity="1" fill-rule="nonzero"/><path fill="#2b5a7b" d="M 204.746094 108.59375 L 190.074219 108.59375 L 190.074219 102.824219 L 204.746094 102.824219 Z M 192.105469 106.558594 L 202.710938 106.558594 L 202.710938 104.859375 L 192.105469 104.859375 Z M 192.105469 106.558594 " fill-opacity="1" fill-rule="nonzero"/><path fill="#2b5a7b" d="M 220.386719 104.859375 L 210.273438 104.859375 L 210.273438 90.796875 L 220.386719 90.796875 Z M 212.308594 102.824219 L 218.355469 102.824219 L 218.355469 92.832031 L 212.308594 92.832031 Z M 212.308594 102.824219 " fill-opacity="1" fill-rule="nonzero"/><path fill="#2b5a7b" d="M 222.460938 108.59375 L 207.789062 108.59375 L 207.789062 102.824219 L 222.460938 102.824219 Z M 209.820312 106.558594 L 220.425781 106.558594 L 220.425781 104.859375 L 209.820312 104.859375 Z M 209.820312 106.558594 " fill-opacity="1" fill-rule="nonzero"/><path fill="#2b5a7b" d="M 209.820312 108.59375 L 202.710938 108.59375 L 202.710938 102.824219 L 209.820312 102.824219 Z M 204.746094 106.558594 L 207.789062 106.558594 L 207.789062 104.859375 L 204.746094 104.859375 Z M 204.746094 106.558594 " fill-opacity="1" fill-rule="nonzero"/><path fill="#2b5a7b" d="M 227.535156 108.59375 L 220.425781 108.59375 L 220.425781 102.824219 L 227.535156 102.824219 Z M 222.460938 106.558594 L 225.503906 106.558594 L 225.503906 104.859375 L 222.460938 104.859375 Z M 222.460938 106.558594 " fill-opacity="1" fill-rule="nonzero"/><path fill="#2b5a7b" d="M 206.421875 100.667969 C 204.808594 100.667969 203.496094 99.355469 203.496094 97.742188 C 203.496094 96.128906 204.808594 94.816406 206.421875 94.816406 C 208.03125 94.816406 209.34375 96.128906 209.34375 97.742188 C 209.34375 99.355469 208.03125 100.667969 206.421875 100.667969 Z M 206.421875 96.847656 C 205.929688 96.847656 205.527344 97.25 205.527344 97.742188 C 205.527344 98.234375 205.929688 98.632812 206.421875 98.632812 C 206.914062 98.632812 207.3125 98.234375 207.3125 97.742188 C 207.3125 97.25 206.914062 96.847656 206.421875 96.847656 Z M 206.421875 96.847656 " fill-opacity="1" fill-rule="nonzero"/><path fill="#2b5a7b" d="M 197.613281 101.742188 C 197.054688 101.742188 196.597656 101.285156 196.597656 100.726562 L 196.597656 94.855469 C 196.597656 94.296875 197.054688 93.839844 197.613281 93.839844 C 198.175781 93.839844 198.632812 94.296875 198.632812 94.855469 L 198.632812 100.726562 C 198.632812 101.285156 198.175781 101.742188 197.613281 101.742188 Z M 197.613281 101.742188 " fill-opacity="1" fill-rule="nonzero"/><path fill="#2b5a7b" d="M 215.332031 101.78125 C 214.769531 101.78125 214.316406 101.324219 214.316406 100.761719 L 214.316406 94.894531 C 214.316406 94.332031 214.769531 93.878906 215.332031 93.878906 C 215.894531 93.878906 216.347656 94.332031 216.347656 94.894531 L 216.347656 100.761719 C 216.347656 101.324219 215.894531 101.78125 215.332031 101.78125 Z M 215.332031 101.78125 " fill-opacity="1" fill-rule="nonzero"/><path fill="#2b5a7b" d="M 238.101562 104.859375 L 227.992188 104.859375 L 227.992188 90.796875 L 238.101562 90.796875 Z M 230.023438 102.824219 L 236.070312 102.824219 L 236.070312 92.832031 L 230.023438 92.832031 Z M 230.023438 102.824219 " fill-opacity="1" fill-rule="nonzero"/><path fill="#2b5a7b" d="M 240.175781 108.59375 L 225.503906 108.59375 L 225.503906 102.824219 L 240.175781 102.824219 Z M 227.535156 106.558594 L 238.140625 106.558594 L 238.140625 104.859375 L 227.535156 104.859375 Z M 227.535156 106.558594 " fill-opacity="1" fill-rule="nonzero"/><path fill="#2b5a7b" d="M 255.816406 104.859375 L 245.707031 104.859375 L 245.707031 90.796875 L 255.816406 90.796875 Z M 247.738281 102.824219 L 253.785156 102.824219 L 253.785156 92.832031 L 247.738281 92.832031 Z M 247.738281 102.824219 " fill-opacity="1" fill-rule="nonzero"/><path fill="#2b5a7b" d="M 257.890625 108.59375 L 243.21875 108.59375 L 243.21875 102.824219 L 257.890625 102.824219 Z M 245.25 106.558594 L 255.855469 106.558594 L 255.855469 104.859375 L 245.25 104.859375 Z M 245.25 106.558594 " fill-opacity="1" fill-rule="nonzero"/><path fill="#2b5a7b" d="M 245.25 108.59375 L 238.140625 108.59375 L 238.140625 102.824219 L 245.25 102.824219 Z M 240.175781 106.558594 L 243.21875 106.558594 L 243.21875 104.859375 L 240.175781 104.859375 Z M 240.175781 106.558594 " fill-opacity="1" fill-rule="nonzero"/><path fill="#2b5a7b" d="M 262.964844 108.59375 L 255.855469 108.59375 L 255.855469 102.824219 L 262.964844 102.824219 Z M 257.890625 106.558594 L 260.933594 106.558594 L 260.933594 104.859375 L 257.890625 104.859375 Z M 257.890625 106.558594 " fill-opacity="1" fill-rule="nonzero"/><path fill="#2b5a7b" d="M 241.851562 100.667969 C 240.238281 100.667969 238.925781 99.355469 238.925781 97.742188 C 238.925781 96.128906 240.238281 94.816406 241.851562 94.816406 C 243.460938 94.816406 244.773438 96.128906 244.773438 97.742188 C 244.773438 99.355469 243.460938 100.667969 241.851562 100.667969 Z M 241.851562 96.847656 C 241.359375 96.847656 240.957031 97.25 240.957031 97.742188 C 240.957031 98.234375 241.359375 98.632812 241.851562 98.632812 C 242.34375 98.632812 242.742188 98.234375 242.742188 97.742188 C 242.742188 97.25 242.34375 96.847656 241.851562 96.847656 Z M 241.851562 96.847656 " fill-opacity="1" fill-rule="nonzero"/><path fill="#2b5a7b" d="M 233.046875 101.742188 C 232.484375 101.742188 232.03125 101.285156 232.03125 100.726562 L 232.03125 94.855469 C 232.03125 94.296875 232.484375 93.839844 233.046875 93.839844 C 233.609375 93.839844 234.0625 94.296875 234.0625 94.855469 L 234.0625 100.726562 C 234.0625 101.285156 233.609375 101.742188 233.046875 101.742188 Z M 233.046875 101.742188 " fill-opacity="1" fill-rule="nonzero"/><path fill="#2b5a7b" d="M 250.761719 101.78125 C 250.199219 101.78125 249.746094 101.324219 249.746094 100.761719 L 249.746094 94.894531 C 249.746094 94.332031 250.199219 93.878906 250.761719 93.878906 C 251.324219 93.878906 251.777344 94.332031 251.777344 94.894531 L 251.777344 100.761719 C 251.777344 101.324219 251.324219 101.78125 250.761719 101.78125 Z M 250.761719 101.78125 " fill-opacity="1" fill-rule="nonzero"/><path fill="#2b5a7b" d="M 273.53125 104.859375 L 263.417969 104.859375 L 263.417969 90.796875 L 273.53125 90.796875 Z M 265.449219 102.824219 L 271.5 102.824219 L 271.5 92.832031 L 265.449219 92.832031 Z M 265.449219 102.824219 " fill-opacity="1" fill-rule="nonzero"/><path fill="#2b5a7b" d="M 275.601562 108.59375 L 260.933594 108.59375 L 260.933594 102.824219 L 275.601562 102.824219 Z M 262.964844 106.558594 L 273.570312 106.558594 L 273.570312 104.859375 L 262.964844 104.859375 Z M 262.964844 106.558594 " fill-opacity="1" fill-rule="nonzero"/><path fill="#2b5a7b" d="M 291.246094 104.859375 L 281.132812 104.859375 L 281.132812 90.796875 L 291.246094 90.796875 Z M 283.164062 102.824219 L 289.214844 102.824219 L 289.214844 92.832031 L 283.164062 92.832031 Z M 283.164062 102.824219 " fill-opacity="1" fill-rule="nonzero"/><path fill="#2b5a7b" d="M 293.316406 108.59375 L 278.648438 108.59375 L 278.648438 102.824219 L 293.316406 102.824219 Z M 280.679688 106.558594 L 291.285156 106.558594 L 291.285156 104.859375 L 280.679688 104.859375 Z M 280.679688 106.558594 " fill-opacity="1" fill-rule="nonzero"/><path fill="#2b5a7b" d="M 280.679688 108.59375 L 273.570312 108.59375 L 273.570312 102.824219 L 280.679688 102.824219 Z M 275.601562 106.558594 L 278.648438 106.558594 L 278.648438 104.859375 L 275.601562 104.859375 Z M 275.601562 106.558594 " fill-opacity="1" fill-rule="nonzero"/><path fill="#2b5a7b" d="M 277.277344 100.667969 C 275.667969 100.667969 274.355469 99.355469 274.355469 97.742188 C 274.355469 96.128906 275.667969 94.816406 277.277344 94.816406 C 278.890625 94.816406 280.203125 96.128906 280.203125 97.742188 C 280.203125 99.355469 278.890625 100.667969 277.277344 100.667969 Z M 277.277344 96.847656 C 276.789062 96.847656 276.386719 97.25 276.386719 97.742188 C 276.386719 98.234375 276.789062 98.632812 277.277344 98.632812 C 277.769531 98.632812 278.171875 98.234375 278.171875 97.742188 C 278.171875 97.25 277.769531 96.847656 277.277344 96.847656 Z M 277.277344 96.847656 " fill-opacity="1" fill-rule="nonzero"/><path fill="#2b5a7b" d="M 268.476562 101.742188 C 267.914062 101.742188 267.460938 101.285156 267.460938 100.726562 L 267.460938 94.855469 C 267.460938 94.296875 267.914062 93.839844 268.476562 93.839844 C 269.039062 93.839844 269.492188 94.296875 269.492188 94.855469 L 269.492188 100.726562 C 269.492188 101.285156 269.039062 101.742188 268.476562 101.742188 Z M 268.476562 101.742188 " fill-opacity="1" fill-rule="nonzero"/><path fill="#2b5a7b" d="M 286.191406 101.78125 C 285.628906 101.78125 285.175781 101.324219 285.175781 100.761719 L 285.175781 94.894531 C 285.175781 94.332031 285.628906 93.878906 286.191406 93.878906 C 286.753906 93.878906 287.207031 94.332031 287.207031 94.894531 L 287.207031 100.761719 C 287.207031 101.324219 286.753906 101.78125 286.191406 101.78125 Z M 286.191406 101.78125 " fill-opacity="1" fill-rule="nonzero"/><path fill="#2b5a7b" d="M 293.316406 112.445312 L 83.785156 112.445312 L 83.785156 106.558594 L 293.316406 106.558594 Z M 85.816406 110.414062 L 291.285156 110.414062 L 291.285156 108.59375 L 85.816406 108.59375 Z M 85.816406 110.414062 " fill-opacity="1" fill-rule="nonzero"/><path fill="#2b5a7b" d="M 293.316406 92.832031 L 83.785156 92.832031 L 83.785156 86.566406 L 293.316406 86.566406 Z M 85.816406 90.796875 L 291.285156 90.796875 L 291.285156 88.601562 L 85.816406 88.601562 Z M 85.816406 90.796875 " fill-opacity="1" fill-rule="nonzero"/><path fill="#2b5a7b" d="M 91.066406 117.742188 C 89.046875 117.742188 87.40625 116.097656 87.40625 114.078125 C 87.40625 112.058594 89.046875 110.414062 91.066406 110.414062 C 93.085938 110.414062 94.726562 112.058594 94.726562 114.078125 C 94.726562 116.097656 93.085938 117.742188 91.066406 117.742188 Z M 91.066406 112.445312 C 90.167969 112.445312 89.4375 113.179688 89.4375 114.078125 C 89.4375 114.976562 90.167969 115.707031 91.066406 115.707031 C 91.964844 115.707031 92.695312 114.976562 92.695312 114.078125 C 92.695312 113.179688 91.964844 112.445312 91.066406 112.445312 Z M 91.066406 112.445312 " fill-opacity="1" fill-rule="nonzero"/><path fill="#2b5a7b" d="M 108.835938 117.742188 C 106.816406 117.742188 105.171875 116.097656 105.171875 114.078125 C 105.171875 112.058594 106.816406 110.414062 108.835938 110.414062 C 110.855469 110.414062 112.496094 112.058594 112.496094 114.078125 C 112.496094 116.097656 110.855469 117.742188 108.835938 117.742188 Z M 108.835938 112.445312 C 107.9375 112.445312 107.207031 113.179688 107.207031 114.078125 C 107.207031 114.976562 107.9375 115.707031 108.835938 115.707031 C 109.734375 115.707031 110.464844 114.976562 110.464844 114.078125 C 110.464844 113.179688 109.734375 112.445312 108.835938 112.445312 Z M 108.835938 112.445312 " fill-opacity="1" fill-rule="nonzero"/><path fill="#2b5a7b" d="M 126.523438 117.742188 C 124.503906 117.742188 122.863281 116.097656 122.863281 114.078125 C 122.863281 112.058594 124.503906 110.414062 126.523438 110.414062 C 128.542969 110.414062 130.183594 112.058594 130.183594 114.078125 C 130.183594 116.097656 128.542969 117.742188 126.523438 117.742188 Z M 126.523438 112.445312 C 125.625 112.445312 124.894531 113.179688 124.894531 114.078125 C 124.894531 114.976562 125.625 115.707031 126.523438 115.707031 C 127.421875 115.707031 128.152344 114.976562 128.152344 114.078125 C 128.152344 113.179688 127.421875 112.445312 126.523438 112.445312 Z M 126.523438 112.445312 " fill-opacity="1" fill-rule="nonzero"/><path fill="#2b5a7b" d="M 144.292969 117.742188 C 142.273438 117.742188 140.628906 116.097656 140.628906 114.078125 C 140.628906 112.058594 142.273438 110.414062 144.292969 110.414062 C 146.3125 110.414062 147.953125 112.058594 147.953125 114.078125 C 147.953125 116.097656 146.3125 117.742188 144.292969 117.742188 Z M 144.292969 112.445312 C 143.394531 112.445312 142.660156 113.179688 142.660156 114.078125 C 142.660156 114.976562 143.394531 115.707031 144.292969 115.707031 C 145.191406 115.707031 145.921875 114.976562 145.921875 114.078125 C 145.921875 113.179688 145.191406 112.445312 144.292969 112.445312 Z M 144.292969 112.445312 " fill-opacity="1" fill-rule="nonzero"/><path fill="#2b5a7b" d="M 162.226562 117.742188 C 160.207031 117.742188 158.5625 116.097656 158.5625 114.078125 C 158.5625 112.058594 160.207031 110.414062 162.226562 110.414062 C 164.242188 110.414062 165.886719 112.058594 165.886719 114.078125 C 165.886719 116.097656 164.242188 117.742188 162.226562 117.742188 Z M 162.226562 112.445312 C 161.328125 112.445312 160.597656 113.179688 160.597656 114.078125 C 160.597656 114.976562 161.328125 115.707031 162.226562 115.707031 C 163.125 115.707031 163.855469 114.976562 163.855469 114.078125 C 163.855469 113.179688 163.125 112.445312 162.226562 112.445312 Z M 162.226562 112.445312 " fill-opacity="1" fill-rule="nonzero"/><path fill="#2b5a7b" d="M 179.992188 117.742188 C 177.972656 117.742188 176.332031 116.097656 176.332031 114.078125 C 176.332031 112.058594 177.972656 110.414062 179.992188 110.414062 C 182.011719 110.414062 183.65625 112.058594 183.65625 114.078125 C 183.65625 116.097656 182.011719 117.742188 179.992188 117.742188 Z M 179.992188 112.445312 C 179.09375 112.445312 178.363281 113.179688 178.363281 114.078125 C 178.363281 114.976562 179.09375 115.707031 179.992188 115.707031 C 180.890625 115.707031 181.625 114.976562 181.625 114.078125 C 181.625 113.179688 180.890625 112.445312 179.992188 112.445312 Z M 179.992188 112.445312 " fill-opacity="1" fill-rule="nonzero"/><path fill="#2b5a7b" d="M 197.683594 117.742188 C 195.664062 117.742188 194.019531 116.097656 194.019531 114.078125 C 194.019531 112.058594 195.664062 110.414062 197.683594 110.414062 C 199.699219 110.414062 201.34375 112.058594 201.34375 114.078125 C 201.34375 116.097656 199.699219 117.742188 197.683594 117.742188 Z M 197.683594 112.445312 C 196.78125 112.445312 196.050781 113.179688 196.050781 114.078125 C 196.050781 114.976562 196.78125 115.707031 197.683594 115.707031 C 198.582031 115.707031 199.3125 114.976562 199.3125 114.078125 C 199.3125 113.179688 198.582031 112.445312 197.683594 112.445312 Z M 197.683594 112.445312 " fill-opacity="1" fill-rule="nonzero"/><path fill="#2b5a7b" d="M 215.449219 117.742188 C 213.429688 117.742188 211.789062 116.097656 211.789062 114.078125 C 211.789062 112.058594 213.429688 110.414062 215.449219 110.414062 C 217.46875 110.414062 219.113281 112.058594 219.113281 114.078125 C 219.113281 116.097656 217.46875 117.742188 215.449219 117.742188 Z M 215.449219 112.445312 C 214.550781 112.445312 213.820312 113.179688 213.820312 114.078125 C 213.820312 114.976562 214.550781 115.707031 215.449219 115.707031 C 216.347656 115.707031 217.082031 114.976562 217.082031 114.078125 C 217.082031 113.179688 216.347656 112.445312 215.449219 112.445312 Z M 215.449219 112.445312 " fill-opacity="1" fill-rule="nonzero"/><path fill="#2b5a7b" d="M 233.09375 117.742188 C 231.074219 117.742188 229.429688 116.097656 229.429688 114.078125 C 229.429688 112.058594 231.074219 110.414062 233.09375 110.414062 C 235.113281 110.414062 236.753906 112.058594 236.753906 114.078125 C 236.753906 116.097656 235.113281 117.742188 233.09375 117.742188 Z M 233.09375 112.445312 C 232.195312 112.445312 231.460938 113.179688 231.460938 114.078125 C 231.460938 114.976562 232.195312 115.707031 233.09375 115.707031 C 233.992188 115.707031 234.722656 114.976562 234.722656 114.078125 C 234.722656 113.179688 233.992188 112.445312 233.09375 112.445312 Z M 233.09375 112.445312 " fill-opacity="1" fill-rule="nonzero"/><path fill="#2b5a7b" d="M 250.859375 117.742188 C 248.84375 117.742188 247.199219 116.097656 247.199219 114.078125 C 247.199219 112.058594 248.84375 110.414062 250.859375 110.414062 C 252.878906 110.414062 254.523438 112.058594 254.523438 114.078125 C 254.523438 116.097656 252.878906 117.742188 250.859375 117.742188 Z M 250.859375 112.445312 C 249.960938 112.445312 249.230469 113.179688 249.230469 114.078125 C 249.230469 114.976562 249.960938 115.707031 250.859375 115.707031 C 251.757812 115.707031 252.488281 114.976562 252.488281 114.078125 C 252.488281 113.179688 251.757812 112.445312 250.859375 112.445312 Z M 250.859375 112.445312 " fill-opacity="1" fill-rule="nonzero"/><path fill="#2b5a7b" d="M 268.546875 117.742188 C 266.53125 117.742188 264.886719 116.097656 264.886719 114.078125 C 264.886719 112.058594 266.53125 110.414062 268.546875 110.414062 C 270.566406 110.414062 272.210938 112.058594 272.210938 114.078125 C 272.210938 116.097656 270.566406 117.742188 268.546875 117.742188 Z M 268.546875 112.445312 C 267.652344 112.445312 266.917969 113.179688 266.917969 114.078125 C 266.917969 114.976562 267.652344 115.707031 268.546875 115.707031 C 269.449219 115.707031 270.179688 114.976562 270.179688 114.078125 C 270.179688 113.179688 269.449219 112.445312 268.546875 112.445312 Z M 268.546875 112.445312 " fill-opacity="1" fill-rule="nonzero"/><path fill="#2b5a7b" d="M 286.316406 117.742188 C 284.300781 117.742188 282.65625 116.097656 282.65625 114.078125 C 282.65625 112.058594 284.300781 110.414062 286.316406 110.414062 C 288.335938 110.414062 289.980469 112.058594 289.980469 114.078125 C 289.980469 116.097656 288.335938 117.742188 286.316406 117.742188 Z M 286.316406 112.445312 C 285.417969 112.445312 284.6875 113.179688 284.6875 114.078125 C 284.6875 114.976562 285.417969 115.707031 286.316406 115.707031 C 287.214844 115.707031 287.945312 114.976562 287.945312 114.078125 C 287.945312 113.179688 287.214844 112.445312 286.316406 112.445312 Z M 286.316406 112.445312 " fill-opacity="1" fill-rule="nonzero"/><path fill="#2b5a7b" d="M 293.316406 121.535156 L 83.785156 121.535156 L 83.785156 115.707031 L 293.316406 115.707031 Z M 85.816406 119.5 L 291.285156 119.5 L 291.285156 117.742188 L 85.816406 117.742188 Z M 85.816406 119.5 " fill-opacity="1" fill-rule="nonzero"/><path fill="#2b5a7b" d="M 288.3125 126.257812 L 87.40625 126.257812 L 87.40625 119.5 L 288.3125 119.5 Z M 89.4375 124.226562 L 286.28125 124.226562 L 286.28125 121.535156 L 89.4375 121.535156 Z M 89.4375 124.226562 " fill-opacity="1" fill-rule="nonzero"/><g clip-path="url(#id1)"><path fill="#2b5a7b" d="M 287.332031 88.601562 L 90.3125 88.601562 L 90.3125 82.960938 C 90.3125 80.617188 92.28125 78.710938 94.703125 78.710938 C 96.824219 78.710938 98.597656 80.167969 99.007812 82.097656 C 99.523438 82.132812 100.363281 82.164062 101.460938 82.164062 C 102.5625 82.164062 103.398438 82.132812 103.914062 82.097656 C 104.328125 80.167969 106.101562 78.710938 108.21875 78.710938 C 110.335938 78.710938 112.109375 80.167969 112.523438 82.097656 C 113.039062 82.132812 113.875 82.164062 114.976562 82.164062 C 116.074219 82.164062 116.910156 82.132812 117.429688 82.097656 C 117.839844 80.167969 119.613281 78.710938 121.734375 78.710938 C 123.851562 78.710938 125.625 80.167969 126.035156 82.097656 C 126.550781 82.132812 127.390625 82.164062 128.488281 82.164062 C 129.585938 82.164062 130.425781 82.132812 130.941406 82.097656 C 131.355469 80.167969 133.128906 78.710938 135.246094 78.710938 C 137.367188 78.710938 139.140625 80.167969 139.550781 82.105469 C 140.019531 82.136719 140.757812 82.164062 141.714844 82.164062 C 142.667969 82.164062 143.40625 82.136719 143.878906 82.105469 C 144.289062 80.167969 146.0625 78.710938 148.183594 78.710938 C 150.300781 78.710938 152.074219 80.167969 152.484375 82.097656 C 153 82.132812 153.839844 82.164062 154.9375 82.164062 C 156.039062 82.164062 156.875 82.132812 157.390625 82.097656 C 157.804688 80.167969 159.578125 78.710938 161.695312 78.710938 C 163.8125 78.710938 165.585938 80.167969 166 82.097656 C 166.515625 82.132812 167.351562 82.164062 168.453125 82.164062 C 169.550781 82.164062 170.386719 82.132812 170.902344 82.097656 C 171.316406 80.167969 173.089844 78.710938 175.207031 78.710938 C 177.328125 78.710938 179.097656 80.167969 179.511719 82.097656 C 180.027344 82.132812 180.867188 82.164062 181.964844 82.164062 C 183.066406 82.164062 183.902344 82.132812 184.417969 82.097656 C 184.832031 80.167969 186.605469 78.710938 188.722656 78.710938 C 190.839844 78.710938 192.613281 80.167969 193.027344 82.101562 C 193.523438 82.136719 194.3125 82.164062 195.347656 82.164062 C 196.378906 82.164062 197.167969 82.136719 197.664062 82.101562 C 198.078125 80.167969 199.851562 78.710938 201.96875 78.710938 C 204.089844 78.710938 205.863281 80.167969 206.273438 82.097656 C 206.789062 82.132812 207.628906 82.164062 208.726562 82.164062 C 209.828125 82.164062 210.664062 82.132812 211.179688 82.097656 C 211.59375 80.167969 213.367188 78.710938 215.484375 78.710938 C 217.601562 78.710938 219.375 80.167969 219.789062 82.097656 C 220.304688 82.132812 221.140625 82.164062 222.242188 82.164062 C 223.339844 82.164062 224.175781 82.132812 224.695312 82.097656 C 225.105469 80.167969 226.878906 78.710938 228.996094 78.710938 C 231.113281 78.710938 232.886719 80.167969 233.300781 82.097656 C 233.816406 82.132812 234.652344 82.164062 235.753906 82.164062 C 236.851562 82.164062 237.691406 82.132812 238.207031 82.097656 C 238.617188 80.167969 240.390625 78.710938 242.511719 78.710938 C 244.628906 78.710938 246.402344 80.167969 246.8125 82.097656 C 247.320312 82.132812 248.140625 82.164062 249.210938 82.164062 C 250.28125 82.164062 251.101562 82.132812 251.609375 82.097656 C 252.019531 80.167969 253.792969 78.710938 255.914062 78.710938 C 258.03125 78.710938 259.804688 80.167969 260.214844 82.097656 C 260.734375 82.132812 261.570312 82.164062 262.671875 82.164062 C 263.769531 82.164062 264.605469 82.132812 265.121094 82.097656 C 265.535156 80.167969 267.308594 78.710938 269.425781 78.710938 C 271.542969 78.710938 273.316406 80.167969 273.730469 82.097656 C 274.246094 82.132812 275.082031 82.164062 276.183594 82.164062 C 277.28125 82.164062 278.117188 82.132812 278.636719 82.097656 C 279.046875 80.167969 280.820312 78.710938 282.9375 78.710938 C 285.363281 78.710938 287.332031 80.617188 287.332031 82.960938 Z M 92.34375 86.566406 L 285.300781 86.566406 L 285.300781 82.960938 C 285.300781 81.738281 284.242188 80.742188 282.9375 80.742188 C 281.636719 80.742188 280.578125 81.738281 280.578125 82.960938 C 280.578125 84.140625 279.519531 84.199219 276.183594 84.199219 C 272.84375 84.199219 271.789062 84.140625 271.789062 82.960938 C 271.789062 81.738281 270.726562 80.742188 269.425781 80.742188 C 268.125 80.742188 267.0625 81.738281 267.0625 82.960938 C 267.0625 84.140625 266.007812 84.199219 262.671875 84.199219 C 259.332031 84.199219 258.273438 84.140625 258.273438 82.960938 C 258.273438 81.738281 257.214844 80.742188 255.914062 80.742188 C 254.609375 80.742188 253.550781 81.738281 253.550781 82.960938 C 253.550781 84.140625 252.507812 84.199219 249.210938 84.199219 C 245.914062 84.199219 244.871094 84.140625 244.871094 82.960938 C 244.871094 81.738281 243.8125 80.742188 242.511719 80.742188 C 241.207031 80.742188 240.148438 81.738281 240.148438 82.960938 C 240.148438 84.140625 239.09375 84.199219 235.753906 84.199219 C 232.414062 84.199219 231.359375 84.140625 231.359375 82.960938 C 231.359375 81.738281 230.300781 80.742188 228.996094 80.742188 C 227.695312 80.742188 226.636719 81.738281 226.636719 82.960938 C 226.636719 84.140625 225.578125 84.199219 222.242188 84.199219 C 218.902344 84.199219 217.847656 84.140625 217.847656 82.960938 C 217.847656 81.738281 216.785156 80.742188 215.484375 80.742188 C 214.179688 80.742188 213.121094 81.738281 213.121094 82.960938 C 213.121094 84.140625 212.066406 84.199219 208.726562 84.199219 C 205.386719 84.199219 204.332031 84.140625 204.332031 82.960938 C 204.332031 81.738281 203.273438 80.742188 201.96875 80.742188 C 200.667969 80.742188 199.605469 81.738281 199.605469 82.960938 C 199.605469 84.140625 198.582031 84.199219 195.347656 84.199219 C 192.109375 84.199219 191.085938 84.140625 191.085938 82.960938 C 191.085938 81.738281 190.023438 80.742188 188.722656 80.742188 C 187.421875 80.742188 186.359375 81.738281 186.359375 82.960938 C 186.359375 84.140625 185.304688 84.199219 181.964844 84.199219 C 178.628906 84.199219 177.570312 84.140625 177.570312 82.960938 C 177.570312 81.738281 176.511719 80.742188 175.207031 80.742188 C 173.90625 80.742188 172.84375 81.738281 172.84375 82.960938 C 172.84375 84.140625 171.789062 84.199219 168.453125 84.199219 C 165.113281 84.199219 164.058594 84.140625 164.058594 82.960938 C 164.058594 81.738281 162.996094 80.742188 161.695312 80.742188 C 160.394531 80.742188 159.332031 81.738281 159.332031 82.960938 C 159.332031 84.140625 158.277344 84.199219 154.9375 84.199219 C 151.597656 84.199219 150.542969 84.140625 150.542969 82.960938 C 150.542969 81.738281 149.484375 80.742188 148.183594 80.742188 C 146.878906 80.742188 145.820312 81.738281 145.820312 82.960938 C 145.820312 84.136719 144.765625 84.199219 141.714844 84.199219 C 138.664062 84.199219 137.609375 84.136719 137.609375 82.960938 C 137.609375 81.738281 136.546875 80.742188 135.246094 80.742188 C 133.941406 80.742188 132.882812 81.738281 132.882812 82.960938 C 132.882812 84.140625 131.828125 84.199219 128.488281 84.199219 C 125.148438 84.199219 124.09375 84.140625 124.09375 82.960938 C 124.09375 81.738281 123.035156 80.742188 121.734375 80.742188 C 120.429688 80.742188 119.371094 81.738281 119.371094 82.960938 C 119.371094 84.140625 118.3125 84.199219 114.976562 84.199219 C 111.636719 84.199219 110.582031 84.140625 110.582031 82.960938 C 110.582031 81.738281 109.519531 80.742188 108.21875 80.742188 C 106.917969 80.742188 105.855469 81.738281 105.855469 82.960938 C 105.855469 84.140625 104.800781 84.199219 101.460938 84.199219 C 98.125 84.199219 97.066406 84.140625 97.066406 82.960938 C 97.066406 81.738281 96.007812 80.742188 94.703125 80.742188 C 93.402344 80.742188 92.34375 81.738281 92.34375 82.960938 Z M 92.34375 86.566406 " fill-opacity="1" fill-rule="nonzero"/></g><g clip-path="url(#id2)"><path fill="#2b5a7b" d="M 94.703125 78.710938 L 282.9375 78.710938 L 282.9375 80.742188 L 94.703125 80.742188 Z M 94.703125 78.710938 " fill-opacity="1" fill-rule="nonzero"/></g><path fill="#2b5a7b" d="M 94.703125 85.109375 C 94.144531 85.109375 93.6875 84.652344 93.6875 84.09375 L 93.6875 82.796875 C 93.6875 82.234375 94.144531 81.78125 94.703125 81.78125 C 95.265625 81.78125 95.71875 82.234375 95.71875 82.796875 L 95.71875 84.09375 C 95.71875 84.652344 95.265625 85.109375 94.703125 85.109375 Z M 94.703125 85.109375 " fill-opacity="1" fill-rule="nonzero"/><path fill="#2b5a7b" d="M 108.261719 85.109375 C 107.703125 85.109375 107.246094 84.652344 107.246094 84.09375 L 107.246094 82.796875 C 107.246094 82.234375 107.703125 81.78125 108.261719 81.78125 C 108.824219 81.78125 109.277344 82.234375 109.277344 82.796875 L 109.277344 84.09375 C 109.277344 84.652344 108.824219 85.109375 108.261719 85.109375 Z M 108.261719 85.109375 " fill-opacity="1" fill-rule="nonzero"/><path fill="#2b5a7b" d="M 121.632812 85.109375 C 121.070312 85.109375 120.617188 84.652344 120.617188 84.09375 L 120.617188 82.796875 C 120.617188 82.234375 121.070312 81.78125 121.632812 81.78125 C 122.195312 81.78125 122.648438 82.234375 122.648438 82.796875 L 122.648438 84.09375 C 122.648438 84.652344 122.195312 85.109375 121.632812 85.109375 Z M 121.632812 85.109375 " fill-opacity="1" fill-rule="nonzero"/><path fill="#2b5a7b" d="M 135.40625 85.109375 C 134.84375 85.109375 134.390625 84.652344 134.390625 84.09375 L 134.390625 82.796875 C 134.390625 82.234375 134.84375 81.78125 135.40625 81.78125 C 135.96875 81.78125 136.421875 82.234375 136.421875 82.796875 L 136.421875 84.09375 C 136.421875 84.652344 135.96875 85.109375 135.40625 85.109375 Z M 135.40625 85.109375 " fill-opacity="1" fill-rule="nonzero"/><path fill="#2b5a7b" d="M 148.160156 85.109375 C 147.597656 85.109375 147.144531 84.652344 147.144531 84.09375 L 147.144531 82.796875 C 147.144531 82.234375 147.597656 81.78125 148.160156 81.78125 C 148.71875 81.78125 149.175781 82.234375 149.175781 82.796875 L 149.175781 84.09375 C 149.175781 84.652344 148.71875 85.109375 148.160156 85.109375 Z M 148.160156 85.109375 " fill-opacity="1" fill-rule="nonzero"/><path fill="#2b5a7b" d="M 161.671875 85.109375 C 161.109375 85.109375 160.65625 84.652344 160.65625 84.09375 L 160.65625 82.796875 C 160.65625 82.234375 161.109375 81.78125 161.671875 81.78125 C 162.234375 81.78125 162.6875 82.234375 162.6875 82.796875 L 162.6875 84.09375 C 162.6875 84.652344 162.234375 85.109375 161.671875 85.109375 Z M 161.671875 85.109375 " fill-opacity="1" fill-rule="nonzero"/><path fill="#2b5a7b" d="M 175.1875 85.109375 C 174.625 85.109375 174.167969 84.652344 174.167969 84.09375 L 174.167969 82.796875 C 174.167969 82.234375 174.625 81.78125 175.1875 81.78125 C 175.746094 81.78125 176.203125 82.234375 176.203125 82.796875 L 176.203125 84.09375 C 176.203125 84.652344 175.746094 85.109375 175.1875 85.109375 Z M 175.1875 85.109375 " fill-opacity="1" fill-rule="nonzero"/><path fill="#2b5a7b" d="M 188.613281 85.109375 C 188.050781 85.109375 187.597656 84.652344 187.597656 84.09375 L 187.597656 82.796875 C 187.597656 82.234375 188.050781 81.78125 188.613281 81.78125 C 189.175781 81.78125 189.628906 82.234375 189.628906 82.796875 L 189.628906 84.09375 C 189.628906 84.652344 189.175781 85.109375 188.613281 85.109375 Z M 188.613281 85.109375 " fill-opacity="1" fill-rule="nonzero"/><path fill="#2b5a7b" d="M 202.015625 85.109375 C 201.453125 85.109375 201 84.652344 201 84.09375 L 201 82.796875 C 201 82.234375 201.453125 81.78125 202.015625 81.78125 C 202.578125 81.78125 203.03125 82.234375 203.03125 82.796875 L 203.03125 84.09375 C 203.03125 84.652344 202.578125 85.109375 202.015625 85.109375 Z M 202.015625 85.109375 " fill-opacity="1" fill-rule="nonzero"/><path fill="#2b5a7b" d="M 215.46875 85.109375 C 214.90625 85.109375 214.453125 84.652344 214.453125 84.09375 L 214.453125 82.796875 C 214.453125 82.234375 214.90625 81.78125 215.46875 81.78125 C 216.03125 81.78125 216.484375 82.234375 216.484375 82.796875 L 216.484375 84.09375 C 216.484375 84.652344 216.03125 85.109375 215.46875 85.109375 Z M 215.46875 85.109375 " fill-opacity="1" fill-rule="nonzero"/><path fill="#2b5a7b" d="M 228.980469 85.109375 C 228.417969 85.109375 227.964844 84.652344 227.964844 84.09375 L 227.964844 82.796875 C 227.964844 82.234375 228.417969 81.78125 228.980469 81.78125 C 229.542969 81.78125 229.996094 82.234375 229.996094 82.796875 L 229.996094 84.09375 C 229.996094 84.652344 229.542969 85.109375 228.980469 85.109375 Z M 228.980469 85.109375 " fill-opacity="1" fill-rule="nonzero"/><path fill="#2b5a7b" d="M 242.441406 85.109375 C 241.878906 85.109375 241.425781 84.652344 241.425781 84.09375 L 241.425781 82.796875 C 241.425781 82.234375 241.878906 81.78125 242.441406 81.78125 C 243.003906 81.78125 243.457031 82.234375 243.457031 82.796875 L 243.457031 84.09375 C 243.457031 84.652344 243.003906 85.109375 242.441406 85.109375 Z M 242.441406 85.109375 " fill-opacity="1" fill-rule="nonzero"/><path fill="#2b5a7b" d="M 255.964844 85.109375 C 255.402344 85.109375 254.949219 84.652344 254.949219 84.09375 L 254.949219 82.796875 C 254.949219 82.234375 255.402344 81.78125 255.964844 81.78125 C 256.527344 81.78125 256.980469 82.234375 256.980469 82.796875 L 256.980469 84.09375 C 256.980469 84.652344 256.527344 85.109375 255.964844 85.109375 Z M 255.964844 85.109375 " fill-opacity="1" fill-rule="nonzero"/><path fill="#2b5a7b" d="M 269.480469 85.109375 C 268.917969 85.109375 268.464844 84.652344 268.464844 84.09375 L 268.464844 82.796875 C 268.464844 82.234375 268.917969 81.78125 269.480469 81.78125 C 270.039062 81.78125 270.496094 82.234375 270.496094 82.796875 L 270.496094 84.09375 C 270.496094 84.652344 270.039062 85.109375 269.480469 85.109375 Z M 269.480469 85.109375 " fill-opacity="1" fill-rule="nonzero"/><path fill="#2b5a7b" d="M 282.9375 85.109375 C 282.378906 85.109375 281.921875 84.652344 281.921875 84.09375 L 281.921875 82.796875 C 281.921875 82.234375 282.378906 81.78125 282.9375 81.78125 C 283.5 81.78125 283.953125 82.234375 283.953125 82.796875 L 283.953125 84.09375 C 283.953125 84.652344 283.5 85.109375 282.9375 85.109375 Z M 282.9375 85.109375 " fill-opacity="1" fill-rule="nonzero"/><path fill="#2b5a7b" d="M 288.3125 134.777344 L 87.40625 134.777344 L 87.40625 124.226562 L 288.3125 124.226562 Z M 89.4375 132.742188 L 286.28125 132.742188 L 286.28125 126.257812 L 89.4375 126.257812 Z M 89.4375 132.742188 " fill-opacity="1" fill-rule="nonzero"/><path fill="#2b5a7b" d="M 291.246094 137.636719 L 85.082031 137.636719 L 85.082031 132.742188 L 291.246094 132.742188 Z M 87.113281 135.605469 L 289.214844 135.605469 L 289.214844 134.773438 L 87.113281 134.773438 Z M 87.113281 135.605469 " fill-opacity="1" fill-rule="nonzero"/><path fill="#2b5a7b" d="M 288.3125 142.359375 L 87.40625 142.359375 L 87.40625 135.605469 L 288.3125 135.605469 Z M 89.4375 140.328125 L 286.28125 140.328125 L 286.28125 137.636719 L 89.4375 137.636719 Z M 89.4375 140.328125 " fill-opacity="1" fill-rule="nonzero"/><path fill="#2b5a7b" d="M 149.175781 184.441406 L 87.40625 184.441406 L 87.40625 140.328125 L 149.175781 140.328125 Z M 89.4375 182.40625 L 147.144531 182.40625 L 147.144531 142.359375 L 89.4375 142.359375 Z M 89.4375 182.40625 " fill-opacity="1" fill-rule="nonzero"/><path fill="#2b5a7b" d="M 141.917969 175.855469 L 93.554688 175.855469 L 93.554688 147.734375 L 141.917969 147.734375 Z M 95.585938 173.820312 L 139.886719 173.820312 L 139.886719 149.769531 L 95.585938 149.769531 Z M 95.585938 173.820312 " fill-opacity="1" fill-rule="nonzero"/><path fill="#2b5a7b" d="M 137.898438 172.363281 L 97.574219 172.363281 L 97.574219 151.222656 L 137.898438 151.222656 Z M 99.609375 170.332031 L 135.863281 170.332031 L 135.863281 153.257812 L 99.609375 153.257812 Z M 99.609375 170.332031 " fill-opacity="1" fill-rule="nonzero"/><path fill="#2b5a7b" d="M 151.890625 187.804688 L 84.222656 187.804688 L 84.222656 182.585938 L 151.890625 182.585938 Z M 86.253906 185.769531 L 149.859375 185.769531 L 149.859375 184.621094 L 86.253906 184.621094 Z M 86.253906 185.769531 " fill-opacity="1" fill-rule="nonzero"/><path fill="#2b5a7b" d="M 149.175781 192.601562 L 87.40625 192.601562 L 87.40625 185.769531 L 149.175781 185.769531 Z M 89.4375 190.566406 L 147.144531 190.566406 L 147.144531 187.804688 L 89.4375 187.804688 Z M 89.4375 190.566406 " fill-opacity="1" fill-rule="nonzero"/><path fill="#2b5a7b" d="M 151.890625 196.035156 L 84.222656 196.035156 L 84.222656 190.566406 L 151.890625 190.566406 Z M 86.253906 194 L 149.859375 194 L 149.859375 192.601562 L 86.253906 192.601562 Z M 86.253906 194 " fill-opacity="1" fill-rule="nonzero"/><path fill="#2b5a7b" d="M 150.390625 286.847656 L 85.527344 286.847656 L 85.527344 194 L 150.390625 194 Z M 87.558594 284.816406 L 148.359375 284.816406 L 148.359375 196.035156 L 87.558594 196.035156 Z M 87.558594 284.816406 " fill-opacity="1" fill-rule="nonzero"/><path fill="#2b5a7b" d="M 150.390625 258.292969 L 85.527344 258.292969 L 85.527344 253.46875 L 150.390625 253.46875 Z M 87.558594 256.261719 L 148.359375 256.261719 L 148.359375 255.503906 L 87.558594 255.503906 Z M 87.558594 256.261719 " fill-opacity="1" fill-rule="nonzero"/><path fill="#2b5a7b" d="M 149.375 261.515625 L 86.542969 261.515625 C 85.980469 261.515625 85.527344 261.0625 85.527344 260.5 C 85.527344 259.9375 85.980469 259.484375 86.542969 259.484375 L 149.375 259.484375 C 149.9375 259.484375 150.390625 259.9375 150.390625 260.5 C 150.390625 261.0625 149.9375 261.515625 149.375 261.515625 Z M 149.375 261.515625 " fill-opacity="1" fill-rule="nonzero"/><path fill="#2b5a7b" d="M 134.15625 286.800781 L 101.628906 286.800781 L 101.628906 259.648438 L 134.15625 259.648438 Z M 103.660156 284.765625 L 132.121094 284.765625 L 132.121094 261.679688 L 103.660156 261.679688 Z M 103.660156 284.765625 " fill-opacity="1" fill-rule="nonzero"/><path fill="#2b5a7b" d="M 149.375 279.550781 L 86.542969 279.550781 C 85.980469 279.550781 85.527344 279.09375 85.527344 278.53125 C 85.527344 277.972656 85.980469 277.515625 86.542969 277.515625 L 149.375 277.515625 C 149.9375 277.515625 150.390625 277.972656 150.390625 278.53125 C 150.390625 279.09375 149.9375 279.550781 149.375 279.550781 Z M 149.375 279.550781 " fill-opacity="1" fill-rule="nonzero"/><path fill="#2b5a7b" d="M 139.023438 255.503906 L 96.949219 255.503906 L 96.949219 249.535156 L 139.023438 249.535156 Z M 98.980469 253.46875 L 136.988281 253.46875 L 136.988281 251.566406 L 98.980469 251.566406 Z M 98.980469 253.46875 " fill-opacity="1" fill-rule="nonzero"/><path fill="#2b5a7b" d="M 136.304688 251.566406 L 98.808594 251.566406 L 98.808594 246.242188 L 136.304688 246.242188 Z M 100.839844 249.535156 L 134.273438 249.535156 L 134.273438 248.277344 L 100.839844 248.277344 Z M 100.839844 249.535156 " fill-opacity="1" fill-rule="nonzero"/><path fill="#2b5a7b" d="M 136.304688 248.277344 L 98.808594 248.277344 L 98.808594 218.875 C 98.808594 208.789062 107.007812 200.585938 117.085938 200.585938 L 118.027344 200.585938 C 128.105469 200.585938 136.304688 208.789062 136.304688 218.875 Z M 100.839844 246.242188 L 134.273438 246.242188 L 134.273438 218.875 C 134.273438 209.910156 126.984375 202.617188 118.027344 202.617188 L 117.085938 202.617188 C 108.128906 202.617188 100.839844 209.910156 100.839844 218.875 Z M 100.839844 246.242188 " fill-opacity="1" fill-rule="nonzero"/><path fill="#2b5a7b" d="M 129.84375 248.277344 L 105.394531 248.277344 L 105.394531 219.320312 C 105.394531 212.738281 110.746094 207.382812 117.320312 207.382812 L 117.917969 207.382812 C 124.496094 207.382812 129.84375 212.738281 129.84375 219.320312 Z M 107.425781 246.242188 L 127.8125 246.242188 L 127.8125 219.320312 C 127.8125 213.859375 123.375 209.417969 117.917969 209.417969 L 117.320312 209.417969 C 111.863281 209.417969 107.425781 213.859375 107.425781 219.320312 Z M 107.425781 246.242188 " fill-opacity="1" fill-rule="nonzero"/><path fill="#2b5a7b" d="M 268.921875 248.277344 L 244.472656 248.277344 L 244.472656 219.320312 C 244.472656 212.738281 249.820312 207.382812 256.398438 207.382812 L 256.996094 207.382812 C 263.570312 207.382812 268.921875 212.738281 268.921875 219.320312 Z M 246.503906 246.242188 L 266.886719 246.242188 L 266.886719 219.320312 C 266.886719 213.859375 262.449219 209.417969 256.996094 209.417969 L 256.398438 209.417969 C 250.941406 209.417969 246.503906 213.859375 246.503906 219.320312 Z M 246.503906 246.242188 " fill-opacity="1" fill-rule="nonzero"/><path fill="#2b5a7b" d="M 288.3125 184.441406 L 226.542969 184.441406 L 226.542969 140.328125 L 288.3125 140.328125 Z M 228.574219 182.40625 L 286.28125 182.40625 L 286.28125 142.359375 L 228.574219 142.359375 Z M 228.574219 182.40625 " fill-opacity="1" fill-rule="nonzero"/><path fill="#2b5a7b" d="M 281.054688 175.855469 L 232.691406 175.855469 L 232.691406 147.734375 L 281.054688 147.734375 Z M 234.722656 173.820312 L 279.023438 173.820312 L 279.023438 149.769531 L 234.722656 149.769531 Z M 234.722656 173.820312 " fill-opacity="1" fill-rule="nonzero"/><path fill="#2b5a7b" d="M 277.035156 172.363281 L 236.714844 172.363281 L 236.714844 151.222656 L 277.035156 151.222656 Z M 238.746094 170.332031 L 275.003906 170.332031 L 275.003906 153.257812 L 238.746094 153.257812 Z M 238.746094 170.332031 " fill-opacity="1" fill-rule="nonzero"/><path fill="#2b5a7b" d="M 291.03125 187.804688 L 223.363281 187.804688 L 223.363281 182.585938 L 291.03125 182.585938 Z M 225.394531 185.769531 L 289 185.769531 L 289 184.621094 L 225.394531 184.621094 Z M 225.394531 185.769531 " fill-opacity="1" fill-rule="nonzero"/><path fill="#2b5a7b" d="M 288.3125 192.601562 L 226.542969 192.601562 L 226.542969 185.769531 L 288.3125 185.769531 Z M 228.574219 190.566406 L 286.28125 190.566406 L 286.28125 187.804688 L 228.574219 187.804688 Z M 228.574219 190.566406 " fill-opacity="1" fill-rule="nonzero"/><path fill="#2b5a7b" d="M 291.03125 196.035156 L 223.363281 196.035156 L 223.363281 190.566406 L 291.03125 190.566406 Z M 225.394531 194 L 289 194 L 289 192.601562 L 225.394531 192.601562 Z M 225.394531 194 " fill-opacity="1" fill-rule="nonzero"/><path fill="#2b5a7b" d="M 289.53125 286.847656 L 224.667969 286.847656 L 224.667969 194 L 289.53125 194 Z M 226.699219 284.816406 L 287.5 284.816406 L 287.5 196.035156 L 226.699219 196.035156 Z M 226.699219 284.816406 " fill-opacity="1" fill-rule="nonzero"/><path fill="#2b5a7b" d="M 289.53125 258.292969 L 224.667969 258.292969 L 224.667969 253.46875 L 289.53125 253.46875 Z M 226.699219 256.261719 L 287.5 256.261719 L 287.5 255.503906 L 226.699219 255.503906 Z M 226.699219 256.261719 " fill-opacity="1" fill-rule="nonzero"/><path fill="#2b5a7b" d="M 288.515625 261.515625 L 225.683594 261.515625 C 225.121094 261.515625 224.667969 261.0625 224.667969 260.5 C 224.667969 259.9375 225.121094 259.484375 225.683594 259.484375 L 288.515625 259.484375 C 289.074219 259.484375 289.53125 259.9375 289.53125 260.5 C 289.53125 261.0625 289.074219 261.515625 288.515625 261.515625 Z M 288.515625 261.515625 " fill-opacity="1" fill-rule="nonzero"/><path fill="#2b5a7b" d="M 273.292969 286.800781 L 240.765625 286.800781 L 240.765625 259.648438 L 273.292969 259.648438 Z M 242.800781 284.765625 L 271.261719 284.765625 L 271.261719 261.679688 L 242.800781 261.679688 Z M 242.800781 284.765625 " fill-opacity="1" fill-rule="nonzero"/><path fill="#2b5a7b" d="M 288.515625 279.550781 L 225.683594 279.550781 C 225.121094 279.550781 224.667969 279.09375 224.667969 278.53125 C 224.667969 277.972656 225.121094 277.515625 225.683594 277.515625 L 288.515625 277.515625 C 289.074219 277.515625 289.53125 277.972656 289.53125 278.53125 C 289.53125 279.09375 289.074219 279.550781 288.515625 279.550781 Z M 288.515625 279.550781 " fill-opacity="1" fill-rule="nonzero"/><path fill="#2b5a7b" d="M 278.160156 255.503906 L 236.089844 255.503906 L 236.089844 249.535156 L 278.160156 249.535156 Z M 238.121094 253.46875 L 276.128906 253.46875 L 276.128906 251.566406 L 238.121094 251.566406 Z M 238.121094 253.46875 " fill-opacity="1" fill-rule="nonzero"/><path fill="#2b5a7b" d="M 275.445312 251.566406 L 237.949219 251.566406 L 237.949219 246.242188 L 275.445312 246.242188 Z M 239.980469 249.535156 L 273.410156 249.535156 L 273.410156 248.277344 L 239.980469 248.277344 Z M 239.980469 249.535156 " fill-opacity="1" fill-rule="nonzero"/><path fill="#2b5a7b" d="M 275.445312 248.277344 L 237.949219 248.277344 L 237.949219 218.875 C 237.949219 208.789062 246.148438 200.585938 256.222656 200.585938 L 257.167969 200.585938 C 267.246094 200.585938 275.445312 208.789062 275.445312 218.875 Z M 239.980469 246.242188 L 273.410156 246.242188 L 273.410156 218.875 C 273.410156 209.910156 266.125 202.617188 257.167969 202.617188 L 256.222656 202.617188 C 247.269531 202.617188 239.980469 209.910156 239.980469 218.875 Z M 239.980469 246.242188 " fill-opacity="1" fill-rule="nonzero"/><path fill="#2b5a7b" d="M 228.574219 184.441406 L 223.363281 184.441406 L 223.355469 183.433594 C 223.246094 169.851562 209.84375 158.320312 192.179688 156.605469 C 191.621094 156.554688 191.210938 156.054688 191.265625 155.496094 C 191.320312 154.9375 191.8125 154.535156 192.375 154.582031 C 210.644531 156.355469 224.609375 168.226562 225.355469 182.40625 L 226.542969 182.40625 L 226.542969 142.359375 L 149.175781 142.359375 L 149.175781 182.40625 L 149.898438 182.40625 C 150.640625 168.253906 164.578125 156.382812 182.808594 154.589844 C 183.378906 154.542969 183.863281 154.945312 183.917969 155.5 C 183.972656 156.0625 183.566406 156.558594 183.007812 156.613281 C 165.382812 158.347656 152.007812 169.878906 151.898438 183.433594 L 151.890625 184.441406 L 147.144531 184.441406 L 147.144531 140.328125 L 228.574219 140.328125 Z M 228.574219 184.441406 " fill-opacity="1" fill-rule="nonzero"/><path fill="#2b5a7b" d="M 228.574219 184.441406 L 223.363281 184.441406 L 223.355469 183.433594 C 223.246094 169.851562 209.84375 158.320312 192.179688 156.605469 C 191.621094 156.554688 191.210938 156.054688 191.265625 155.496094 C 191.320312 154.9375 191.8125 154.535156 192.375 154.582031 C 210.644531 156.355469 224.609375 168.226562 225.355469 182.40625 L 226.542969 182.40625 L 226.542969 167.496094 C 219.1875 157.113281 206.375 150.242188 192.195312 149.101562 C 191.636719 149.054688 191.21875 148.566406 191.265625 148.003906 C 191.308594 147.445312 191.785156 147.03125 192.359375 147.074219 C 207.253906 148.273438 220.722656 155.570312 228.394531 166.59375 L 228.574219 166.855469 Z M 228.574219 184.441406 " fill-opacity="1" fill-rule="nonzero"/><path fill="#2b5a7b" d="M 151.890625 184.441406 L 147.144531 184.441406 L 147.144531 166.894531 L 147.324219 166.632812 C 154.75 155.933594 167.257812 148.867188 181.636719 147.242188 C 182.199219 147.183594 182.699219 147.582031 182.761719 148.136719 C 182.824219 148.695312 182.425781 149.199219 181.867188 149.261719 C 168.386719 150.785156 156.191406 157.605469 149.175781 167.53125 L 149.175781 182.40625 L 149.898438 182.40625 C 150.636719 168.472656 164.324219 156.632812 182.222656 154.652344 C 182.804688 154.589844 183.285156 154.992188 183.347656 155.550781 C 183.40625 156.105469 183.003906 156.609375 182.449219 156.671875 C 165.140625 158.589844 152.007812 170.09375 151.898438 183.433594 Z M 151.890625 184.441406 " fill-opacity="1" fill-rule="nonzero"/><path fill="#2b5a7b" d="M 193.292969 158.964844 L 181.890625 158.964844 L 181.890625 140.328125 L 193.292969 140.328125 Z M 183.925781 156.929688 L 191.261719 156.929688 L 191.261719 142.359375 L 183.925781 142.359375 Z M 183.925781 156.929688 " fill-opacity="1" fill-rule="nonzero"/><g clip-path="url(#id3)"><path fill="#2b5a7b" d="M 301.613281 296.222656 L 73.070312 296.222656 L 73.070312 284.765625 L 301.613281 284.765625 Z M 75.101562 294.191406 L 299.582031 294.191406 L 299.582031 286.800781 L 75.101562 286.800781 Z M 75.101562 294.191406 " fill-opacity="1" fill-rule="nonzero"/></g><path fill="#2b5a7b" d="M 149.375 283.34375 L 86.542969 283.34375 C 85.980469 283.34375 85.527344 282.886719 85.527344 282.328125 C 85.527344 281.765625 85.980469 281.308594 86.542969 281.308594 L 149.375 281.308594 C 149.9375 281.308594 150.390625 281.765625 150.390625 282.328125 C 150.390625 282.886719 149.9375 283.34375 149.375 283.34375 Z M 149.375 283.34375 " fill-opacity="1" fill-rule="nonzero"/><path fill="#2b5a7b" d="M 287.296875 283.34375 L 226.011719 283.34375 C 225.453125 283.34375 224.996094 282.886719 224.996094 282.328125 C 224.996094 281.765625 225.453125 281.308594 226.011719 281.308594 L 287.296875 281.308594 C 287.859375 281.308594 288.3125 281.765625 288.3125 282.328125 C 288.3125 282.886719 287.859375 283.34375 287.296875 283.34375 Z M 287.296875 283.34375 " fill-opacity="1" fill-rule="nonzero"/></svg>