<svg xmlns="http://www.w3.org/2000/svg" xmlns:xlink="http://www.w3.org/1999/xlink" width="500" zoomAndPan="magnify" viewBox="0 0 375 374.999991" height="500" preserveAspectRatio="xMidYMid meet" version="1.0"><defs><clipPath id="id1"><path d="M 102 74.289062 L 261 74.289062 L 261 135 L 102 135 Z M 102 74.289062 " clip-rule="nonzero"/></clipPath><clipPath id="id2"><path d="M 121 138 L 302.355469 138 L 302.355469 300.789062 L 121 300.789062 Z M 121 138 " clip-rule="nonzero"/></clipPath></defs><rect x="-37.5" width="450" fill="#ffffff" y="-37.499999" height="449.999989" fill-opacity="1"/><rect x="-37.5" width="450" fill="#ffffff" y="-37.499999" height="449.999989" fill-opacity="1"/><rect x="-37.5" width="450" fill="#ffffff" y="-37.499999" height="449.999989" fill-opacity="1"/><path fill="#c3d9e8" d="M 265.136719 0 L 375 109.863281 L 375 265.136719 L 265.136719 375 L 109.863281 375 L 0 265.136719 L 0 109.863281 L 109.863281 0 L 265.136719 0 " fill-opacity="1" fill-rule="nonzero"/><path fill="#2b5a7b" d="M 275.933594 130.957031 L 275.933594 93.238281 C 275.933594 91.152344 274.242188 89.464844 272.160156 89.464844 L 257.0625 89.464844 L 257.0625 97.007812 L 268.386719 97.007812 L 268.386719 130.957031 Z M 275.933594 130.957031 " fill-opacity="1" fill-rule="nonzero"/><path fill="#2b5a7b" d="M 102.304688 187.542969 L 102.304688 281.847656 C 102.304688 283.929688 103.992188 285.621094 106.078125 285.621094 L 257.0625 285.621094 C 259.144531 285.621094 260.835938 283.929688 260.835938 281.847656 L 260.835938 255.445312 L 253.285156 255.445312 L 253.285156 278.074219 L 109.851562 278.074219 L 109.851562 187.542969 Z M 102.304688 187.542969 " fill-opacity="1" fill-rule="nonzero"/><g clip-path="url(#id1)"><path fill="#2b5a7b" d="M 224.652344 74.753906 C 224.535156 74.699219 224.421875 74.667969 224.300781 74.628906 C 223.984375 74.519531 223.65625 74.453125 223.324219 74.433594 C 223.242188 74.417969 223.167969 74.375 223.089844 74.375 L 106.078125 74.375 C 103.992188 74.375 102.304688 76.0625 102.304688 78.148438 L 102.304688 85.691406 L 109.851562 85.691406 L 109.851562 81.917969 L 219.316406 81.917969 L 219.316406 112.097656 C 219.316406 114.179688 221.003906 115.871094 223.089844 115.871094 L 253.285156 115.871094 L 253.285156 134.730469 L 260.835938 134.730469 L 260.835938 112.097656 C 260.835938 112.019531 260.796875 111.945312 260.789062 111.863281 C 260.769531 111.53125 260.703125 111.203125 260.59375 110.886719 C 260.550781 110.765625 260.523438 110.652344 260.46875 110.535156 C 260.285156 110.125 260.03125 109.75 259.714844 109.429688 L 225.742188 75.480469 C 225.425781 75.175781 225.054688 74.929688 224.652344 74.753906 Z M 247.949219 108.324219 L 226.863281 108.324219 L 226.863281 87.253906 Z M 247.949219 108.324219 " fill-opacity="1" fill-rule="nonzero"/></g><path fill="#2b5a7b" d="M 162.695312 232.808594 L 162.695312 262.988281 C 162.695312 265.070312 164.386719 266.761719 166.472656 266.761719 L 215.542969 266.761719 L 215.542969 259.214844 L 170.246094 259.214844 L 170.246094 236.582031 L 189.121094 236.582031 L 189.121094 229.035156 L 166.472656 229.035156 C 164.386719 229.035156 162.695312 230.726562 162.695312 232.808594 Z M 162.695312 232.808594 " fill-opacity="1" fill-rule="nonzero"/><path fill="#2b5a7b" d="M 177.796875 251.671875 L 200.441406 251.671875 L 200.441406 244.125 L 177.796875 244.125 Z M 177.796875 251.671875 " fill-opacity="1" fill-rule="nonzero"/><g clip-path="url(#id2)"><path fill="#2b5a7b" d="M 275.933594 138.503906 C 261.351562 138.523438 249.53125 150.335938 249.511719 164.910156 L 249.511719 165.285156 L 230.261719 185.59375 L 218.207031 173.550781 C 216.734375 172.078125 214.347656 172.078125 212.875 173.550781 L 178.902344 207.503906 C 177.429688 208.976562 177.429688 211.363281 178.902344 212.835938 L 231.746094 265.648438 C 233.21875 267.121094 235.609375 267.121094 237.082031 265.648438 L 248.40625 254.332031 L 268.386719 234.371094 L 268.386719 293.164062 L 121.175781 293.164062 L 121.175781 300.710938 L 272.160156 300.710938 C 274.242188 300.710938 275.933594 299.019531 275.933594 296.9375 L 275.933594 206.40625 L 268.386719 206.40625 L 268.386719 223.703125 L 255.226562 210.554688 L 275.554688 191.316406 L 275.933594 191.316406 C 290.527344 191.316406 302.355469 179.492188 302.355469 164.910156 C 302.355469 150.324219 290.527344 138.503906 275.933594 138.503906 Z M 234.414062 257.652344 L 186.90625 210.175781 L 192.894531 204.195312 L 240.398438 251.671875 Z M 263.046875 229.035156 L 245.738281 246.335938 L 198.230469 198.859375 L 215.542969 181.558594 L 225.066406 191.082031 L 216.574219 200.035156 C 215.15625 201.523438 215.191406 203.871094 216.644531 205.316406 L 235.519531 224.175781 C 236.964844 225.621094 239.296875 225.652344 240.78125 224.25 L 249.746094 215.761719 Z M 275.933594 183.769531 L 274.046875 183.769531 C 273.078125 183.769531 272.152344 184.140625 271.449219 184.804688 L 238.261719 216.210938 L 224.597656 202.558594 L 256.042969 169.390625 C 256.703125 168.6875 257.066406 167.757812 257.0625 166.792969 L 257.0625 164.910156 C 257.0625 154.492188 265.511719 146.046875 275.933594 146.046875 C 286.355469 146.046875 294.804688 154.492188 294.804688 164.910156 C 294.804688 175.324219 286.355469 183.769531 275.933594 183.769531 Z M 275.933594 183.769531 " fill-opacity="1" fill-rule="nonzero"/></g><path fill="#2b5a7b" d="M 147.601562 191.316406 L 185.34375 191.316406 L 185.34375 183.769531 L 147.601562 183.769531 Z M 147.601562 191.316406 " fill-opacity="1" fill-rule="nonzero"/><path fill="#2b5a7b" d="M 124.953125 206.40625 L 170.246094 206.40625 L 170.246094 198.859375 L 124.953125 198.859375 Z M 124.953125 206.40625 " fill-opacity="1" fill-rule="nonzero"/><path fill="#2b5a7b" d="M 158.921875 176.226562 L 204.21875 176.226562 L 204.21875 168.679688 L 158.921875 168.679688 Z M 158.921875 176.226562 " fill-opacity="1" fill-rule="nonzero"/><path fill="#2b5a7b" d="M 124.953125 221.492188 L 147.601562 221.492188 L 147.601562 213.949219 L 124.953125 213.949219 Z M 124.953125 221.492188 " fill-opacity="1" fill-rule="nonzero"/><path fill="#2b5a7b" d="M 124.953125 236.582031 L 155.148438 236.582031 L 155.148438 229.035156 L 124.953125 229.035156 Z M 124.953125 236.582031 " fill-opacity="1" fill-rule="nonzero"/><path fill="#2b5a7b" d="M 124.953125 251.671875 L 155.148438 251.671875 L 155.148438 244.125 L 124.953125 244.125 Z M 124.953125 251.671875 " fill-opacity="1" fill-rule="nonzero"/><path fill="#2b5a7b" d="M 124.953125 266.761719 L 155.148438 266.761719 L 155.148438 259.214844 L 124.953125 259.214844 Z M 124.953125 266.761719 " fill-opacity="1" fill-rule="nonzero"/><path fill="#2b5a7b" d="M 124.953125 191.316406 L 140.050781 191.316406 L 140.050781 183.769531 L 124.953125 183.769531 Z M 124.953125 191.316406 " fill-opacity="1" fill-rule="nonzero"/><path fill="#2b5a7b" d="M 155.148438 221.492188 L 170.246094 221.492188 L 170.246094 213.949219 L 155.148438 213.949219 Z M 155.148438 221.492188 " fill-opacity="1" fill-rule="nonzero"/><path fill="#2b5a7b" d="M 170.246094 157.367188 L 207.992188 157.367188 L 207.992188 149.820312 L 170.246094 149.820312 Z M 170.246094 157.367188 " fill-opacity="1" fill-rule="nonzero"/><path fill="#2b5a7b" d="M 121.175781 179.996094 C 145.554688 179.96875 165.539062 160.664062 166.390625 136.316406 C 168.429688 138.019531 171.0625 138.84375 173.710938 138.601562 C 175.65625 140.929688 178.535156 142.277344 181.570312 142.277344 C 184.605469 142.277344 187.484375 140.929688 189.429688 138.601562 C 192.453125 138.871094 195.4375 137.789062 197.582031 135.644531 C 199.726562 133.5 200.8125 130.515625 200.539062 127.496094 C 202.871094 125.550781 204.21875 122.675781 204.21875 119.640625 C 204.21875 116.609375 202.871094 113.730469 200.539062 111.789062 C 200.8125 108.765625 199.726562 105.78125 197.582031 103.636719 C 195.4375 101.496094 192.453125 100.414062 189.429688 100.683594 C 187.484375 98.355469 184.605469 97.007812 181.570312 97.007812 C 178.535156 97.007812 175.65625 98.355469 173.710938 100.683594 C 170.6875 100.414062 167.703125 101.496094 165.558594 103.636719 C 163.410156 105.78125 162.328125 108.765625 162.597656 111.789062 C 162.039062 112.246094 161.535156 112.769531 161.089844 113.34375 C 150.617188 93.824219 127.550781 84.742188 106.574219 91.878906 C 85.59375 99.019531 72.863281 120.277344 76.484375 142.128906 C 80.105469 163.976562 99.015625 180 121.175781 179.996094 Z M 168.230469 117.152344 C 169.234375 116.792969 170.042969 116.027344 170.453125 115.042969 C 170.859375 114.058594 170.832031 112.945312 170.375 111.980469 C 169.882812 110.96875 170.089844 109.757812 170.882812 108.960938 C 171.679688 108.167969 172.890625 107.964844 173.90625 108.453125 C 174.867188 108.910156 175.980469 108.9375 176.96875 108.53125 C 177.953125 108.121094 178.71875 107.316406 179.078125 106.308594 C 179.453125 105.253906 180.449219 104.546875 181.570312 104.546875 C 182.691406 104.546875 183.6875 105.253906 184.0625 106.308594 C 184.417969 107.316406 185.1875 108.121094 186.171875 108.53125 C 187.160156 108.9375 188.273438 108.910156 189.238281 108.453125 C 190.25 107.964844 191.460938 108.167969 192.257812 108.960938 C 193.050781 109.757812 193.253906 110.96875 192.765625 111.980469 C 192.308594 112.945312 192.28125 114.058594 192.6875 115.042969 C 193.097656 116.027344 193.902344 116.792969 194.910156 117.152344 C 195.964844 117.523438 196.671875 118.523438 196.671875 119.640625 C 196.671875 120.761719 195.964844 121.757812 194.910156 122.132812 C 193.902344 122.488281 193.097656 123.253906 192.6875 124.242188 C 192.28125 125.226562 192.308594 126.339844 192.765625 127.304688 C 193.285156 128.3125 193.074219 129.542969 192.246094 130.320312 C 191.464844 131.144531 190.234375 131.351562 189.222656 130.84375 C 188.261719 130.382812 187.148438 130.355469 186.160156 130.765625 C 185.175781 131.171875 184.410156 131.980469 184.050781 132.984375 C 183.675781 134.039062 182.675781 134.746094 181.558594 134.746094 C 180.4375 134.746094 179.441406 134.039062 179.066406 132.984375 C 178.710938 131.976562 177.941406 131.171875 176.953125 130.761719 C 176.492188 130.574219 176.003906 130.476562 175.507812 130.476562 C 174.949219 130.476562 174.394531 130.605469 173.890625 130.855469 C 172.878906 131.34375 171.667969 131.136719 170.871094 130.34375 C 170.078125 129.546875 169.875 128.335938 170.363281 127.328125 C 170.820312 126.363281 170.847656 125.25 170.441406 124.265625 C 170.03125 123.277344 169.226562 122.511719 168.21875 122.152344 C 167.164062 121.78125 166.457031 120.785156 166.457031 119.664062 C 166.457031 118.546875 167.164062 117.546875 168.21875 117.175781 Z M 121.175781 97.007812 C 142.023438 97.007812 158.921875 113.894531 158.921875 134.730469 C 158.921875 155.566406 142.023438 172.453125 121.175781 172.453125 C 100.332031 172.453125 83.433594 155.566406 83.433594 134.730469 C 83.453125 113.90625 100.339844 97.03125 121.175781 97.007812 Z M 121.175781 97.007812 " fill-opacity="1" fill-rule="nonzero"/><path fill="#2b5a7b" d="M 103.410156 156.261719 C 104.882812 157.730469 107.273438 157.730469 108.746094 156.261719 L 146.492188 118.535156 L 141.15625 113.203125 L 106.078125 148.257812 L 97.425781 139.609375 L 92.085938 144.941406 Z M 103.410156 156.261719 " fill-opacity="1" fill-rule="nonzero"/></svg>