<svg xmlns="http://www.w3.org/2000/svg" xmlns:xlink="http://www.w3.org/1999/xlink" width="500" zoomAndPan="magnify" viewBox="0 0 375 374.999991" height="500" preserveAspectRatio="xMidYMid meet" version="1.0"><defs><clipPath id="id1"><path d="M 63.871094 148 L 235 148 L 235 311.371094 L 63.871094 311.371094 Z M 63.871094 148 " clip-rule="nonzero"/></clipPath><clipPath id="id2"><path d="M 226 63.871094 L 311.371094 63.871094 L 311.371094 311.371094 L 226 311.371094 Z M 226 63.871094 " clip-rule="nonzero"/></clipPath><clipPath id="id3"><path d="M 210 116 L 273 116 L 273 311.371094 L 210 311.371094 Z M 210 116 " clip-rule="nonzero"/></clipPath></defs><rect x="-37.5" width="450" fill="#ffffff" y="-37.499999" height="449.999989" fill-opacity="1"/><rect x="-37.5" width="450" fill="#ffffff" y="-37.499999" height="449.999989" fill-opacity="1"/><rect x="-37.5" width="450" fill="#ffffff" y="-37.499999" height="449.999989" fill-opacity="1"/><path fill="#c3d9e8" d="M 265.136719 0 L 375 109.863281 L 375 265.136719 L 265.136719 375 L 109.863281 375 L 0 265.136719 L 0 109.863281 L 109.863281 0 L 265.136719 0 " fill-opacity="1" fill-rule="nonzero"/><g clip-path="url(#id1)"><path fill="#2b5a7b" d="M 63.871094 307.503906 C 63.871094 309.632812 65.613281 311.371094 67.738281 311.371094 L 203.863281 311.371094 C 203.476562 310.210938 203.089844 308.859375 203.089844 307.503906 L 203.089844 303.636719 L 167.898438 303.636719 C 170.414062 300.351562 172.152344 296.289062 172.152344 292.035156 C 172.152344 281.402344 162.871094 272.699219 151.464844 272.699219 L 148.949219 272.699219 L 148.949219 263.03125 L 166.933594 263.03125 C 169.832031 263.03125 172.152344 260.710938 172.152344 257.8125 L 172.152344 222.039062 C 172.152344 219.140625 170.027344 215.660156 167.511719 214.5 L 166.351562 213.917969 L 185.6875 175.828125 C 186.269531 175.828125 186.65625 176.019531 187.234375 176.019531 L 200.769531 224.746094 C 198.449219 225.90625 196.128906 227.453125 194.195312 229.582031 C 189.941406 234.027344 187.621094 240.023438 187.816406 246.210938 C 188.007812 252.398438 190.523438 258.199219 194.96875 262.453125 C 199.417969 266.707031 205.023438 268.832031 211.019531 268.832031 C 211.210938 268.832031 211.40625 268.832031 211.597656 268.832031 C 217.785156 268.640625 223.585938 266.125 227.839844 261.679688 C 232.09375 257.230469 234.414062 251.238281 234.222656 245.050781 C 234.027344 238.863281 231.515625 233.0625 227.066406 228.808594 C 222.425781 224.554688 216.433594 222.425781 210.246094 222.425781 C 209.472656 222.425781 208.699219 222.425781 207.925781 222.621094 L 194.582031 174.085938 C 198.449219 171.765625 201.15625 167.320312 201.15625 162.484375 C 201.15625 154.945312 195.164062 148.949219 187.621094 148.949219 C 180.082031 148.949219 174.085938 154.945312 174.085938 162.484375 C 174.085938 163.644531 174.28125 164.804688 174.472656 165.773438 L 142.570312 201.351562 L 132.128906 195.9375 C 131.546875 195.550781 130.773438 195.355469 130 195.355469 C 127.875 195.355469 125.746094 196.515625 125.746094 198.644531 L 125.746094 206.957031 L 92.101562 206.957031 C 87.269531 206.957031 83.207031 210.824219 83.207031 215.464844 L 83.207031 230.160156 L 69.09375 230.160156 C 66.191406 230.160156 63.871094 232.480469 63.871094 235.382812 L 63.871094 257.8125 C 63.871094 260.710938 66.191406 263.03125 69.09375 263.03125 L 125.746094 263.03125 L 125.746094 272.699219 L 84.5625 272.699219 C 73.152344 272.699219 63.871094 281.402344 63.871094 292.035156 C 63.871094 296.484375 65.417969 300.351562 68.125 303.636719 L 67.738281 303.636719 C 65.613281 303.636719 63.871094 305.378906 63.871094 307.503906 Z M 133.480469 295.902344 C 131.355469 295.902344 129.613281 294.164062 129.613281 292.035156 C 129.613281 289.910156 131.355469 288.167969 133.480469 288.167969 C 135.609375 288.167969 137.347656 289.910156 137.347656 292.035156 C 137.347656 294.164062 135.609375 295.902344 133.480469 295.902344 Z M 141.214844 272.699219 L 133.480469 272.699219 L 133.480469 263.03125 L 141.214844 263.03125 Z M 152.816406 292.035156 C 152.816406 294.164062 151.078125 295.902344 148.949219 295.902344 C 146.824219 295.902344 145.082031 294.164062 145.082031 292.035156 C 145.082031 289.910156 146.824219 288.167969 148.949219 288.167969 C 151.078125 288.167969 152.816406 289.910156 152.816406 292.035156 Z M 178.535156 172.925781 L 159.777344 210.246094 L 149.722656 205.023438 Z M 71.605469 255.296875 L 71.605469 237.894531 L 133.480469 237.894531 L 133.480469 205.21875 L 163.839844 221.074219 C 164.03125 221.265625 164.417969 221.847656 164.417969 222.039062 L 164.417969 255.296875 Z M 118.011719 288.167969 C 120.140625 288.167969 121.878906 289.910156 121.878906 292.035156 C 121.878906 294.164062 120.140625 295.902344 118.011719 295.902344 C 115.886719 295.902344 114.144531 294.164062 114.144531 292.035156 C 114.144531 289.910156 115.886719 288.167969 118.011719 288.167969 Z M 102.542969 288.167969 C 104.671875 288.167969 106.410156 289.910156 106.410156 292.035156 C 106.410156 294.164062 104.671875 295.902344 102.542969 295.902344 C 100.417969 295.902344 98.675781 294.164062 98.675781 292.035156 C 98.675781 289.910156 100.417969 288.167969 102.542969 288.167969 Z M 87.074219 288.167969 C 89.203125 288.167969 90.941406 289.910156 90.941406 292.035156 C 90.941406 294.164062 89.203125 295.902344 87.074219 295.902344 C 84.949219 295.902344 83.207031 294.164062 83.207031 292.035156 C 83.207031 289.910156 84.949219 288.167969 87.074219 288.167969 Z M 87.074219 288.167969 " fill-opacity="1" fill-rule="nonzero"/></g><path fill="#2b5a7b" d="M 230.160156 139.28125 L 234.027344 139.28125 C 236.15625 139.28125 237.894531 137.542969 237.894531 135.414062 C 237.894531 133.289062 236.15625 131.546875 234.027344 131.546875 L 230.160156 131.546875 C 228.035156 131.546875 226.292969 133.289062 226.292969 135.414062 C 226.292969 137.542969 228.035156 139.28125 230.160156 139.28125 Z M 230.160156 139.28125 " fill-opacity="1" fill-rule="nonzero"/><path fill="#2b5a7b" d="M 249.496094 139.28125 L 253.363281 139.28125 C 255.492188 139.28125 257.230469 137.542969 257.230469 135.414062 C 257.230469 133.289062 255.492188 131.546875 253.363281 131.546875 L 249.496094 131.546875 C 247.371094 131.546875 245.628906 133.289062 245.628906 135.414062 C 245.628906 137.542969 247.371094 139.28125 249.496094 139.28125 Z M 249.496094 139.28125 " fill-opacity="1" fill-rule="nonzero"/><path fill="#2b5a7b" d="M 230.160156 154.75 L 234.027344 154.75 C 236.15625 154.75 237.894531 153.011719 237.894531 150.882812 C 237.894531 148.757812 236.15625 147.015625 234.027344 147.015625 L 230.160156 147.015625 C 228.035156 147.015625 226.292969 148.757812 226.292969 150.882812 C 226.292969 153.011719 228.035156 154.75 230.160156 154.75 Z M 230.160156 154.75 " fill-opacity="1" fill-rule="nonzero"/><path fill="#2b5a7b" d="M 249.496094 154.75 L 253.363281 154.75 C 255.492188 154.75 257.230469 153.011719 257.230469 150.882812 C 257.230469 148.757812 255.492188 147.015625 253.363281 147.015625 L 249.496094 147.015625 C 247.371094 147.015625 245.628906 148.757812 245.628906 150.882812 C 245.628906 153.011719 247.371094 154.75 249.496094 154.75 Z M 249.496094 154.75 " fill-opacity="1" fill-rule="nonzero"/><path fill="#2b5a7b" d="M 230.160156 170.21875 L 234.027344 170.21875 C 236.15625 170.21875 237.894531 168.480469 237.894531 166.351562 C 237.894531 164.226562 236.15625 162.484375 234.027344 162.484375 L 230.160156 162.484375 C 228.035156 162.484375 226.292969 164.226562 226.292969 166.351562 C 226.292969 168.480469 228.035156 170.21875 230.160156 170.21875 Z M 230.160156 170.21875 " fill-opacity="1" fill-rule="nonzero"/><path fill="#2b5a7b" d="M 249.496094 170.21875 L 253.363281 170.21875 C 255.492188 170.21875 257.230469 168.480469 257.230469 166.351562 C 257.230469 164.226562 255.492188 162.484375 253.363281 162.484375 L 249.496094 162.484375 C 247.371094 162.484375 245.628906 164.226562 245.628906 166.351562 C 245.628906 168.480469 247.371094 170.21875 249.496094 170.21875 Z M 249.496094 170.21875 " fill-opacity="1" fill-rule="nonzero"/><path fill="#2b5a7b" d="M 230.160156 185.6875 L 234.027344 185.6875 C 236.15625 185.6875 237.894531 183.949219 237.894531 181.820312 C 237.894531 179.695312 236.15625 177.953125 234.027344 177.953125 L 230.160156 177.953125 C 228.035156 177.953125 226.292969 179.695312 226.292969 181.820312 C 226.292969 183.949219 228.035156 185.6875 230.160156 185.6875 Z M 230.160156 185.6875 " fill-opacity="1" fill-rule="nonzero"/><path fill="#2b5a7b" d="M 249.496094 185.6875 L 253.363281 185.6875 C 255.492188 185.6875 257.230469 183.949219 257.230469 181.820312 C 257.230469 179.695312 255.492188 177.953125 253.363281 177.953125 L 249.496094 177.953125 C 247.371094 177.953125 245.628906 179.695312 245.628906 181.820312 C 245.628906 183.949219 247.371094 185.6875 249.496094 185.6875 Z M 249.496094 185.6875 " fill-opacity="1" fill-rule="nonzero"/><path fill="#2b5a7b" d="M 230.160156 201.15625 L 234.027344 201.15625 C 236.15625 201.15625 237.894531 199.417969 237.894531 197.289062 C 237.894531 195.164062 236.15625 193.421875 234.027344 193.421875 L 230.160156 193.421875 C 228.035156 193.421875 226.292969 195.164062 226.292969 197.289062 C 226.292969 199.417969 228.035156 201.15625 230.160156 201.15625 Z M 230.160156 201.15625 " fill-opacity="1" fill-rule="nonzero"/><path fill="#2b5a7b" d="M 249.496094 201.15625 L 253.363281 201.15625 C 255.492188 201.15625 257.230469 199.417969 257.230469 197.289062 C 257.230469 195.164062 255.492188 193.421875 253.363281 193.421875 L 249.496094 193.421875 C 247.371094 193.421875 245.628906 195.164062 245.628906 197.289062 C 245.628906 199.417969 247.371094 201.15625 249.496094 201.15625 Z M 249.496094 201.15625 " fill-opacity="1" fill-rule="nonzero"/><path fill="#2b5a7b" d="M 230.160156 216.625 L 234.027344 216.625 C 236.15625 216.625 237.894531 214.886719 237.894531 212.757812 C 237.894531 210.632812 236.15625 208.890625 234.027344 208.890625 L 230.160156 208.890625 C 228.035156 208.890625 226.292969 210.632812 226.292969 212.757812 C 226.292969 214.886719 228.035156 216.625 230.160156 216.625 Z M 230.160156 216.625 " fill-opacity="1" fill-rule="nonzero"/><path fill="#2b5a7b" d="M 249.496094 216.625 L 253.363281 216.625 C 255.492188 216.625 257.230469 214.886719 257.230469 212.757812 C 257.230469 210.632812 255.492188 208.890625 253.363281 208.890625 L 249.496094 208.890625 C 247.371094 208.890625 245.628906 210.632812 245.628906 212.757812 C 245.628906 214.886719 247.371094 216.625 249.496094 216.625 Z M 249.496094 216.625 " fill-opacity="1" fill-rule="nonzero"/><path fill="#2b5a7b" d="M 249.496094 232.09375 L 253.363281 232.09375 C 255.492188 232.09375 257.230469 230.355469 257.230469 228.226562 C 257.230469 226.101562 255.492188 224.359375 253.363281 224.359375 L 249.496094 224.359375 C 247.371094 224.359375 245.628906 226.101562 245.628906 228.226562 C 245.628906 230.355469 247.371094 232.09375 249.496094 232.09375 Z M 249.496094 232.09375 " fill-opacity="1" fill-rule="nonzero"/><path fill="#2b5a7b" d="M 249.496094 247.5625 L 253.363281 247.5625 C 255.492188 247.5625 257.230469 245.824219 257.230469 243.695312 C 257.230469 241.570312 255.492188 239.828125 253.363281 239.828125 L 249.496094 239.828125 C 247.371094 239.828125 245.628906 241.570312 245.628906 243.695312 C 245.628906 245.824219 247.371094 247.5625 249.496094 247.5625 Z M 249.496094 247.5625 " fill-opacity="1" fill-rule="nonzero"/><path fill="#2b5a7b" d="M 249.496094 263.03125 L 253.363281 263.03125 C 255.492188 263.03125 257.230469 261.292969 257.230469 259.164062 C 257.230469 257.039062 255.492188 255.296875 253.363281 255.296875 L 249.496094 255.296875 C 247.371094 255.296875 245.628906 257.039062 245.628906 259.164062 C 245.628906 261.292969 247.371094 263.03125 249.496094 263.03125 Z M 249.496094 263.03125 " fill-opacity="1" fill-rule="nonzero"/><path fill="#2b5a7b" d="M 226.292969 274.632812 C 226.292969 276.761719 228.035156 278.5 230.160156 278.5 L 234.027344 278.5 C 236.15625 278.5 237.894531 276.761719 237.894531 274.632812 C 237.894531 272.507812 236.15625 270.765625 234.027344 270.765625 L 230.160156 270.765625 C 228.035156 270.765625 226.292969 272.507812 226.292969 274.632812 Z M 226.292969 274.632812 " fill-opacity="1" fill-rule="nonzero"/><path fill="#2b5a7b" d="M 249.496094 278.5 L 253.363281 278.5 C 255.492188 278.5 257.230469 276.761719 257.230469 274.632812 C 257.230469 272.507812 255.492188 270.765625 253.363281 270.765625 L 249.496094 270.765625 C 247.371094 270.765625 245.628906 272.507812 245.628906 274.632812 C 245.628906 276.761719 247.371094 278.5 249.496094 278.5 Z M 249.496094 278.5 " fill-opacity="1" fill-rule="nonzero"/><path fill="#2b5a7b" d="M 230.160156 293.96875 L 234.027344 293.96875 C 236.15625 293.96875 237.894531 292.230469 237.894531 290.101562 C 237.894531 287.976562 236.15625 286.234375 234.027344 286.234375 L 230.160156 286.234375 C 228.035156 286.234375 226.292969 287.976562 226.292969 290.101562 C 226.292969 292.230469 228.035156 293.96875 230.160156 293.96875 Z M 230.160156 293.96875 " fill-opacity="1" fill-rule="nonzero"/><path fill="#2b5a7b" d="M 249.496094 293.96875 L 253.363281 293.96875 C 255.492188 293.96875 257.230469 292.230469 257.230469 290.101562 C 257.230469 287.976562 255.492188 286.234375 253.363281 286.234375 L 249.496094 286.234375 C 247.371094 286.234375 245.628906 287.976562 245.628906 290.101562 C 245.628906 292.230469 247.371094 293.96875 249.496094 293.96875 Z M 249.496094 293.96875 " fill-opacity="1" fill-rule="nonzero"/><path fill="#2b5a7b" d="M 148.949219 226.292969 C 146.824219 226.292969 145.082031 228.035156 145.082031 230.160156 L 145.082031 234.027344 C 145.082031 236.15625 146.824219 237.894531 148.949219 237.894531 C 151.078125 237.894531 152.816406 236.15625 152.816406 234.027344 L 152.816406 230.160156 C 152.816406 228.035156 151.078125 226.292969 148.949219 226.292969 Z M 148.949219 226.292969 " fill-opacity="1" fill-rule="nonzero"/><path fill="#2b5a7b" d="M 182.015625 266.125 L 176.214844 271.925781 C 174.667969 273.472656 174.667969 275.792969 176.214844 277.339844 C 176.988281 278.113281 177.953125 278.5 178.921875 278.5 C 179.886719 278.5 180.855469 278.113281 181.628906 277.339844 L 187.429688 271.539062 C 188.976562 269.992188 188.976562 267.671875 187.429688 266.125 C 185.882812 264.578125 183.5625 264.578125 182.015625 266.125 Z M 182.015625 266.125 " fill-opacity="1" fill-rule="nonzero"/><path fill="#2b5a7b" d="M 193.808594 274.828125 L 189.941406 282.5625 C 188.976562 284.496094 189.75 286.816406 191.683594 287.78125 C 192.261719 287.976562 192.84375 288.167969 193.421875 288.167969 C 194.777344 288.167969 196.128906 287.394531 196.902344 286.042969 L 200.769531 278.308594 C 201.738281 276.375 200.964844 274.054688 199.03125 273.085938 C 197.097656 272.121094 194.777344 272.894531 193.808594 274.828125 Z M 193.808594 274.828125 " fill-opacity="1" fill-rule="nonzero"/><path fill="#2b5a7b" d="M 185.300781 106.410156 C 186.074219 107.570312 187.234375 108.152344 188.589844 108.152344 C 189.363281 108.152344 190.136719 107.957031 190.714844 107.570312 L 199.609375 101.769531 C 200.769531 100.996094 201.351562 99.835938 201.351562 98.484375 C 201.351562 97.128906 200.769531 95.96875 199.609375 95.195312 L 190.714844 89.394531 C 188.976562 88.234375 186.460938 88.816406 185.300781 90.554688 C 184.140625 92.296875 184.722656 94.808594 186.460938 95.96875 L 190.328125 98.484375 L 186.460938 100.996094 C 184.527344 102.351562 184.140625 104.671875 185.300781 106.410156 Z M 185.300781 106.410156 " fill-opacity="1" fill-rule="nonzero"/><path fill="#2b5a7b" d="M 89.007812 180.855469 C 86.882812 180.855469 85.140625 182.59375 85.140625 184.722656 L 85.140625 185.6875 C 85.140625 187.816406 86.882812 189.554688 89.007812 189.554688 C 91.136719 189.554688 92.875 187.816406 92.875 185.6875 L 92.875 184.722656 C 92.875 182.59375 91.136719 180.855469 89.007812 180.855469 Z M 89.007812 180.855469 " fill-opacity="1" fill-rule="nonzero"/><path fill="#2b5a7b" d="M 106.21875 133.480469 C 106.992188 134.0625 107.765625 134.449219 108.730469 134.449219 C 109.890625 134.449219 111.050781 133.867188 111.824219 133.09375 C 112.210938 132.707031 112.597656 132.128906 112.984375 131.742188 C 114.339844 130.195312 114.144531 127.679688 112.597656 126.328125 C 111.050781 124.972656 108.539062 125.167969 107.183594 126.714844 C 106.796875 127.292969 106.410156 127.679688 105.832031 128.261719 C 104.285156 129.808594 104.476562 132.128906 106.21875 133.480469 Z M 106.21875 133.480469 " fill-opacity="1" fill-rule="nonzero"/><path fill="#2b5a7b" d="M 118.207031 115.5 C 117.625 115.886719 117.238281 116.273438 116.660156 116.851562 C 115.113281 118.207031 114.917969 120.71875 116.273438 122.265625 C 117.046875 123.234375 118.207031 123.621094 119.171875 123.621094 C 120.140625 123.621094 120.914062 123.234375 121.6875 122.652344 C 122.074219 122.265625 122.652344 121.878906 123.039062 121.492188 C 124.78125 120.140625 124.972656 117.625 123.621094 116.078125 C 122.265625 114.339844 119.753906 114.144531 118.207031 115.5 Z M 118.207031 115.5 " fill-opacity="1" fill-rule="nonzero"/><path fill="#2b5a7b" d="M 131.160156 106.410156 C 130.582031 106.796875 130 106.992188 129.421875 107.378906 C 127.679688 108.539062 126.90625 110.859375 128.066406 112.597656 C 128.839844 113.757812 130 114.53125 131.355469 114.53125 C 131.933594 114.53125 132.707031 114.339844 133.289062 113.953125 C 133.867188 113.566406 134.253906 113.371094 134.835938 112.984375 C 136.769531 112.019531 137.347656 109.503906 136.382812 107.765625 C 135.414062 106.023438 133.09375 105.445312 131.160156 106.410156 Z M 131.160156 106.410156 " fill-opacity="1" fill-rule="nonzero"/><path fill="#2b5a7b" d="M 145.46875 99.835938 C 144.890625 100.03125 144.308594 100.222656 143.535156 100.609375 C 141.601562 101.382812 140.441406 103.511719 141.214844 105.636719 C 141.796875 107.183594 143.34375 108.152344 144.890625 108.152344 C 145.277344 108.152344 145.855469 108.152344 146.242188 107.957031 C 146.824219 107.765625 147.402344 107.570312 147.984375 107.378906 C 149.917969 106.605469 151.078125 104.476562 150.304688 102.351562 C 149.722656 100.222656 147.597656 99.257812 145.46875 99.835938 Z M 145.46875 99.835938 " fill-opacity="1" fill-rule="nonzero"/><path fill="#2b5a7b" d="M 160.9375 95.96875 C 160.359375 96.164062 159.585938 96.164062 159.003906 96.355469 C 156.878906 96.742188 155.523438 98.871094 155.910156 100.804688 C 156.296875 102.738281 157.84375 103.898438 159.777344 103.898438 C 159.972656 103.898438 160.164062 103.898438 160.550781 103.898438 C 161.132812 103.703125 161.710938 103.703125 162.292969 103.511719 C 164.417969 103.125 165.773438 101.191406 165.386719 99.0625 C 165 97.128906 162.871094 95.582031 160.9375 95.96875 Z M 160.9375 95.96875 " fill-opacity="1" fill-rule="nonzero"/><path fill="#2b5a7b" d="M 94.230469 170.414062 C 94.617188 168.285156 93.261719 166.351562 91.136719 165.964844 C 89.007812 165.578125 87.074219 166.933594 86.6875 169.058594 C 86.496094 169.640625 86.496094 170.414062 86.300781 170.992188 C 85.914062 173.121094 87.460938 175.054688 89.589844 175.441406 C 89.78125 175.441406 89.976562 175.441406 90.167969 175.441406 C 92.101562 175.441406 93.648438 174.085938 94.035156 172.152344 C 94.035156 171.574219 94.230469 170.992188 94.230469 170.414062 Z M 94.230469 170.414062 " fill-opacity="1" fill-rule="nonzero"/><path fill="#2b5a7b" d="M 103.511719 144.890625 C 103.898438 144.308594 104.089844 143.921875 104.476562 143.34375 C 105.636719 141.410156 104.863281 139.089844 103.125 138.121094 C 101.191406 136.960938 98.871094 137.734375 97.902344 139.476562 C 97.515625 140.054688 97.324219 140.636719 96.9375 141.214844 C 95.96875 143.148438 96.550781 145.46875 98.484375 146.4375 C 99.0625 146.824219 99.644531 147.015625 100.417969 147.015625 C 101.382812 146.824219 102.738281 146.242188 103.511719 144.890625 Z M 103.511719 144.890625 " fill-opacity="1" fill-rule="nonzero"/><path fill="#2b5a7b" d="M 97.515625 158.039062 C 97.710938 157.457031 97.902344 156.878906 98.097656 156.296875 C 98.871094 154.363281 97.902344 152.042969 95.777344 151.269531 C 93.84375 150.496094 91.523438 151.464844 90.75 153.589844 C 90.554688 154.171875 90.363281 154.75 90.167969 155.523438 C 89.394531 157.457031 90.554688 159.777344 92.488281 160.359375 C 92.875 160.550781 93.261719 160.550781 93.84375 160.550781 C 95.390625 160.746094 96.9375 159.777344 97.515625 158.039062 Z M 97.515625 158.039062 " fill-opacity="1" fill-rule="nonzero"/><path fill="#2b5a7b" d="M 175.632812 94.808594 L 174.667969 94.808594 C 172.539062 94.808594 170.800781 96.550781 170.800781 98.675781 C 170.800781 100.804688 172.539062 102.542969 174.667969 102.542969 L 175.632812 102.542969 C 177.761719 102.542969 179.5 100.804688 179.5 98.675781 C 179.5 96.550781 177.761719 94.808594 175.632812 94.808594 Z M 175.632812 94.808594 " fill-opacity="1" fill-rule="nonzero"/><path fill="#2b5a7b" d="M 237.894531 228.226562 C 237.894531 226.101562 236.15625 224.359375 234.027344 224.359375 L 233.253906 224.359375 C 234.800781 226.101562 236.347656 228.035156 237.507812 229.96875 C 237.703125 229.386719 237.894531 228.808594 237.894531 228.226562 Z M 237.894531 228.226562 " fill-opacity="1" fill-rule="nonzero"/><g clip-path="url(#id2)"><path fill="#2b5a7b" d="M 299.769531 63.871094 L 261.097656 63.871094 C 254.71875 63.871094 249.496094 69.09375 249.496094 75.472656 L 249.496094 89.007812 L 237.894531 89.007812 C 231.515625 89.007812 226.292969 94.230469 226.292969 100.609375 L 226.292969 108.34375 L 234.027344 108.34375 L 234.027344 100.609375 C 234.027344 98.484375 235.769531 96.742188 237.894531 96.742188 L 249.496094 96.742188 L 249.496094 108.34375 L 261.097656 108.34375 C 264.191406 108.34375 266.898438 109.117188 269.414062 110.277344 L 272.699219 110.277344 C 274.828125 110.277344 276.566406 112.019531 276.566406 114.144531 C 276.566406 114.726562 276.375 115.113281 276.179688 115.691406 C 278.886719 118.980469 280.433594 123.234375 280.433594 127.679688 L 280.433594 307.503906 C 280.433594 308.859375 280.242188 310.210938 279.660156 311.371094 L 307.503906 311.371094 C 309.632812 311.371094 311.371094 309.632812 311.371094 307.503906 L 311.371094 75.472656 C 311.371094 69.09375 306.152344 63.871094 299.769531 63.871094 Z M 272.699219 102.542969 L 268.832031 102.542969 C 266.707031 102.542969 264.964844 100.804688 264.964844 98.675781 C 264.964844 96.550781 266.707031 94.808594 268.832031 94.808594 L 272.699219 94.808594 C 274.828125 94.808594 276.566406 96.550781 276.566406 98.675781 C 276.566406 100.804688 274.828125 102.542969 272.699219 102.542969 Z M 272.699219 87.074219 L 268.832031 87.074219 C 266.707031 87.074219 264.964844 85.335938 264.964844 83.207031 C 264.964844 81.082031 266.707031 79.339844 268.832031 79.339844 L 272.699219 79.339844 C 274.828125 79.339844 276.566406 81.082031 276.566406 83.207031 C 276.566406 85.335938 274.828125 87.074219 272.699219 87.074219 Z M 292.035156 288.167969 L 288.167969 288.167969 C 286.042969 288.167969 284.300781 286.429688 284.300781 284.300781 C 284.300781 282.175781 286.042969 280.433594 288.167969 280.433594 L 292.035156 280.433594 C 294.164062 280.433594 295.902344 282.175781 295.902344 284.300781 C 295.902344 286.429688 294.164062 288.167969 292.035156 288.167969 Z M 292.035156 272.699219 L 288.167969 272.699219 C 286.042969 272.699219 284.300781 270.960938 284.300781 268.832031 C 284.300781 266.707031 286.042969 264.964844 288.167969 264.964844 L 292.035156 264.964844 C 294.164062 264.964844 295.902344 266.707031 295.902344 268.832031 C 295.902344 270.960938 294.164062 272.699219 292.035156 272.699219 Z M 292.035156 257.230469 L 288.167969 257.230469 C 286.042969 257.230469 284.300781 255.492188 284.300781 253.363281 C 284.300781 251.238281 286.042969 249.496094 288.167969 249.496094 L 292.035156 249.496094 C 294.164062 249.496094 295.902344 251.238281 295.902344 253.363281 C 295.902344 255.492188 294.164062 257.230469 292.035156 257.230469 Z M 292.035156 241.761719 L 288.167969 241.761719 C 286.042969 241.761719 284.300781 240.023438 284.300781 237.894531 C 284.300781 235.769531 286.042969 234.027344 288.167969 234.027344 L 292.035156 234.027344 C 294.164062 234.027344 295.902344 235.769531 295.902344 237.894531 C 295.902344 240.023438 294.164062 241.761719 292.035156 241.761719 Z M 292.035156 226.292969 L 288.167969 226.292969 C 286.042969 226.292969 284.300781 224.554688 284.300781 222.425781 C 284.300781 220.300781 286.042969 218.558594 288.167969 218.558594 L 292.035156 218.558594 C 294.164062 218.558594 295.902344 220.300781 295.902344 222.425781 C 295.902344 224.554688 294.164062 226.292969 292.035156 226.292969 Z M 292.035156 210.824219 L 288.167969 210.824219 C 286.042969 210.824219 284.300781 209.085938 284.300781 206.957031 C 284.300781 204.832031 286.042969 203.089844 288.167969 203.089844 L 292.035156 203.089844 C 294.164062 203.089844 295.902344 204.832031 295.902344 206.957031 C 295.902344 209.085938 294.164062 210.824219 292.035156 210.824219 Z M 292.035156 195.355469 L 288.167969 195.355469 C 286.042969 195.355469 284.300781 193.617188 284.300781 191.488281 C 284.300781 189.363281 286.042969 187.621094 288.167969 187.621094 L 292.035156 187.621094 C 294.164062 187.621094 295.902344 189.363281 295.902344 191.488281 C 295.902344 193.617188 294.164062 195.355469 292.035156 195.355469 Z M 292.035156 179.886719 L 288.167969 179.886719 C 286.042969 179.886719 284.300781 178.148438 284.300781 176.019531 C 284.300781 173.894531 286.042969 172.152344 288.167969 172.152344 L 292.035156 172.152344 C 294.164062 172.152344 295.902344 173.894531 295.902344 176.019531 C 295.902344 178.148438 294.164062 179.886719 292.035156 179.886719 Z M 292.035156 164.417969 L 288.167969 164.417969 C 286.042969 164.417969 284.300781 162.679688 284.300781 160.550781 C 284.300781 158.425781 286.042969 156.683594 288.167969 156.683594 L 292.035156 156.683594 C 294.164062 156.683594 295.902344 158.425781 295.902344 160.550781 C 295.902344 162.679688 294.164062 164.417969 292.035156 164.417969 Z M 292.035156 148.949219 L 288.167969 148.949219 C 286.042969 148.949219 284.300781 147.210938 284.300781 145.082031 C 284.300781 142.957031 286.042969 141.214844 288.167969 141.214844 L 292.035156 141.214844 C 294.164062 141.214844 295.902344 142.957031 295.902344 145.082031 C 295.902344 147.210938 294.164062 148.949219 292.035156 148.949219 Z M 292.035156 133.480469 L 288.167969 133.480469 C 286.042969 133.480469 284.300781 131.742188 284.300781 129.613281 C 284.300781 127.488281 286.042969 125.746094 288.167969 125.746094 L 292.035156 125.746094 C 294.164062 125.746094 295.902344 127.488281 295.902344 129.613281 C 295.902344 131.742188 294.164062 133.480469 292.035156 133.480469 Z M 292.035156 118.011719 L 288.167969 118.011719 C 286.042969 118.011719 284.300781 116.273438 284.300781 114.144531 C 284.300781 112.019531 286.042969 110.277344 288.167969 110.277344 L 292.035156 110.277344 C 294.164062 110.277344 295.902344 112.019531 295.902344 114.144531 C 295.902344 116.273438 294.164062 118.011719 292.035156 118.011719 Z M 292.035156 102.542969 L 288.167969 102.542969 C 286.042969 102.542969 284.300781 100.804688 284.300781 98.675781 C 284.300781 96.550781 286.042969 94.808594 288.167969 94.808594 L 292.035156 94.808594 C 294.164062 94.808594 295.902344 96.550781 295.902344 98.675781 C 295.902344 100.804688 294.164062 102.542969 292.035156 102.542969 Z M 292.035156 87.074219 L 288.167969 87.074219 C 286.042969 87.074219 284.300781 85.335938 284.300781 83.207031 C 284.300781 81.082031 286.042969 79.339844 288.167969 79.339844 L 292.035156 79.339844 C 294.164062 79.339844 295.902344 81.082031 295.902344 83.207031 C 295.902344 85.335938 294.164062 87.074219 292.035156 87.074219 Z M 292.035156 87.074219 " fill-opacity="1" fill-rule="nonzero"/></g><g clip-path="url(#id3)"><path fill="#2b5a7b" d="M 261.097656 116.078125 L 222.425781 116.078125 C 216.046875 116.078125 210.824219 121.300781 210.824219 127.679688 L 210.824219 158.039062 C 210.824219 158.230469 210.824219 158.617188 210.824219 158.8125 L 213.917969 172.347656 C 214.304688 173.894531 214.304688 176.792969 213.917969 178.339844 L 210.824219 193.808594 C 210.824219 194.003906 210.824219 194.390625 210.824219 194.582031 L 210.824219 214.691406 C 213.53125 214.691406 216.046875 215.078125 218.558594 215.660156 L 218.558594 195.164062 L 221.652344 180.082031 C 222.234375 177.375 222.039062 173.507812 221.460938 170.992188 L 218.558594 157.457031 L 218.558594 127.679688 C 218.558594 125.554688 220.300781 123.8125 222.425781 123.8125 L 261.097656 123.8125 C 263.226562 123.8125 264.964844 125.554688 264.964844 127.679688 L 264.964844 303.636719 L 218.558594 303.636719 L 218.558594 275.601562 C 216.046875 276.179688 213.53125 276.566406 210.824219 276.566406 L 210.824219 307.503906 C 210.824219 309.632812 212.566406 311.371094 214.691406 311.371094 L 268.832031 311.371094 C 270.960938 311.371094 272.699219 309.632812 272.699219 307.503906 L 272.699219 127.679688 C 272.699219 121.300781 267.480469 116.078125 261.097656 116.078125 Z M 261.097656 116.078125 " fill-opacity="1" fill-rule="nonzero"/></g></svg>