<svg xmlns="http://www.w3.org/2000/svg" xmlns:xlink="http://www.w3.org/1999/xlink" width="500" zoomAndPan="magnify" viewBox="0 0 375 374.999991" height="500" preserveAspectRatio="xMidYMid meet" version="1.0"><defs><filter x="0%" y="0%" width="100%" height="100%" id="id1"><feColorMatrix values="0 0 0 0 1 0 0 0 0 1 0 0 0 0 1 0 0 0 1 0" color-interpolation-filters="sRGB"/></filter><mask id="id2"><g filter="url(#id1)"><rect x="-37.5" width="450" fill="#000000" y="-37.499999" height="449.999989" fill-opacity="0.5765"/></g></mask><clipPath id="id3"><rect x="0" width="375" y="0" height="375"/></clipPath><clipPath id="id4"><path d="M 82 259 L 294 259 L 294 272.636719 L 82 272.636719 Z M 82 259 " clip-rule="nonzero"/></clipPath><clipPath id="id5"><path d="M 78.621094 255 L 296.484375 255 L 296.484375 262.4375 L 78.621094 262.4375 Z M 78.621094 255 " clip-rule="nonzero"/></clipPath><clipPath id="id6"><path d="M 150 102.449219 L 171 102.449219 L 171 229 L 150 229 Z M 150 102.449219 " clip-rule="nonzero"/></clipPath><clipPath id="id7"><path d="M 207 102.449219 L 229 102.449219 L 229 229 L 207 229 Z M 207 102.449219 " clip-rule="nonzero"/></clipPath><clipPath id="id8"><path d="M 109 102.449219 L 266 102.449219 L 266 110 L 109 110 Z M 109 102.449219 " clip-rule="nonzero"/></clipPath></defs><rect x="-37.5" width="450" fill="#ffffff" y="-37.499999" height="449.999989" fill-opacity="1"/><rect x="-37.5" width="450" fill="#ffffff" y="-37.499999" height="449.999989" fill-opacity="1"/><rect x="-37.5" width="450" fill="#ffffff" y="-37.499999" height="449.999989" fill-opacity="1"/><g mask="url(#id2)"><g transform="matrix(1, 0, 0, 1, 0, 0)"><g clip-path="url(#id3)"><path fill="#d69f50" d="M 187.5 0 C 83.945312 0 0 83.945312 0 187.5 C 0 291.054688 83.945312 375 187.5 375 C 291.054688 375 375 291.054688 375 187.5 C 375 83.945312 291.054688 0 187.5 0 " fill-opacity="1" fill-rule="nonzero"/></g></g></g><g clip-path="url(#id4)"><path fill="#ffffff" d="M 82.027344 259.03125 L 293.074219 259.03125 L 293.074219 272.636719 L 82.027344 272.636719 L 82.027344 259.03125 " fill-opacity="1" fill-rule="nonzero"/></g><g clip-path="url(#id5)"><path fill="#a89e9b" d="M 296.484375 262.4375 L 78.621094 262.4375 L 78.621094 255.621094 L 296.484375 255.621094 L 296.484375 262.4375 " fill-opacity="1" fill-rule="nonzero"/></g><path fill="#075e54" d="M 279.464844 238.605469 L 95.640625 238.605469 L 95.640625 259.03125 L 279.464844 259.03125 L 279.464844 238.605469 " fill-opacity="1" fill-rule="nonzero"/><path fill="#a89e9b" d="M 99.046875 255.621094 L 276.054688 255.621094 L 276.054688 242.003906 L 99.046875 242.003906 Z M 282.875 262.4375 L 92.242188 262.4375 L 92.242188 235.199219 L 282.875 235.199219 L 282.875 262.4375 " fill-opacity="1" fill-rule="nonzero"/><path fill="#ffffff" d="M 276.054688 224.988281 L 99.046875 224.988281 L 99.046875 238.605469 L 276.054688 238.605469 L 276.054688 224.988281 " fill-opacity="1" fill-rule="nonzero"/><path fill="#a89e9b" d="M 102.457031 235.199219 L 272.660156 235.199219 L 272.660156 228.394531 L 102.457031 228.394531 Z M 279.464844 242.003906 L 95.640625 242.003906 L 95.640625 221.59375 L 279.464844 221.59375 L 279.464844 242.003906 " fill-opacity="1" fill-rule="nonzero"/><path fill="#075e54" d="M 112.65625 126.292969 L 99.046875 126.292969 L 99.046875 224.988281 L 112.65625 224.988281 L 112.65625 126.292969 " fill-opacity="1" fill-rule="nonzero"/><path fill="#a89e9b" d="M 102.457031 221.59375 L 109.261719 221.59375 L 109.261719 129.6875 L 102.457031 129.6875 Z M 116.066406 228.394531 L 95.640625 228.394531 L 95.640625 122.886719 L 116.066406 122.886719 L 116.066406 228.394531 " fill-opacity="1" fill-rule="nonzero"/><path fill="#075e54" d="M 167.132812 105.871094 L 153.507812 105.871094 L 153.507812 224.988281 L 167.132812 224.988281 L 167.132812 105.871094 " fill-opacity="1" fill-rule="nonzero"/><g clip-path="url(#id6)"><path fill="#a89e9b" d="M 156.917969 221.59375 L 163.722656 221.59375 L 163.722656 109.265625 L 156.917969 109.265625 Z M 170.527344 228.394531 L 150.101562 228.394531 L 150.101562 102.460938 L 170.527344 102.460938 L 170.527344 228.394531 " fill-opacity="1" fill-rule="nonzero"/></g><path fill="#075e54" d="M 224.992188 105.871094 L 211.378906 105.871094 L 211.378906 224.988281 L 224.992188 224.988281 L 224.992188 105.871094 " fill-opacity="1" fill-rule="nonzero"/><g clip-path="url(#id7)"><path fill="#a89e9b" d="M 214.777344 221.59375 L 221.59375 221.59375 L 221.59375 109.265625 L 214.777344 109.265625 Z M 228.398438 228.394531 L 207.972656 228.394531 L 207.972656 102.460938 L 228.398438 102.460938 L 228.398438 228.394531 " fill-opacity="1" fill-rule="nonzero"/></g><path fill="#075e54" d="M 276.054688 126.292969 L 262.445312 126.292969 L 262.445312 224.988281 L 276.054688 224.988281 L 276.054688 126.292969 " fill-opacity="1" fill-rule="nonzero"/><path fill="#a89e9b" d="M 265.84375 221.59375 L 272.660156 221.59375 L 272.660156 129.6875 L 265.84375 129.6875 Z M 279.464844 228.394531 L 259.039062 228.394531 L 259.039062 122.886719 L 279.464844 122.886719 L 279.464844 228.394531 " fill-opacity="1" fill-rule="nonzero"/><path fill="#a89e9b" d="M 265.84375 197.761719 L 109.261719 197.761719 L 109.261719 190.957031 L 265.84375 190.957031 L 265.84375 197.761719 " fill-opacity="1" fill-rule="nonzero"/><path fill="#a89e9b" d="M 265.84375 163.730469 L 109.261719 163.730469 L 109.261719 156.914062 L 265.84375 156.914062 L 265.84375 163.730469 " fill-opacity="1" fill-rule="nonzero"/><path fill="#a89e9b" d="M 265.84375 129.6875 L 109.261719 129.6875 L 109.261719 122.886719 L 265.84375 122.886719 L 265.84375 129.6875 " fill-opacity="1" fill-rule="nonzero"/><g clip-path="url(#id8)"><path fill="#a89e9b" d="M 265.84375 109.265625 L 109.261719 109.265625 L 109.261719 102.460938 L 265.84375 102.460938 L 265.84375 109.265625 " fill-opacity="1" fill-rule="nonzero"/></g></svg>