<svg xmlns="http://www.w3.org/2000/svg" xmlns:xlink="http://www.w3.org/1999/xlink" width="500" zoomAndPan="magnify" viewBox="0 0 375 374.999991" height="500" preserveAspectRatio="xMidYMid meet" version="1.0"><defs><filter x="0%" y="0%" width="100%" height="100%" id="id1"><feColorMatrix values="0 0 0 0 1 0 0 0 0 1 0 0 0 0 1 0 0 0 1 0" color-interpolation-filters="sRGB"/></filter><mask id="id2"><g filter="url(#id1)"><rect x="-37.5" width="450" fill="#000000" y="-37.499999" height="449.999989" fill-opacity="0.5765"/></g></mask><clipPath id="id3"><rect x="0" width="375" y="0" height="375"/></clipPath><clipPath id="id4"><path d="M 189 85.753906 L 252 85.753906 L 252 124 L 189 124 Z M 189 85.753906 " clip-rule="nonzero"/></clipPath><clipPath id="id5"><path d="M 123 85.753906 L 185 85.753906 L 185 124 L 123 124 Z M 123 85.753906 " clip-rule="nonzero"/></clipPath><clipPath id="id6"><path d="M 255 167 L 317.046875 167 L 317.046875 206 L 255 206 Z M 255 167 " clip-rule="nonzero"/></clipPath><clipPath id="id7"><path d="M 58.296875 167 L 120 167 L 120 206 L 58.296875 206 Z M 58.296875 167 " clip-rule="nonzero"/></clipPath></defs><rect x="-37.5" width="450" fill="#ffffff" y="-37.499999" height="449.999989" fill-opacity="1"/><rect x="-37.5" width="450" fill="#ffffff" y="-37.499999" height="449.999989" fill-opacity="1"/><rect x="-37.5" width="450" fill="#ffffff" y="-37.499999" height="449.999989" fill-opacity="1"/><g mask="url(#id2)"><g transform="matrix(1, 0, 0, 1, 0, 0)"><g clip-path="url(#id3)"><path fill="#d69f50" d="M 187.5 0 C 83.945312 0 0 83.945312 0 187.5 C 0 291.054688 83.945312 375 187.5 375 C 291.054688 375 375 291.054688 375 187.5 C 375 83.945312 291.054688 0 187.5 0 " fill-opacity="1" fill-rule="nonzero"/></g></g></g><path fill="#ffffff" d="M 249.664062 253.472656 L 191.589844 253.472656 L 191.589844 287.042969 L 249.664062 287.042969 L 249.664062 253.472656 " fill-opacity="1" fill-rule="nonzero"/><path fill="#075e54" d="M 249.664062 253.472656 L 249.664062 251.679688 L 191.589844 251.679688 C 191.117188 251.679688 190.65625 251.871094 190.320312 252.207031 C 189.984375 252.539062 189.792969 253.003906 189.792969 253.472656 L 189.792969 287.042969 C 189.792969 287.519531 189.984375 287.980469 190.320312 288.316406 C 190.65625 288.648438 191.117188 288.839844 191.589844 288.839844 L 249.664062 288.839844 C 250.136719 288.839844 250.601562 288.648438 250.9375 288.316406 C 251.269531 287.980469 251.460938 287.519531 251.460938 287.042969 L 251.460938 253.472656 C 251.460938 253.003906 251.269531 252.539062 250.9375 252.207031 C 250.601562 251.871094 250.136719 251.679688 249.664062 251.679688 L 249.664062 253.472656 L 247.863281 253.472656 L 247.863281 285.25 L 193.390625 285.25 L 193.390625 255.269531 L 249.664062 255.269531 L 249.664062 253.472656 L 247.863281 253.472656 L 249.664062 253.472656 " fill-opacity="1" fill-rule="nonzero"/><path fill="#ffffff" d="M 183.105469 253.472656 L 125.03125 253.472656 L 125.03125 287.042969 L 183.105469 287.042969 L 183.105469 253.472656 " fill-opacity="1" fill-rule="nonzero"/><path fill="#075e54" d="M 183.105469 253.472656 L 183.105469 251.679688 L 125.03125 251.679688 C 124.558594 251.679688 124.09375 251.871094 123.757812 252.207031 C 123.425781 252.539062 123.234375 253.003906 123.234375 253.472656 L 123.234375 287.042969 C 123.234375 287.519531 123.425781 287.980469 123.757812 288.316406 C 124.09375 288.648438 124.558594 288.839844 125.03125 288.839844 L 183.105469 288.839844 C 183.582031 288.839844 184.046875 288.648438 184.378906 288.316406 C 184.714844 287.980469 184.90625 287.519531 184.90625 287.042969 L 184.90625 253.472656 C 184.90625 253.003906 184.714844 252.539062 184.378906 252.207031 C 184.046875 251.871094 183.582031 251.679688 183.105469 251.679688 L 183.105469 253.472656 L 181.308594 253.472656 L 181.308594 285.25 L 126.832031 285.25 L 126.832031 255.269531 L 183.105469 255.269531 L 183.105469 253.472656 L 181.308594 253.472656 L 183.105469 253.472656 " fill-opacity="1" fill-rule="nonzero"/><path fill="#ffffff" d="M 191.589844 121.285156 L 249.664062 121.285156 L 249.664062 87.714844 L 191.589844 87.714844 L 191.589844 121.285156 " fill-opacity="1" fill-rule="nonzero"/><g clip-path="url(#id4)"><path fill="#075e54" d="M 191.589844 121.285156 L 191.589844 123.082031 L 249.664062 123.082031 C 250.136719 123.082031 250.601562 122.890625 250.9375 122.554688 C 251.269531 122.222656 251.460938 121.757812 251.460938 121.285156 L 251.460938 87.714844 C 251.460938 87.242188 251.269531 86.78125 250.9375 86.445312 C 250.601562 86.109375 250.136719 85.917969 249.664062 85.917969 L 191.589844 85.917969 C 191.117188 85.917969 190.65625 86.109375 190.320312 86.445312 C 189.984375 86.78125 189.792969 87.242188 189.792969 87.714844 L 189.792969 121.285156 C 189.792969 121.757812 189.984375 122.222656 190.320312 122.554688 C 190.65625 122.890625 191.117188 123.082031 191.589844 123.082031 L 191.589844 121.285156 L 193.390625 121.285156 L 193.390625 89.511719 L 247.863281 89.511719 L 247.863281 119.488281 L 191.589844 119.488281 L 191.589844 121.285156 L 193.390625 121.285156 L 191.589844 121.285156 " fill-opacity="1" fill-rule="nonzero"/></g><path fill="#ffffff" d="M 183.105469 87.714844 L 125.03125 87.714844 L 125.03125 121.285156 L 183.105469 121.285156 L 183.105469 87.714844 " fill-opacity="1" fill-rule="nonzero"/><g clip-path="url(#id5)"><path fill="#075e54" d="M 183.105469 87.714844 L 183.105469 85.917969 L 125.03125 85.917969 C 124.558594 85.917969 124.09375 86.109375 123.757812 86.445312 C 123.425781 86.78125 123.234375 87.242188 123.234375 87.714844 L 123.234375 121.285156 C 123.234375 121.757812 123.425781 122.222656 123.757812 122.554688 C 124.09375 122.890625 124.558594 123.082031 125.03125 123.082031 L 183.105469 123.082031 C 183.582031 123.082031 184.046875 122.890625 184.378906 122.554688 C 184.714844 122.222656 184.90625 121.757812 184.90625 121.285156 L 184.90625 87.714844 C 184.90625 87.242188 184.714844 86.78125 184.378906 86.445312 C 184.046875 86.109375 183.582031 85.917969 183.105469 85.917969 L 183.105469 87.714844 L 181.308594 87.714844 L 181.308594 119.488281 L 126.832031 119.488281 L 126.832031 89.511719 L 183.105469 89.511719 L 183.105469 87.714844 L 181.308594 87.714844 L 183.105469 87.714844 " fill-opacity="1" fill-rule="nonzero"/></g><path fill="#075e54" d="M 191.589844 203.210938 L 249.664062 203.210938 L 249.664062 169.644531 L 191.589844 169.644531 L 191.589844 203.210938 " fill-opacity="1" fill-rule="nonzero"/><path fill="#075e54" d="M 191.589844 203.210938 L 191.589844 205.007812 L 249.664062 205.007812 C 250.136719 205.007812 250.601562 204.816406 250.9375 204.484375 C 251.269531 204.148438 251.460938 203.6875 251.460938 203.210938 L 251.460938 169.644531 C 251.460938 169.171875 251.269531 168.707031 250.9375 168.375 C 250.601562 168.039062 250.136719 167.847656 249.664062 167.847656 L 191.589844 167.847656 C 191.117188 167.847656 190.65625 168.039062 190.320312 168.375 C 189.984375 168.707031 189.792969 169.171875 189.792969 169.644531 L 189.792969 203.210938 C 189.792969 203.6875 189.984375 204.148438 190.320312 204.484375 C 190.65625 204.816406 191.117188 205.007812 191.589844 205.007812 L 191.589844 203.210938 L 193.390625 203.210938 L 193.390625 171.441406 L 247.863281 171.441406 L 247.863281 201.417969 L 191.589844 201.417969 L 191.589844 203.210938 L 193.390625 203.210938 L 191.589844 203.210938 " fill-opacity="1" fill-rule="nonzero"/><path fill="#ffffff" d="M 257.164062 203.210938 L 315.242188 203.210938 L 315.242188 169.644531 L 257.164062 169.644531 L 257.164062 203.210938 " fill-opacity="1" fill-rule="nonzero"/><g clip-path="url(#id6)"><path fill="#075e54" d="M 257.164062 203.210938 L 257.164062 205.007812 L 315.242188 205.007812 C 315.714844 205.007812 316.179688 204.816406 316.515625 204.484375 C 316.847656 204.148438 317.042969 203.6875 317.042969 203.210938 L 317.042969 169.644531 C 317.042969 169.171875 316.847656 168.707031 316.515625 168.375 C 316.179688 168.039062 315.714844 167.847656 315.242188 167.847656 L 257.164062 167.847656 C 256.695312 167.847656 256.230469 168.039062 255.894531 168.375 C 255.558594 168.707031 255.367188 169.171875 255.367188 169.644531 L 255.367188 203.210938 C 255.367188 203.6875 255.558594 204.148438 255.894531 204.484375 C 256.230469 204.816406 256.695312 205.007812 257.164062 205.007812 L 257.164062 203.210938 L 258.964844 203.210938 L 258.964844 171.441406 L 313.441406 171.441406 L 313.441406 201.417969 L 257.164062 201.417969 L 257.164062 203.210938 L 258.964844 203.210938 L 257.164062 203.210938 " fill-opacity="1" fill-rule="nonzero"/></g><path fill="#ffffff" d="M 118.171875 169.644531 L 60.101562 169.644531 L 60.101562 203.210938 L 118.171875 203.210938 L 118.171875 169.644531 " fill-opacity="1" fill-rule="nonzero"/><g clip-path="url(#id7)"><path fill="#075e54" d="M 118.171875 169.644531 L 118.171875 167.847656 L 60.101562 167.847656 C 59.625 167.847656 59.164062 168.039062 58.828125 168.375 C 58.492188 168.707031 58.300781 169.171875 58.300781 169.644531 L 58.300781 203.210938 C 58.300781 203.6875 58.492188 204.148438 58.828125 204.484375 C 59.164062 204.816406 59.625 205.007812 60.101562 205.007812 L 118.171875 205.007812 C 118.644531 205.007812 119.109375 204.816406 119.445312 204.484375 C 119.78125 204.148438 119.972656 203.6875 119.972656 203.210938 L 119.972656 169.644531 C 119.972656 169.171875 119.78125 168.707031 119.445312 168.375 C 119.109375 168.039062 118.644531 167.847656 118.171875 167.847656 L 118.171875 169.644531 L 116.375 169.644531 L 116.375 201.417969 L 61.902344 201.417969 L 61.902344 171.441406 L 118.171875 171.441406 L 118.171875 169.644531 L 116.375 169.644531 L 118.171875 169.644531 " fill-opacity="1" fill-rule="nonzero"/></g><path fill="#075e54" d="M 183.105469 169.644531 L 125.03125 169.644531 L 125.03125 203.210938 L 183.105469 203.210938 L 183.105469 169.644531 " fill-opacity="1" fill-rule="nonzero"/><path fill="#075e54" d="M 183.105469 169.644531 L 183.105469 167.847656 L 125.03125 167.847656 C 124.558594 167.847656 124.09375 168.039062 123.757812 168.375 C 123.425781 168.707031 123.234375 169.171875 123.234375 169.644531 L 123.234375 203.210938 C 123.234375 203.6875 123.425781 204.148438 123.757812 204.484375 C 124.09375 204.816406 124.558594 205.007812 125.03125 205.007812 L 183.105469 205.007812 C 183.582031 205.007812 184.046875 204.816406 184.378906 204.484375 C 184.714844 204.148438 184.90625 203.6875 184.90625 203.210938 L 184.90625 169.644531 C 184.90625 169.171875 184.714844 168.707031 184.378906 168.375 C 184.046875 168.039062 183.582031 167.847656 183.105469 167.847656 L 183.105469 169.644531 L 181.308594 169.644531 L 181.308594 201.417969 L 126.832031 201.417969 L 126.832031 171.441406 L 183.105469 171.441406 L 183.105469 169.644531 L 181.308594 169.644531 L 183.105469 169.644531 " fill-opacity="1" fill-rule="nonzero"/><path fill="#ffffff" d="M 220.621094 213.125 L 162.554688 213.125 L 162.554688 246.695312 L 220.621094 246.695312 L 220.621094 213.125 " fill-opacity="1" fill-rule="nonzero"/><path fill="#075e54" d="M 220.621094 213.125 L 220.621094 211.328125 L 162.554688 211.328125 C 162.082031 211.328125 161.617188 211.519531 161.28125 211.851562 C 160.949219 212.1875 160.753906 212.648438 160.753906 213.125 L 160.753906 246.695312 C 160.753906 247.167969 160.949219 247.628906 161.28125 247.964844 C 161.617188 248.296875 162.082031 248.488281 162.554688 248.488281 L 220.621094 248.488281 C 221.09375 248.488281 221.558594 248.296875 221.894531 247.964844 C 222.230469 247.628906 222.421875 247.167969 222.421875 246.695312 L 222.421875 213.125 C 222.421875 212.648438 222.230469 212.1875 221.894531 211.851562 C 221.558594 211.519531 221.09375 211.328125 220.621094 211.328125 L 220.621094 213.125 L 218.824219 213.125 L 218.824219 244.898438 L 164.355469 244.898438 L 164.355469 214.917969 L 220.621094 214.917969 L 220.621094 213.125 L 218.824219 213.125 L 220.621094 213.125 " fill-opacity="1" fill-rule="nonzero"/><path fill="#075e54" d="M 286.207031 213.125 L 228.125 213.125 L 228.125 246.695312 L 286.207031 246.695312 L 286.207031 213.125 " fill-opacity="1" fill-rule="nonzero"/><path fill="#075e54" d="M 286.207031 213.125 L 286.207031 211.328125 L 228.125 211.328125 C 227.652344 211.328125 227.1875 211.519531 226.851562 211.851562 C 226.515625 212.1875 226.324219 212.648438 226.324219 213.125 L 226.324219 246.695312 C 226.324219 247.167969 226.515625 247.628906 226.851562 247.964844 C 227.1875 248.296875 227.652344 248.488281 228.125 248.488281 L 286.207031 248.488281 C 286.679688 248.488281 287.140625 248.296875 287.476562 247.964844 C 287.8125 247.628906 288.003906 247.167969 288.003906 246.695312 L 288.003906 213.125 C 288.003906 212.648438 287.8125 212.1875 287.476562 211.851562 C 287.140625 211.519531 286.679688 211.328125 286.207031 211.328125 L 286.207031 213.125 L 284.40625 213.125 L 284.40625 244.898438 L 229.925781 244.898438 L 229.925781 214.917969 L 286.207031 214.917969 L 286.207031 213.125 L 284.40625 213.125 L 286.207031 213.125 " fill-opacity="1" fill-rule="nonzero"/><path fill="#075e54" d="M 97.949219 246.695312 L 156.023438 246.695312 L 156.023438 213.125 L 97.949219 213.125 L 97.949219 246.695312 " fill-opacity="1" fill-rule="nonzero"/><path fill="#075e54" d="M 97.949219 246.695312 L 97.949219 248.488281 L 156.023438 248.488281 C 156.496094 248.488281 156.960938 248.296875 157.296875 247.964844 C 157.628906 247.628906 157.824219 247.167969 157.824219 246.695312 L 157.824219 213.125 C 157.824219 212.648438 157.628906 212.1875 157.296875 211.851562 C 156.960938 211.519531 156.496094 211.328125 156.023438 211.328125 L 97.949219 211.328125 C 97.476562 211.328125 97.011719 211.519531 96.679688 211.851562 C 96.339844 212.1875 96.148438 212.648438 96.148438 213.125 L 96.148438 246.695312 C 96.148438 247.167969 96.339844 247.628906 96.679688 247.964844 C 97.011719 248.296875 97.476562 248.488281 97.949219 248.488281 L 97.949219 246.695312 L 99.75 246.695312 L 99.75 214.917969 L 154.222656 214.917969 L 154.222656 244.898438 L 97.949219 244.898438 L 97.949219 246.695312 L 99.75 246.695312 L 97.949219 246.695312 " fill-opacity="1" fill-rule="nonzero"/><path fill="#ffffff" d="M 220.621094 129.359375 L 162.554688 129.359375 L 162.554688 162.949219 L 220.621094 162.949219 L 220.621094 129.359375 " fill-opacity="1" fill-rule="nonzero"/><path fill="#075e54" d="M 220.621094 129.359375 L 220.621094 127.566406 L 162.554688 127.566406 C 162.082031 127.566406 161.617188 127.757812 161.28125 128.09375 C 160.949219 128.425781 160.753906 128.886719 160.753906 129.359375 L 160.753906 162.949219 C 160.753906 163.421875 160.949219 163.882812 161.28125 164.21875 C 161.617188 164.554688 162.082031 164.742188 162.554688 164.742188 L 220.621094 164.742188 C 221.09375 164.742188 221.558594 164.554688 221.894531 164.21875 C 222.230469 163.882812 222.421875 163.417969 222.421875 162.949219 L 222.421875 129.359375 C 222.421875 128.886719 222.230469 128.425781 221.894531 128.09375 C 221.558594 127.757812 221.09375 127.566406 220.621094 127.566406 L 220.621094 129.359375 L 218.824219 129.359375 L 218.824219 161.152344 L 164.355469 161.152344 L 164.355469 131.15625 L 220.621094 131.15625 L 220.621094 129.359375 L 218.824219 129.359375 L 220.621094 129.359375 " fill-opacity="1" fill-rule="nonzero"/><path fill="#075e54" d="M 286.207031 129.359375 L 228.125 129.359375 L 228.125 162.949219 L 286.207031 162.949219 L 286.207031 129.359375 " fill-opacity="1" fill-rule="nonzero"/><path fill="#075e54" d="M 286.207031 129.359375 L 286.207031 127.566406 L 228.125 127.566406 C 227.652344 127.566406 227.1875 127.757812 226.851562 128.09375 C 226.515625 128.425781 226.324219 128.886719 226.324219 129.359375 L 226.324219 162.949219 C 226.324219 163.421875 226.515625 163.882812 226.851562 164.21875 C 227.1875 164.554688 227.652344 164.742188 228.125 164.742188 L 286.207031 164.742188 C 286.679688 164.742188 287.140625 164.554688 287.476562 164.21875 C 287.8125 163.882812 288.003906 163.417969 288.003906 162.949219 L 288.003906 129.359375 C 288.003906 128.886719 287.8125 128.425781 287.476562 128.09375 C 287.140625 127.757812 286.679688 127.566406 286.207031 127.566406 L 286.207031 129.359375 L 284.40625 129.359375 L 284.40625 161.152344 L 229.925781 161.152344 L 229.925781 131.15625 L 286.207031 131.15625 L 286.207031 129.359375 L 284.40625 129.359375 L 286.207031 129.359375 " fill-opacity="1" fill-rule="nonzero"/><path fill="#075e54" d="M 97.949219 162.949219 L 156.023438 162.949219 L 156.023438 129.359375 L 97.949219 129.359375 L 97.949219 162.949219 " fill-opacity="1" fill-rule="nonzero"/><path fill="#075e54" d="M 97.949219 162.949219 L 97.949219 164.742188 L 156.023438 164.742188 C 156.496094 164.742188 156.960938 164.554688 157.296875 164.21875 C 157.628906 163.882812 157.824219 163.417969 157.824219 162.949219 L 157.824219 129.359375 C 157.824219 128.886719 157.628906 128.425781 157.296875 128.09375 C 156.960938 127.757812 156.496094 127.566406 156.023438 127.566406 L 97.949219 127.566406 C 97.476562 127.566406 97.011719 127.757812 96.679688 128.09375 C 96.339844 128.425781 96.148438 128.886719 96.148438 129.359375 L 96.148438 162.949219 C 96.148438 163.421875 96.339844 163.882812 96.679688 164.21875 C 97.011719 164.554688 97.476562 164.742188 97.949219 164.742188 L 97.949219 162.949219 L 99.75 162.949219 L 99.75 131.15625 L 154.222656 131.15625 L 154.222656 161.152344 L 97.949219 161.152344 L 97.949219 162.949219 L 99.75 162.949219 L 97.949219 162.949219 " fill-opacity="1" fill-rule="nonzero"/></svg>