<svg xmlns="http://www.w3.org/2000/svg" xmlns:xlink="http://www.w3.org/1999/xlink" width="500" zoomAndPan="magnify" viewBox="0 0 375 374.999991" height="500" preserveAspectRatio="xMidYMid meet" version="1.0"><defs><filter x="0%" y="0%" width="100%" height="100%" id="id1"><feColorMatrix values="0 0 0 0 1 0 0 0 0 1 0 0 0 0 1 0 0 0 1 0" color-interpolation-filters="sRGB"/></filter><mask id="id2"><g filter="url(#id1)"><rect x="-37.5" width="450" fill="#000000" y="-37.499999" height="449.999989" fill-opacity="0.5765"/></g></mask><clipPath id="id3"><rect x="0" width="375" y="0" height="375"/></clipPath><clipPath id="id4"><path d="M 87.167969 87.167969 L 288 87.167969 L 288 288.167969 L 87.167969 288.167969 Z M 87.167969 87.167969 " clip-rule="nonzero"/></clipPath><clipPath id="id5"><path d="M 90 87.167969 L 167 87.167969 L 167 288.167969 L 90 288.167969 Z M 90 87.167969 " clip-rule="nonzero"/></clipPath><clipPath id="id6"><path d="M 208 87.167969 L 285 87.167969 L 285 288.167969 L 208 288.167969 Z M 208 87.167969 " clip-rule="nonzero"/></clipPath><clipPath id="id7"><path d="M 185 232 L 190 232 L 190 288.167969 L 185 288.167969 Z M 185 232 " clip-rule="nonzero"/></clipPath><clipPath id="id8"><path d="M 187 87.167969 L 189 87.167969 L 189 92 L 187 92 Z M 187 87.167969 " clip-rule="nonzero"/></clipPath></defs><rect x="-37.5" width="450" fill="#ffffff" y="-37.499999" height="449.999989" fill-opacity="1"/><rect x="-37.5" width="450" fill="#ffffff" y="-37.499999" height="449.999989" fill-opacity="1"/><rect x="-37.5" width="450" fill="#ffffff" y="-37.499999" height="449.999989" fill-opacity="1"/><g mask="url(#id2)"><g transform="matrix(1, 0, 0, 1, 0, 0)"><g clip-path="url(#id3)"><path fill="#d69f50" d="M 187.5 0 C 83.945312 0 0 83.945312 0 187.5 C 0 291.054688 83.945312 375 187.5 375 C 291.054688 375 375 291.054688 375 187.5 C 375 83.945312 291.054688 0 187.5 0 " fill-opacity="1" fill-rule="nonzero"/></g></g></g><g clip-path="url(#id4)"><path fill="#075e54" d="M 164.875 87.171875 L 210.390625 87.171875 L 287.625 288.167969 L 87.640625 288.167969 L 164.878906 87.171875 Z M 164.875 87.171875 " fill-opacity="1" fill-rule="nonzero"/></g><g clip-path="url(#id5)"><path fill="#ffffff" d="M 166.921875 87.171875 L 165.683594 87.171875 L 90.394531 288.167969 L 96.121094 288.167969 Z M 166.921875 87.171875 " fill-opacity="1" fill-rule="nonzero"/></g><g clip-path="url(#id6)"><path fill="#ffffff" d="M 209.5625 87.171875 L 208.335938 87.171875 L 279.140625 288.167969 L 284.863281 288.167969 L 209.566406 87.171875 Z M 209.5625 87.171875 " fill-opacity="1" fill-rule="nonzero"/></g><g clip-path="url(#id7)"><path fill="#ffffff" d="M 189.359375 232.878906 L 186.03125 232.878906 L 185.472656 288.167969 L 189.792969 288.167969 Z M 189.359375 232.878906 " fill-opacity="1" fill-rule="nonzero"/></g><path fill="#ffffff" d="M 186.742188 163.765625 L 186.214844 215.871094 L 189.230469 215.871094 L 188.832031 163.765625 Z M 186.742188 163.765625 " fill-opacity="1" fill-rule="nonzero"/><path fill="#ffffff" d="M 188.5 120.097656 L 187.183594 120.097656 L 186.859375 151.351562 L 188.734375 151.351562 Z M 188.5 120.097656 " fill-opacity="1" fill-rule="nonzero"/><path fill="#ffffff" d="M 188.304688 95.484375 L 187.429688 95.484375 L 187.257812 112.253906 L 188.433594 112.253906 Z M 188.304688 95.484375 " fill-opacity="1" fill-rule="nonzero"/><g clip-path="url(#id8)"><path fill="#ffffff" d="M 187.515625 87.171875 L 187.472656 91.574219 L 188.269531 91.574219 L 188.238281 87.171875 Z M 187.515625 87.171875 " fill-opacity="1" fill-rule="nonzero"/></g></svg>