<?xml version="1.0" encoding="utf-8"?>
<svg viewBox="24.309 0 452.626 498.398" xmlns="http://www.w3.org/2000/svg">
  <linearGradient id="SVGID_2_" gradientUnits="userSpaceOnUse" x1="279.4086" y1="780.3384" x2="381.4314" y2="767.8116" gradientTransform="matrix(2.833499, 0, 0, -2.833499, -686.269497, 2442.941117)">
    <stop offset="0" style="stop-color:#000000"/>
    <stop offset="0.0523" style="stop-color:#191309;stop-opacity:0.9129"/>
    <stop offset="0.2001" style="stop-color:#5C4422;stop-opacity:0.6665"/>
    <stop offset="0.3341" style="stop-color:#906B36;stop-opacity:0.4432"/>
    <stop offset="0.4495" style="stop-color:#B68744;stop-opacity:0.2508"/>
    <stop offset="0.5421" style="stop-color:#CD994D;stop-opacity:9.660000e-02"/>
    <stop offset="0.6" style="stop-color:#D69F50;stop-opacity:0"/>
  </linearGradient>
  <path class="st3" d="M 436.929 132.506 L 415.394 98.221 L 380.542 120.039 L 380.542 120.039 L 219.6 220.912 L 115.043 286.366 C 107.11 260.864 106.26 233.378 112.211 206.745 C 121.56 166.508 145.928 131.94 181.064 110.122 C 202.882 96.521 227.25 88.586 252.468 86.887 C 259.269 86.32 274.569 119.756 273.152 119.756 L 278.253 5.849 C 228.666 2.733 180.214 14.916 137.994 41.552 C 84.441 74.987 47.322 127.406 33.156 188.892 C 18.989 250.38 29.755 313.85 63.191 367.12 L 84.725 401.406 L 119.577 379.587 L 119.577 379.587 L 271.169 284.666 L 385.076 213.262 C 404.91 278.431 379.693 351.819 319.055 389.504 C 297.804 402.823 274.287 410.756 249.918 412.739 C 242.267 413.306 226.116 383.271 226.967 383.271 L 221.866 494.061 C 226.967 494.344 232.066 494.628 237.167 494.628 C 281.37 494.628 324.439 482.16 362.407 458.358 C 472.631 388.937 506.066 242.73 436.929 132.506 Z" style="fill: rgb(214, 159, 80);"/>
  <polygon class="st5" points="415.394 97.938 385.076 212.978 84.725 401.122 114.761 286.366" style="fill: url(#SVGID_2_); opacity: 0.67;"/>
</svg>